<svg width="227" height="130" viewBox="0 0 227 130" fill="none" xmlns="http://www.w3.org/2000/svg">
<path d="M24.1508 79.9246H13.3237V101.778H24.1508V79.9246Z" fill="#37474F"/>
<path d="M32.6807 79.9246H28.1631V101.778H32.6807V79.9246Z" fill="#37474F"/>
<path d="M117.199 79.9246H6.43213V101.778H117.199V79.9246Z" fill="#FFC727"/>
<path d="M104.182 79.9246H93.3547V101.778H104.182V79.9246Z" fill="#37474F"/>
<path d="M76.8309 63.615H0V79.9246H76.8309V63.615Z" fill="#455A64"/>
<path d="M110.001 63.615H76.8464V79.9246H110.001V63.615Z" fill="#455A64"/>
<path d="M76.8309 65.2998H0V78.2249H76.8309V65.2998Z" fill="white"/>
<path d="M4.97705 67.9642C10.9649 67.8263 16.9527 67.7192 22.9405 67.6732L40.904 67.5813L58.8674 67.6732C64.8552 67.6732 70.8584 67.8263 76.8462 67.9642C70.8584 68.102 64.8552 68.2092 58.8674 68.2551L40.904 68.347L22.9405 68.2551C16.9527 68.1786 10.9649 68.1785 4.97705 67.9642Z" fill="#DBDBDB"/>
<path d="M4.97705 70.5064C10.9649 70.3532 16.9527 70.2614 22.9405 70.2001L40.904 70.1235L58.8674 70.2001C64.8552 70.2001 70.8584 70.3532 76.8462 70.5064C70.8584 70.6442 64.8552 70.7361 58.8674 70.7974L40.904 70.8892L22.9405 70.7974C16.9476 70.7361 10.9598 70.6391 4.97705 70.5064Z" fill="#DBDBDB"/>
<path d="M4.97705 73.033C10.9649 72.8952 16.9527 72.788 22.9405 72.742L40.904 72.6501L58.8215 72.7726C64.8093 72.7726 70.8124 72.9258 76.8003 73.0636C70.8124 73.2014 64.8093 73.3086 58.8215 73.3546L40.858 73.4465L22.8946 73.3546C16.9527 73.278 10.9649 73.1708 4.97705 73.033Z" fill="#DBDBDB"/>
<path d="M4.97705 75.5755C10.9649 75.4377 16.9527 75.3305 22.9405 75.2846L40.904 75.1926L58.8674 75.2692C64.8552 75.2692 70.8584 75.4223 76.8462 75.5755C70.8584 75.7133 64.8552 75.8205 58.8674 75.8665L40.904 75.9583L22.9405 75.8358C16.9527 75.8358 10.9649 75.7133 4.97705 75.5755Z" fill="#DBDBDB"/>
<path d="M53.3853 22.4045L117.75 22.4045V-1.52588e-05L53.3853 -1.52588e-05V22.4045Z" fill="#455A64"/>
<path d="M25.605 22.4045L53.3848 22.4045V-1.52588e-05L25.605 -1.52588e-05L25.605 22.4045Z" fill="#455A64"/>
<path d="M53.3853 20.0776L117.75 20.0776V2.31326L53.3853 2.31326V20.0776Z" fill="white"/>
<path d="M113.585 16.4173C108.577 16.5704 103.554 16.6623 98.5308 16.7235L83.4923 16.8001L68.4385 16.7235C63.4155 16.7235 58.3925 16.5704 53.3848 16.4173C58.3976 16.2846 63.4155 16.1876 68.4385 16.1263L83.4923 16.0344L98.5308 16.1263C103.554 16.1876 108.572 16.2846 113.585 16.4173Z" fill="#DBDBDB"/>
<path d="M113.585 12.941C108.577 13.0788 103.554 13.186 98.5308 13.2319L83.4923 13.3238L68.4385 13.2319C63.4155 13.2319 58.3925 13.0788 53.3848 12.941C58.3925 12.8031 63.4155 12.6959 68.4385 12.65L83.4923 12.5581L98.5308 12.65C103.554 12.6959 108.577 12.8031 113.585 12.941Z" fill="#DBDBDB"/>
<path d="M113.585 9.44877C108.577 9.60191 103.554 9.69382 98.5308 9.75507H83.4923H68.4385C63.4155 9.75507 58.3925 9.60191 53.3848 9.44877C58.3976 9.31605 63.4155 9.21906 68.4385 9.1578L83.4923 9.06592L98.5308 9.1578C103.554 9.21906 108.572 9.31605 113.585 9.44877Z" fill="#DBDBDB"/>
<path d="M113.585 5.97245C108.577 6.11028 103.554 6.21748 98.5308 6.26342L83.4923 6.35531L68.4385 6.26342C63.4155 6.26342 58.3925 6.11028 53.3848 5.97245C58.3925 5.83463 63.4155 5.72742 68.4385 5.68148L83.4923 5.5896L98.5308 5.68148C103.554 5.72742 108.577 5.83463 113.585 5.97245Z" fill="#DBDBDB"/>
<path d="M108.102 48.4087H6.86084V63.6769H108.102V48.4087Z" fill="#FFC727"/>
<path d="M55.33 51.532H16.3862V60.7051H55.33V51.532Z" fill="white"/>
<path d="M97.3062 22.4045H20.4141V48.3467H97.3062V22.4045Z" fill="#37474F"/>
<path d="M89.1589 22.4045H81.9919V48.3467H89.1589V22.4045Z" fill="#FFC727"/>
<path d="M77.2748 22.4045H74.5029V48.3467H77.2748V22.4045Z" fill="#FFC727"/>
<path d="M62.7878 90.966L176.388 69.71L226.235 101.272L114.55 129.68L62.7878 90.966Z" fill="#455A64"/>
<path d="M69.7405 90.966L117.122 126.525L221.794 99.986L173.585 69.71C173.585 69.71 142.712 71.517 141.257 71.8539C139.803 72.1908 125.943 76.8157 125.943 76.8157C125.943 76.8157 106.785 78.73 105.468 79.0669C104.151 79.4038 69.7405 90.966 69.7405 90.966Z" fill="white"/>
<path d="M125.897 76.8159C129.787 79.695 133.641 82.6097 137.459 85.5603L148.899 94.4884L160.231 103.539C163.978 106.602 167.71 109.665 171.426 112.727C167.557 109.838 163.703 106.918 159.864 103.968L148.424 95.055L137.107 85.9891C133.34 82.9773 129.603 79.9196 125.897 76.8159Z" fill="#DBDBDB"/>
<path d="M80.7056 91.4713C84.3503 90.042 88.0104 88.6638 91.6858 87.3365C95.3612 86.0042 99.0519 84.7331 102.758 83.4621L105.545 82.5585L106.985 82.1297C107.475 82.0225 107.949 81.9766 108.516 81.9L114.335 81.0884C118.21 80.5524 122.1 80.0623 125.974 79.6335C122.125 80.3482 118.281 81.022 114.443 81.655L108.654 82.5892C108.179 82.5892 107.689 82.727 107.214 82.8342C106.74 82.9414 106.311 83.1098 105.851 83.2477L103.079 84.1818L91.9615 87.9032C88.1635 89.1283 84.4422 90.3075 80.7056 91.4713Z" fill="#DBDBDB"/>
<path d="M84.0129 93.7536C87.6577 92.3447 91.3229 90.9715 95.0085 89.6341C98.6686 88.3018 102.375 87.0307 106.065 85.7596L108.868 84.8561C109.342 84.703 109.787 84.5498 110.292 84.4273C110.797 84.3047 111.272 84.2741 111.747 84.1976L117.566 83.3706C121.436 82.85 125.32 82.365 129.22 81.9158C125.376 82.6355 121.563 83.3246 117.673 83.9525L111.9 84.8867C111.41 84.8867 110.92 85.0245 110.46 85.1164C110.001 85.2083 109.542 85.4074 109.082 85.5452L106.295 86.5559L95.1769 90.262C91.4862 91.4105 87.7496 92.6816 84.0129 93.7536Z" fill="#DBDBDB"/>
<path d="M87.3362 96.0509C90.9044 94.6573 94.4726 93.3097 98.0561 92.0233C101.64 90.7369 105.254 89.4658 108.868 88.2254L111.594 87.3218C112.51 86.9912 113.452 86.7401 114.412 86.5714C116.295 86.2652 118.179 85.9742 120.078 85.7445C123.876 85.2238 127.735 84.7644 131.471 84.3662C127.704 85.0605 123.937 85.7139 120.17 86.3264L114.519 87.2606C113.6 87.4373 112.698 87.6935 111.823 88.0263L109.113 88.9451L98.2398 92.5593C94.6257 93.7691 90.9809 94.9176 87.3362 96.0509Z" fill="#DBDBDB"/>
<path d="M90.644 98.3472C94.1663 96.9689 97.6936 95.6417 101.226 94.3655C104.764 93.0638 108.332 91.854 111.946 90.6135C113.753 90.0316 115.484 89.4037 117.382 88.929C119.281 88.4542 121.119 88.3471 122.987 88.102C126.709 87.5967 130.461 87.1526 134.197 86.7544C130.491 87.4384 126.785 88.0867 123.079 88.6993L117.52 89.6181C115.775 90.0622 113.967 90.7667 112.191 91.3333L101.471 94.9168C97.8417 96.096 94.2429 97.2752 90.644 98.3472Z" fill="#DBDBDB"/>
<path d="M94.0442 100.63C97.5358 99.2666 101.058 97.9495 104.58 96.6785C108.103 95.4074 111.655 94.167 115.208 92.9419C117 92.3446 118.731 91.732 120.614 91.242C122.498 90.7519 124.336 90.66 126.204 90.415C129.93 89.9045 133.657 89.4553 137.383 89.0674C133.692 89.7565 129.986 90.3997 126.296 91.0123L120.752 91.9311C119.022 92.4059 117.214 93.0797 115.438 93.6616L104.764 97.2757C101.135 98.3937 97.5511 99.5269 94.0442 100.63Z" fill="#DBDBDB"/>
<path d="M97.2754 102.926C100.767 101.568 104.269 100.251 107.781 98.9752C111.303 97.6888 114.841 96.479 118.378 95.2539C120.155 94.6566 121.885 94.0594 123.769 93.554C125.652 93.0487 127.475 92.9567 129.328 92.7117C133.034 92.2217 136.755 91.7622 140.477 91.3794C136.801 92.0736 133.116 92.722 129.42 93.3243C127.582 93.6306 125.714 93.9062 123.907 94.2431C122.1 94.58 120.384 95.3917 118.623 95.9736L107.903 99.5112C104.402 100.695 100.859 101.834 97.2754 102.926Z" fill="#DBDBDB"/>
<path d="M100.598 105.224C104.044 103.876 107.49 102.574 110.966 101.319C114.442 100.063 117.919 98.853 121.41 97.6432C123.171 97.0459 124.902 96.464 126.709 95.928C128.516 95.392 130.369 95.3307 132.207 95.0704C135.872 94.5804 139.542 94.1414 143.218 93.7534C139.573 94.4426 135.943 95.0704 132.299 95.683C130.492 96.0046 128.623 96.2343 126.877 96.6171C125.132 97 123.401 97.781 121.655 98.3477L111.15 101.87C107.643 103.018 104.121 104.121 100.598 105.224Z" fill="#DBDBDB"/>
<path d="M103.906 107.505C107.352 106.173 110.813 104.856 114.274 103.616C117.735 102.375 121.242 101.15 124.734 99.9403C126.479 99.3277 128.21 98.7611 130.017 98.2251C131.824 97.6891 133.692 97.6279 135.53 97.3522C139.185 96.8621 142.85 96.4283 146.526 96.0505C142.896 96.7397 139.251 97.3675 135.622 97.9801C133.815 98.3017 131.947 98.5161 130.201 98.9143C128.455 99.3124 126.709 100.078 124.963 100.645L114.473 104.152C110.966 105.316 107.444 106.464 103.906 107.505Z" fill="#DBDBDB"/>
<path d="M106.617 110.063C110.109 108.7 113.615 107.368 117.138 106.097C120.66 104.826 124.198 103.585 127.735 102.345C129.496 101.717 131.273 101.15 133.08 100.584C134.887 100.017 136.816 99.9556 138.669 99.68C142.396 99.1797 146.122 98.7356 149.849 98.3477C146.153 99.0419 142.462 99.6902 138.777 100.293C136.939 100.629 135.025 100.829 133.294 101.273L127.98 103.049L117.26 106.633C113.769 107.812 110.2 108.945 106.617 110.063Z" fill="#DBDBDB"/>
<path d="M109.94 112.436C113.416 111.074 116.908 109.726 120.415 108.44C123.922 107.153 127.46 105.928 130.982 104.672C132.743 104.044 134.519 103.478 136.311 102.911C138.103 102.344 140.032 102.268 141.885 101.977C145.591 101.487 149.313 101.027 153.034 100.66C149.359 101.349 145.668 101.977 141.977 102.605C140.17 102.926 138.241 103.125 136.525 103.585L131.227 105.377L120.599 108.976C117.015 110.17 113.493 111.303 109.94 112.436Z" fill="#DBDBDB"/>
<path d="M113.248 114.979C116.617 113.616 120.002 112.283 123.402 111.012C126.801 109.741 130.232 108.486 133.647 107.245C135.347 106.617 137.077 106.035 138.808 105.469C139.236 105.331 139.665 105.178 140.14 105.055C140.615 104.933 141.059 104.887 141.503 104.81L144.198 104.412C147.792 103.922 151.406 103.498 155.041 103.141C151.457 103.83 147.874 104.443 144.321 105.055L141.625 105.499C140.745 105.617 139.881 105.838 139.053 106.158L133.861 107.995C130.431 109.175 127.016 110.415 123.57 111.564C120.124 112.712 116.709 113.845 113.248 114.979Z" fill="#DBDBDB"/>
<path d="M116.571 117.184C120.002 115.959 123.432 114.749 126.893 113.601C130.354 112.452 133.815 111.349 137.276 110.247C139.022 109.696 140.737 109.144 142.559 108.715L147.904 107.643C151.487 106.954 155.071 106.296 158.624 105.714C155.102 106.617 151.564 107.46 148.011 108.271L142.667 109.435C140.967 109.879 139.206 110.477 137.475 110.967C133.983 112.008 130.522 113.126 127.031 114.152C123.539 115.178 120.078 116.127 116.571 117.184Z" fill="#DBDBDB"/>
<path d="M167.827 104.213C171.012 102.886 174.244 101.686 177.521 100.614C178.348 100.354 179.16 100.063 179.987 99.8332C180.827 99.5885 181.681 99.3941 182.544 99.2513L187.613 98.3018L197.782 96.4488C201.166 95.8362 204.566 95.3002 207.95 94.7183C204.596 95.438 201.227 96.2497 197.858 96.8929L187.735 98.9603L182.682 99.9557C181.842 100.097 181.013 100.297 180.201 100.553L177.735 101.303C174.458 102.329 171.166 103.401 167.827 104.213Z" fill="#DBDBDB"/>
<path d="M164.657 101.334C167.812 100.231 170.982 99.2206 174.198 98.2712C177.421 97.3747 180.687 96.6438 183.984 96.0812L193.8 94.2283C197.062 93.6004 200.355 93.0644 203.647 92.4824C200.385 93.2175 197.139 94.0138 193.892 94.6723L184.106 96.7551L179.206 97.7505C177.674 98.1027 176.005 98.5621 174.382 98.9603C171.166 99.8638 167.919 100.645 164.657 101.334Z" fill="#DBDBDB"/>
<path d="M161.594 98.8069C164.657 97.7349 167.873 96.7242 171.074 95.8513C172.605 95.4225 174.244 94.9477 175.898 94.5955L180.798 93.7685L190.599 92.2371C193.861 91.7011 197.154 91.2723 200.416 90.7976C197.169 91.4255 193.938 92.0993 190.676 92.6813L180.921 94.4577L176.051 95.3306L171.258 96.5404C168.057 97.2755 164.826 98.0718 161.594 98.8069Z" fill="#DBDBDB"/>
<path d="M158.945 96.8163C161.976 95.4268 165.079 94.1999 168.241 93.1409C169.041 92.8579 169.867 92.6528 170.707 92.5283L173.187 92.1761L178.119 91.5023C184.724 90.6141 191.33 89.8025 197.935 89.0674C191.365 90.1547 184.796 91.1654 178.21 92.1302L173.279 92.8499L170.814 93.2328C170.016 93.3648 169.231 93.5699 168.471 93.8454C165.316 94.8561 162.161 95.9587 158.945 96.8163Z" fill="#DBDBDB"/>
<path d="M119.879 120.247C123.386 119.098 126.893 117.981 130.415 116.924C133.937 115.867 137.459 114.841 140.997 113.861C142.773 113.34 144.534 112.866 146.341 112.406L151.732 111.212C155.331 110.446 158.93 109.68 162.559 109.037C159.006 110.017 155.438 110.936 151.839 111.824L146.464 113.095L141.165 114.627L130.537 117.567C127.005 118.517 123.452 119.41 119.879 120.247Z" fill="#DBDBDB"/>
<path d="M170.14 106.97C173.677 105.898 177.215 104.857 180.783 103.907C184.351 102.958 187.904 101.978 191.503 101.013C193.295 100.538 195.056 100.094 196.894 99.6651L202.33 98.5931C205.944 97.9039 209.589 97.2454 213.234 96.6482C209.65 97.5517 206.051 98.394 202.514 99.2057L197.093 100.37L191.748 101.732L181.028 104.458C177.338 105.301 173.754 106.143 170.14 106.97Z" fill="#DBDBDB"/>
<path d="M134.443 78.0568L155.04 94.7185C155.04 94.7185 161.931 91.8548 164.412 91.2576C167.582 90.5072 176.664 89.0677 176.664 89.0677L156.235 74.0598C156.235 74.0598 145.959 74.8102 143.616 75.193C140.509 75.9814 137.446 76.9374 134.443 78.0568Z" fill="#DBDBDB"/>
<path d="M178.991 88.3018C181.446 87.7306 183.931 87.296 186.434 87.0001C188.938 86.6781 191.459 86.494 193.984 86.4487C189.061 87.5691 184.038 88.19 178.991 88.3018Z" fill="#DBDBDB"/>
<path d="M175.975 85.8822C178.425 85.3121 180.905 84.8725 183.402 84.5652C185.912 84.2434 188.437 84.0593 190.967 84.0139C188.514 84.5963 186.029 85.036 183.524 85.331C181.02 85.6539 178.499 85.8379 175.975 85.8822Z" fill="#DBDBDB"/>
<path d="M172.943 83.4929C175.398 82.9217 177.882 82.4871 180.385 82.1912C182.89 81.8699 185.41 81.6859 187.935 81.6399C185.487 82.2185 183.007 82.6531 180.508 82.9416C177.998 83.2646 175.473 83.4486 172.943 83.4929Z" fill="#DBDBDB"/>
<path d="M169.925 81.027C172.38 80.4495 174.864 80.0097 177.368 79.71C179.873 79.3876 182.393 79.2036 184.918 79.1587C182.464 79.741 179.979 80.1807 177.475 80.4757C174.971 80.7986 172.45 80.9827 169.925 81.027Z" fill="#DBDBDB"/>
<path d="M166.465 78.8991C168.918 78.3142 171.403 77.8744 173.907 77.5821C176.412 77.2597 178.932 77.0756 181.457 77.0308C179.002 77.6056 176.518 78.0453 174.015 78.3478C171.509 78.6631 168.989 78.8471 166.465 78.8991Z" fill="#DBDBDB"/>
<path d="M163.249 76.4482C165.703 75.877 168.188 75.4424 170.691 75.1465C173.194 74.8094 175.716 74.6254 178.241 74.5952C173.319 75.7156 168.296 76.3364 163.249 76.4482Z" fill="#DBDBDB"/>
<path d="M159.726 74.059C162.175 73.4866 164.655 73.052 167.153 72.7573C169.663 72.4355 172.188 72.2515 174.718 72.2061C169.795 73.3236 164.773 73.9444 159.726 74.059Z" fill="#DBDBDB"/>
</svg>
