<svg width="223" height="174" viewBox="0 0 223 174" fill="none" xmlns="http://www.w3.org/2000/svg">
<path d="M39.5091 128.864L51.353 115.583L51.4742 131.729L47.9045 142.085L83.3921 148.239L84.896 120.238L87.452 98.7533C87.6039 97.4724 87.3274 96.1772 86.6657 95.07C86.004 93.9628 84.9943 93.1059 83.7942 92.633L74.0271 88.7769L60.2552 91.2999L54.7188 93.4042C52.3976 94.2882 50.3284 95.7276 48.6923 97.5964L32.0337 116.646" fill="#F9BD33"/>
<path d="M52.1793 112.387C51.5106 112.378 50.8429 112.331 50.1796 112.244C48.5818 112 47.0932 111.285 45.9047 110.19C44.7161 109.094 43.8817 107.669 43.5085 106.096C43.3714 105.44 43.2702 104.776 43.2055 104.108C43.1608 104.288 43.1441 104.474 43.1559 104.659C43.1518 105.159 43.2035 105.658 43.3102 106.146C43.6437 107.782 44.4834 109.271 45.7104 110.403C46.9373 111.535 48.4893 112.253 50.1466 112.454C50.6416 112.518 51.1421 112.529 51.6395 112.487C51.8236 112.483 52.0059 112.449 52.1793 112.387Z" fill="white"/>
<path d="M51.1492 131.04C51.0665 131.04 51.0445 125.443 51.0996 118.546C51.1547 111.649 51.2703 106.058 51.353 106.058C51.4356 106.058 51.4576 111.649 51.4025 118.552C51.3475 125.454 51.2318 131.04 51.1492 131.04Z" fill="#263238"/>
<path d="M52.4492 135.144L73.8894 126.512C74.737 126.171 75.4723 125.6 76.0125 124.863C76.5528 124.126 76.8763 123.253 76.9468 122.342L78.5168 101.783C78.5168 101.783 78.3295 93.0351 83.7942 92.6109L86.8846 93.8339C90.9005 95.9658 91.8921 101.816 91.3467 106.328C90.57 112.74 90.245 121.819 89.3801 127.382C88.664 131.938 86.0748 135.943 81.6017 137.116L55.1926 142.835L52.4492 135.144Z" fill="#F9BD33"/>
<path d="M78.2084 104.918C78.1725 105.071 78.1504 105.228 78.1423 105.386C78.1092 105.722 78.0596 106.174 78.0046 106.741C77.8944 107.947 77.7401 109.644 77.5528 111.726C77.3655 113.809 77.1562 116.348 76.9138 119.125C76.8587 119.824 76.7981 120.535 76.7375 121.262C76.695 122.002 76.6029 122.738 76.4621 123.466C76.3126 124.201 75.9393 124.873 75.3934 125.388C74.806 125.905 74.1379 126.322 73.4157 126.622C67.5048 129.178 62.0566 131.294 58.1013 132.776L53.4023 134.505L52.1243 134.974C51.9748 135.023 51.8293 135.084 51.6891 135.155C51.845 135.127 51.998 135.084 52.1463 135.029L53.4409 134.61C54.5426 134.235 56.1953 133.679 58.1674 132.957C62.1503 131.525 67.604 129.443 73.5369 126.898C74.2873 126.582 74.9813 126.147 75.5917 125.609C76.1776 125.052 76.5777 124.329 76.7375 123.537C76.8797 122.799 76.9699 122.052 77.0075 121.301C77.0681 120.568 77.1231 119.857 77.1782 119.158C77.3931 116.403 77.5914 113.869 77.7291 111.754C77.8668 109.639 78.0046 107.969 78.0927 106.763C78.1313 106.212 78.1588 105.738 78.1753 105.402C78.2003 105.242 78.2114 105.08 78.2084 104.918Z" fill="#263238"/>
<path d="M90.4929 116.095C90.4708 116.185 90.4579 116.277 90.4544 116.37L90.3827 117.164C90.3166 117.896 90.234 118.882 90.1293 120.083C90.0247 121.284 89.8594 122.777 89.6446 124.397C89.4338 126.151 89.1118 127.889 88.6805 129.602C88.4777 130.485 88.1236 131.325 87.6338 132.087C87.1554 132.786 86.6192 133.444 86.0308 134.053C85.0282 135.085 83.8702 135.953 82.5988 136.626C81.4136 137.228 80.1427 137.645 78.8308 137.86C78.9241 137.872 79.0185 137.872 79.1118 137.86C79.3782 137.842 79.6431 137.807 79.905 137.755C80.8741 137.575 81.8126 137.258 82.6925 136.813C83.9997 136.155 85.1905 135.288 86.2181 134.246C86.8272 133.63 87.3802 132.961 87.8707 132.247C88.3851 131.464 88.7581 130.597 88.9725 129.685C89.4097 127.959 89.7281 126.205 89.9255 124.435C90.1238 122.783 90.256 121.339 90.3442 120.105C90.4323 118.871 90.4819 117.869 90.5094 117.175C90.5094 116.855 90.5094 116.591 90.5094 116.376C90.5189 116.282 90.5133 116.187 90.4929 116.095Z" fill="#263238"/>
<path d="M81.3264 130.478C81.2701 130.077 81.1373 129.69 80.9353 129.338C80.4935 128.46 79.8811 127.679 79.1338 127.041C78.3866 126.402 77.5195 125.919 76.5833 125.62C76.2038 125.475 75.7996 125.405 75.3935 125.416C75.754 125.566 76.1217 125.698 76.4952 125.812C77.3808 126.155 78.2022 126.645 78.9246 127.261C79.6452 127.879 80.2578 128.612 80.737 129.432C81.1226 130.065 81.2823 130.495 81.3264 130.478Z" fill="#263238"/>
<path d="M77.1066 114.844C77.0598 114.858 77.0153 114.879 76.9744 114.905L76.5887 115.109C76.0915 115.354 75.5801 115.569 75.0573 115.753C73.1296 116.43 71.0622 116.608 69.0472 116.271C66.0543 115.737 63.3804 114.075 61.5773 111.627C60.4996 110.213 59.8239 108.535 59.6217 106.769C59.5216 105.84 59.6193 104.902 59.9081 104.014C60.2129 103.108 60.7438 102.295 61.4506 101.651C62.1473 100.999 63.0248 100.572 63.9681 100.428C64.415 100.348 64.8743 100.37 65.3113 100.493C65.7483 100.616 66.1517 100.837 66.4911 101.139C66.7986 101.44 66.9764 101.849 66.9869 102.279C66.9774 102.707 66.8307 103.12 66.5683 103.458C66.2947 103.784 65.9591 104.053 65.5809 104.249C65.2026 104.445 64.7892 104.563 64.3647 104.598C62.873 104.784 61.3584 104.592 59.9599 104.041C58.5614 103.489 57.3238 102.596 56.3605 101.442C55.6303 100.543 55.0803 99.5128 54.7409 98.4062C54.4877 97.5676 54.3505 96.6983 54.3333 95.8226C54.3272 95.2692 54.3677 94.7164 54.4545 94.1699C54.4875 93.9991 54.515 93.8559 54.5316 93.7457C54.5363 93.6963 54.5363 93.6465 54.5316 93.597C54.3039 94.309 54.1923 95.0531 54.201 95.8005C54.1954 96.6893 54.3179 97.5743 54.5646 98.4282C55.178 100.486 56.5019 102.26 58.3006 103.433C60.0993 104.606 62.2561 105.103 64.3868 104.835C64.8417 104.795 65.2842 104.665 65.6889 104.453C66.0935 104.242 66.4523 103.952 66.7445 103.601C67.0437 103.216 67.21 102.744 67.2183 102.257C67.2178 101.756 67.0199 101.275 66.6674 100.918C66.2973 100.588 65.8575 100.345 65.3807 100.207C64.9039 100.07 64.4022 100.042 63.913 100.125C62.9111 100.273 61.9787 100.725 61.2413 101.419C60.4954 102.093 59.9374 102.95 59.6217 103.904C59.3217 104.827 59.2204 105.803 59.3242 106.769C59.5392 108.573 60.2377 110.286 61.3459 111.726C62.8752 113.813 65.0459 115.342 67.526 116.078C70.0062 116.814 72.6592 116.717 75.0793 115.803C75.7943 115.574 76.476 115.252 77.1066 114.844Z" fill="white"/>
<path d="M91.1539 109.363C91.0609 109.198 90.9419 109.049 90.8014 108.922C90.4493 108.55 90.0619 108.212 89.6445 107.914C88.2382 106.948 86.6025 106.369 84.9015 106.234C83.9682 106.129 83.0244 106.168 82.103 106.35C81.3541 106.505 80.6297 106.761 79.9491 107.11C79.4922 107.34 79.0539 107.605 78.638 107.903C78.477 108.002 78.3321 108.124 78.2083 108.267C78.2413 108.311 78.8804 107.826 80.0372 107.292C81.5452 106.593 83.2177 106.326 84.8684 106.521C86.526 106.651 88.1262 107.187 89.5288 108.08C90.592 108.79 91.1154 109.402 91.1539 109.363Z" fill="white"/>
<path d="M87.7219 94.6602C87.1993 95.1525 86.6162 95.5764 85.9867 95.9217C85.2992 96.2742 84.5518 96.4947 83.7831 96.5718C82.8474 96.6657 81.9028 96.5334 81.0288 96.1862C80.1719 95.8208 79.416 95.2538 78.8252 94.5335C78.3376 93.9326 77.9642 93.2474 77.7235 92.5118C77.5255 91.8212 77.4126 91.1089 77.3875 90.3909C77.3339 90.5808 77.3097 90.7777 77.3158 90.9749C77.3066 91.5152 77.379 92.0537 77.5307 92.5724C77.7553 93.3465 78.1296 94.0689 78.6324 94.6988C79.2363 95.4889 80.0387 96.1049 80.9579 96.4842C81.8772 96.8635 82.8805 96.9925 83.8658 96.8582C84.6646 96.7678 85.4377 96.5207 86.1409 96.1311C86.6143 95.8712 87.0453 95.5405 87.4189 95.1505C87.5492 95.0071 87.6519 94.8409 87.7219 94.6602Z" fill="white"/>
<path d="M69.0361 128.468C69.0351 128.331 69.0204 128.194 68.9921 128.06C68.9151 127.677 68.7872 127.307 68.6119 126.958C67.9115 125.675 66.7739 124.686 65.4058 124.171C63.3923 123.37 61.1639 123.29 59.0983 123.945C57.9635 124.281 56.6634 124.7 55.793 125.807C55.5741 126.09 55.436 126.426 55.3933 126.782C55.3506 127.137 55.405 127.497 55.5506 127.823C55.8831 128.46 56.4207 128.967 57.0766 129.261C57.7097 129.574 58.4031 129.747 59.1093 129.768C59.8104 129.802 60.501 129.587 61.0594 129.162C61.3172 128.942 61.5273 128.671 61.677 128.367C61.8267 128.063 61.9127 127.732 61.9298 127.393C61.9659 126.761 61.8663 126.128 61.6378 125.537C60.8077 123.529 59.2265 121.924 57.2308 121.064C55.9067 120.474 54.4563 120.224 53.0111 120.337C52.4849 120.377 51.9662 120.486 51.4686 120.662C51.4686 120.7 52.0195 120.518 53.0221 120.447C54.2193 120.382 55.4172 120.562 56.5425 120.976C57.6678 121.39 58.6968 122.029 59.5665 122.854C60.3741 123.628 61.0038 124.568 61.412 125.609C61.6257 126.165 61.7177 126.76 61.6819 127.355C61.666 127.656 61.5883 127.951 61.4537 128.221C61.3192 128.491 61.1306 128.731 60.8996 128.925C60.396 129.312 59.7712 129.507 59.1368 129.476C58.4746 129.458 57.8241 129.297 57.2308 129.002C56.6319 128.735 56.1394 128.275 55.8316 127.696C55.7075 127.415 55.6615 127.105 55.6983 126.8C55.7351 126.495 55.8535 126.205 56.0409 125.961C56.4252 125.476 56.9176 125.087 57.4787 124.826C58.0228 124.566 58.5887 124.354 59.1699 124.193C61.181 123.542 63.3541 123.598 65.3287 124.353C66.667 124.837 67.7935 125.774 68.5128 127.002C68.7513 127.465 68.9273 127.958 69.0361 128.468Z" fill="white"/>
<path d="M83.3149 136.207C83.3149 136.152 82.4997 136.086 81.2602 135.657C79.642 135.087 78.1924 134.121 77.0434 132.847C75.8945 131.573 75.0829 130.031 74.6827 128.363C74.3687 127.085 74.3797 126.253 74.3246 126.259C74.286 126.449 74.2767 126.644 74.2971 126.837C74.3097 127.365 74.3724 127.891 74.4844 128.407C74.8414 130.129 75.6515 131.725 76.8309 133.029C78.0104 134.333 79.5166 135.299 81.1941 135.827C81.6963 135.991 82.2127 136.107 82.7365 136.174C82.9267 136.213 83.1215 136.224 83.3149 136.207Z" fill="white"/>
<path d="M90.2671 120.226C90.1856 120.181 90.0986 120.146 90.0082 120.122C89.8319 120.067 89.5785 119.99 89.2424 119.901C88.2888 119.651 87.3019 119.55 86.3173 119.604C85.6335 119.656 84.9632 119.821 84.3341 120.094C83.6014 120.41 82.9636 120.911 82.4832 121.549C81.9558 122.271 81.7002 123.157 81.7615 124.05C81.7969 124.524 81.9421 124.985 82.1857 125.394C82.4323 125.825 82.8221 126.156 83.2875 126.33C83.5328 126.414 83.7959 126.431 84.0503 126.381C84.3046 126.331 84.5412 126.214 84.7363 126.044C85.0669 125.679 85.2462 125.203 85.2376 124.711C85.266 123.833 85.0926 122.96 84.7308 122.16C84.228 121.02 83.3587 120.08 82.2608 119.49C81.163 118.9 79.8995 118.694 78.6711 118.904C78.407 118.945 78.147 119.01 77.8943 119.097C77.7236 119.163 77.6354 119.202 77.6409 119.213C77.6465 119.224 78.01 119.097 78.6876 119.015C79.6452 118.899 80.6166 119.024 81.5136 119.378C82.8426 119.911 83.9062 120.949 84.4718 122.265C84.8083 123.029 84.9683 123.859 84.9401 124.694C84.9518 125.115 84.802 125.525 84.5214 125.84C84.3634 125.974 84.1732 126.065 83.9694 126.104C83.7656 126.143 83.5553 126.128 83.3591 126.06C82.951 125.909 82.6082 125.621 82.3895 125.245C82.1703 124.874 82.0384 124.457 82.0039 124.028C81.9461 123.2 82.1779 122.378 82.6594 121.703C83.1067 121.096 83.705 120.618 84.3947 120.315C84.9975 120.041 85.6417 119.87 86.3008 119.808C87.2641 119.736 88.2328 119.805 89.1763 120.012C89.887 120.149 90.2561 120.249 90.2671 120.226Z" fill="white"/>
<path opacity="0.3" d="M58.6135 132.693C60.9052 131.398 63.1473 130.401 65.5436 129.316C67.9399 128.231 70.2922 126.826 71.8622 124.711C74.8204 120.722 74.4843 114.966 77.5087 111.032C77.3104 113.677 77.1139 116.323 76.9192 118.97C76.7374 121.394 77.1065 123.796 75.5475 125.443C74.2309 126.832 71.6638 127.895 69.8459 128.495C66.1936 129.702 62.2603 131.492 58.6135 132.693Z" fill="black"/>
<path d="M21.33 162.909C21.33 162.909 3.3879 167.866 2.66625 168.131C1.5645 168.511 1.76833 172.472 3.44851 172.406C4.24728 172.378 17.2205 172.89 18.8731 172.791C20.5257 172.692 25.4836 170.737 25.4836 170.737L21.33 162.909Z" fill="#F9BD33"/>
<path d="M13.8768 169.756C13.6551 169.097 13.3901 168.452 13.0835 167.828C12.6973 167.25 12.2741 166.698 11.8165 166.175C12.4549 166.525 12.9847 167.043 13.3481 167.674C13.7115 168.304 13.8944 169.023 13.8768 169.75V169.756Z" fill="#263238"/>
<path d="M15.7498 168.908C15.6616 168.908 15.4798 168.076 15.0006 167.139C14.5213 166.203 13.9594 165.547 14.02 165.487C14.5437 165.894 14.9704 166.413 15.2695 167.006C15.5686 167.598 15.7326 168.25 15.7498 168.913V168.908Z" fill="#263238"/>
<path d="M17.474 168.439C17.386 167.797 17.246 167.164 17.0554 166.544C16.7741 165.96 16.4481 165.398 16.0803 164.864C16.6492 165.247 17.0875 165.795 17.3365 166.434C17.5856 167.073 17.6336 167.772 17.474 168.439Z" fill="#263238"/>
<path d="M17.1821 166.12C17.024 165.695 16.9583 165.24 16.9893 164.787C16.995 164.293 17.056 163.802 17.1711 163.322C17.2401 163.038 17.3304 162.76 17.441 162.49C17.493 162.319 17.5923 162.166 17.7275 162.049C17.8181 161.982 17.9293 161.949 18.0419 161.955C18.1545 161.961 18.2615 162.006 18.3445 162.082C18.4836 162.216 18.5681 162.397 18.5813 162.589C18.595 162.747 18.595 162.905 18.5813 163.063C18.5797 163.358 18.5427 163.652 18.4712 163.939C18.352 164.419 18.1666 164.881 17.9203 165.31C17.723 165.724 17.4502 166.098 17.116 166.412C17.0719 166.412 17.3749 165.966 17.733 165.233C17.9423 164.809 18.0995 164.362 18.2012 163.9C18.2593 163.63 18.2888 163.355 18.2894 163.079C18.2894 162.804 18.2894 162.462 18.1241 162.33C18.0917 162.301 18.0495 162.284 18.0057 162.284C17.9619 162.284 17.9197 162.301 17.8872 162.33C17.7977 162.418 17.7298 162.526 17.6889 162.644C17.5834 162.903 17.4933 163.168 17.419 163.437C17.2928 163.895 17.2135 164.363 17.1821 164.837C17.1491 165.608 17.2317 166.115 17.1821 166.12Z" fill="#263238"/>
<path d="M17.2041 165.938C17.5696 165.786 17.9659 165.722 18.3609 165.751C18.7898 165.751 19.2171 165.803 19.6335 165.905C19.89 165.964 20.1381 166.054 20.3716 166.175C20.5186 166.25 20.6373 166.37 20.7098 166.518C20.7824 166.667 20.8048 166.834 20.7738 166.996C20.7326 167.151 20.6513 167.292 20.5381 167.405C20.425 167.518 20.2839 167.599 20.1292 167.641C19.8652 167.707 19.5889 167.707 19.3249 167.641C18.9004 167.544 18.5019 167.356 18.1571 167.09C17.8306 166.871 17.5483 166.593 17.3253 166.269C17.6566 166.463 17.975 166.678 18.2783 166.913C18.6115 167.142 18.9855 167.305 19.38 167.393C19.5988 167.448 19.8278 167.448 20.0466 167.393C20.1501 167.367 20.2448 167.314 20.3212 167.239C20.3976 167.165 20.453 167.071 20.4818 166.969C20.4986 166.868 20.4818 166.764 20.434 166.673C20.3863 166.583 20.3102 166.51 20.2174 166.467C20.0128 166.355 19.7942 166.269 19.5673 166.214C19.172 166.101 18.7657 166.031 18.3554 166.005C17.6558 165.916 17.2151 165.988 17.2041 165.938Z" fill="#263238"/>
<path d="M11.1223 169.949C11.0454 169.4 10.9257 168.859 10.7642 168.329C10.5124 167.837 10.2194 167.367 9.88834 166.924C10.4109 167.209 10.8191 167.666 11.0439 168.217C11.2687 168.768 11.2964 169.38 11.1223 169.949Z" fill="#263238"/>
<path d="M23.6382 170.781C23.4209 170.918 23.1878 171.029 22.9441 171.111C22.2929 171.358 21.6269 171.564 20.9499 171.728C18.6999 172.219 16.3991 172.437 14.097 172.378C11.4087 172.345 8.98481 172.224 7.22751 172.152L5.15071 172.042C4.89558 172.038 4.64128 172.012 4.39049 171.965C4.64366 171.925 4.90033 171.912 5.15622 171.926H7.23302L14.097 172.059C16.3779 172.117 18.6585 171.932 20.9003 171.508C22.6191 171.161 23.6161 170.72 23.6382 170.781Z" fill="#263238"/>
<path d="M24.167 171.188C24.167 171.227 23.6547 170.94 22.8228 170.577C21.766 170.078 20.5899 169.887 19.4294 170.026C18.2882 170.273 17.258 170.884 16.4933 171.767C16.175 172.143 15.8308 172.496 15.4631 172.824C15.6995 172.386 15.9941 171.982 16.339 171.623C16.6927 171.212 17.0918 170.843 17.5289 170.522C18.0764 170.116 18.713 169.848 19.3854 169.739C20.603 169.592 21.8364 169.825 22.9165 170.406C23.3728 170.598 23.7951 170.862 24.167 171.188Z" fill="#263238"/>
<path d="M40.3959 157.956C40.3959 157.956 57.374 169.073 57.98 169.525C58.8944 170.213 57.8478 173.502 56.2612 172.935C55.512 172.665 41.2663 168.698 39.7349 168.103C38.2034 167.508 34.0774 164.17 34.0774 164.17L40.3959 157.956Z" fill="#F9BD33"/>
<path d="M45.4365 166.748C45.6413 166.049 46.0343 165.42 46.5725 164.929C47.1108 164.439 47.7735 164.106 48.4884 163.966C47.8914 164.324 47.3191 164.722 46.7752 165.156C46.2963 165.658 45.8492 166.19 45.4365 166.748Z" fill="#263238"/>
<path d="M43.9162 165.371C44.1322 164.742 44.4848 164.169 44.9486 163.693C45.4125 163.217 45.9761 162.849 46.599 162.617C46.643 162.694 45.8993 163.167 45.1667 163.895C44.434 164.622 43.9933 165.415 43.9162 165.371Z" fill="#263238"/>
<path d="M42.3847 164.39C42.387 163.697 42.6506 163.03 43.1229 162.523C43.5176 161.963 44.1068 161.57 44.7755 161.421C44.2645 161.82 43.784 162.257 43.3377 162.727C42.9765 163.255 42.6578 163.811 42.3847 164.39Z" fill="#263238"/>
<path d="M43.3652 162.281C43.3212 162.281 43.5525 161.801 43.7453 161.008C43.8613 160.548 43.9296 160.077 43.9492 159.603C43.9681 159.325 43.9681 159.045 43.9492 158.766C43.9512 158.64 43.9188 158.516 43.8555 158.408C43.8317 158.37 43.7942 158.344 43.751 158.333C43.7078 158.323 43.6623 158.33 43.6241 158.353C43.4313 158.43 43.3322 158.76 43.2385 159.025C43.1577 159.287 43.1023 159.556 43.0733 159.829C43.0307 160.301 43.0455 160.777 43.1173 161.245C43.233 162.049 43.3928 162.539 43.3487 162.556C43.1217 162.162 42.9722 161.728 42.908 161.278C42.8023 160.795 42.7652 160.3 42.7978 159.807C42.8199 159.512 42.8735 159.22 42.9576 158.937C43.0029 158.785 43.0581 158.636 43.1228 158.491C43.1963 158.31 43.3336 158.163 43.5085 158.077C43.6106 158.03 43.7262 158.02 43.835 158.049C43.9438 158.078 44.0388 158.145 44.1034 158.237C44.1945 158.39 44.2422 158.566 44.2411 158.744C44.3018 159.529 44.212 160.318 43.9767 161.069C43.8608 161.511 43.6524 161.924 43.3652 162.281Z" fill="#263238"/>
<path d="M43.4259 162.099C43.4259 162.143 43.0072 161.945 42.3241 161.774C41.9249 161.678 41.517 161.623 41.1067 161.609C40.8726 161.593 40.6374 161.607 40.4071 161.653C40.3057 161.667 40.2114 161.713 40.1381 161.784C40.0647 161.855 40.0162 161.948 39.9995 162.049C39.9948 162.159 40.0194 162.267 40.0707 162.364C40.1221 162.461 40.1982 162.542 40.2914 162.6C40.4809 162.719 40.6963 162.791 40.9194 162.809C41.322 162.849 41.7284 162.808 42.1148 162.688C42.4739 162.554 42.842 162.445 43.2166 162.363C42.9057 162.611 42.5505 162.798 42.1699 162.914C41.7611 163.071 41.3231 163.136 40.8864 163.107C40.6146 163.093 40.3511 163.009 40.1206 162.865C39.9843 162.781 39.8731 162.662 39.7984 162.52C39.7238 162.379 39.6886 162.22 39.6965 162.06C39.7159 161.896 39.7882 161.743 39.9025 161.624C40.0168 161.504 40.1669 161.426 40.33 161.399C40.5881 161.353 40.8512 161.342 41.1122 161.366C41.5406 161.395 41.9641 161.474 42.3737 161.603C42.758 161.685 43.118 161.855 43.4259 162.099Z" fill="#263238"/>
<path d="M54.1018 172.323C54.1018 172.351 53.8154 172.152 53.6832 171.668C53.5512 171.034 53.6655 170.374 54.0027 169.822C54.1659 169.527 54.35 169.243 54.5536 168.974C54.7192 168.744 54.9135 168.537 55.132 168.357C55.2885 168.227 55.4806 168.149 55.6829 168.131C55.8261 168.131 55.8977 168.158 55.8977 168.175C55.8977 168.192 55.5947 168.203 55.2807 168.522C55.0955 168.709 54.9311 168.916 54.7904 169.139C54.5928 169.405 54.409 169.681 54.2396 169.965C53.9352 170.46 53.8035 171.041 53.865 171.618C53.9296 171.858 54.0087 172.093 54.1018 172.323Z" fill="#263238"/>
<path d="M48.0036 167.767C47.9808 167.469 48.0226 167.17 48.1263 166.889C48.2299 166.609 48.3929 166.354 48.604 166.142C48.7736 165.896 48.9952 165.69 49.2532 165.538C49.5111 165.387 49.7992 165.294 50.0969 165.266C49.6467 165.586 49.2246 165.943 48.8354 166.335C48.5183 166.788 48.2401 167.267 48.0036 167.767Z" fill="#263238"/>
<path d="M35.8237 164.76C36.0877 164.906 36.3384 165.076 36.5729 165.266C37.2458 165.733 37.9447 166.162 38.6663 166.55C39.7341 167.116 40.8383 167.611 41.9715 168.032C43.2606 168.511 44.7259 168.963 46.2243 169.403C49.2817 170.285 52.0471 171.089 54.0413 171.69L56.4156 172.433C56.7086 172.511 56.9943 172.614 57.2694 172.742C56.9692 172.701 56.6726 172.636 56.3825 172.549L53.9972 171.882C51.9865 171.331 49.2156 170.56 46.1582 169.679C44.6323 169.233 43.1834 168.77 41.8944 168.274C40.7472 167.838 39.6333 167.319 38.5616 166.721C37.8418 166.313 37.1532 165.853 36.5013 165.343C36.2597 165.168 36.033 164.973 35.8237 164.76Z" fill="#263238"/>
<path d="M35.1957 164.985C35.6525 164.784 36.1374 164.654 36.6335 164.6C37.8404 164.376 39.0869 164.53 40.2032 165.04C40.8067 165.356 41.3246 165.814 41.7126 166.374C42.0321 166.815 42.3001 167.292 42.5114 167.795C42.7323 168.241 42.8899 168.716 42.9796 169.205C42.7302 168.78 42.5094 168.338 42.3186 167.883C41.8592 166.807 41.0626 165.91 40.049 165.327C38.9826 164.847 37.8028 164.677 36.6445 164.837C35.7631 164.908 35.2067 165.029 35.1957 164.985Z" fill="#263238"/>
<path d="M5.11217 130.847C5.11217 130.847 0.0165482 132.665 2.28882e-05 138.378C-0.0440483 149.313 22.1013 161.372 22.1013 161.372L51.5733 141.849L53.4187 141.099C53.4187 141.099 13.6177 126.159 5.11217 130.847Z" fill="#263238"/>
<path d="M36.6445 151.709C36.3732 151.559 36.1152 151.386 35.8733 151.191C35.394 150.839 34.7054 150.321 33.8626 149.665C32.1714 148.365 29.8798 146.514 27.4063 144.394C24.9329 142.273 22.7624 140.284 21.2199 138.813C20.4487 138.08 19.8317 137.474 19.4076 137.05C19.1785 136.844 18.9683 136.617 18.7795 136.373C19.0331 136.55 19.2709 136.749 19.4902 136.968L21.3632 138.659C22.9442 140.086 25.1367 142.052 27.6046 144.168C30.0726 146.283 32.3422 148.156 33.9893 149.5L35.9449 151.098C36.194 151.283 36.428 151.487 36.6445 151.709Z" fill="#455A64"/>
<path d="M13.4306 134.935C15.3579 134.731 17.2874 135.3 18.7961 136.516C18.7466 136.599 17.6944 135.91 16.185 135.48C14.6756 135.051 13.4306 135.029 13.4306 134.935Z" fill="#455A64"/>
<path d="M15.97 133.211C16.6518 133.5 17.2518 133.953 17.7169 134.53C18.1819 135.106 18.4977 135.788 18.6362 136.516C18.5481 136.516 18.2286 135.629 17.4849 134.72C16.7412 133.811 15.9204 133.288 15.97 133.211Z" fill="#455A64"/>
<path d="M3.49278 167.85C3.49278 167.817 3.84535 167.745 4.253 168.081C4.7333 168.529 5.03476 169.136 5.10135 169.789C5.19794 170.431 5.10608 171.088 4.83693 171.679C4.62759 172.125 4.39622 172.334 4.36868 172.312C4.44133 172.067 4.53155 171.828 4.63862 171.596C4.83149 171.029 4.88811 170.426 4.80387 169.833C4.73841 169.243 4.49651 168.686 4.10976 168.236C3.79576 167.911 3.48727 167.9 3.49278 167.85Z" fill="#263238"/>
<path d="M11.8936 112.971L22.3878 139.579L67.5764 140.317L68.4137 137.871L52.5759 137.298L44.9628 113.693L11.8936 112.971Z" fill="#455A64"/>
<path d="M32.9977 124.507C32.6507 124.333 32.2608 124.262 31.8748 124.304C31.4888 124.346 31.1232 124.499 30.8218 124.744C30.5659 124.984 30.3886 125.297 30.3129 125.639C30.2372 125.982 30.2668 126.34 30.3976 126.666C30.5391 126.992 30.769 127.271 31.061 127.472C31.3531 127.674 31.6958 127.79 32.0502 127.807C32.4233 127.83 32.7941 127.732 33.1062 127.526C33.4184 127.321 33.6549 127.019 33.78 126.666C33.898 126.272 33.888 125.851 33.7514 125.463C33.6148 125.075 33.3586 124.74 33.0198 124.507" fill="#EBEBEB"/>
<path d="M19.3139 162.705C19.3139 162.705 60.9493 135.392 62.646 134.825C64.3427 134.257 68.4743 131.558 72.5893 132.693C76.7044 133.828 80.4063 137.524 82.2517 142.923C83.3094 146.008 83.8052 151.268 84.0421 155.218C84.3577 159.941 82.8271 164.603 79.7728 168.219C78.4198 169.907 76.6226 171.183 74.5835 171.904C74.1483 172.042 73.6966 172.158 73.2339 172.257C65.3618 173.965 57.2584 170.428 52.8514 163.696L51.8818 162.22C51.8818 162.22 24.6409 172.224 24.2167 172.086L19.3139 162.705Z" fill="#263238"/>
<path d="M70.821 155.185C70.7476 155.222 70.6722 155.255 70.5952 155.284L69.9121 155.554L67.2734 156.573L57.4622 160.27C53.2976 161.823 48.3066 163.674 42.7042 165.713C37.1018 167.751 30.8989 169.982 24.2663 172.224L24.1506 172.268L24.09 172.152L20.8343 165.938L19.1817 162.771L19.1211 162.65L19.2368 162.578L50.9949 142.416L60.5362 136.4L63.1253 134.781L63.8029 134.368C63.9571 134.274 64.0397 134.235 64.0397 134.235L63.8194 134.395L63.1583 134.83L60.5967 136.483L51.0776 142.592L19.369 162.831L19.4241 162.633C19.9474 163.641 20.5259 164.715 21.0767 165.801L24.3269 172.015L24.1451 171.943C30.7557 169.706 36.9806 167.481 42.5885 165.459L57.3686 160.083L67.2348 156.458L69.8901 155.488L70.5842 155.246L70.821 155.185Z" fill="#455A64"/>
<path d="M66.5021 58.2031C65.7914 56.2805 64.2214 55.4487 62.2327 54.9694C61.2325 54.7367 60.1908 54.7488 59.1962 55.0049C58.2017 55.261 57.2836 55.7534 56.5201 56.4403C55.512 57.3603 54.7739 58.6438 53.5289 59.1947C51.4741 60.1257 48.8464 58.765 46.9183 59.9053C46.3391 60.2465 45.896 60.7778 45.6643 61.4088C45.4326 62.0398 45.4266 62.7316 45.6473 63.3665C45.868 64.0015 46.3019 64.5404 46.8751 64.8916C47.4482 65.2428 48.1254 65.3846 48.7913 65.2929C47.4527 65.9209 47.2048 67.9371 48.1248 69.094C49.0447 70.2508 50.7469 70.5648 52.1737 70.1627C53.5801 69.6782 54.8276 68.8192 55.782 67.6782C56.7846 66.5764 57.666 65.3921 58.7567 64.3729C59.8037 63.3092 61.1929 62.6498 62.679 62.511C64.6786 62.4338 66.5351 63.7835 67.5763 65.4857C68.6174 67.1879 69.0196 69.2096 69.3115 71.1928C69.6035 73.176 69.8239 75.1922 70.5896 77.0431C70.6777 77.2635 70.8099 77.5004 71.0358 77.5499C71.3718 77.6216 71.6142 77.2525 71.7464 76.9385C73.2538 73.4006 74.0512 69.601 74.0932 65.7556C74.1207 63.5521 73.8673 61.4423 72.4846 59.696C71.1019 57.9497 67.9123 56.8645 66.5186 58.1755" fill="#263238"/>
<path d="M71.1957 67.0887L74.2586 89.3332C74.3814 90.2315 74.3201 91.1454 74.0785 92.0192C73.8368 92.8931 73.4198 93.7086 72.853 94.4162C72.2861 95.1238 71.5811 95.7086 70.781 96.135C69.9809 96.5615 69.1024 96.8206 68.199 96.8967C66.4886 97.0455 64.7865 96.5308 63.4452 95.4591C62.1038 94.3875 61.226 92.8411 60.9935 91.1401C60.7676 89.4874 60.5748 88.0717 60.5363 87.9009C60.5363 87.9009 54.8016 88.1488 53.6227 82.6015C53.0718 79.9187 52.3282 74.2997 51.7277 69.2096C51.4248 66.5755 52.1233 63.9238 53.6847 61.7808C55.246 59.6378 57.556 58.1602 60.1561 57.6412L60.707 57.5365C66.5739 56.6992 70.5402 61.2164 71.1957 67.0887Z" fill="#FFBE9D"/>
<path d="M60.5416 87.8238C63.1201 87.3506 65.4997 86.1215 67.3781 84.2927C67.3781 84.2927 66.4636 88.6336 60.8171 89.2506L60.5416 87.8238Z" fill="#F9BD33"/>
<path d="M54.1239 72.614C54.1628 72.8214 54.2816 73.0051 54.4547 73.1257C54.6279 73.2463 54.8414 73.294 55.0494 73.2586C55.1518 73.2471 55.2509 73.2151 55.3407 73.1645C55.4305 73.1138 55.5091 73.0455 55.5719 72.9637C55.6346 72.8819 55.6802 72.7883 55.7059 72.6885C55.7316 72.5886 55.7369 72.4846 55.7214 72.3827C55.6838 72.1743 55.5655 71.9892 55.3922 71.8675C55.219 71.7458 55.0047 71.6974 54.796 71.7327C54.6933 71.7448 54.5941 71.7774 54.5042 71.8287C54.4144 71.8799 54.3358 71.9487 54.2731 72.0309C54.2104 72.1131 54.1649 72.2071 54.1393 72.3073C54.1136 72.4075 54.1084 72.5118 54.1239 72.614Z" fill="#263238"/>
<path d="M53.4959 71.6996C53.6171 71.7878 54.1294 71.2204 54.9832 71.0496C55.8371 70.8788 56.5532 71.1873 56.6359 71.0496C56.7185 70.9119 56.5312 70.8292 56.2172 70.686C55.7987 70.4999 55.3318 70.4516 54.8841 70.5483C54.4393 70.6334 54.0337 70.8594 53.7272 71.1928C53.4904 71.4572 53.4408 71.6666 53.4959 71.6996Z" fill="#263238"/>
<path d="M62.5633 71.2259C62.6009 71.4342 62.7192 71.6193 62.8925 71.741C63.0657 71.8627 63.28 71.9112 63.4888 71.8759C63.5913 71.863 63.6903 71.8299 63.78 71.7785C63.8697 71.7272 63.9484 71.6585 64.0114 71.5765C64.0744 71.4946 64.1205 71.4009 64.1471 71.301C64.1737 71.2011 64.1803 71.097 64.1663 70.9945C64.1248 70.7882 64.0057 70.6056 63.8334 70.4847C63.6612 70.3637 63.449 70.3135 63.2409 70.3445C63.138 70.3567 63.0386 70.3893 62.9485 70.4405C62.8585 70.4916 62.7795 70.5603 62.7164 70.6424C62.6533 70.7246 62.6072 70.8185 62.5809 70.9187C62.5546 71.0189 62.5486 71.1233 62.5633 71.2259Z" fill="#263238"/>
<path d="M61.9298 70.1847C62.051 70.2674 62.5633 69.7 63.4172 69.5292C64.2711 69.3584 64.9872 69.6669 65.0698 69.5292C65.1525 69.3915 64.9652 69.3088 64.6512 69.1656C64.2319 68.9824 63.7659 68.9343 63.318 69.0279C62.8735 69.118 62.4676 69.343 62.1557 69.6724C61.9243 69.9699 61.8748 70.1462 61.9298 70.1847Z" fill="#263238"/>
<path d="M60.0955 77.1313C59.617 77.0779 59.1337 77.0872 58.6577 77.1588C58.4318 77.1588 58.217 77.1588 58.1509 77.0321C58.0809 76.8136 58.0809 76.5786 58.1509 76.36C58.25 75.8092 58.3547 75.1922 58.4649 74.5642C58.889 72.0191 59.148 69.9478 59.0488 69.9313C58.9496 69.9148 58.4979 71.964 58.0958 74.5091C57.9966 75.1371 57.8975 75.732 57.8093 76.3049C57.7231 76.5965 57.7446 76.9093 57.8699 77.1864C57.9166 77.256 57.9787 77.314 58.0512 77.356C58.1238 77.398 58.2049 77.4229 58.2886 77.4287C58.4147 77.4466 58.5426 77.4466 58.6687 77.4287C59.1548 77.3894 59.6341 77.2895 60.0955 77.1313Z" fill="#263238"/>
<path d="M62.7287 77.2304C62.5854 77.2304 62.7727 78.1779 62.1117 78.9932C61.4506 79.8085 60.459 79.9077 60.459 80.0399C60.459 80.1721 60.7124 80.1721 61.1311 80.1005C61.6767 79.9999 62.1698 79.7115 62.5248 79.2852C62.8612 78.8722 63.025 78.3453 62.9821 77.8144C62.938 77.4177 62.7892 77.2084 62.7287 77.2304Z" fill="#263238"/>
<path d="M61.0429 66.8739C61.1696 67.0942 62.0014 66.8133 63.0315 66.7307C64.0617 66.648 64.921 66.7637 65.0147 66.5268C65.0532 66.4167 64.8659 66.2294 64.4969 66.0696C64.0071 65.8763 63.4787 65.8008 62.9544 65.8493C62.427 65.8895 61.9169 66.0557 61.467 66.334C61.131 66.5544 60.9933 66.7747 61.0429 66.8739Z" fill="#263238"/>
<path d="M53.3195 69.1656C53.5068 69.3309 54.0522 69.0114 54.7628 68.8571C55.4735 68.7029 56.096 68.7304 56.1896 68.499C56.2337 68.3889 56.1015 68.2126 55.7985 68.0804C55.4039 67.9249 54.9707 67.896 54.559 67.9977C54.1437 68.0853 53.7673 68.3034 53.4848 68.6202C53.281 68.8681 53.2314 69.083 53.3195 69.1656Z" fill="#263238"/>
<path d="M71.5646 71.2975C71.6527 71.2369 75.1618 69.4025 75.8009 73.2311C76.4399 77.0597 72.4625 76.9109 72.4405 76.8007C72.4185 76.6906 71.5646 71.2975 71.5646 71.2975Z" fill="#FFBE9D"/>
<path d="M73.3661 75.1536C73.3661 75.1536 73.4377 75.1922 73.5589 75.2252C73.729 75.2659 73.9083 75.2403 74.0602 75.1536C74.2833 74.9569 74.4491 74.7036 74.5402 74.4205C74.6314 74.1374 74.6444 73.8349 74.578 73.545C74.5339 73.2142 74.4152 72.8978 74.231 72.6196C74.1788 72.5053 74.1001 72.4053 74.0014 72.3276C73.9027 72.25 73.7869 72.1971 73.6636 72.1734C73.5829 72.1666 73.5024 72.1882 73.436 72.2345C73.3697 72.2807 73.3215 72.3487 73.3 72.4267C73.2669 72.5369 73.3 72.6141 73.3 72.6196C73.3 72.6251 73.2063 72.57 73.2118 72.4102C73.2177 72.3122 73.2565 72.219 73.322 72.1458C73.3667 72.0964 73.421 72.0567 73.4817 72.0292C73.5423 72.0017 73.608 71.987 73.6746 71.9861C73.8362 71.9908 73.994 72.0368 74.1329 72.1197C74.2717 72.2026 74.387 72.3197 74.4678 72.4598C74.6867 72.7648 74.8285 73.1183 74.881 73.49C74.9857 74.2667 74.7102 75.0544 74.1814 75.3023C74.0835 75.3497 73.9761 75.3742 73.8674 75.3742C73.7586 75.3742 73.6513 75.3497 73.5534 75.3023C73.3881 75.2472 73.3551 75.1646 73.3661 75.1536Z" fill="#F9BD33"/>
<path d="M50.3504 68.3172C51.6449 68.387 52.9375 68.1488 54.1221 67.6221C55.3067 67.0954 56.3494 66.2953 57.1647 65.2874C58.2665 63.8661 58.9992 62.0096 60.5912 61.1503C61.1395 60.8805 61.7358 60.7221 62.3457 60.6843C62.9556 60.6465 63.567 60.7299 64.1444 60.9299C65.2937 61.3408 66.3472 61.9819 67.2403 62.8139C66.7335 65.8548 68.0832 68.8736 69.3998 71.628C69.5132 71.9529 69.7324 72.2302 70.0223 72.4157C70.5401 72.6747 71.1571 72.267 71.4711 71.7767C71.9111 70.9549 72.1025 70.0227 72.0219 69.0939C72.0102 66.9775 71.5795 64.8843 70.7549 62.9351C69.9176 60.9802 68.5251 59.3138 66.75 58.1425C64.4733 56.7523 61.746 56.3001 59.1424 56.881C56.5537 57.4832 54.2199 58.8842 52.4713 60.8859C51.6192 61.773 51.0003 62.8575 50.6699 64.0424" fill="#263238"/>
<path d="M164.405 108.871L146.994 89.3469L146.816 113.082L152.064 128.307L99.896 137.352L97.6852 96.1898L93.9278 64.6074C93.7045 62.7244 94.111 60.8206 95.0837 59.193C96.0565 57.5654 97.5408 56.3056 99.3049 55.6105L113.663 49.9418L133.908 53.6507L142.046 56.7442C145.459 58.0436 148.5 60.1595 150.906 62.9068L175.394 90.9099" fill="#EB5757"/>
<path d="M145.78 84.65C146.763 84.6366 147.744 84.5663 148.719 84.4394C151.068 84.0811 153.256 83.0294 155.003 81.4192C156.751 79.8091 157.977 77.7138 158.526 75.402C158.727 74.4364 158.876 73.4605 158.971 72.4786C159.037 72.7432 159.062 73.0164 159.044 73.2884C159.05 74.0234 158.974 74.7568 158.817 75.4749C158.327 77.8795 157.093 80.0689 155.289 81.733C153.485 83.3972 151.204 84.4517 148.768 84.7472C148.04 84.8412 147.304 84.8575 146.573 84.7958C146.303 84.7901 146.035 84.7409 145.78 84.65Z" fill="white"/>
<path d="M147.294 112.07C147.415 112.07 147.448 103.842 147.367 93.7036C147.286 83.5649 147.116 75.3454 146.994 75.3454C146.873 75.3454 146.841 83.5649 146.922 93.7117C147.002 103.859 147.173 112.07 147.294 112.07Z" fill="#263238"/>
<path d="M145.383 118.103L113.865 105.413C112.619 104.912 111.538 104.072 110.744 102.989C109.95 101.906 109.474 100.622 109.371 99.2832L107.063 69.0613C107.063 69.0613 107.338 56.2016 99.3049 55.578L94.7619 57.3758C88.8584 60.5097 87.4008 69.1098 88.2025 75.7421C89.3443 85.1683 89.8221 98.5139 91.0935 106.693C92.1462 113.39 95.9523 119.277 102.528 121.002L141.35 129.408L145.383 118.103Z" fill="#EB5757"/>
<path d="M107.516 73.6691C107.569 73.8952 107.601 74.1256 107.613 74.3575C107.662 74.8514 107.735 75.5155 107.816 76.3496C107.978 78.1231 108.205 80.6172 108.48 83.6783C108.755 86.7394 109.063 90.4726 109.419 94.554C109.5 95.5825 109.589 96.6271 109.678 97.696C109.741 98.7836 109.876 99.8657 110.083 100.935C110.303 102.017 110.852 103.004 111.654 103.761C112.518 104.521 113.5 105.134 114.562 105.575C123.251 109.333 131.26 112.443 137.074 114.621L143.982 117.164L145.86 117.852C146.08 117.925 146.294 118.014 146.5 118.119C146.271 118.077 146.046 118.015 145.828 117.933L143.925 117.318C142.305 116.767 139.876 115.949 136.977 114.888C131.122 112.783 123.105 109.722 114.383 105.98C113.28 105.517 112.26 104.877 111.363 104.085C110.502 103.268 109.913 102.205 109.678 101.041C109.469 99.9552 109.337 98.8566 109.282 97.7527C109.193 96.6757 109.112 95.631 109.031 94.6026C108.715 90.5536 108.423 86.8285 108.221 83.7188C108.018 80.6092 107.816 78.1555 107.686 76.382C107.63 75.5722 107.589 74.8757 107.565 74.3818C107.528 74.1461 107.512 73.9076 107.516 73.6691Z" fill="#263238"/>
<path d="M89.4576 90.1C89.4902 90.2327 89.5091 90.3684 89.5143 90.5049L89.6196 91.671C89.7168 92.7481 89.8382 94.1976 89.9921 95.963C90.146 97.7284 90.3889 99.9229 90.7047 102.304C91.0146 104.882 91.488 107.438 92.1219 109.956C92.42 111.254 92.9406 112.489 93.6605 113.609C94.3639 114.636 95.1521 115.603 96.017 116.5C97.4909 118.016 99.1933 119.292 101.062 120.281C102.804 121.167 104.673 121.779 106.601 122.095C106.464 122.113 106.325 122.113 106.188 122.095C105.797 122.069 105.407 122.018 105.022 121.942C103.598 121.676 102.218 121.21 100.924 120.557C99.0029 119.59 97.2523 118.315 95.7417 116.783C94.8463 115.877 94.0333 114.893 93.3123 113.843C92.5561 112.693 92.0079 111.418 91.6927 110.078C91.0499 107.54 90.5819 104.962 90.2917 102.36C90.0002 99.931 89.8058 97.8093 89.6763 95.9954C89.5467 94.1814 89.4738 92.7076 89.4333 91.6872C89.4333 91.2175 89.4333 90.8288 89.4333 90.513C89.4194 90.3749 89.4276 90.2355 89.4576 90.1Z" fill="#263238"/>
<path d="M102.933 111.244C103.015 110.654 103.211 110.085 103.508 109.568C104.157 108.277 105.057 107.129 106.156 106.19C107.254 105.252 108.529 104.542 109.905 104.102C110.463 103.889 111.057 103.787 111.654 103.802C111.124 104.023 110.584 104.217 110.035 104.385C108.733 104.889 107.525 105.609 106.463 106.515C105.404 107.423 104.504 108.501 103.799 109.705C103.232 110.637 102.997 111.268 102.933 111.244Z" fill="#263238"/>
<path d="M109.136 88.2617C109.205 88.2819 109.27 88.312 109.33 88.3508L109.897 88.6505C110.628 89.0106 111.38 89.327 112.148 89.5979C114.982 90.5923 118.021 90.8541 120.983 90.3591C125.383 89.5743 129.314 87.1307 131.964 83.5325C133.549 81.4541 134.542 78.9863 134.839 76.39C134.986 75.0257 134.843 73.6458 134.418 72.341C133.97 71.0089 133.19 69.8132 132.151 68.8669C131.126 67.9082 129.836 67.2816 128.45 67.0692C127.793 66.9515 127.118 66.9844 126.475 67.1653C125.833 67.3463 125.24 67.6706 124.741 68.1138C124.289 68.5564 124.027 69.1578 124.012 69.7901C124.026 70.4188 124.242 71.0264 124.627 71.5231C125.03 72.003 125.523 72.3983 126.079 72.6861C126.635 72.9738 127.243 73.1483 127.867 73.1994C130.06 73.4727 132.286 73.1911 134.342 72.3804C136.398 71.5697 138.217 70.2558 139.633 68.5592C140.707 67.239 141.515 65.7239 142.014 64.0972C142.386 62.8645 142.588 61.5866 142.613 60.2992C142.622 59.4858 142.563 58.6731 142.435 57.8698C142.386 57.6187 142.346 57.4082 142.322 57.2462C142.315 57.1735 142.315 57.1003 142.322 57.0276C142.656 58.0743 142.82 59.168 142.808 60.2668C142.816 61.5734 142.636 62.8743 142.273 64.1296C141.371 67.155 139.425 69.7622 136.781 71.4869C134.137 73.2116 130.966 73.9419 127.834 73.5476C127.166 73.4886 126.515 73.2979 125.92 72.9866C125.325 72.6753 124.798 72.2495 124.368 71.7336C123.928 71.1677 123.684 70.4743 123.672 69.7577C123.673 69.0208 123.963 68.3138 124.482 67.7899C125.026 67.304 125.672 66.9469 126.373 66.7451C127.074 66.5432 127.812 66.5017 128.531 66.6238C130.004 66.842 131.374 67.5062 132.458 68.5268C133.555 69.5176 134.375 70.7761 134.839 72.179C135.28 73.5362 135.429 74.9712 135.276 76.39C134.96 79.0428 133.934 81.5609 132.304 83.6782C130.056 86.7458 126.865 88.9926 123.219 90.0748C119.574 91.157 115.674 91.0151 112.116 89.6708C111.065 89.3344 110.063 88.8606 109.136 88.2617Z" fill="white"/>
<path d="M88.486 80.2042C88.6227 79.9617 88.7977 79.7429 89.0042 79.5563C89.5218 79.0084 90.0913 78.5121 90.7048 78.0744C92.7721 76.6538 95.1767 75.802 97.6773 75.6044C99.0491 75.4501 100.437 75.5074 101.791 75.7745C102.892 76.0032 103.957 76.3791 104.957 76.8921C105.629 77.2305 106.273 77.6203 106.885 78.0581C107.121 78.2031 107.334 78.3833 107.516 78.5926C107.468 78.6574 106.528 77.9448 104.828 77.1593C102.611 76.1313 100.152 75.7388 97.7258 76.0256C95.2892 76.2179 92.9368 77.0048 90.8749 78.3173C89.312 79.3619 88.5426 80.2608 88.486 80.2042Z" fill="white"/>
<path d="M93.5311 58.5905C94.2995 59.3142 95.1566 59.9373 96.082 60.445C97.0925 60.9631 98.1913 61.2873 99.3212 61.4006C100.697 61.5386 102.085 61.3441 103.37 60.8337C104.63 60.2965 105.741 59.4631 106.609 58.4043C107.326 57.5209 107.875 56.5136 108.229 55.4323C108.52 54.4171 108.686 53.37 108.723 52.3145C108.802 52.5936 108.837 52.8831 108.828 53.1729C108.842 53.9672 108.735 54.7589 108.513 55.5214C108.182 56.6593 107.632 57.7213 106.893 58.6472C106.005 59.8086 104.826 60.7142 103.474 61.2718C102.123 61.8293 100.648 62.0191 99.1998 61.8216C98.0255 61.6886 96.889 61.3254 95.8553 60.7527C95.1593 60.3707 94.5257 59.8846 93.9765 59.3112C93.785 59.1004 93.634 58.8561 93.5311 58.5905Z" fill="white"/>
<path d="M121 108.288C121.001 108.087 121.023 107.886 121.064 107.689C121.178 107.127 121.366 106.582 121.623 106.069C122.653 104.183 124.325 102.729 126.336 101.972C129.296 100.795 132.572 100.678 135.609 101.64C137.277 102.134 139.188 102.749 140.467 104.377C140.789 104.793 140.992 105.288 141.055 105.81C141.118 106.332 141.038 106.861 140.824 107.341C140.335 108.278 139.545 109.022 138.58 109.454C137.65 109.915 136.63 110.169 135.592 110.199C134.562 110.249 133.546 109.934 132.726 109.309C132.347 108.985 132.038 108.588 131.818 108.141C131.598 107.694 131.471 107.207 131.446 106.709C131.393 105.779 131.539 104.849 131.875 103.98C133.096 101.028 135.42 98.6687 138.354 97.4045C140.3 96.5372 142.432 96.1697 144.557 96.3355C145.33 96.3943 146.093 96.555 146.824 96.8133C146.824 96.87 146.015 96.6028 144.541 96.4975C142.781 96.402 141.02 96.6666 139.366 97.2751C137.711 97.8835 136.199 98.8231 134.92 100.036C133.733 101.173 132.807 102.555 132.207 104.085C131.893 104.903 131.758 105.778 131.811 106.652C131.834 107.095 131.948 107.529 132.146 107.926C132.344 108.323 132.621 108.675 132.96 108.96C133.701 109.529 134.619 109.816 135.552 109.77C136.525 109.745 137.482 109.507 138.354 109.074C139.234 108.681 139.958 108.006 140.411 107.155C140.593 106.741 140.661 106.286 140.607 105.837C140.552 105.388 140.378 104.962 140.103 104.604C139.538 103.89 138.814 103.319 137.989 102.935C137.19 102.553 136.358 102.241 135.503 102.004C132.547 101.047 129.352 101.13 126.45 102.239C124.482 102.951 122.826 104.329 121.769 106.134C121.418 106.815 121.16 107.539 121 108.288Z" fill="white"/>
<path d="M100.009 119.666C100.009 119.585 101.208 119.488 103.03 118.856C105.409 118.018 107.54 116.598 109.229 114.726C110.918 112.853 112.111 110.587 112.699 108.134C113.161 106.256 113.144 105.033 113.225 105.041C113.282 105.321 113.296 105.607 113.266 105.891C113.247 106.668 113.155 107.44 112.991 108.199C112.466 110.731 111.275 113.076 109.541 114.993C107.807 116.911 105.593 118.331 103.127 119.107C102.389 119.348 101.63 119.518 100.86 119.617C100.58 119.675 100.294 119.691 100.009 119.666Z" fill="white"/>
<path d="M89.7897 96.1735C89.9095 96.1063 90.0374 96.0546 90.1703 96.0197C90.4294 95.9387 90.8019 95.8253 91.2959 95.6958C92.6977 95.3269 94.1486 95.1793 95.596 95.2585C96.6011 95.3344 97.5865 95.578 98.5113 95.9792C99.5883 96.4437 100.526 97.1805 101.232 98.1171C102.008 99.1795 102.383 100.481 102.293 101.794C102.241 102.492 102.028 103.168 101.67 103.769C101.307 104.403 100.734 104.891 100.05 105.146C99.6892 105.269 99.3024 105.295 98.9286 105.221C98.5547 105.147 98.2069 104.976 97.9201 104.725C97.4341 104.189 97.1705 103.489 97.1832 102.765C97.1414 101.475 97.3963 100.192 97.9282 99.0159C98.6673 97.3396 99.9452 95.9581 101.559 95.0911C103.173 94.224 105.03 93.9209 106.836 94.23C107.224 94.2903 107.606 94.3852 107.978 94.5134C108.229 94.6106 108.359 94.6673 108.35 94.6835C108.342 94.6997 107.808 94.5134 106.812 94.392C105.404 94.2216 103.976 94.4053 102.657 94.9264C100.704 95.7103 99.1403 97.236 98.3088 99.1698C97.8143 100.293 97.579 101.514 97.6205 102.741C97.6033 103.36 97.8235 103.963 98.236 104.425C98.4682 104.623 98.7478 104.757 99.0474 104.814C99.347 104.87 99.6562 104.848 99.9446 104.749C100.545 104.528 101.048 104.104 101.37 103.551C101.692 103.005 101.886 102.393 101.937 101.761C102.022 100.545 101.681 99.3367 100.973 98.3438C100.316 97.4525 99.4361 96.7489 98.4222 96.3031C97.5361 95.9008 96.5892 95.649 95.6203 95.5581C94.2041 95.4524 92.7802 95.5534 91.3931 95.8577C90.3484 96.0602 89.8059 96.2059 89.7897 96.1735Z" fill="white"/>
<path opacity="0.3" d="M136.321 114.499C132.952 112.596 129.656 111.131 126.134 109.535C122.611 107.94 119.153 105.875 116.845 102.765C112.497 96.9024 112.991 88.4399 108.545 82.6579C108.836 86.545 109.125 90.4347 109.411 94.3272C109.679 97.8903 109.136 101.421 111.428 103.842C113.363 105.883 117.137 107.446 119.809 108.329C125.178 110.102 130.96 112.734 136.321 114.499Z" fill="black"/>
<path d="M191.129 158.917C191.129 158.917 217.504 166.205 218.565 166.594C220.185 167.153 219.885 172.975 217.415 172.878C216.241 172.838 197.17 173.591 194.741 173.445C192.311 173.299 185.023 170.425 185.023 170.425L191.129 158.917Z" fill="#EB5757"/>
<path d="M202.085 168.983C202.411 168.014 202.801 167.067 203.251 166.149C203.819 165.3 204.441 164.488 205.114 163.719C204.176 164.233 203.397 164.995 202.862 165.922C202.328 166.849 202.059 167.905 202.085 168.975V168.983Z" fill="#263238"/>
<path d="M199.332 167.736C199.461 167.736 199.729 166.513 200.433 165.137C201.138 163.76 201.964 162.796 201.875 162.707C201.105 163.307 200.478 164.069 200.038 164.94C199.598 165.811 199.357 166.769 199.332 167.744V167.736Z" fill="#263238"/>
<path d="M196.797 167.048C196.927 166.104 197.132 165.172 197.413 164.262C197.826 163.403 198.305 162.577 198.846 161.792C198.01 162.355 197.365 163.16 196.999 164.099C196.633 165.039 196.563 166.067 196.797 167.048Z" fill="#263238"/>
<path d="M197.227 163.638C197.459 163.013 197.556 162.345 197.51 161.679C197.502 160.953 197.412 160.23 197.243 159.525C197.141 159.108 197.009 158.699 196.846 158.302C196.77 158.05 196.624 157.826 196.425 157.654C196.292 157.555 196.128 157.506 195.963 157.515C195.797 157.524 195.64 157.59 195.518 157.703C195.313 157.899 195.189 158.165 195.17 158.448C195.15 158.679 195.15 158.912 195.17 159.144C195.172 159.578 195.226 160.01 195.332 160.432C195.507 161.138 195.779 161.817 196.141 162.448C196.431 163.057 196.832 163.606 197.324 164.068C197.389 164.068 196.943 163.412 196.417 162.335C196.109 161.712 195.878 161.054 195.728 160.375C195.643 159.978 195.6 159.574 195.599 159.168C195.599 158.763 195.599 158.261 195.842 158.067C195.889 158.024 195.952 158 196.016 158C196.08 158 196.142 158.024 196.19 158.067C196.322 158.196 196.421 158.354 196.482 158.529C196.637 158.909 196.769 159.299 196.878 159.695C197.064 160.367 197.18 161.056 197.227 161.752C197.275 162.885 197.154 163.63 197.227 163.638Z" fill="#263238"/>
<path d="M197.194 163.371C196.657 163.147 196.074 163.053 195.493 163.096C194.863 163.096 194.235 163.172 193.623 163.323C193.246 163.408 192.881 163.542 192.538 163.719C192.322 163.829 192.147 164.006 192.04 164.224C191.934 164.442 191.901 164.688 191.946 164.926C192.007 165.153 192.127 165.361 192.293 165.527C192.459 165.693 192.667 165.813 192.894 165.873C193.282 165.971 193.688 165.971 194.076 165.873C194.7 165.731 195.286 165.455 195.793 165.064C196.273 164.742 196.688 164.333 197.016 163.857C196.529 164.142 196.061 164.459 195.615 164.805C195.125 165.141 194.575 165.38 193.995 165.509C193.674 165.59 193.337 165.59 193.015 165.509C192.863 165.471 192.724 165.393 192.612 165.283C192.499 165.174 192.418 165.037 192.376 164.886C192.351 164.737 192.376 164.585 192.446 164.452C192.516 164.319 192.628 164.212 192.764 164.149C193.065 163.983 193.386 163.858 193.72 163.776C194.301 163.61 194.898 163.507 195.502 163.468C196.53 163.339 197.178 163.444 197.194 163.371Z" fill="#263238"/>
<path d="M206.134 169.267C206.247 168.46 206.423 167.664 206.661 166.886C207.031 166.162 207.461 165.472 207.948 164.821C207.18 165.239 206.58 165.911 206.249 166.721C205.919 167.531 205.878 168.43 206.134 169.267Z" fill="#263238"/>
<path d="M187.736 170.489C188.055 170.691 188.398 170.855 188.756 170.975C189.713 171.339 190.693 171.642 191.688 171.882C194.995 172.604 198.378 172.925 201.762 172.838C205.714 172.789 209.277 172.611 211.86 172.506L214.913 172.344C215.288 172.337 215.662 172.3 216.03 172.23C215.658 172.172 215.281 172.153 214.905 172.174H211.852L201.762 172.368C198.409 172.454 195.056 172.183 191.761 171.558C189.234 171.048 187.768 170.4 187.736 170.489Z" fill="#263238"/>
<path d="M186.958 171.089C186.958 171.145 187.711 170.724 188.934 170.19C190.488 169.456 192.217 169.175 193.923 169.38C195.6 169.744 197.115 170.642 198.239 171.939C198.707 172.492 199.213 173.011 199.753 173.494C199.406 172.85 198.973 172.256 198.466 171.728C197.946 171.124 197.359 170.581 196.717 170.109C195.912 169.513 194.976 169.119 193.987 168.959C192.198 168.742 190.384 169.084 188.797 169.939C188.126 170.22 187.505 170.609 186.958 171.089Z" fill="#263238"/>
<path d="M163.101 151.637C163.101 151.637 138.143 167.979 137.252 168.643C135.908 169.655 137.447 174.49 139.779 173.656C140.88 173.259 161.822 167.428 164.073 166.554C166.324 165.679 172.39 160.772 172.39 160.772L163.101 151.637Z" fill="#EB5757"/>
<path d="M155.692 164.562C155.391 163.534 154.813 162.609 154.022 161.888C153.23 161.167 152.256 160.677 151.205 160.472C152.083 160.998 152.924 161.583 153.724 162.221C154.428 162.96 155.085 163.741 155.692 164.562Z" fill="#263238"/>
<path d="M157.927 162.537C157.609 161.613 157.091 160.77 156.409 160.07C155.727 159.37 154.898 158.83 153.983 158.488C153.918 158.601 155.011 159.298 156.088 160.367C157.165 161.436 157.813 162.602 157.927 162.537Z" fill="#263238"/>
<path d="M160.178 161.096C160.175 160.077 159.787 159.096 159.093 158.35C158.513 157.527 157.646 156.95 156.663 156.731C157.414 157.317 158.121 157.959 158.777 158.65C159.308 159.427 159.776 160.245 160.178 161.096Z" fill="#263238"/>
<path d="M158.736 157.994C158.801 157.994 158.461 157.29 158.178 156.123C158.007 155.447 157.907 154.755 157.878 154.058C157.85 153.649 157.85 153.237 157.878 152.828C157.875 152.643 157.923 152.461 158.016 152.301C158.051 152.246 158.106 152.207 158.169 152.192C158.233 152.177 158.3 152.187 158.356 152.22C158.639 152.334 158.785 152.819 158.923 153.208C159.042 153.594 159.123 153.989 159.166 154.39C159.228 155.084 159.207 155.783 159.101 156.472C158.931 157.654 158.696 158.375 158.761 158.399C159.094 157.82 159.314 157.182 159.409 156.52C159.564 155.811 159.619 155.083 159.571 154.358C159.538 153.924 159.459 153.496 159.336 153.079C159.269 152.855 159.188 152.636 159.093 152.423C158.985 152.157 158.783 151.941 158.526 151.815C158.376 151.745 158.206 151.731 158.046 151.774C157.886 151.817 157.746 151.914 157.651 152.05C157.517 152.275 157.447 152.533 157.449 152.795C157.36 153.949 157.492 155.109 157.838 156.213C158.008 156.863 158.314 157.47 158.736 157.994Z" fill="#263238"/>
<path d="M158.647 157.727C158.647 157.792 159.263 157.5 160.267 157.249C160.854 157.108 161.453 157.027 162.057 157.006C162.401 156.983 162.747 157.005 163.085 157.071C163.234 157.091 163.373 157.159 163.481 157.264C163.588 157.369 163.66 157.506 163.684 157.654C163.691 157.815 163.655 157.975 163.58 158.117C163.504 158.259 163.392 158.379 163.255 158.464C162.977 158.639 162.66 158.745 162.332 158.772C161.74 158.829 161.143 158.769 160.575 158.593C160.047 158.396 159.506 158.236 158.955 158.116C159.412 158.481 159.934 158.755 160.494 158.925C161.095 159.156 161.738 159.252 162.381 159.209C162.78 159.188 163.167 159.065 163.506 158.853C163.707 158.729 163.87 158.555 163.98 158.347C164.089 158.139 164.141 157.905 164.13 157.67C164.101 157.429 163.995 157.204 163.827 157.028C163.659 156.853 163.438 156.737 163.198 156.698C162.819 156.631 162.432 156.615 162.049 156.65C161.419 156.692 160.796 156.809 160.194 156.998C159.629 157.119 159.1 157.368 158.647 157.727Z" fill="#263238"/>
<path d="M142.953 172.757C142.953 172.797 143.375 172.506 143.569 171.793C143.763 170.862 143.595 169.892 143.099 169.08C142.859 168.646 142.589 168.229 142.289 167.833C142.046 167.496 141.76 167.191 141.439 166.926C141.209 166.736 140.927 166.62 140.629 166.594C140.419 166.594 140.313 166.635 140.313 166.659C140.313 166.683 140.759 166.7 141.22 167.169C141.493 167.445 141.734 167.749 141.941 168.076C142.232 168.467 142.502 168.872 142.751 169.291C143.198 170.017 143.392 170.872 143.302 171.72C143.207 172.073 143.09 172.419 142.953 172.757Z" fill="#263238"/>
<path d="M151.918 166.06C151.952 165.621 151.89 165.181 151.738 164.769C151.585 164.357 151.346 163.982 151.035 163.671C150.786 163.309 150.46 163.006 150.081 162.783C149.702 162.561 149.279 162.424 148.841 162.383C149.503 162.853 150.123 163.379 150.695 163.954C151.161 164.62 151.57 165.325 151.918 166.06Z" fill="#263238"/>
<path d="M169.823 161.638C169.435 161.854 169.066 162.103 168.721 162.383C167.732 163.07 166.705 163.7 165.644 164.27C164.074 165.103 162.451 165.83 160.785 166.448C158.89 167.153 156.736 167.817 154.534 168.465C150.039 169.761 145.974 170.943 143.042 171.826L139.552 172.919C139.121 173.033 138.701 173.185 138.297 173.372C138.738 173.312 139.174 173.218 139.601 173.089L143.107 172.109C146.063 171.299 150.136 170.165 154.631 168.87C156.874 168.214 159.004 167.534 160.899 166.805C162.585 166.164 164.223 165.4 165.798 164.521C166.856 163.922 167.868 163.245 168.827 162.497C169.182 162.239 169.515 161.951 169.823 161.638Z" fill="#263238"/>
<path d="M170.746 161.97C170.074 161.675 169.362 161.483 168.632 161.403C166.858 161.075 165.026 161.301 163.385 162.051C162.498 162.516 161.736 163.188 161.166 164.011C160.696 164.66 160.302 165.361 159.992 166.1C159.667 166.756 159.435 167.454 159.303 168.173C159.67 167.548 159.995 166.899 160.275 166.23C160.95 164.649 162.121 163.33 163.611 162.472C165.179 161.767 166.913 161.518 168.616 161.752C169.912 161.857 170.73 162.035 170.746 161.97Z" fill="#263238"/>
<path d="M214.969 111.787C214.969 111.787 222.46 114.459 222.484 122.857C222.549 138.931 189.995 156.658 189.995 156.658L146.67 127.958L143.958 126.857C143.958 126.857 202.466 104.895 214.969 111.787Z" fill="#263238"/>
<path d="M168.616 142.454C169.015 142.233 169.394 141.978 169.75 141.693C170.454 141.174 171.467 140.413 172.706 139.45C175.192 137.538 178.56 134.817 182.197 131.7C185.833 128.582 189.023 125.659 191.291 123.496C192.424 122.419 193.331 121.529 193.955 120.905C194.292 120.601 194.601 120.268 194.878 119.909C194.505 120.17 194.156 120.463 193.833 120.784L191.08 123.27C188.756 125.367 185.533 128.258 181.905 131.368C178.277 134.477 174.941 137.231 172.519 139.207L169.645 141.555C169.278 141.827 168.934 142.127 168.616 142.454Z" fill="#455A64"/>
<path d="M202.741 117.795C199.908 117.496 197.072 118.331 194.854 120.12C194.927 120.241 196.473 119.229 198.692 118.597C200.911 117.965 202.741 117.933 202.741 117.795Z" fill="#455A64"/>
<path d="M199.008 115.261C198.006 115.686 197.124 116.352 196.44 117.199C195.756 118.047 195.292 119.05 195.089 120.12C195.218 120.12 195.688 118.816 196.781 117.48C197.874 116.143 199.081 115.374 199.008 115.261Z" fill="#455A64"/>
<path d="M217.35 166.181C217.35 166.133 216.832 166.027 216.233 166.521C215.527 167.179 215.083 168.072 214.986 169.032C214.844 169.976 214.979 170.941 215.374 171.809C215.682 172.465 216.022 172.773 216.063 172.741C215.956 172.381 215.823 172.029 215.666 171.688C215.382 170.855 215.299 169.967 215.423 169.097C215.519 168.229 215.875 167.41 216.443 166.748C216.905 166.27 217.358 166.254 217.35 166.181Z" fill="#263238"/>
<path d="M205.001 85.5085L189.574 124.622L123.146 125.707L121.915 122.112L145.197 121.27L156.388 86.5694L205.001 85.5085Z" fill="#455A64"/>
<path d="M173.977 102.466C174.487 102.21 175.06 102.106 175.628 102.168C176.195 102.23 176.733 102.454 177.176 102.814C177.552 103.168 177.812 103.627 177.924 104.131C178.035 104.635 177.992 105.161 177.799 105.64C177.591 106.119 177.253 106.529 176.824 106.825C176.395 107.122 175.891 107.292 175.37 107.316C174.821 107.352 174.276 107.207 173.817 106.905C173.359 106.602 173.011 106.158 172.827 105.64C172.654 105.061 172.668 104.441 172.869 103.871C173.07 103.301 173.446 102.809 173.945 102.466" fill="#EBEBEB"/>
<path d="M194.093 158.618C194.093 158.618 132.888 118.468 130.393 117.633C127.899 116.799 121.826 112.831 115.776 114.499C109.727 116.168 104.285 121.601 101.572 129.538C100.018 134.072 99.2888 141.806 98.9405 147.612C98.4765 154.555 100.727 161.408 105.217 166.724C107.205 169.205 109.847 171.081 112.845 172.141C113.485 172.344 114.149 172.514 114.829 172.66C126.401 175.17 138.313 169.971 144.792 160.075L146.217 157.905C146.217 157.905 186.262 172.611 186.885 172.409L194.093 158.618Z" fill="#263238"/>
<path d="M118.376 147.564C118.484 147.618 118.595 147.667 118.708 147.71L119.712 148.106L123.591 149.604L138.014 155.038C144.136 157.322 151.472 160.043 159.708 163.039C167.944 166.035 177.062 169.315 186.812 172.611L186.982 172.676L187.071 172.506L191.857 163.371L194.287 158.715L194.376 158.537L194.206 158.431L147.521 128.793L133.495 119.949L129.689 117.569L128.693 116.961C128.466 116.824 128.344 116.767 128.344 116.767L128.668 117.002L129.64 117.641L133.406 120.071L147.399 129.052L194.012 158.804L193.931 158.512C193.161 159.994 192.311 161.573 191.501 163.169L186.723 172.303L186.991 172.198C177.273 168.91 168.122 165.639 159.878 162.667L138.151 154.763L123.648 149.434L119.744 148.009L118.724 147.653L118.376 147.564Z" fill="#455A64"/>
<path d="M124.725 4.99763C125.769 2.17141 128.077 0.948604 131.001 0.244074C132.471 -0.0981276 134.003 -0.0802539 135.465 0.296182C136.927 0.672617 138.276 1.39648 139.398 2.40625C140.88 3.75863 141.966 5.64547 143.796 6.45528C146.816 7.82385 150.679 5.82362 153.513 7.49992C154.365 8.00148 155.016 8.78247 155.357 9.71008C155.698 10.6377 155.706 11.6546 155.382 12.588C155.057 13.5214 154.42 14.3136 153.577 14.8298C152.734 15.3461 151.739 15.5546 150.76 15.4198C152.728 16.343 153.092 19.3069 151.74 21.0075C150.388 22.7081 147.885 23.1697 145.788 22.5785C143.72 21.8663 141.886 20.6036 140.484 18.9263C139.01 17.3067 137.714 15.5656 136.111 14.0674C134.572 12.5038 132.529 11.5344 130.345 11.3303C127.405 11.2169 124.676 13.2009 123.146 15.7032C121.615 18.2055 121.024 21.1775 120.595 24.0928C120.166 27.0081 119.842 29.972 118.716 32.693C118.586 33.0169 118.392 33.3651 118.06 33.438C117.566 33.5433 117.21 33.0007 117.015 32.5391C114.8 27.3384 113.627 21.7528 113.566 16.1001C113.525 12.8608 113.898 9.75928 115.93 7.1922C117.963 4.62512 122.652 3.0298 124.701 4.95713" fill="#263238"/>
<path d="M117.825 18.0597L113.322 50.7596C113.142 52.0802 113.232 53.4236 113.587 54.7082C113.943 55.9928 114.555 57.1916 115.389 58.2318C116.222 59.2719 117.258 60.1316 118.435 60.7585C119.611 61.3854 120.902 61.7664 122.23 61.8783C124.745 62.0969 127.247 61.3403 129.218 59.765C131.19 58.1896 132.481 55.9163 132.823 53.4158C133.155 50.9864 133.438 48.9052 133.495 48.6541C133.495 48.6541 141.925 49.0186 143.658 40.8638C144.468 36.9201 145.561 28.6601 146.443 21.1775C146.889 17.3053 145.862 13.4072 143.567 10.257C141.271 7.10671 137.876 4.93453 134.053 4.17156L133.244 4.0177C124.619 2.78679 118.789 9.42719 117.825 18.0597Z" fill="#FFBE9D"/>
<path d="M133.487 48.5408C129.696 47.8452 126.198 46.0383 123.437 43.35C123.437 43.35 124.781 49.7312 133.082 50.6382L133.487 48.5408Z" fill="#EB996E"/>
<path d="M142.921 26.1821C142.864 26.4869 142.689 26.757 142.435 26.9342C142.18 27.1115 141.866 27.1816 141.561 27.1296C141.41 27.1127 141.264 27.0657 141.132 26.9912C141 26.9167 140.885 26.8163 140.792 26.6961C140.7 26.5759 140.633 26.4382 140.595 26.2915C140.558 26.1447 140.55 25.9918 140.573 25.842C140.628 25.5357 140.802 25.2636 141.056 25.0847C141.311 24.9058 141.626 24.8345 141.933 24.8864C142.084 24.9042 142.23 24.9522 142.362 25.0276C142.494 25.1029 142.609 25.204 142.702 25.3249C142.794 25.4457 142.861 25.5839 142.898 25.7312C142.936 25.8784 142.944 26.0318 142.921 26.1821Z" fill="#263238"/>
<path d="M143.844 24.8379C143.666 24.9674 142.913 24.1333 141.658 23.8823C140.403 23.6312 139.35 24.0847 139.228 23.8823C139.107 23.6798 139.382 23.5583 139.844 23.3478C140.459 23.0742 141.145 23.0033 141.804 23.1453C142.457 23.2705 143.054 23.6027 143.504 24.0928C143.852 24.4815 143.925 24.7893 143.844 24.8379Z" fill="#263238"/>
<path d="M130.515 24.1415C130.46 24.4478 130.286 24.7199 130.031 24.8988C129.776 25.0777 129.461 25.1489 129.154 25.097C129.004 25.0781 128.858 25.0294 128.726 24.9539C128.594 24.8784 128.479 24.7774 128.386 24.6569C128.294 24.5365 128.226 24.3988 128.187 24.2519C128.148 24.1051 128.138 23.9519 128.158 23.8013C128.219 23.498 128.395 23.2297 128.648 23.0519C128.901 22.874 129.213 22.8003 129.519 22.8458C129.67 22.8637 129.816 22.9117 129.949 22.9869C130.081 23.0621 130.197 23.163 130.29 23.2838C130.383 23.4045 130.45 23.5426 130.489 23.6899C130.528 23.8372 130.537 23.9907 130.515 24.1415Z" fill="#263238"/>
<path d="M131.446 22.6109C131.268 22.7324 130.515 21.8983 129.26 21.6473C128.004 21.3962 126.952 21.8497 126.83 21.6473C126.709 21.4448 126.984 21.3233 127.446 21.1128C128.062 20.8435 128.747 20.7727 129.405 20.9103C130.059 21.0428 130.656 21.3736 131.114 21.8578C131.454 22.2951 131.527 22.5542 131.446 22.6109Z" fill="#263238"/>
<path d="M134.143 32.8225C134.846 32.7441 135.557 32.7577 136.256 32.863C136.588 32.863 136.904 32.863 137.001 32.6768C137.104 32.3555 137.104 32.0101 137.001 31.6888C136.856 30.879 136.702 29.972 136.54 29.0488C135.916 25.3075 135.536 22.2627 135.681 22.2384C135.827 22.2141 136.491 25.2265 137.082 28.9678C137.228 29.891 137.374 30.7656 137.503 31.6078C137.63 32.0364 137.599 32.4963 137.414 32.9035C137.346 33.0058 137.254 33.0911 137.148 33.1528C137.041 33.2146 136.922 33.2512 136.799 33.2598C136.614 33.2861 136.425 33.2861 136.24 33.2598C135.525 33.2021 134.821 33.0551 134.143 32.8225Z" fill="#263238"/>
<path d="M130.272 32.9683C130.482 32.9683 130.207 34.3612 131.179 35.5597C132.151 36.7582 133.608 36.904 133.608 37.0983C133.608 37.2927 133.236 37.2927 132.62 37.1874C131.818 37.0395 131.093 36.6155 130.571 35.9889C130.077 35.3817 129.836 34.6071 129.899 33.8267C129.964 33.2436 130.183 32.9359 130.272 32.9683Z" fill="#263238"/>
<path d="M132.75 17.7439C132.564 18.0678 131.341 17.6548 129.827 17.5333C128.312 17.4119 127.049 17.5819 126.911 17.2337C126.855 17.0718 127.13 16.7964 127.672 16.5616C128.392 16.2775 129.169 16.1665 129.94 16.2377C130.715 16.2968 131.465 16.5412 132.126 16.9503C132.62 17.2742 132.823 17.5981 132.75 17.7439Z" fill="#263238"/>
<path d="M144.103 21.1128C143.828 21.3557 143.026 20.886 141.982 20.6593C140.937 20.4325 140.022 20.473 139.884 20.1329C139.82 19.9709 140.014 19.7118 140.459 19.5175C141.039 19.2889 141.676 19.2465 142.281 19.396C142.892 19.5247 143.445 19.8453 143.861 20.3111C144.16 20.6755 144.233 20.9913 144.103 21.1128Z" fill="#263238"/>
<path d="M117.283 24.2467C117.153 24.1576 111.995 21.461 111.055 27.0891C110.116 32.7173 115.963 32.4986 115.995 32.3366C116.027 32.1747 117.283 24.2467 117.283 24.2467Z" fill="#FFBE9D"/>
<path d="M114.634 29.9153C114.634 29.9153 114.529 29.972 114.351 30.0206C114.101 30.0804 113.837 30.0427 113.614 29.9153C113.286 29.6261 113.042 29.2538 112.908 28.8376C112.774 28.4214 112.755 27.9768 112.853 27.5506C112.918 27.0644 113.092 26.5992 113.363 26.1902C113.44 26.0223 113.555 25.8752 113.701 25.7611C113.846 25.647 114.016 25.5692 114.197 25.5342C114.316 25.5243 114.434 25.5561 114.532 25.6241C114.629 25.6921 114.7 25.7921 114.732 25.9067C114.78 26.0687 114.732 26.1821 114.732 26.1902C114.732 26.1983 114.869 26.1173 114.861 25.8825C114.853 25.7383 114.796 25.6013 114.699 25.4938C114.634 25.4211 114.554 25.3628 114.465 25.3224C114.375 25.2819 114.279 25.2604 114.181 25.2589C113.943 25.2658 113.711 25.3335 113.507 25.4554C113.303 25.5773 113.134 25.7494 113.015 25.9553C112.693 26.4037 112.485 26.9233 112.408 27.4697C112.254 28.6115 112.659 29.7695 113.436 30.1339C113.58 30.2035 113.738 30.2396 113.898 30.2396C114.057 30.2396 114.215 30.2035 114.359 30.1339C114.602 30.0529 114.651 29.9315 114.634 29.9153Z" fill="#EB996E"/>
<path d="M148.468 19.8656C146.565 19.9682 144.665 19.618 142.924 18.8438C141.182 18.0695 139.649 16.8933 138.451 15.4117C136.831 13.3224 135.754 10.5934 133.414 9.33006C132.608 8.93346 131.731 8.70062 130.835 8.64502C129.938 8.58942 129.039 8.71216 128.191 9.00613C126.501 9.61018 124.952 10.5526 123.64 11.7757C124.385 16.2458 122.401 20.6835 120.465 24.7326C120.298 25.2101 119.976 25.6179 119.55 25.8906C118.789 26.2712 117.882 25.6719 117.42 24.9512C116.773 23.743 116.492 22.3728 116.61 21.0074C116.628 17.8962 117.261 14.8192 118.473 11.9538C119.704 9.07997 121.751 6.63039 124.36 4.90852C127.707 2.86496 131.716 2.20013 135.544 3.05407C139.349 3.93934 142.78 5.9989 145.35 8.94135C146.603 10.2455 147.513 11.8397 147.998 13.5815" fill="#263238"/>
</svg>
