<svg width="202" height="165" viewBox="0 0 202 165" fill="none" xmlns="http://www.w3.org/2000/svg">
<g clip-path="url(#clip0)">
<path opacity="0.5" d="M197.088 95.6496C197.088 95.7749 197.088 95.9002 197.088 96.0235C197.066 98.1851 196.938 100.341 196.704 102.492C196.705 102.505 196.705 102.518 196.704 102.531C196.685 102.71 196.664 102.886 196.644 103.065C196.609 103.367 196.572 103.667 196.531 103.969C196.052 107.646 195.259 111.274 194.161 114.816C192.691 119.601 190.612 124.178 187.975 128.435C187.164 129.736 186.3 130.995 185.384 132.213C184.895 132.858 184.395 133.489 183.879 134.11C183.518 134.544 183.149 134.971 182.774 135.392L182.539 135.651C180.564 137.819 178.435 139.842 176.168 141.704C172.469 144.77 168.486 147.437 164.44 149.911C164.209 150.052 163.977 150.192 163.745 150.321C163.729 150.333 163.712 150.344 163.693 150.352C158.194 153.677 152.491 156.677 146.615 159.079C140.182 161.715 133.54 163.632 126.725 164.47C117.226 165.637 107.612 164.688 98.1708 163.057C90.3186 161.708 82.5614 159.855 74.9474 157.509L73.6938 157.116C73.0443 156.91 72.3956 156.699 71.7475 156.484C67.8331 155.189 63.9626 153.751 60.1359 152.169C50.5249 148.211 41.3434 143.282 32.7344 137.459C31.6383 136.722 30.5579 135.969 29.4934 135.199C28.0054 134.128 26.5353 133.025 25.083 131.891L24.1869 131.196C20.3862 128.221 16.8253 124.951 13.5371 121.418C9.11436 116.606 5.33491 111.177 2.85022 104.98C2.45837 104.006 2.0994 103.014 1.77331 102.003L1.74248 101.902C1.57807 101.388 1.42599 100.875 1.28624 100.34C1.08072 99.5761 0.900552 98.8022 0.745729 98.0187C0.712847 97.8687 0.684074 97.7187 0.657357 97.5666C0.16615 94.9297 -0.0507984 92.2491 0.00998031 89.5676C0.061381 87.2181 0.336648 84.8788 0.832046 82.5816C1.3391 80.2001 2.12048 77.8854 3.16055 75.6839C4.10046 73.7042 5.29803 71.8574 6.72214 70.1916C7.72286 69.027 8.84828 67.9755 10.0782 67.0561C12.3081 65.3959 14.7804 64.2391 17.3432 63.3247C18.5476 62.8932 19.7683 62.5152 20.9953 62.1638C21.8646 61.9131 22.738 61.6748 23.6074 61.4406L26.1722 60.7481C27.8163 60.3002 29.4605 59.8399 31.0799 59.3427C35.4944 57.9948 39.8206 56.3634 43.822 53.9306C44.455 53.5463 45.1003 53.1251 45.7456 52.6731C46.5677 52.1019 47.3774 51.4813 48.1789 50.8115C48.9886 50.1334 49.7819 49.4081 50.5382 48.6397C50.6554 48.5205 50.7705 48.4013 50.8856 48.2801C51.5021 47.6308 52.1002 46.9507 52.6551 46.2439C52.9263 45.8987 53.1894 45.5473 53.4401 45.1898C53.7875 44.6946 54.1163 44.1912 54.4204 43.6734C55.9454 41.0845 56.8866 38.2284 56.7757 35.2183C56.7594 34.7223 56.7148 34.2277 56.6421 33.7368C56.3749 31.9225 56.118 30.1513 55.9289 28.4192C55.1356 21.2544 55.4706 14.7574 60.849 8.6528C67.5365 1.06473 78.0322 -0.482472 87.5867 0.123669C115.21 1.87018 140.357 17.6381 162.456 36.41C164.368 38.0318 166.256 39.6756 168.12 41.3413C168.59 41.7605 169.061 42.1824 169.532 42.607C173.026 45.7528 176.466 49.0157 179.67 52.5108C179.929 52.7943 180.188 53.0779 180.443 53.3635C180.599 53.5402 180.758 53.7148 180.912 53.8936C181.91 55.0237 182.88 56.1812 183.82 57.3661C186.338 60.5117 188.561 63.8819 190.462 67.4342C193.373 73.009 195.344 79.026 196.295 85.2424C196.652 87.4999 196.887 89.775 196.999 92.0579C197.034 92.7298 197.057 93.4038 197.069 94.0756C197.069 94.2914 197.069 94.5051 197.069 94.7208C197.09 95.0331 197.09 95.3372 197.088 95.6496Z" fill="white"/>
<path d="M80.9689 92.2032L77.6807 150.72L80.9689 150.763L83.6406 91.3813L80.9689 92.2032Z" fill="#3F3D56"/>
<path d="M68.8436 121.851H28.1514V130.686H68.8436V121.851Z" fill="#F7F7F7"/>
<path d="M71.515 129.657V135.204H29.4807C27.9928 134.133 26.5226 133.031 25.0703 131.896V129.657H71.515Z" fill="#3F3D56"/>
<path d="M79.9086 117.031C79.7935 117.563 79.6435 118.089 79.4853 118.613C79.0187 120.127 78.4577 121.621 78.3487 123.195C78.2028 125.274 78.7598 127.692 77.3212 129.203C76.9512 129.593 76.4683 129.885 76.1374 130.302C76.0864 130.367 76.0397 130.436 75.9976 130.507C75.7017 130.996 75.6668 131.592 75.6626 132.151C75.6661 133.343 75.7437 134.534 75.8949 135.716C76.382 139.784 77.3438 143.861 76.0799 147.701C75.8508 148.367 75.5839 149.02 75.2804 149.655C74.6638 151.011 73.9918 152.349 73.7904 153.818C73.6424 154.907 73.6876 156.029 73.6794 157.137C73.03 156.93 72.3812 156.719 71.7332 156.504C67.8188 155.209 63.9482 153.771 60.1215 152.189C60.1318 152.133 60.1421 152.076 60.1503 152.02C60.4442 150.192 60.0414 148.322 59.5522 146.538C58.5246 142.76 57.0696 139.018 56.2085 135.213C55.8617 133.726 55.6342 132.215 55.5282 130.692C55.5036 130.351 55.4892 130.008 55.4871 129.665C55.4768 129.217 55.4871 128.769 55.5056 128.317C55.5488 127.415 55.5878 126.345 54.8664 125.796C54.4698 125.498 53.9457 125.447 53.4833 125.266C52.5914 124.919 51.981 124.113 51.274 123.468C50.9368 123.141 50.525 122.901 50.0742 122.768C49.6234 122.636 49.1472 122.615 48.6866 122.708C44.0666 123.766 40.6714 127.684 36.372 129.665C36.2056 129.743 36.0391 129.817 35.8706 129.887C35.3144 130.09 34.7851 130.361 34.2943 130.692C33.9494 130.932 33.6992 131.284 33.5873 131.689C33.4784 132.124 33.5729 132.581 33.6263 133.029C33.7128 133.757 33.6816 134.494 33.5339 135.213C33.4781 135.491 33.4047 135.766 33.3139 136.035C33.1495 136.522 32.9296 136.998 32.72 137.473C31.6239 136.736 30.5436 135.983 29.479 135.213C27.9911 134.141 26.5209 133.039 25.0686 131.905L24.187 131.196C20.3863 128.22 16.8253 124.951 13.5371 121.417C13.9749 120.184 14.6079 119.038 14.912 117.774C15.0846 117.049 15.1484 116.295 15.3868 115.59C15.6617 114.859 16.044 114.174 16.5212 113.556C18.2688 111.119 20.4028 108.984 22.8388 107.236C25.3851 105.411 28.3261 103.948 30.6176 101.877C31.5475 101.063 32.3492 100.113 32.9954 99.0599C33.0344 98.9962 33.0714 98.9284 33.1043 98.8545C33.2832 98.4826 33.4071 98.0867 33.4722 97.6792C33.6366 96.7587 33.6119 95.7477 33.6942 94.8642C36.4857 95.3473 39.3315 95.4331 42.147 95.119C45.425 94.7512 48.6311 93.841 51.9091 93.4876C52.1557 93.4588 52.4044 93.4362 52.653 93.4156C53.7032 93.3314 54.7555 93.3129 55.8098 93.3252C56.6914 93.3252 57.5731 93.3643 58.4548 93.393L68.1613 93.7218C69.2362 93.7588 70.3336 93.7999 71.3345 94.1923C72.5224 94.6587 73.4739 95.5875 74.2364 96.6087C74.333 96.7402 74.4296 96.8717 74.52 97.0073C75.1474 97.9223 75.6505 98.9166 76.0161 99.964C76.0552 100.071 76.0922 100.169 76.1271 100.287C76.2196 100.572 76.2998 100.86 76.3717 101.152C76.4272 101.38 76.4765 101.608 76.5217 101.838C76.7478 102.976 76.8814 104.139 77.239 105.238C77.2636 105.319 77.2903 105.399 77.3191 105.477C77.7486 106.681 78.4618 107.76 79.0002 108.916C79.3885 109.754 79.6848 110.631 79.884 111.532C80.2865 113.342 80.2949 115.217 79.9086 117.031Z" fill="#35323E"/>
<path d="M50.4046 43.4985C49.5373 42.8081 48.2795 43.3136 47.2643 43.7594C46.4131 44.1353 45.5368 44.4518 44.6419 44.7067C44.4587 44.7771 44.2602 44.7977 44.0664 44.7662C43.6554 44.6676 43.4828 44.1807 43.1766 43.8848C42.6443 43.3732 41.7729 43.4944 41.0865 43.7718C40.4 44.0491 39.7218 44.4498 38.9861 44.3882C38.201 44.3265 37.5187 43.7471 36.7254 43.7286C35.3279 43.6957 34.1544 45.4176 32.8329 44.9614C32.0273 44.6841 31.3943 43.6362 30.601 43.9341C29.9845 44.1683 29.929 45.021 29.557 45.5779C29.1192 46.2272 28.2663 46.41 27.5368 46.6977C25.237 47.6059 23.7142 50.1681 24.0142 52.6214C24.1807 53.9755 24.8363 55.2165 25.2699 56.509C26.5564 60.267 26.1146 64.5059 27.7361 68.1304C27.9416 67.9373 28.0567 67.8654 28.2561 67.6743C27.7434 68.7374 27.6445 69.9532 27.9786 71.0851C28.1492 71.6543 28.4266 72.1844 28.6363 72.7412C28.854 73.3658 29.0298 74.0041 29.1624 74.6521L30.9504 82.5381C31.6491 85.6202 32.35 88.7023 32.4712 91.8583C32.5467 93.9105 32.3895 95.9646 32.0026 97.9814C35.2416 97.4451 38.2051 96.0089 41.4872 96.0274C42.6915 96.0274 43.8856 96.2328 45.0796 96.3972C48.5609 96.8842 52.0725 97.1225 55.5877 97.1102C56.1344 97.1413 56.6819 97.0645 57.1989 96.8842C57.6511 96.691 58.021 96.3479 58.4485 96.0993C59.2849 95.6061 60.2981 95.4828 61.262 95.4828C65.658 95.4027 69.8937 97.0116 74.2609 97.5787C75.9852 93.9603 76.0879 89.6248 74.7644 85.8421C74.3719 84.7182 73.8437 83.623 73.6875 82.4416C73.6248 81.7153 73.6083 80.9858 73.6382 80.2574C73.6313 78.3927 73.2953 76.5438 72.6455 74.7959C72.3907 74.1117 72.0845 73.4152 72.1112 72.6858C72.1379 71.9563 72.4976 71.2762 72.8511 70.631C73.5683 69.316 74.2897 67.9887 75.3029 66.8791C76.3407 65.7326 77.6396 64.8593 78.9241 64.0025L82.0952 61.8738C81.6616 59.1349 81.1025 56.2501 79.9414 53.731C78.7802 51.2119 77.0436 48.8962 74.6945 47.423C73.9026 46.9467 73.0737 46.5344 72.216 46.1902C71.0158 45.6847 69.7663 45.2388 68.4653 45.1628C66.9856 45.0786 65.5285 45.4751 64.0673 45.7217C59.4678 46.4963 54.0545 46.4018 50.4046 43.4985Z" fill="#F7F7F7"/>
<path d="M85.0798 91.0279L83.5713 92.9327L80.727 96.5222L77.4387 100.671L76.5201 101.83H74.7382L30.6159 101.881L2.98424 101.912H1.75114C1.58673 101.398 1.43465 100.884 1.2949 100.35C1.08938 99.5858 0.90921 98.8119 0.754388 98.0284C0.721505 97.8784 0.692733 97.7284 0.666016 97.5763L10.6911 91.0238L14.4603 91.0033L25.9897 90.9375L32.4286 90.9005H33.6041H34.3419L38.6331 90.8779L71.339 90.691L73.0119 90.6807H73.7374L75.6589 90.6704L82.8089 90.6293L84.1817 90.1074L84.2824 90.2143L85.0798 91.0279Z" fill="#3F3D56"/>
<path d="M84.4628 90.001L84.2923 90.2065L83.1701 91.5276L80.8601 94.2542L76.0161 99.9643L33.1043 98.8691L0.745729 98.0472C0.712847 97.8973 0.684074 97.7473 0.657357 97.5952C0.16615 94.9583 -0.0507984 92.2777 0.0099803 89.5962L3.5983 87.7593L4.42036 87.336L10.8181 84.0485L16.4328 81.1719L31.0779 83.0745L34.3209 83.4958L35.7883 83.6848L37.936 83.9642L38.1168 83.9889L71.7948 88.3552L75.5167 88.838L77.7013 89.1216L84.4341 89.9969L84.4628 90.001Z" fill="#504F60"/>
<path d="M77.4756 99.8633L77.4407 100.671L77.2352 105.23L76.1295 130.298L75.8952 135.716L75.2787 149.655L74.9313 157.529L73.6777 157.136C73.0283 156.93 72.3795 156.719 71.7314 156.504L74.7381 101.848L74.8019 100.702L76.1254 100.291L77.4756 99.8633Z" fill="#3F3D56"/>
<path d="M3.07824 99.8037L2.98575 101.914L2.85011 104.996C2.45826 104.022 2.09929 103.03 1.77321 102.019L1.74238 101.918C1.57797 101.404 1.42588 100.891 1.28613 100.356L3.07824 99.8037Z" fill="#3F3D56"/>
<path d="M56.8209 68.7368C62.0421 68.7368 66.2747 63.0332 66.2747 55.9975C66.2747 48.9619 62.0421 43.2583 56.8209 43.2583C51.5998 43.2583 47.3672 48.9619 47.3672 55.9975C47.3672 63.0332 51.5998 68.7368 56.8209 68.7368Z" fill="#A1616A"/>
<path opacity="0.1" d="M56.8209 68.7368C62.0421 68.7368 66.2747 63.0332 66.2747 55.9975C66.2747 48.9619 62.0421 43.2583 56.8209 43.2583C51.5998 43.2583 47.3672 48.9619 47.3672 55.9975C47.3672 63.0332 51.5998 68.7368 56.8209 68.7368Z" fill="black"/>
<path d="M58.157 61.4425C65.4212 61.4425 71.31 55.5549 71.31 48.2923C71.31 41.0296 65.4212 35.1421 58.157 35.1421C50.8927 35.1421 45.0039 41.0296 45.0039 48.2923C45.0039 55.5549 50.8927 61.4425 58.157 61.4425Z" fill="#A1616A"/>
<path d="M58.4181 28.0241C57.6151 28.0881 56.8177 28.2096 56.032 28.3878C53.9522 28.8932 52.1539 30.0151 50.4029 31.1164C49.6179 31.6116 48.8102 32.1274 48.3231 32.8547C47.4476 34.1595 47.7867 35.8197 47.2955 37.2683C47.0407 38.0121 46.5721 38.6799 46.1755 39.3723C45.0842 41.2709 44.5128 43.3564 43.9518 45.4214C43.8367 45.8488 43.8038 46.4282 44.2703 46.5926C44.539 46.6484 44.8184 46.6167 45.0677 46.5022C46.5413 46.0152 48.4135 45.8755 49.5069 46.8638C50.6002 47.8521 50.5078 49.6048 51.8087 50.3568C53.2987 51.226 55.6251 50.176 56.9774 51.2013C57.557 51.641 57.7666 52.3458 58.2413 52.8759C59.347 54.1087 61.4741 54.0492 63.2436 53.8005C64.2589 53.6567 65.5043 53.5601 66.1208 54.2731C66.4168 54.6101 66.501 55.0724 66.8443 55.3765C67.4608 55.9272 68.5891 55.6477 69.1913 55.0827C69.7934 54.5176 70.0811 53.7533 70.5826 53.1184C71.5588 51.8855 73.2749 51.2136 74.2819 49.9952C75.1245 48.9678 75.3794 47.6816 75.6095 46.4405L76.4665 41.84C76.8139 39.9743 77.1304 37.9361 76.0802 36.2923C75.7061 35.7005 75.1697 35.191 74.8471 34.5786C74.6313 34.1677 74.51 33.7342 74.2593 33.3458C73.962 32.9413 73.6067 32.5826 73.205 32.2815L71.1766 30.6028C70.483 29.9958 69.7414 29.4461 68.959 28.959C66.0633 27.2721 61.7269 27.7159 58.4181 28.0241Z" fill="#464353"/>
<path d="M15.0956 61.8984C14.6085 62.4162 14.1584 62.975 13.6364 63.46C13.1772 63.8682 12.697 64.2523 12.1978 64.6106C11.3921 65.2133 10.6043 65.8373 9.83433 66.4824C9.031 67.1174 8.3041 67.8435 7.66819 68.6461C6.57073 70.1193 6.05078 71.9521 5.0232 73.4746C4.11481 74.8246 2.83444 75.891 1.91168 77.2307C1.50686 77.7939 1.20617 78.4251 1.02385 79.0943C0.887753 79.742 0.826383 80.4031 0.840936 81.0648C0.822439 82.1497 0.805999 83.2469 1.02796 84.3092C1.24991 85.3715 1.73699 86.4153 2.57138 87.1118C3.34618 87.759 4.34705 88.057 5.32736 88.3035C5.83293 88.4289 6.3796 88.546 6.86051 88.3467C7.21241 88.169 7.51786 87.9114 7.75245 87.5947L10.2536 84.7181C11.9265 82.7866 13.6652 80.8141 15.9608 79.684C16.6801 79.3326 17.4384 79.0676 18.1598 78.7265C21.2179 77.2533 23.3799 74.2369 24.2184 70.9494C24.4239 70.146 24.5555 69.3262 24.6891 68.5063L25.0508 66.2585C25.0785 66.1458 25.0785 66.028 25.0508 65.9153C24.9941 65.7886 24.903 65.6804 24.7877 65.603C23.0456 64.1964 21.4144 62.6577 19.9087 61.0005C19.5511 60.606 19.2162 60.0656 18.8031 59.7348C18.2852 59.3238 18.3242 59.3546 17.7015 59.7348C16.7436 60.3411 15.8677 61.0683 15.0956 61.8984Z" fill="#A1616A"/>
<path d="M32.2039 76.8565C32.1831 76.8088 32.1528 76.7658 32.115 76.73C32.0772 76.6943 32.0325 76.6665 31.9836 76.6485C31.9348 76.6304 31.8828 76.6224 31.8308 76.625C31.7788 76.6275 31.7278 76.6405 31.681 76.6633C31.6341 76.686 31.5924 76.7179 31.5582 76.7572C31.524 76.7965 31.4981 76.8422 31.4821 76.8918C31.466 76.9413 31.4602 76.9935 31.4648 77.0454C31.4695 77.0972 31.4846 77.1476 31.5092 77.1935L31.3037 77.2942L37.4322 89.8526L38.5399 89.3122L32.4114 76.7456L32.2039 76.8565Z" fill="#3F3D56"/>
<path opacity="0.04" d="M15.0956 61.8984C14.6085 62.4162 14.1584 62.975 13.6364 63.46C13.1772 63.8682 12.697 64.2523 12.1978 64.6106C11.3921 65.2133 10.6043 65.8373 9.83433 66.4824C9.031 67.1174 8.3041 67.8435 7.66819 68.6461C6.57073 70.1193 6.05078 71.9521 5.0232 73.4746C4.11481 74.8246 2.83444 75.891 1.91168 77.2307C1.50686 77.7939 1.20617 78.4251 1.02385 79.0943C0.887753 79.742 0.826383 80.4031 0.840936 81.0648C0.822439 82.1497 0.805999 83.2469 1.02796 84.3092C1.24991 85.3715 1.73699 86.4153 2.57138 87.1118C3.34618 87.759 4.34705 88.057 5.32736 88.3035C5.83293 88.4289 6.3796 88.546 6.86051 88.3467C7.21241 88.169 7.51786 87.9114 7.75245 87.5947L10.2536 84.7181C11.9265 82.7866 13.6652 80.8141 15.9608 79.684C16.6801 79.3326 17.4384 79.0676 18.1598 78.7265C21.2179 77.2533 23.3799 74.2369 24.2184 70.9494C24.4239 70.146 24.5555 69.3262 24.6891 68.5063L25.0508 66.2585C25.0785 66.1458 25.0785 66.028 25.0508 65.9153C24.9941 65.7886 24.903 65.6804 24.7877 65.603C23.0456 64.1964 21.4144 62.6577 19.9087 61.0005C19.5511 60.606 19.2162 60.0656 18.8031 59.7348C18.2852 59.3238 18.3242 59.3546 17.7015 59.7348C16.7436 60.3411 15.8677 61.0683 15.0956 61.8984Z" fill="black"/>
<path d="M85.9446 85.0425C85.924 86.3534 85.8727 87.7033 85.328 88.8992C85.0937 89.417 84.73 89.9266 84.1854 90.0971C83.8558 90.1732 83.5147 90.1858 83.1804 90.1341C79.1484 89.7798 75.0855 90.102 71.1597 91.0875C72.2079 88.9917 71.6057 86.4787 71.8955 84.1528C71.9756 83.5179 72.1215 82.8933 72.177 82.2563C72.3826 79.9961 71.4146 77.8017 70.9707 75.5702C70.5853 73.6387 70.5853 71.65 70.9707 69.7184C71.0463 69.2212 71.2172 68.7433 71.4742 68.3109C71.7752 67.8902 72.1708 67.5461 72.6292 67.3062C74.2939 66.3589 76.2565 66.25 78.1267 66.3754C79.3866 66.4596 81.9123 66.3405 82.9625 67.1151C84.1114 67.9637 84.4751 70.8136 84.7855 72.1307C85.2501 74.1506 85.5661 76.2019 85.7309 78.2681C85.9323 80.5201 85.9754 82.7823 85.9446 85.0425Z" fill="#A1616A"/>
<path d="M12.3271 89.5918L19.7257 94.5231L53.0194 93.2903L31.0291 89.5918H12.3271Z" fill="white"/>
<path d="M22.0829 50.4103C20.8683 51.4808 19.8386 52.7424 18.6878 53.8828C17.1094 55.4485 15.3152 56.78 13.5293 58.1053C14.1696 58.2842 14.7525 58.6263 15.2209 59.0982C15.6892 59.57 16.0269 60.1554 16.201 60.7969C16.2791 61.099 16.3182 61.4134 16.4065 61.7092C16.612 62.4099 17.0642 63.014 17.5492 63.5585C19.6331 65.907 22.5494 67.6453 23.7784 70.5445C23.8185 70.6856 23.9055 70.8088 24.025 70.8938C24.125 70.9381 24.2361 70.951 24.3436 70.9308C25.4554 70.8137 26.3062 69.9178 27.0153 69.0466C28.495 67.1974 29.7795 65.155 30.5091 62.8989C31.2386 60.6428 31.3558 58.1484 30.5604 55.9129C30.1638 54.7992 29.5513 53.776 28.943 52.763C28.41 51.8767 27.8784 50.9918 27.3482 50.1083C27.0708 49.6419 26.7173 48.6946 26.1727 48.4645C24.9971 47.9591 22.8371 49.6563 22.0829 50.4103Z" fill="#F7F7F7"/>
<path d="M82.616 63.6901L84.3649 67.7995C82.461 67.1344 80.4261 66.9319 78.4284 67.2088C76.4307 67.4857 74.5277 68.234 72.8765 69.3919C71.8798 70.1049 70.9652 71.0008 70.5152 72.1391C70.293 72.1813 70.0635 72.1599 69.8529 72.0774C69.6424 71.9949 69.4595 71.8546 69.3252 71.6726C69.0622 71.3037 68.9096 70.8676 68.8854 70.4152C68.7231 68.8371 69.3211 67.2899 69.913 65.8146C70.1884 65.1243 70.472 64.4195 70.9611 63.8586C71.4503 63.2976 72.0997 62.9278 72.7491 62.5785C74.821 61.4329 76.9909 60.4743 79.2332 59.7142C80.1785 59.408 81.1691 59.4142 81.6994 60.2977C82.3139 61.3518 82.1351 62.5682 82.616 63.6901Z" fill="#F7F7F7"/>
<path d="M12.3701 76.0204C12.8079 76.3697 13.1922 76.7827 13.6423 77.1155C14.1182 77.446 14.6247 77.7301 15.1549 77.9641L17.1812 78.9381C17.8092 79.2644 18.4663 79.5313 19.1439 79.7353C20.0112 79.9675 20.9216 79.9901 21.793 80.2058C22.8925 80.4771 23.8975 81.0421 24.9806 81.3688C26.0637 81.6955 27.3317 81.7489 28.236 81.0688C28.8011 80.6435 29.2286 79.9408 29.9294 79.836C30.3816 79.7764 30.8173 79.9942 31.2201 80.2058L36.4936 82.9776C37.2047 83.3516 37.9569 83.7667 38.3289 84.4797C38.7009 85.1926 38.4501 86.2755 37.6671 86.4604C37.3942 86.4918 37.1198 86.5075 36.8451 86.5077C36.5738 86.5405 36.2778 86.7008 36.2408 86.9741C36.2395 87.1438 36.2842 87.3107 36.3703 87.4569C36.6067 87.9994 36.6765 88.6487 36.4011 89.1747C36.1258 89.7007 35.4496 90.0274 34.9091 89.7911C35.0016 90.5863 34.1363 91.1431 33.3657 91.3547C31.4215 91.8869 29.3601 91.5602 27.3728 91.2232C26.5918 91.0917 25.7985 90.9561 25.0875 90.6068C24.7463 90.4404 24.4298 90.2267 24.0845 90.0726C23.1371 89.6514 22.0602 89.7069 21.0244 89.7253C16.2338 89.8096 11.4843 88.9219 6.7739 88.0384C5.90045 87.874 5.00234 87.6994 4.25632 87.2165C2.81771 86.2796 2.28336 84.3564 2.51971 82.6551C2.75605 80.9538 3.61922 79.4127 4.468 77.9169L5.56752 75.9793C5.71125 75.6825 5.91242 75.4171 6.1594 75.1985C7.77682 73.9636 10.9849 74.9067 12.3701 76.0204Z" fill="#A1616A"/>
<path opacity="0.04" d="M12.3701 76.0204C12.8079 76.3697 13.1922 76.7827 13.6423 77.1155C14.1182 77.446 14.6247 77.7301 15.1549 77.9641L17.1812 78.9381C17.8092 79.2644 18.4663 79.5313 19.1439 79.7353C20.0112 79.9675 20.9216 79.9901 21.793 80.2058C22.8925 80.4771 23.8975 81.0421 24.9806 81.3688C26.0637 81.6955 27.3317 81.7489 28.236 81.0688C28.8011 80.6435 29.2286 79.9408 29.9294 79.836C30.3816 79.7764 30.8173 79.9942 31.2201 80.2058L36.4936 82.9776C37.2047 83.3516 37.9569 83.7667 38.3289 84.4797C38.7009 85.1926 38.4501 86.2755 37.6671 86.4604C37.3942 86.4918 37.1198 86.5075 36.8451 86.5077C36.5738 86.5405 36.2778 86.7008 36.2408 86.9741C36.2395 87.1438 36.2842 87.3107 36.3703 87.4569C36.6067 87.9994 36.6765 88.6487 36.4011 89.1747C36.1258 89.7007 35.4496 90.0274 34.9091 89.7911C35.0016 90.5863 34.1363 91.1431 33.3657 91.3547C31.4215 91.8869 29.3601 91.5602 27.3728 91.2232C26.5918 91.0917 25.7985 90.9561 25.0875 90.6068C24.7463 90.4404 24.4298 90.2267 24.0845 90.0726C23.1371 89.6514 22.0602 89.7069 21.0244 89.7253C16.2338 89.8096 11.4843 88.9219 6.7739 88.0384C5.90045 87.874 5.00234 87.6994 4.25632 87.2165C2.81771 86.2796 2.28336 84.3564 2.51971 82.6551C2.75605 80.9538 3.61922 79.4127 4.468 77.9169L5.56752 75.9793C5.71125 75.6825 5.91242 75.4171 6.1594 75.1985C7.77682 73.9636 10.9849 74.9067 12.3701 76.0204Z" fill="black"/>
<path d="M75.106 79.5708C74.0352 80.0762 72.8063 80.1255 71.6882 80.5139C70.5702 80.9022 69.6208 81.6008 68.5952 82.17C65.9235 83.6617 62.8408 84.2247 59.8135 84.761C57.9782 85.0897 56.1142 85.4185 54.2646 85.3404C51.7614 85.2336 49.3568 84.3993 46.9317 83.7706C44.5066 83.1419 41.9192 82.7186 39.5167 83.4254C38.2621 83.8073 37.1153 84.4794 36.169 85.3873C35.2228 86.2951 34.5039 87.4131 34.0705 88.6506C33.567 90.1279 33.4971 91.7203 33.5937 93.2778C34.0993 93.6497 34.8063 93.1339 35.0817 92.5689C35.3571 92.0039 35.5071 91.3114 36.0414 90.9827C36.9683 91.297 37.1944 92.5319 37.9589 93.1422C38.4357 93.5243 39.0728 93.625 39.6791 93.7113L42.8029 94.1551C43.5551 94.262 44.4286 94.3339 44.9732 93.8038C45.2383 93.5469 45.3842 93.1874 45.6267 92.912C46.1241 92.3614 46.9543 92.2669 47.6942 92.3408C50.0042 92.571 52.1704 94.0688 54.4639 93.7134C55.2531 93.5921 55.9868 93.2552 56.739 92.9901C61.1966 91.4162 66.1496 92.3737 70.7881 91.4717C72.5576 91.1285 74.2613 90.5203 75.9445 89.8793C76.859 89.532 77.7839 89.1683 78.5648 88.5807C79.3047 88.0119 79.8881 87.2647 80.2605 86.4091C80.6329 85.5535 80.782 84.6174 80.694 83.6884C80.5219 82.2727 79.8154 80.9761 78.719 80.0639C78.3572 79.7557 77.8825 79.166 77.4489 78.9728C76.6206 78.6091 75.8088 79.2399 75.106 79.5708Z" fill="#A1616A"/>
<g opacity="0.1">
<path opacity="0.1" d="M69.1009 53.3221C68.7577 53.018 68.6734 52.5557 68.3775 52.2187C67.7609 51.5057 66.5155 51.6023 65.5003 51.7461C63.7308 51.9947 61.5955 52.0523 60.498 50.8215C60.0233 50.2914 59.8136 49.5886 59.2341 49.1469C57.8818 48.1195 55.5553 49.1715 54.0653 48.3024C52.7644 47.5442 52.8487 45.7854 51.7636 44.8094C50.6784 43.8334 48.798 43.9608 47.3244 44.4477C47.0751 44.5622 46.7956 44.5939 46.527 44.5381C46.0605 44.3738 46.0934 43.7943 46.2085 43.367C46.7695 41.302 47.3408 39.2164 48.4321 37.3179C48.8288 36.6254 49.2974 35.9576 49.5522 35.2138C49.9982 33.9111 49.7701 32.4379 50.3558 31.2051C49.7269 31.616 49.1227 32.064 48.7342 32.6434C47.8587 33.9481 48.1979 35.6083 47.7067 37.0569C47.4518 37.8007 46.9833 38.4685 46.5866 39.1609C45.4953 41.0595 44.924 43.145 44.3629 45.21C44.2478 45.6374 44.2149 46.2169 44.6815 46.3812C44.9501 46.437 45.2296 46.4053 45.4789 46.2908C46.9524 45.8039 48.8247 45.6641 49.918 46.6525C51.0114 47.6408 50.9189 49.3935 52.2198 50.1455C53.7098 51.0146 56.0362 49.9647 57.3885 50.99C57.9681 51.4297 58.1777 52.1344 58.6525 52.6646C59.7581 53.8974 61.8852 53.8378 63.6547 53.5892C64.67 53.4454 65.9154 53.3488 66.532 54.0618C66.8279 54.3987 66.9122 54.8611 67.2554 55.1652C67.8719 55.7158 69.0002 55.4364 69.6024 54.8713C69.9885 54.4694 70.3189 54.0174 70.5847 53.5275C70.0504 53.6899 69.4811 53.6652 69.1009 53.3221Z" fill="black"/>
<path opacity="0.1" d="M72.8454 51.062C72.713 51.2324 72.5902 51.4101 72.4775 51.5941C73.2667 51.0311 74.1032 50.5051 74.693 49.788C74.8461 49.6025 74.9836 49.4045 75.104 49.1963C74.284 49.7839 73.4291 50.3243 72.8454 51.062Z" fill="black"/>
</g>
<path d="M114.365 91.7495L114.982 150.72L117.859 150.309L117.242 91.7495H114.365Z" fill="#3F3D56"/>
<path d="M131.629 102.434L132.245 161.404L135.123 160.994L134.506 102.434H131.629Z" fill="#3F3D56"/>
<path d="M185.378 132.223L185.365 131.091V130.417L185.256 120.045L185.086 103.829L185.057 102.43H182.18L182.194 103.778L182.285 112.463L182.324 116.223L182.356 119.268L182.41 124.532L182.443 127.637V127.966L182.486 132.046L182.523 135.644L182.757 135.385C183.134 134.965 183.503 134.537 183.863 134.103L185.378 132.223Z" fill="#3F3D56"/>
<path d="M128.444 111.988L126.8 114.446L128.444 125.642L142.419 129.466H165.026L178.59 130.286L185.051 125.864L183.933 118.27L179.001 111.988H128.444Z" fill="#F7F7F7"/>
<path d="M126.8 114.445L125.978 121.271C125.978 121.271 121.662 134.653 156.394 133.834C191.126 133.014 185.166 130.283 185.166 130.283L184.961 122.364C184.961 122.364 186.171 126.112 168.52 125.604C150.868 125.097 134.404 123.457 134.404 123.457C134.404 123.457 128.238 124.548 126.8 114.445Z" fill="#3F3D56"/>
<path d="M155.736 53.2643C153.755 54.1663 152.255 55.9149 151.25 57.8484C150.245 59.7819 149.68 61.9044 149.123 64.0125C148.535 66.2357 147.945 68.4651 147.641 70.7438C147.098 74.7957 147.505 79.0551 149.367 82.694C151.229 86.3329 154.67 89.2691 158.698 89.9698C160.253 90.2431 161.852 90.1876 163.425 90.0253C166.266 89.7244 169.066 89.1076 171.771 88.1863C174.596 87.2308 177.537 85.7597 178.795 83.0495C179.525 81.4776 179.586 79.6859 179.551 77.9558C179.454 73.2405 178.742 68.5579 177.433 64.0269C177.052 62.7119 176.61 61.3866 175.805 60.2791C174.999 59.1716 173.898 58.36 172.773 57.608C167.966 54.3718 161.649 50.5767 155.736 53.2643Z" fill="#FBBEBE"/>
<path opacity="0.05" d="M155.736 53.2643C153.755 54.1663 152.255 55.9149 151.25 57.8484C150.245 59.7819 149.68 61.9044 149.123 64.0125C148.535 66.2357 147.945 68.4651 147.641 70.7438C147.098 74.7957 147.505 79.0551 149.367 82.694C151.229 86.3329 154.67 89.2691 158.698 89.9698C160.253 90.2431 161.852 90.1876 163.425 90.0253C166.266 89.7244 169.066 89.1076 171.771 88.1863C174.596 87.2308 177.537 85.7597 178.795 83.0495C179.525 81.4776 179.586 79.6859 179.551 77.9558C179.454 73.2405 178.742 68.5579 177.433 64.0269C177.052 62.7119 176.61 61.3866 175.805 60.2791C174.999 59.1716 173.898 58.36 172.773 57.608C167.966 54.3718 161.649 50.5767 155.736 53.2643Z" fill="black"/>
<path d="M153.511 79.1271C154.084 79.9152 154.778 80.6085 155.566 81.1818C157.522 82.5338 160.034 82.7167 162.41 82.7907C164.317 82.8482 166.503 82.7393 167.7 81.2517C168.238 80.5819 168.48 79.7271 168.698 78.8949C170.043 73.785 170.998 68.5806 171.555 63.3263L176.997 63.3448C179.352 73.4273 179.159 83.9085 178.954 94.2622L178.656 109.36L175.149 108.988C166.824 108.107 158.486 107.225 150.116 107.073C145.211 106.983 140.305 107.145 135.417 107.558L143.052 84.8618C144.043 81.9113 145.043 78.9216 145.276 75.8211C145.611 71.3233 144.349 66.5748 146.098 62.414C146.237 62.0791 146.414 61.7319 146.733 61.5572C147.051 61.3826 147.454 61.4257 147.82 61.473C148.51 61.5654 150.621 61.473 151.123 61.9147C151.862 62.5558 151.373 62.6524 151.112 63.6859C150.646 65.5352 150.204 67.2467 150.21 69.1741C150.216 72.6733 151.301 76.3676 153.511 79.1271Z" fill="#F7F7F7"/>
<path d="M185.378 132.223C186.295 131.007 187.159 129.747 187.97 128.445C187.559 127.565 187.107 126.706 186.747 125.808C186.196 124.432 185.88 122.973 185.567 121.524C185.46 121.031 185.354 120.538 185.249 120.045C184.098 114.68 183.017 109.239 182.793 103.8C182.772 103.348 182.759 102.896 182.754 102.444C182.754 102.378 182.754 102.315 182.754 102.239C182.754 101.744 182.754 101.248 182.754 100.755C182.779 99.5224 182.857 98.2793 182.998 97.0424C183.025 96.7999 183.056 96.5574 183.089 96.315C183.089 96.2616 183.101 96.2102 183.109 96.1568L197.085 95.6472L198.26 95.6041C199.068 95.5753 199.923 95.5301 200.589 95.0719C201.709 94.3034 201.84 92.7274 201.822 91.3734C201.754 87.951 201.366 84.5424 200.663 81.1923C200.132 78.6732 199.376 76.0986 197.678 74.1631C196.285 72.5727 194.267 71.4159 193.541 69.4372C193.272 68.7016 193.204 67.8941 192.855 67.1914C192.506 66.4887 191.928 65.973 191.383 65.4305C189.467 63.5316 187.877 61.3295 186.677 58.913C185.845 57.2363 184.943 55.3871 183.855 54.2282C183.802 54.1686 183.749 54.1131 183.693 54.0597C182.768 53.1454 181.71 52.7447 180.456 53.3673C180.231 53.4804 180.016 53.6138 179.815 53.7659C179.368 54.1072 178.96 54.4957 178.596 54.9247C177.33 56.3805 176.219 57.9643 175.281 59.6506C174.622 60.8378 174.056 62.0743 173.588 63.3491C173.218 64.3562 172.913 65.3856 172.673 66.4312C172.497 67.2058 172.357 67.9886 172.246 68.7735C171.835 71.7241 171.835 74.7322 171.892 77.7198C171.954 80.4649 172.075 83.2162 172.324 85.951C172.386 86.6126 172.454 87.2735 172.529 87.9338C172.68 89.2392 172.866 90.5405 173.088 91.8378C173.177 92.3329 173.267 92.8281 173.368 93.3213C173.393 93.4528 173.419 93.5843 173.446 93.7137L173.458 93.7692C173.73 94.9154 173.94 96.0752 174.089 97.2437C174.106 97.3903 174.118 97.5362 174.126 97.6814C174.161 98.353 174.155 99.0261 174.11 99.697C174.063 100.49 173.989 101.281 173.952 102.074C173.952 102.214 173.952 102.352 173.937 102.485C173.927 102.886 173.937 103.287 173.937 103.687C173.979 104.646 174.093 105.6 174.278 106.541C174.625 108.292 175.224 109.984 176.056 111.563C176.134 111.711 176.214 111.857 176.294 112.001C177.336 113.862 178.652 115.57 179.616 117.474C180.447 119.188 181.068 120.997 181.465 122.86C181.602 123.475 181.732 124.091 181.856 124.709C182.047 125.695 182.217 126.69 182.392 127.684C182.409 127.783 182.427 127.89 182.446 127.98C182.678 129.299 182.922 130.612 183.237 131.901C183.42 132.651 183.625 133.39 183.866 134.118L185.378 132.223Z" fill="#464353"/>
<path d="M182.632 116.028C182.632 116.213 182.62 116.398 182.612 116.585C182.575 117.486 182.492 118.385 182.363 119.279C182.193 120.498 181.895 121.695 181.473 122.852C181.194 123.612 180.839 124.343 180.413 125.032C180.035 125.644 179.593 126.213 179.093 126.731C177.86 128.013 176.085 128.422 174.367 128.962C173.576 129.191 172.812 129.503 172.087 129.893C171.958 129.965 171.83 130.043 171.707 130.125L169.557 131.549C168.887 131.991 168.203 132.449 167.743 133.105C167.667 133.216 167.599 133.332 167.537 133.452C167.246 134.055 167.034 134.693 166.904 135.351C165.786 140.007 164.666 144.667 163.9 149.393C163.848 149.705 163.799 150.019 163.745 150.334L163.727 150.432C163.718 150.409 163.707 150.386 163.694 150.364C158.194 153.689 152.491 156.689 146.616 159.091L145.339 148.406C145.206 147.538 145.162 146.658 145.208 145.78C145.329 144.397 145.892 143.087 146.044 141.708C146.188 140.358 145.933 138.996 145.311 137.79C145.068 137.321 144.764 136.861 144.708 136.337C144.653 135.813 144.955 135.334 145.481 135.281C145.892 134.825 145.925 134.202 145.804 133.586C145.739 133.264 145.643 132.949 145.516 132.647C145.167 131.788 144.725 130.853 145.025 129.975C145.104 129.816 145.14 129.639 145.128 129.462C145.13 129.451 145.13 129.44 145.128 129.429C145.058 129.199 144.785 129.098 144.643 128.903C144.376 128.539 144.643 128.044 144.807 127.625C144.967 127.174 145.06 126.703 145.083 126.226C145.105 125.961 145.122 125.693 145.15 125.43C145.19 125.074 145.254 124.722 145.341 124.374C145.841 122.406 147.041 120.688 148.718 119.542C149.518 119.003 150.407 118.611 151.223 118.103C152.059 117.54 152.857 116.922 153.611 116.254C155.421 114.747 157.303 113.327 159.257 111.993C161.358 110.558 163.534 109.237 165.776 108.035C166.256 107.776 166.735 107.524 167.215 107.279C167.737 107.005 168.262 106.745 168.791 106.5C170.484 105.693 172.406 105.995 174.278 106.533C175.063 106.757 175.838 107.024 176.586 107.267C177.317 107.504 178.02 107.82 178.682 108.208C180.341 109.182 181.712 110.62 182.281 112.436C182.282 112.448 182.282 112.46 182.281 112.471C182.643 113.61 182.665 114.83 182.632 116.028Z" fill="#FFC727"/>
<path opacity="0.1" d="M182.632 116.028C182.632 116.213 182.62 116.398 182.612 116.585C182.575 117.486 182.492 118.385 182.363 119.279C182.193 120.498 181.895 121.695 181.473 122.852C181.194 123.612 180.839 124.343 180.413 125.032C180.035 125.644 179.593 126.213 179.093 126.731C177.86 128.013 176.085 128.422 174.367 128.962C173.576 129.191 172.812 129.503 172.087 129.893C171.958 129.965 171.83 130.043 171.707 130.125L169.557 131.549C168.887 131.991 168.203 132.449 167.743 133.105C167.667 133.216 167.599 133.332 167.537 133.452C167.246 134.055 167.034 134.693 166.904 135.351C165.786 140.007 164.666 144.667 163.9 149.393C163.848 149.705 163.799 150.019 163.745 150.334L163.727 150.432C163.718 150.409 163.707 150.386 163.694 150.364C158.194 153.689 152.491 156.689 146.616 159.091L145.339 148.406C145.206 147.538 145.162 146.658 145.208 145.78C145.329 144.397 145.892 143.087 146.044 141.708C146.188 140.358 145.933 138.996 145.311 137.79C145.068 137.321 144.764 136.861 144.708 136.337C144.653 135.813 144.955 135.334 145.481 135.281C145.892 134.825 145.925 134.202 145.804 133.586C145.739 133.264 145.643 132.949 145.516 132.647C145.167 131.788 144.725 130.853 145.025 129.975C145.104 129.816 145.14 129.639 145.128 129.462C145.13 129.451 145.13 129.44 145.128 129.429C145.058 129.199 144.785 129.098 144.643 128.903C144.376 128.539 144.643 128.044 144.807 127.625C144.967 127.174 145.06 126.703 145.083 126.226C145.105 125.961 145.122 125.693 145.15 125.43C145.19 125.074 145.254 124.722 145.341 124.374C145.841 122.406 147.041 120.688 148.718 119.542C149.518 119.003 150.407 118.611 151.223 118.103C152.059 117.54 152.857 116.922 153.611 116.254C155.421 114.747 157.303 113.327 159.257 111.993C161.358 110.558 163.534 109.237 165.776 108.035C166.256 107.776 166.735 107.524 167.215 107.279C167.737 107.005 168.262 106.745 168.791 106.5C170.484 105.693 172.406 105.995 174.278 106.533C175.063 106.757 175.838 107.024 176.586 107.267C177.317 107.504 178.02 107.82 178.682 108.208C180.341 109.182 181.712 110.62 182.281 112.436C182.282 112.448 182.282 112.46 182.281 112.471C182.643 113.61 182.665 114.83 182.632 116.028Z" fill="black"/>
<path d="M163.118 81.9937C163.097 81.946 163.067 81.903 163.029 81.8672C162.991 81.8315 162.947 81.8037 162.898 81.7857C162.849 81.7676 162.797 81.7596 162.745 81.7622C162.693 81.7647 162.642 81.7777 162.595 81.8005C162.548 81.8232 162.506 81.8551 162.472 81.8944C162.438 81.9337 162.412 81.9795 162.396 82.029C162.38 82.0785 162.374 82.1308 162.379 82.1826C162.384 82.2345 162.399 82.2848 162.423 82.3307L162.218 82.4314L168.346 94.9898L169.454 94.4494L163.326 81.8828L163.118 81.9937Z" fill="#3F3D56"/>
<path d="M170.78 68.8394C178.044 68.8394 183.933 62.9519 183.933 55.6893C183.933 48.4266 178.044 42.5391 170.78 42.5391C163.516 42.5391 157.627 48.4266 157.627 55.6893C157.627 62.9519 163.516 68.8394 170.78 68.8394Z" fill="#FBBEBE"/>
<path d="M188.14 47.5483C188.079 46.503 187.923 45.4653 187.676 44.4478C186.903 41.1253 185.491 37.8542 183.06 35.4686C182.91 34.8854 182.731 34.31 182.524 33.7447C182.52 33.7307 182.515 33.717 182.509 33.7036C181.784 31.7122 180.736 29.8538 179.406 28.2032C178.635 27.2457 177.636 26.3005 176.407 26.2635C176.062 26.2512 175.696 26.3108 175.38 26.1525C175.147 26.0021 174.951 25.8013 174.806 25.5649C174.198 24.796 173.391 24.2079 172.472 23.8643C171.554 23.5206 170.559 23.4344 169.595 23.615L169.467 23.6417C169.395 23.6561 169.323 23.6725 169.262 23.691C169.2 23.7095 169.089 23.7403 169.003 23.767C169.097 23.9232 169.19 24.0814 169.28 24.2417C169.524 24.6759 169.75 25.1197 169.958 25.5731C170.131 25.9512 170.291 26.3354 170.437 26.7258C168.333 26.9662 166.619 28.46 165.053 29.8819L161.366 33.2269C161.359 33.2326 161.353 33.2388 161.347 33.2454L161.24 33.3482C161.214 33.3749 161.187 33.4016 161.162 33.4304C161.152 33.4389 161.143 33.4486 161.136 33.4591C161.105 33.492 161.076 33.5269 161.047 33.5619C160.996 33.6266 160.95 33.6953 160.909 33.7673C160.889 33.7982 160.871 33.8305 160.856 33.8639C160.85 33.8738 160.846 33.8841 160.842 33.8947C160.828 33.9228 160.817 33.9516 160.807 33.981C160.806 33.9851 160.806 33.9893 160.807 33.9934C160.801 34.0102 160.796 34.0273 160.792 34.0447C160.75 34.1893 160.763 34.3443 160.827 34.4803L163.259 34.507H163.544C163.557 34.8317 163.567 35.1584 163.579 35.483C163.193 35.7717 162.823 36.0803 162.469 36.4076C162.084 36.7644 161.722 37.1461 161.386 37.5501C159.193 40.1986 158.049 43.6197 157.934 47.0634C157.934 47.1703 157.934 47.2689 157.934 47.3798C157.934 47.6942 157.934 48.0086 157.934 48.3209C157.934 48.5264 157.952 48.7319 157.969 48.9373C157.97 49.205 158.04 49.4677 158.174 49.6996C158.192 49.7255 158.211 49.7502 158.232 49.7736C158.355 49.9074 158.503 50.0162 158.667 50.0941L158.844 50.1804C158.932 50.2236 159.017 50.2647 159.099 50.3119C159.874 50.7496 160.332 51.5941 161.037 52.1365C161.078 52.1673 161.119 52.1982 161.16 52.2249L161.253 52.2865L161.31 52.3235L161.388 52.3687C161.44 52.3996 161.492 52.4277 161.547 52.4529L161.645 52.5023H161.662C161.744 52.5393 161.826 52.5742 161.91 52.605L162.027 52.6461L162.062 52.6584C162.095 52.6687 162.13 52.681 162.165 52.6892C162.235 52.7098 162.304 52.7283 162.371 52.7447L162.576 52.7899C162.656 52.8043 162.739 52.8187 162.821 52.829L162.942 52.8454L163.065 52.8577C163.261 52.8755 163.459 52.8858 163.657 52.8886C164.281 52.8847 164.903 52.8415 165.521 52.7591L170.766 52.1427C171.956 52.005 173.171 51.8674 174.344 52.1098C175.339 52.3153 176.255 52.7879 177.221 53.1228C177.439 53.1988 177.657 53.2687 177.877 53.3283C177.957 53.3509 178.039 53.3755 178.121 53.3961L178.235 53.4248L178.498 53.4885C178.592 53.5111 178.687 53.5337 178.781 53.5522C178.915 53.581 179.046 53.6056 179.18 53.6303C179.27 53.6488 179.363 53.6632 179.455 53.6796H179.474L179.737 53.7207H179.801L179.996 53.7474C180.09 53.7618 180.185 53.7741 180.281 53.7844C180.491 53.8104 180.701 53.833 180.91 53.8522C181.249 53.8851 181.591 53.9097 181.938 53.9303L182.279 53.9508L182.62 53.9673L183.648 54.0125H183.693H183.837C184.264 54.0423 184.693 54.0202 185.115 53.9467C185.189 53.9324 185.261 53.9159 185.333 53.8954C185.405 53.8748 185.465 53.8543 185.539 53.8296C186.309 53.5337 186.872 52.8536 187.263 52.1262C187.345 51.9721 187.421 51.818 187.491 51.6598C187.561 51.5016 187.625 51.3413 187.682 51.1811C187.754 50.9756 187.816 50.7804 187.869 50.5749C187.886 50.5195 187.9 50.464 187.912 50.4065C187.925 50.3489 187.953 50.2359 187.97 50.1496C188.021 49.9133 188.06 49.675 188.089 49.4346C188.089 49.3585 188.108 49.2805 188.116 49.2044C188.134 48.999 188.149 48.8079 188.157 48.6065C188.157 48.4545 188.157 48.3004 188.157 48.1463C188.155 47.9798 188.14 47.76 188.14 47.5483ZM182.871 35.2817C182.704 35.1255 182.534 34.9755 182.361 34.8337C182.553 34.9549 182.725 35.1062 182.869 35.2817H182.871Z" fill="#464353"/>
<path d="M145.536 54.9656C143.989 54.7745 142.453 54.0964 140.926 54.4293C139.971 54.6347 139.149 55.2286 138.384 55.8388C135.539 58.1187 133.12 60.8838 131.238 64.0063C130.919 64.4732 130.695 64.9982 130.579 65.5515C130.48 66.1925 130.655 66.8439 130.862 67.4582C132.268 71.6108 135.275 75.0792 136.644 79.2441C138.082 83.6248 137.583 88.4123 136.522 92.8998C135.208 98.4397 133.071 103.752 130.184 108.659C129.792 109.389 129.301 110.061 128.725 110.657C127.977 111.376 126.972 111.889 126.528 112.831C126.322 113.241 126.263 113.71 126.117 114.15C125.706 115.382 124.711 116.439 124.615 117.739C124.543 118.732 125.013 119.671 125.299 120.616C125.781 122.24 125.73 123.975 125.153 125.568C124.111 128.424 121.386 131.021 122.177 133.957C123.943 133.45 125.899 132.79 126.731 131.152C127.025 130.573 127.171 129.883 127.667 129.459C128.655 128.619 130.338 129.379 131.388 128.607C132.182 128.019 132.211 126.815 131.857 125.89C131.504 124.966 130.895 124.152 130.624 123.201C130.151 121.485 130.908 119.671 130.768 117.897C130.702 117.076 130.449 116.289 130.431 115.471C130.396 113.883 131.275 112.389 132.445 111.31C133.614 110.231 135.059 109.516 136.481 108.811L141.857 106.14C143.808 105.175 145.945 103.997 146.584 101.918C146.827 101.139 146.829 100.309 146.841 99.4954C147.024 87.0623 150.14 74.8799 153.237 62.8372C153.718 60.9715 154.207 59.0976 154.922 57.3059C155.637 55.5142 157.037 54.0759 157.75 52.4115C153.613 51.9266 149.834 55.5039 145.536 54.9656Z" fill="#464353"/>
<path d="M175.174 132.965C175.648 135.841 175.938 138.779 176.164 141.703C172.465 144.769 168.482 147.436 164.435 149.91C164.205 150.052 163.973 150.191 163.741 150.321L163.722 150.419C163.713 150.396 163.702 150.373 163.689 150.352C163.375 149.673 162.826 149.132 162.144 148.827C160.627 145.642 159.112 142.457 157.598 139.273C156.776 137.553 155.954 135.817 155.543 133.961C155.543 133.922 155.524 133.881 155.518 133.842C155.206 132.404 155.134 130.91 154.926 129.453C154.821 128.619 154.633 127.797 154.365 127C154.118 126.291 153.779 125.603 153.479 124.91C153.109 124.055 152.799 123.19 152.785 122.268C152.785 121.974 152.803 121.651 152.659 121.405C152.506 121.193 152.316 121.009 152.098 120.862C151.827 120.622 151.621 120.316 151.5 119.975C151.38 119.633 151.348 119.266 151.408 118.908C150.175 118.972 149.48 120.297 148.985 121.421C148.534 122.521 147.943 123.557 147.225 124.503C146.702 125.18 146.037 125.733 145.277 126.124C145.209 126.157 145.142 126.19 145.072 126.219C143.356 126.975 141.352 126.708 139.492 126.367C137.866 126.069 136.185 125.699 134.878 124.688L134.738 124.577C134.351 124.256 134.006 123.887 133.711 123.48C132.615 121.984 132.13 120.014 131.861 118.138C131.836 117.961 131.812 117.784 131.789 117.608C131.602 116.282 131.551 114.941 131.635 113.605C131.66 113.276 131.695 112.948 131.738 112.621C131.767 112.415 131.797 112.194 131.832 111.98C131.831 111.974 131.831 111.967 131.832 111.961C131.886 111.622 131.943 111.281 132.001 110.934C132.206 109.769 132.412 108.573 133.028 107.57C133.434 106.947 133.946 106.399 134.541 105.951C134.763 105.777 134.991 105.61 135.221 105.45C135.595 105.191 135.98 104.944 136.37 104.712C137.352 104.124 138.384 103.623 139.453 103.212C139.708 103.114 139.967 103.021 140.226 102.933C141.232 102.575 142.315 102.489 143.366 102.684C144.297 102.819 145.237 102.874 146.177 102.849C148.588 102.801 151.009 102.341 153.416 102.043C156.757 101.632 160.348 101.583 163.262 103.276C163.402 103.356 163.537 103.44 163.673 103.529C165.112 104.47 166.271 105.789 167.206 107.262C167.411 107.572 167.59 107.891 167.767 108.214C168.174 108.954 168.543 109.715 168.87 110.494C169.064 110.877 169.169 111.298 169.177 111.727C169.172 111.809 169.161 111.89 169.144 111.97C169.088 112.261 168.977 112.545 168.938 112.841C168.809 113.961 169.76 114.895 170.116 115.962C170.346 116.656 170.321 117.4 170.451 118.132C170.638 119.159 171.141 120.084 171.594 121.008C172.308 122.497 172.919 124.032 173.423 125.605C173.78 126.7 174.086 127.811 174.356 128.933C174.443 129.294 174.526 129.655 174.604 130.016C174.828 131.011 175.011 131.985 175.174 132.965Z" fill="#FFC727"/>
<path d="M197.086 102.537V103.975L196.821 103.971L196.525 103.967L193.22 103.926L185.077 103.819L182.792 103.79L182.2 103.782L178.77 103.739L173.936 103.675L163.681 103.542L145.885 103.311L139.463 103.229L136.886 103.196L134.514 103.166L133.037 103.145L131.637 103.126L121.26 102.993L118.383 102.956L117.756 102.948L117.349 101.898L114.392 94.2727L113.852 92.8796L114.263 91.2358L116.112 92.4687L117.251 92.6104L135.996 94.9405L139.514 95.3781L146.975 96.3069L154.283 97.2151L157.148 97.5705L174.101 99.6787L178.838 100.268L182.759 100.755L196.701 102.49L197.086 102.537Z" fill="#3F3D56"/>
<path d="M114.263 91.2358L117.962 100.893L197.086 102.537V92.0577L114.263 91.2358Z" fill="#504F60"/>
<path d="M118.373 101.92L118.99 160.891L121.867 160.48L121.25 101.92H118.373Z" fill="#3F3D56"/>
<path d="M196.821 103.969H196.525C196.046 107.645 195.253 111.274 194.156 114.816L193.221 103.926L193.182 103.461L196.638 103.063L196.754 103.05L196.821 103.969Z" fill="#3F3D56"/>
<path d="M185.577 96.9889L155.469 97.6053L146.118 94.5233L171.191 93.085L185.577 96.9889Z" fill="white"/>
<path d="M147.809 85.006C147.49 85.1284 147.207 85.3299 146.987 85.5915C146.815 85.875 146.71 86.1941 146.681 86.5244L146.175 89.5387C146.098 89.8144 146.112 90.1076 146.214 90.3749C146.346 90.6277 146.728 90.7592 146.919 90.5496C146.895 91.1393 146.946 91.768 147.289 92.2488C147.632 92.7296 148.352 92.9824 148.837 92.6474C148.913 92.7714 149.015 92.8772 149.136 92.9578C149.257 93.0383 149.394 93.0916 149.538 93.1139C149.681 93.1361 149.828 93.1269 149.968 93.0868C150.108 93.0467 150.237 92.9767 150.347 92.8817C150.055 92.9803 150.035 93.4262 150.242 93.6522C150.475 93.8573 150.771 93.9757 151.081 93.9871C154.692 94.4961 158.374 94.0329 161.747 92.6454C162.066 92.5139 161.227 88.5873 161.143 88.1846C160.938 87.2374 160.835 86.0806 160.035 85.4436C158.124 83.919 154.729 83.619 152.4 83.7998C150.809 83.9201 149.254 84.3288 147.809 85.006Z" fill="#FBBEBE"/>
<path opacity="0.1" d="M178.444 85.462C171.01 85.6038 163.422 85.725 156.328 83.4998C157.006 86.1253 156.959 88.8854 156.192 91.4865L190.949 94.3631C192.423 94.4843 198.533 95.1747 199.969 94.8274C201.406 94.4802 187.916 90.0379 188.461 88.6633C189.959 84.8764 194.977 82.6573 191.362 82.5156C186.8 82.3348 183.041 85.3757 178.444 85.462Z" fill="black"/>
<path d="M178.649 85.8727C171.215 86.0145 163.628 86.1357 156.533 83.9104C157.211 86.536 157.164 89.2961 156.397 91.8971L191.154 94.7737C192.628 94.895 198.738 95.5956 200.175 95.2381C201.611 94.8806 201.274 93.1197 201.819 91.7451C203.317 87.9582 195.183 83.068 191.568 82.9262C187.005 82.7454 183.246 85.7864 178.649 85.8727Z" fill="#464353"/>
<path d="M166.83 86.4439C167.15 86.5661 167.433 86.7677 167.652 87.0295C167.824 87.3133 167.93 87.6322 167.961 87.9624L168.466 90.9766C168.542 91.2525 168.529 91.5454 168.427 91.8129C168.296 92.0656 167.911 92.1971 167.722 91.9876C167.745 92.5773 167.696 93.206 167.352 93.6868C167.009 94.1676 166.29 94.4203 165.803 94.0854C165.727 94.2093 165.625 94.3152 165.504 94.3958C165.382 94.4763 165.245 94.5296 165.102 94.5518C164.958 94.5741 164.811 94.5649 164.671 94.5248C164.532 94.4847 164.402 94.4147 164.292 94.3197C164.584 94.4183 164.607 94.8642 164.399 95.0902C164.166 95.2953 163.869 95.4136 163.559 95.4251C159.948 95.9341 156.266 95.4709 152.894 94.0834C152.576 93.9519 153.412 90.0253 153.498 89.6226C153.704 88.6754 153.807 87.5185 154.606 86.8816C156.515 85.357 159.913 85.057 162.241 85.2378C163.831 85.3584 165.386 85.7671 166.83 86.4439Z" fill="#FBBEBE"/>
<path d="M117.712 79.9001C117.03 80.7795 116.345 81.6774 115.905 82.7027C115.065 84.6588 115.188 86.8738 115.328 88.9984C115.367 89.6148 115.416 90.2436 115.739 90.7552C116.018 91.1417 116.386 91.4553 116.812 91.6695C118.592 92.6805 120.675 92.9825 122.71 93.2085C125.826 93.5537 128.952 93.764 132.09 93.8393C139.862 94.0284 147.754 93.3934 155.326 95.1543C154.388 93.7304 154.39 91.8462 154.915 90.223C155.439 88.5998 156.448 87.1861 157.436 85.7951C153.971 84.6979 150.255 86.4115 146.626 86.241C142.9 86.0663 139.451 83.913 135.721 83.915C134.92 83.915 134.104 84.0157 133.325 83.8226C132.546 83.6294 131.792 83.0418 131.72 82.2425C132.715 82.4665 133.658 81.6158 134.069 80.683C134.48 79.7501 134.554 78.6961 134.953 77.757C135.945 75.4208 138.627 74.338 140.296 72.4148C140.559 72.1107 140.808 71.7511 140.8 71.3484C140.76 71.0072 140.617 70.6865 140.389 70.4299C139.001 68.5807 136.911 67.5533 135.175 66.115C134.57 65.6137 133.352 63.7233 132.674 63.5487C131.416 63.2261 130.349 65.0425 129.531 65.928C125.402 70.4142 121.462 75.0715 117.712 79.9001Z" fill="#464353"/>
<path opacity="0.07" d="M159.037 79.3779C159.558 79.7642 160.021 80.2229 160.412 80.7402C160.607 81 160.746 81.2974 160.82 81.6136C160.893 81.9298 160.901 82.2579 160.842 82.5771C160.778 81.9816 160.911 81.3816 161.22 80.8685C161.529 80.3555 161.997 79.9575 162.553 79.7354L159.037 79.3779Z" fill="black"/>
<g opacity="0.1">
<path opacity="0.1" d="M170.435 25.4948C170.194 24.8526 169.915 24.2249 169.601 23.6147C169.398 23.6538 169.198 23.7052 169.001 23.7689C169.354 24.3544 169.671 24.9602 169.953 25.5832C170.111 25.5421 170.271 25.5133 170.435 25.4948Z" fill="black"/>
<path opacity="0.1" d="M182.359 33.5967C182.415 33.6421 182.469 33.6936 182.522 33.7411C182.518 33.7277 182.514 33.7146 182.508 33.7019C182.461 33.6675 182.412 33.6324 182.359 33.5967Z" fill="black"/>
<path opacity="0.1" d="M163.254 34.5009C163.361 34.4167 163.46 34.3283 163.575 34.2462L163.542 33.2702L161.347 33.2476C160.991 33.5743 160.613 34.0427 160.823 34.4804L163.254 34.5009Z" fill="black"/>
<path opacity="0.1" d="M187.251 50.93C186.86 51.6573 186.297 52.3395 185.526 52.6333C184.932 52.8593 184.279 52.8388 183.644 52.81C181.478 52.7217 179.275 52.6251 177.228 51.908C176.27 51.571 175.353 51.1005 174.35 50.893C173.177 50.6505 171.962 50.7882 170.772 50.9279L165.528 51.5443C163.98 51.7251 162.256 51.8607 161.021 50.9115C160.314 50.369 159.857 49.5245 159.083 49.0889C158.756 48.904 158.367 48.7848 158.156 48.4725C158.022 48.2406 157.951 47.9779 157.95 47.7102C157.934 47.4945 157.923 47.2787 157.915 47.063C157.893 47.6898 157.905 48.3175 157.95 48.9431C157.951 49.2107 158.022 49.4734 158.156 49.7053C158.361 50.0156 158.756 50.1348 159.083 50.3218C159.857 50.7574 160.316 51.6018 161.021 52.1443C162.254 53.0936 163.98 52.9662 165.528 52.7771L170.772 52.1607C171.962 52.021 173.177 51.8833 174.35 52.1258C175.345 52.3313 176.262 52.8039 177.228 53.1408C179.283 53.8579 181.478 53.9627 183.644 54.0429C184.279 54.0696 184.932 54.0922 185.526 53.8661C186.297 53.5723 186.86 52.8902 187.251 52.1628C188.007 50.7553 188.219 49.1588 188.138 47.55C188.094 48.7281 187.791 49.8822 187.251 50.93Z" fill="black"/>
</g>
<path opacity="0.1" d="M170.375 26.8164L173.252 29.4875C173.252 29.4875 170.786 28.4602 170.375 26.8164Z" fill="black"/>
</g>
<defs>
<clipPath id="clip0">
<rect width="202" height="165" fill="white"/>
</clipPath>
</defs>
</svg>
