<svg width="32" height="28" viewBox="0 0 32 28" fill="none" xmlns="http://www.w3.org/2000/svg">
<path d="M31.9783 1.13645C32.1343 0.410273 31.4224 -0.202034 30.7279 0.0629633L0.603122 11.5629C0.240562 11.7013 0.000751758 12.0488 1.76421e-06 12.4369C-0.000748229 12.825 0.237687 13.1734 0.599747 13.3132L9.06236 16.5816V26.8761C9.06236 27.3103 9.36055 27.6877 9.78304 27.7882C10.2027 27.888 10.6403 27.6883 10.8371 27.298L14.3371 20.3525L22.8786 26.6914C23.3981 27.077 24.1449 26.8318 24.334 26.2121C32.3088 0.0650264 31.9641 1.20214 31.9783 1.13645ZM24.542 4.4313L9.86698 14.8824L3.55278 12.4438L24.542 4.4313ZM10.9373 16.4219L23.729 7.31221C12.722 18.924 13.2968 18.3128 13.2488 18.3774C13.1775 18.4734 13.3729 18.0994 10.9373 22.9325V16.4219ZM22.9284 24.3935L15.4099 18.8138L22.2071 11.6432L29.0042 4.47255L22.9284 24.3935Z" fill="#4C8BF5"/>
</svg>
