<svg width="32" height="32" viewBox="0 0 32 32" fill="none" xmlns="http://www.w3.org/2000/svg">
<path d="M21.3335 6.39996C21.3335 8.09733 20.7716 9.72519 19.7714 10.9254C18.7712 12.1256 17.4147 12.7999 16.0002 12.7999C14.5858 12.7999 13.2292 12.1256 12.2291 10.9254C11.2289 9.72519 10.667 8.09733 10.667 6.39996C10.667 4.70258 11.2289 3.07473 12.2291 1.8745C13.2292 0.67428 14.5858 0 16.0002 0C17.4147 0 18.7712 0.67428 19.7714 1.8745C20.7716 3.07473 21.3335 4.70258 21.3335 6.39996Z" fill="#4C8BF5"/>
<path d="M30.2213 10.6665C30.2213 11.7981 29.8467 12.8834 29.18 13.6835C28.5132 14.4837 27.6088 14.9332 26.6658 14.9332C25.7229 14.9332 24.8185 14.4837 24.1517 13.6835C23.4849 12.8834 23.1104 11.7981 23.1104 10.6665C23.1104 9.53496 23.4849 8.44972 24.1517 7.64957C24.8185 6.84942 25.7229 6.3999 26.6658 6.3999C27.6088 6.3999 28.5132 6.84942 29.18 7.64957C29.8467 8.44972 30.2213 9.53496 30.2213 10.6665Z" fill="#4C8BF5"/>
<path d="M23.1106 25.5992C23.1106 23.336 22.3615 21.1656 21.0279 19.5653C19.6943 17.965 17.8856 17.0659 15.9997 17.0659C14.1137 17.0659 12.305 17.965 10.9714 19.5653C9.63786 21.1656 8.88867 23.336 8.88867 25.5992V31.9992H23.1106V25.5992Z" fill="#4C8BF5"/>
<path d="M8.88833 10.6665C8.88833 11.7981 8.51374 12.8834 7.84695 13.6835C7.18017 14.4837 6.27581 14.9332 5.33284 14.9332C4.38986 14.9332 3.48551 14.4837 2.81872 13.6835C2.15194 12.8834 1.77734 11.7981 1.77734 10.6665C1.77734 9.53496 2.15194 8.44972 2.81872 7.64957C3.48551 6.84942 4.38986 6.3999 5.33284 6.3999C6.27581 6.3999 7.18017 6.84942 7.84695 7.64957C8.51374 8.44972 8.88833 9.53496 8.88833 10.6665Z" fill="#4C8BF5"/>
<path d="M26.6663 32.0002V25.6002C26.6689 23.4313 26.21 21.2974 25.333 19.4008C26.1212 19.1588 26.945 19.136 27.7416 19.3341C28.5382 19.5322 29.2866 19.9461 29.9297 20.5441C30.5728 21.1421 31.0935 21.9085 31.4522 22.7847C31.811 23.661 31.9982 24.624 31.9996 25.6002V32.0002H26.6663Z" fill="#4C8BF5"/>
<path d="M6.66655 19.4005C5.78967 21.2971 5.33075 23.4309 5.33324 25.5999V31.9999H4.72383e-07V25.5999C-0.000342159 24.6229 0.185709 23.6588 0.543896 22.7815C0.902083 21.9042 1.4229 21.1369 2.06642 20.5384C2.70995 19.94 3.45911 19.5263 4.25648 19.3291C5.05385 19.1318 5.87827 19.1562 6.66655 19.4005Z" fill="#4C8BF5"/>
</svg>
