<svg width="24" height="32" viewBox="0 0 24 32" fill="none" xmlns="http://www.w3.org/2000/svg">
<path d="M9 4.12473e-07C8.37935 -0.00032496 7.77387 0.191856 7.26702 0.550056C6.76017 0.908257 6.37688 1.41484 6.17 2H3C2.20435 2 1.44129 2.31607 0.878679 2.87868C0.31607 3.44129 0 4.20435 0 5V29C0 29.7956 0.31607 30.5587 0.878679 31.1213C1.44129 31.6839 2.20435 32 3 32H21C21.7957 32 22.5587 31.6839 23.1213 31.1213C23.6839 30.5587 24 29.7956 24 29V5C24 4.20435 23.6839 3.44129 23.1213 2.87868C22.5587 2.31607 21.7957 2 21 2H17.83C17.6231 1.41484 17.2398 0.908257 16.733 0.550056C16.2261 0.191856 15.6207 -0.00032496 15 4.12473e-07H9ZM8 3C8 2.73478 8.10536 2.48043 8.29289 2.29289C8.48043 2.10536 8.73478 2 9 2H15C15.2652 2 15.5196 2.10536 15.7071 2.29289C15.8946 2.48043 16 2.73478 16 3C16 3.26522 15.8946 3.51957 15.7071 3.70711C15.5196 3.89464 15.2652 4 15 4H9C8.73478 4 8.48043 3.89464 8.29289 3.70711C8.10536 3.51957 8 3.26522 8 3ZM10.708 11.708L7.208 15.208C7.02581 15.39 6.78046 15.4946 6.52302 15.5002C6.26558 15.5058 6.01591 15.4119 5.826 15.238L4.326 13.868C4.22407 13.7809 4.14071 13.6741 4.08086 13.5542C4.02101 13.4342 3.98591 13.3034 3.97764 13.1695C3.96937 13.0357 3.98809 12.9016 4.03271 12.7751C4.07732 12.6487 4.14691 12.5325 4.23734 12.4335C4.32776 12.3345 4.43717 12.2547 4.55907 12.1988C4.68096 12.1429 4.81285 12.1121 4.94688 12.1083C5.08091 12.1044 5.21435 12.1275 5.33927 12.1763C5.46418 12.225 5.57801 12.2984 5.674 12.392L6.468 13.116L9.292 10.292C9.38498 10.199 9.49535 10.1253 9.61683 10.075C9.73831 10.0246 9.86851 9.99874 10 9.99874C10.1315 9.99874 10.2617 10.0246 10.3832 10.075C10.5046 10.1253 10.615 10.199 10.708 10.292C10.801 10.385 10.8747 10.4954 10.925 10.6168C10.9754 10.7383 11.0013 10.8685 11.0013 11C11.0013 11.1315 10.9754 11.2617 10.925 11.3832C10.8747 11.5046 10.801 11.615 10.708 11.708ZM10.708 20.292C10.8011 20.3849 10.875 20.4952 10.9254 20.6167C10.9758 20.7382 11.0018 20.8685 11.0018 21C11.0018 21.1315 10.9758 21.2618 10.9254 21.3833C10.875 21.5048 10.8011 21.6151 10.708 21.708L7.208 25.208C7.02581 25.39 6.78046 25.4946 6.52302 25.5002C6.26558 25.5058 6.01591 25.4119 5.826 25.238L4.326 23.868C4.14022 23.6868 4.03217 23.4404 4.02468 23.181C4.01719 22.9216 4.11085 22.6694 4.28587 22.4778C4.46088 22.2862 4.70354 22.1701 4.96258 22.1541C5.22161 22.1381 5.47672 22.2234 5.674 22.392L6.468 23.118L9.292 20.292C9.38489 20.1989 9.49524 20.125 9.61673 20.0746C9.73822 20.0242 9.86847 19.9982 10 19.9982C10.1315 19.9982 10.2618 20.0242 10.3833 20.0746C10.5048 20.125 10.6151 20.1989 10.708 20.292ZM14 22H19C19.2652 22 19.5196 22.1054 19.7071 22.2929C19.8946 22.4804 20 22.7348 20 23C20 23.2652 19.8946 23.5196 19.7071 23.7071C19.5196 23.8946 19.2652 24 19 24H14C13.7348 24 13.4804 23.8946 13.2929 23.7071C13.1054 23.5196 13 23.2652 13 23C13 22.7348 13.1054 22.4804 13.2929 22.2929C13.4804 22.1054 13.7348 22 14 22ZM13 13C13 12.7348 13.1054 12.4804 13.2929 12.2929C13.4804 12.1054 13.7348 12 14 12H19C19.2652 12 19.5196 12.1054 19.7071 12.2929C19.8946 12.4804 20 12.7348 20 13C20 13.2652 19.8946 13.5196 19.7071 13.7071C19.5196 13.8946 19.2652 14 19 14H14C13.7348 14 13.4804 13.8946 13.2929 13.7071C13.1054 13.5196 13 13.2652 13 13Z" fill="#4C8BF5"/>
</svg>
