<svg width="32" height="36" viewBox="0 0 32 36" fill="none" xmlns="http://www.w3.org/2000/svg">
<g clip-path="url(#clip0)">
<path d="M11.6441 14.255L10.5605 15.3554C8.51978 13.746 7.22559 11.3975 7.22559 8.77401C7.22559 6.15052 8.51978 3.80196 10.5605 2.19336L11.6441 3.29306C9.94339 4.63478 8.8627 6.59216 8.8627 8.77401C8.8627 10.9559 9.94339 12.9132 11.6441 14.255ZM12.1377 8.77401C12.1377 7.46446 12.7862 6.29018 13.8062 5.48514L12.7234 4.38691C11.3633 5.45955 10.5006 7.02502 10.5006 8.77401C10.5006 10.523 11.3633 12.0885 12.7234 13.1611L13.8062 12.0629C12.7855 11.2578 12.1377 10.0836 12.1377 8.77401ZM23.1369 8.77401C23.1369 6.59216 22.0562 4.63478 20.3554 3.29306L21.439 2.19336C23.4798 3.80196 24.774 6.15052 24.774 8.77401C24.774 11.3975 23.4798 13.746 21.439 15.3554L20.3554 14.255C22.0562 12.9132 23.1369 10.9559 23.1369 8.77401ZM18.1933 12.0629L19.2762 13.1611C20.6362 12.0885 21.499 10.523 21.499 8.77401C21.499 7.02502 20.6362 5.45955 19.2762 4.38691L18.1933 5.48514C19.2141 6.29018 19.8619 7.46446 19.8619 8.77401C19.8619 10.0836 19.2141 11.2578 18.1933 12.0629ZM15.9998 6.58046C14.7889 6.58046 13.8062 7.56244 13.8062 8.77401C13.8062 9.98558 14.7889 10.9676 15.9998 10.9676C17.2106 10.9676 18.1933 9.98558 18.1933 8.77401C18.1933 7.56244 17.2106 6.58046 15.9998 6.58046Z" fill="#4C8BF5"/>
</g>
<rect y="20.6455" width="32" height="14.4516" rx="3" fill="#4C8BF5"/>
<path d="M5.86316 31.6455V23.0557H6.99988V30.6318H11.2303V31.6455H5.86316ZM12.4608 24.2686V23.0557H13.5155V24.2686H12.4608ZM12.4608 31.6455V25.4229H13.5155V31.6455H12.4608ZM16.8553 31.6455L14.4882 25.4229H15.6014L16.9374 29.1494C17.0819 29.5518 17.2147 29.9697 17.3358 30.4033C17.4296 30.0752 17.5604 29.6807 17.7284 29.2197L19.1112 25.4229H20.1952L17.8397 31.6455H16.8553ZM25.3866 29.6416L26.4764 29.7764C26.3046 30.4131 25.9862 30.9072 25.5214 31.2588C25.0565 31.6104 24.4628 31.7861 23.7401 31.7861C22.83 31.7861 22.1073 31.5068 21.5721 30.9482C21.0409 30.3857 20.7753 29.5986 20.7753 28.5869C20.7753 27.54 21.0448 26.7275 21.5839 26.1494C22.1229 25.5713 22.8221 25.2822 23.6815 25.2822C24.5135 25.2822 25.1932 25.5654 25.7206 26.1318C26.2479 26.6982 26.5116 27.4951 26.5116 28.5225C26.5116 28.585 26.5096 28.6787 26.5057 28.8037H21.8651C21.9042 29.4873 22.0975 30.0107 22.4452 30.374C22.7928 30.7373 23.2264 30.9189 23.746 30.9189C24.1327 30.9189 24.4628 30.8174 24.7362 30.6143C25.0096 30.4111 25.2264 30.0869 25.3866 29.6416ZM21.9237 27.9365H25.3983C25.3514 27.4131 25.2186 27.0205 24.9999 26.7588C24.6639 26.3525 24.2284 26.1494 23.6932 26.1494C23.2089 26.1494 22.8007 26.3115 22.4686 26.6357C22.1405 26.96 21.9589 27.3936 21.9237 27.9365Z" fill="white"/>
<defs>
<clipPath id="clip0">
<rect width="17.5484" height="17.5484" fill="white" transform="translate(7.22559)"/>
</clipPath>
</defs>
</svg>
