<svg width="136" height="172" viewBox="0 0 136 172" fill="none" xmlns="http://www.w3.org/2000/svg">
<path d="M121.07 152.9L129.124 172L134.798 171.949L132.272 152.885L121.07 152.9Z" fill="#263238"/>
<path d="M90.2114 152.961L98.1597 171.975L103.834 171.924L101.353 152.94L90.2114 152.961Z" fill="#263238"/>
<path d="M134.313 38.3501C131.196 33.6762 69.7167 32.994 67.0842 37.8448L44.6239 80.537L10.84 78.9858C10.84 78.9858 6.2924 78.7685 1.85088 83.0281C-0.342087 85.1251 -0.230927 98.3486 0.385529 103.462C0.799881 106.863 5.97913 153.127 5.97913 153.127L133.267 152.87C133.267 152.87 137.426 43.014 134.313 38.3501Z" fill="#455A64"/>
<path d="M97.1693 154.082C97.1693 154.082 97.1693 153.946 97.1693 153.678C97.1693 153.41 97.1693 153.001 97.134 152.486C97.1036 151.43 97.0683 149.888 97.0228 147.938C96.9369 143.971 96.8207 138.257 96.6741 131.263L96.7802 131.364L58.1203 131.642L18.0708 131.86L18.1719 131.779C17.3119 136.936 17.0728 142.178 17.4594 147.392C17.5959 149.247 17.7727 150.677 17.899 151.647C17.9698 152.127 18.0203 152.496 18.0557 152.753C18.091 153.011 18.1012 153.132 18.1012 153.132C17.7394 151.239 17.4881 149.325 17.3483 147.402C16.9148 142.175 17.1235 136.915 17.9698 131.738V131.652H18.0557L58.1102 131.364L96.7651 131.152H96.8712V131.253C96.9824 138.257 97.0683 143.966 97.1289 147.928C97.1542 149.904 97.1693 151.44 97.1845 152.476C97.1845 152.981 97.1845 153.39 97.1845 153.668C97.1845 153.946 97.1693 154.082 97.1693 154.082Z" fill="#263238"/>
<path d="M93.2685 82.4268H93.5464C93.8014 82.4214 94.0564 82.4349 94.3094 82.4672C95.2974 82.5778 96.2547 82.8781 97.1289 83.3515C98.5298 84.1146 99.7392 85.1858 100.666 86.4843C101.905 88.2411 102.73 90.2552 103.081 92.376C103.503 94.9778 103.672 97.6142 103.587 100.248C103.587 103.103 103.485 106.186 103.293 109.46C102.915 116.029 102.106 123.315 101.232 131.188V131.299H101.126L68.9386 131.521L10.5622 131.86H10.4712V131.764C10.2245 127.881 10.416 123.982 11.0422 120.142C11.6385 116.777 12.6541 113.927 14.074 111.946C14.6784 111.056 15.4466 110.29 16.3377 109.687L16.6207 109.49L16.9137 109.339L17.4645 109.056C17.8333 108.929 18.1618 108.788 18.4751 108.712L19.2936 108.535C19.5362 108.505 19.7383 108.5 19.9 108.485H20.4053C20.4053 108.485 20.2436 108.485 19.9 108.54C19.7383 108.54 19.5362 108.571 19.2987 108.606L18.4852 108.788C18.177 108.869 17.8536 109.015 17.4746 109.147L16.939 109.435L16.651 109.586L16.373 109.783C15.4951 110.386 14.7404 111.151 14.1498 112.037C12.7653 114.003 11.7698 116.837 11.1938 120.197C10.5867 124.018 10.4088 127.894 10.6632 131.753L10.5622 131.663L68.9386 131.248L101.126 131.051L100.999 131.162C101.884 123.285 102.712 116.003 103.107 109.435C103.304 106.165 103.41 103.088 103.42 100.228C103.499 97.6058 103.33 94.9817 102.915 92.3912C102.576 90.2879 101.767 88.2881 100.55 86.5399C99.6389 85.2613 98.4548 84.2015 97.0834 83.4374C96.2184 82.9623 95.2726 82.6522 94.2942 82.5228C93.6171 82.4268 93.2634 82.4622 93.2685 82.4268Z" fill="#263238"/>
<path d="M7.84876 153.132L6.00444 171.949L11.6789 171.899L18.7833 153.107L7.84876 153.132Z" fill="#263238"/>
<path d="M18.4498 108.753C18.6384 108.753 18.8265 108.733 19.0107 108.692L20.5265 108.439C21.81 108.222 23.5583 107.909 25.5441 107.696C27.2227 107.523 28.9096 107.442 30.597 107.454H32.1129C32.3007 107.479 32.491 107.479 32.6788 107.454C32.4955 107.406 32.3074 107.379 32.118 107.373C31.7541 107.333 31.2286 107.302 30.5768 107.272C28.8791 107.202 27.1784 107.256 25.4885 107.434C23.5078 107.646 21.7342 107.99 20.4609 108.252C19.8242 108.389 19.3088 108.505 18.945 108.591C18.7737 108.624 18.6073 108.678 18.4498 108.753Z" fill="#263238"/>
<path d="M9.48083 79.0767C9.48083 79.102 9.89011 79.2839 10.6076 79.6831C11.621 80.2524 12.5625 80.9412 13.412 81.7346C14.6717 82.9182 15.751 84.2801 16.6156 85.7769C17.6753 87.6021 18.4746 89.5665 18.9904 91.613C20.0617 95.9889 20.001 100.117 19.9252 103.053C19.8848 104.533 19.8242 105.726 19.7939 106.549C19.7939 106.944 19.7686 107.257 19.7585 107.504C19.7462 107.615 19.7462 107.727 19.7585 107.838C19.786 107.729 19.8012 107.617 19.804 107.504C19.8292 107.262 19.8545 106.949 19.8899 106.56C19.9555 105.736 20.0414 104.538 20.1071 103.063C20.1728 101.588 20.2132 99.819 20.1071 97.8585C20.0276 95.7231 19.7382 93.6008 19.2431 91.5221C18.7229 89.4507 17.9078 87.4648 16.8227 85.6253C15.9365 84.121 14.8294 82.7583 13.5383 81.583C12.6691 80.7883 11.7011 80.109 10.6582 79.5618C10.2994 79.3597 9.98611 79.2586 9.78905 79.1626C9.68823 79.1275 9.58528 79.0988 9.48083 79.0767Z" fill="#263238"/>
<path opacity="0.3" d="M76.0228 114.462C72.1876 115.359 68.2521 115.753 64.3152 115.635C64.0231 127.929 62.9599 140.193 61.1318 152.354C60.177 152.854 59.1331 153.161 58.0597 153.259C56.9834 153.289 55.8212 152.799 55.3766 151.819C55.1598 151.214 55.0855 150.567 55.1593 149.929C55.6912 137.685 56.9516 125.485 58.9338 113.391C59.0804 112.492 59.2875 111.501 60.0404 110.991C60.7933 110.481 61.7079 110.637 62.5669 110.799C67.3133 111.685 72.0108 112.781 76.6595 114.088" fill="black"/>
<path opacity="0.3" d="M81.6316 113.437L80.4441 130.253C80.4441 130.253 76.4675 121.157 77.4882 117.676C77.7677 116.679 78.2938 115.767 79.0179 115.027C79.7419 114.286 80.6407 113.739 81.6316 113.437Z" fill="black"/>
<path d="M82.6472 46.551L83.8296 6.77946L85.113 4.49049C86.2449 3.4799 88.0791 3.66686 89.3019 4.54607C90.5247 5.42528 91.2422 6.8502 91.7324 8.27513C94.0971 15.1168 92.2377 22.6355 92.743 29.8562C92.8491 31.4226 93.0967 33.0496 94.0062 34.328C95.2441 36.0662 97.5432 36.9202 98.4831 38.8302C98.8855 39.7075 98.9658 40.6986 98.7098 41.6292C98.4538 42.5598 97.8779 43.3704 97.0834 43.9185C98.2405 44.5956 99.4381 45.303 100.211 46.3994C100.984 47.4959 101.191 49.1078 100.343 50.1437C99.4179 51.2654 97.7352 51.2806 96.3002 51.1543C92.2042 50.8 88.1586 50.0038 84.2338 48.7794C83.727 48.6727 83.2691 48.4029 82.9302 48.0113C82.6839 47.5667 82.5849 47.0555 82.6472 46.551Z" fill="#263238"/>
<path d="M91.0856 39.7043C90.6667 39.5414 90.2901 39.2857 89.9841 38.9565C89.3878 38.3198 88.9381 37.0869 88.8067 35.5356C88.5252 31.4621 88.5438 27.3734 88.8623 23.3025C89.0493 20.9175 89.3322 18.6538 89.6556 16.6074C89.979 14.561 90.1609 12.6358 89.7213 11.0896C89.4149 9.85717 88.6852 8.77157 87.6597 8.02247C87.3776 7.83331 87.0718 7.68211 86.7502 7.57276C86.6362 7.53708 86.5196 7.51005 86.4015 7.49191C87.2014 7.76749 87.9138 8.25042 88.4659 8.89136C89.0181 9.5323 89.3903 10.3083 89.5445 11.1401C89.9487 12.656 89.7668 14.5306 89.4181 16.567C89.0695 18.6033 88.7865 20.8872 88.6046 23.2823C88.2743 27.3668 88.2743 31.4713 88.6046 35.5559C88.7663 37.1273 89.2514 38.3855 89.8931 39.0272C90.1328 39.273 90.4176 39.4703 90.7319 39.6083C90.8451 39.6556 90.964 39.6879 91.0856 39.7043Z" fill="#455A64"/>
<path d="M82.0409 6.60258C82.1571 7.1584 81.768 6.13266 82.0409 6.60258V6.60258Z" fill="#F9BD33"/>
<path d="M82.4855 4.37426C82.9403 3.89423 83.6528 4.09635 84.1783 4.47532C85.114 5.22398 85.8155 6.2253 86.1994 7.36054C86.626 8.57465 86.8977 9.83777 87.0079 11.1199C87.0887 11.8627 87.0887 12.7571 86.6087 13.1866C86.4374 13.3239 86.2244 13.3988 86.0049 13.3988C85.7853 13.3988 85.5723 13.3239 85.4011 13.1866C85.0252 12.8799 84.7158 12.5 84.4915 12.0699C83.4677 10.3525 82.6405 8.52532 82.0257 6.62281C81.9246 6.04172 82.1318 4.74312 82.4855 4.37426Z" fill="#F9BD33"/>
<path d="M86.2297 14.3184C85.2192 10.0083 83.4001 5.60212 79.8277 2.97965C76.6443 0.650249 72.0007 -0.23907 68.0645 0.0539999C66.1241 0.195482 63.9615 1.16564 62.3041 2.17623C60.0253 3.56578 59.1309 6.259 58.09 8.70966C56.0082 13.6262 56.5084 20.1747 58.09 21.9483L78.6756 31.9784C82.2127 29.9976 86.0125 27.3297 86.831 23.3884C87.3869 20.68 86.8614 16.9965 86.2297 14.3184Z" fill="#263238"/>
<path d="M78.4331 6.6683L65.5734 3.32326C61.4552 2.86344 58.6761 7.92143 58.3881 12.0598C58.0647 16.6579 57.8525 22.2818 58.3881 25.7027C59.4341 32.61 64.7245 34.2522 64.7245 34.2522C64.7245 34.2522 64.7245 40.25 64.7599 42.3015L70.7577 60.5729L79.287 42.3015L80.5907 9.15939C80.6097 8.54904 80.3983 7.95389 79.9986 7.49231C79.5988 7.03073 79.0399 6.73656 78.4331 6.6683Z" fill="#FFBE9D"/>
<path d="M60.7024 17.6281C60.6995 17.8588 60.7865 18.0817 60.9449 18.2495C61.1033 18.4174 61.3207 18.517 61.5512 18.5275C61.664 18.5371 61.7775 18.5242 61.8852 18.4893C61.9928 18.4544 62.0924 18.3984 62.1781 18.3245C62.2638 18.2506 62.3338 18.1603 62.3841 18.0589C62.4344 17.9575 62.4639 17.8471 62.4709 17.7342C62.4737 17.5034 62.3868 17.2806 62.2284 17.1128C62.07 16.9449 61.8525 16.8452 61.622 16.8348C61.5094 16.8258 61.3961 16.8393 61.2888 16.8744C61.1814 16.9096 61.0821 16.9657 60.9965 17.0394C60.911 17.1132 60.841 17.2032 60.7905 17.3043C60.74 17.4053 60.71 17.5154 60.7024 17.6281Z" fill="#263238"/>
<path d="M59.5856 14.9955C59.6968 15.1117 60.3688 14.6216 61.3238 14.6266C62.2789 14.6317 62.9711 15.1319 63.0722 15.0056C63.1732 14.8793 63.0166 14.7428 62.7134 14.5003C62.3016 14.2121 61.8114 14.0569 61.3087 14.0556C60.8148 14.0529 60.3324 14.2048 59.9292 14.4902C59.6362 14.7176 59.5351 14.945 59.5856 14.9955Z" fill="#263238"/>
<path d="M69.3277 17.6281C69.3235 17.8584 69.4093 18.0812 69.5669 18.2492C69.7245 18.4172 69.9414 18.517 70.1715 18.5275C70.2844 18.5379 70.3982 18.5254 70.5062 18.4908C70.6141 18.4562 70.714 18.4002 70.7998 18.3261C70.8856 18.2521 70.9557 18.1615 71.0057 18.0598C71.0558 17.9581 71.0848 17.8474 71.0911 17.7342C71.094 17.5034 71.0071 17.2806 70.8486 17.1128C70.6902 16.9449 70.4728 16.8452 70.2423 16.8348C70.1299 16.8258 70.0169 16.8393 69.9099 16.8745C69.8028 16.9097 69.7038 16.9659 69.6187 17.0397C69.5336 17.1136 69.464 17.2036 69.414 17.3046C69.3641 17.4056 69.3347 17.5156 69.3277 17.6281Z" fill="#263238"/>
<path d="M68.9487 15.2229C69.0548 15.3391 69.7319 14.8439 70.6819 14.854C71.6318 14.8641 72.3291 15.3593 72.4353 15.2279C72.5414 15.0965 72.3746 14.9702 72.0714 14.7479C71.6633 14.4561 71.1735 14.3005 70.6718 14.3032C70.1758 14.2973 69.6909 14.4495 69.2873 14.7378C68.9942 14.9753 68.8932 15.1824 68.9487 15.2229Z" fill="#263238"/>
<path d="M65.442 22.297C64.9509 22.1372 64.4416 22.0404 63.9261 22.009C63.6785 21.9787 63.4511 21.9281 63.4208 21.7614C63.402 21.5108 63.4601 21.2605 63.5876 21.0439C63.82 20.4577 64.0625 19.8413 64.3202 19.1996C65.3308 16.567 66.0736 14.4043 65.9675 14.3639C65.8614 14.3235 64.9569 16.4255 63.9463 19.053C63.6987 19.6998 63.441 20.3213 63.2439 20.9125C63.088 21.2051 63.0415 21.5437 63.1126 21.8675C63.1456 21.9535 63.1985 22.0304 63.267 22.0919C63.3355 22.1534 63.4177 22.1977 63.5067 22.2212C63.6412 22.2612 63.7807 22.2816 63.921 22.2818C64.4254 22.3507 64.9364 22.3558 65.442 22.297Z" fill="#263238"/>
<path d="M64.6942 34.3179L64.7346 36.0359C71.6369 36.7281 73.9562 31.9178 73.9562 31.9178C71.1507 33.5602 67.9442 34.3912 64.6942 34.3179Z" fill="#EB996E"/>
<path d="M68.5748 24.0756C68.4394 23.8626 68.2529 23.6869 68.0323 23.5642C67.8117 23.4415 67.564 23.3759 67.3116 23.3733C66.9569 23.3436 66.6008 23.4101 66.2807 23.5657C65.9606 23.7213 65.6883 23.9603 65.4925 24.2575C65.3489 24.5332 65.3181 24.8539 65.4066 25.1519C65.4723 25.3035 65.4066 25.2277 65.538 25.3338C65.9297 25.7427 66.4154 26.0497 66.9528 26.2282C67.2434 26.2997 67.5486 26.2837 67.83 26.1821C68.1115 26.0805 68.3565 25.8978 68.5344 25.6572C68.6861 25.4229 68.7701 25.1512 68.7773 24.8721C68.7844 24.593 68.7143 24.3174 68.5748 24.0756Z" fill="#EB996E"/>
<path d="M68.2413 22.9539C68.0847 22.9539 68.0796 23.9645 67.1853 24.7072C66.2909 25.45 65.1995 25.3136 65.1641 25.4551C65.1641 25.5208 65.4066 25.6572 65.8715 25.6723C66.4772 25.6898 67.069 25.4889 67.539 25.1064C67.9944 24.7428 68.2884 24.2146 68.3575 23.636C68.4232 23.2065 68.3121 22.9488 68.2413 22.9539Z" fill="#263238"/>
<path d="M68.5192 12.1911C68.6152 12.4488 69.5652 12.3326 70.6819 12.4741C71.7986 12.6156 72.703 12.9289 72.8496 12.6964C72.9153 12.5853 72.7586 12.3427 72.3999 12.0901C71.9157 11.7785 71.3668 11.5815 70.7951 11.5141C70.2233 11.4467 69.6437 11.5106 69.1003 11.701C68.691 11.8576 68.4788 12.0598 68.5192 12.1911Z" fill="#263238"/>
<path d="M59.9545 11.6858C60.1213 11.9031 60.7781 11.6858 61.5715 11.6858C62.3648 11.6858 63.0267 11.8425 63.1783 11.6201C63.249 11.509 63.1429 11.2917 62.8549 11.0845C62.4647 10.8362 62.0095 10.7094 61.5471 10.7202C61.0847 10.731 60.6359 10.8789 60.2577 11.1452C59.9747 11.3776 59.8838 11.5999 59.9545 11.6858Z" fill="#263238"/>
<path d="M78.7312 17.5422C78.8272 17.5017 82.5764 16.3093 82.5411 20.1646C82.5057 24.02 78.6453 23.1964 78.6402 23.0751C78.6352 22.9538 78.7312 17.5422 78.7312 17.5422Z" fill="#FFBE9D"/>
<path d="M79.8277 21.625C79.8277 21.625 79.8984 21.6755 80.0096 21.726C80.1714 21.7928 80.353 21.7928 80.5149 21.726C80.7651 21.571 80.9696 21.3522 81.1072 21.092C81.2449 20.8318 81.3107 20.5396 81.298 20.2455C81.3086 19.9144 81.2465 19.585 81.1161 19.2804C81.0792 19.1615 81.0139 19.0534 80.9258 18.9654C80.8378 18.8774 80.7297 18.8121 80.6109 18.7751C80.5343 18.7554 80.4532 18.7628 80.3814 18.7959C80.3096 18.8291 80.2515 18.886 80.2167 18.957C80.1611 19.0631 80.1864 19.144 80.1662 19.149C80.146 19.1541 80.0853 19.0833 80.1157 18.9216C80.1361 18.8269 80.1899 18.7426 80.2673 18.6842C80.3743 18.6039 80.5087 18.5694 80.6412 18.5882C80.7994 18.6215 80.9465 18.6947 81.0685 18.8008C81.1905 18.9069 81.2835 19.0424 81.3385 19.1945C81.4981 19.5301 81.5744 19.8994 81.5608 20.2708C81.5305 21.0439 81.1263 21.7866 80.5502 21.9231C80.4469 21.9526 80.3382 21.9585 80.2324 21.9401C80.1265 21.9217 80.0261 21.8796 79.9388 21.817C79.8378 21.721 79.8175 21.6351 79.8277 21.625Z" fill="#EB996E"/>
<path d="M81.101 22.9084C81.101 22.9084 81.2677 23.0751 81.2475 23.4137C81.2432 23.5173 81.2165 23.6188 81.1694 23.7112C81.1224 23.8036 81.0559 23.8848 80.9747 23.9493C80.8631 24.0126 80.7389 24.0504 80.611 24.0601C80.4831 24.0697 80.3546 24.0509 80.2348 24.005C80.115 23.9591 80.0069 23.8873 79.9181 23.7947C79.8294 23.702 79.7623 23.5909 79.7216 23.4693C79.6817 23.2659 79.7196 23.0549 79.8277 22.8781C80.0197 22.5799 80.2622 22.5547 80.2622 22.5749C80.2622 22.5951 80.0803 22.6759 79.9489 22.9438C79.8701 23.1001 79.8521 23.2802 79.8984 23.449C79.9302 23.5418 79.9834 23.6258 80.0536 23.6942C80.1238 23.7627 80.2091 23.8137 80.3026 23.8432C80.3917 23.8861 80.4893 23.9085 80.5881 23.9085C80.687 23.9085 80.7846 23.8861 80.8736 23.8432C80.9382 23.794 80.9924 23.7325 81.0332 23.6622C81.074 23.592 81.1004 23.5144 81.1111 23.4339C81.1295 23.259 81.1261 23.0825 81.101 22.9084Z" fill="#E0E0E0"/>
<path d="M58.0798 13.1512C58.6631 12.0604 59.5706 11.1776 60.677 10.6247C61.7483 10.0133 62.9054 9.56864 63.9716 8.95219C66.4362 7.50733 68.2792 5.20176 69.1458 2.47939C68.1818 2.01641 67.1239 1.78236 66.0546 1.79551C64.9853 1.80865 63.9335 2.06864 62.9812 2.55518C61.0744 3.55828 59.5692 5.1848 58.7165 7.16345C57.877 9.13205 57.4752 11.2596 57.5392 13.3988" fill="#263238"/>
<path d="M79.6154 5.62233C76.7706 2.91901 71.3842 1.42334 67.6754 2.69163C68.2261 5.93561 70.6718 9.57371 72.8243 12.0648C74.9769 14.5559 76.3007 18.9519 81.01 17.4613C81.3334 17.3552 81.7073 17.6533 82.0206 17.4613C82.2518 17.2851 82.4129 17.0327 82.4754 16.7489C83.0651 14.8103 83.1102 12.747 82.6057 10.7845C82.1013 8.8221 81.0668 7.03622 79.6154 5.62233Z" fill="#263238"/>
<path d="M81.2374 5.01093C81.2374 5.01093 81.2374 5.05641 81.1566 5.14231C81.0757 5.22821 81.0151 5.34442 80.8888 5.4859C80.5433 5.89819 80.1517 6.26948 79.7215 6.5925C79.0813 7.07297 78.3705 7.45137 77.6145 7.71425C76.6877 8.04181 75.706 8.18597 74.7242 8.13869C73.7427 8.07503 72.7823 7.82465 71.8946 7.40097C71.1727 7.05436 70.5082 6.59939 69.9239 6.05184C69.5325 5.68423 69.1834 5.27408 68.883 4.82902C68.7719 4.67238 68.7112 4.54101 68.6556 4.45511C68.6282 4.41075 68.6061 4.36325 68.59 4.31363C69.0068 4.90891 69.4843 5.45926 70.0149 5.95583C70.5961 6.48288 71.2537 6.91899 71.9653 7.24938C73.7162 8.08576 75.7267 8.19654 77.5589 7.55761C78.3045 7.3076 79.008 6.94646 79.6458 6.48639C80.2256 6.05054 80.7589 5.5561 81.2374 5.01093Z" fill="white"/>
<path d="M83.0868 10.2559C83.0464 10.3029 83.0025 10.3468 82.9554 10.3872C82.8282 10.5088 82.6932 10.6219 82.5512 10.7258C82.0316 11.1176 81.4512 11.4214 80.8332 11.6252C79.9168 11.9353 78.9491 12.0656 77.9833 12.0092C76.7992 11.9504 75.6391 11.6531 74.5726 11.1351C73.519 10.5993 72.5558 9.90197 71.7177 9.06843C71.0369 8.39059 70.4243 7.64762 69.8885 6.85019C69.5209 6.31712 69.1835 5.76379 68.878 5.19283C68.7668 4.99072 68.691 4.82903 68.6405 4.72291C68.6076 4.66994 68.5837 4.61189 68.5697 4.55112C68.6086 4.59801 68.6425 4.64881 68.6708 4.7027L68.9386 5.15747C69.166 5.55159 69.5096 6.11247 69.9795 6.77945C70.5274 7.55632 71.1447 8.28187 71.8238 8.94716C72.6552 9.76054 73.6061 10.4421 74.6434 10.9683C75.6882 11.4768 76.8233 11.7739 77.9833 11.8425C78.9296 11.8999 79.8784 11.7834 80.7827 11.4989C81.3939 11.3087 81.973 11.0277 82.5007 10.6652C82.8847 10.4075 83.0716 10.2407 83.0868 10.2559Z" fill="#455A64"/>
<path d="M79.7064 31.3316C79.7064 31.3316 79.7822 31.3316 79.9085 31.2406C80.0348 31.1497 80.2319 31.0688 80.4694 30.9173C81.1432 30.5069 81.7835 30.044 82.3845 29.5328C83.2853 28.7756 84.0837 27.9042 84.7593 26.9406C85.5808 25.7522 86.2037 24.4381 86.6036 23.0499C87.3286 20.523 87.393 17.8524 86.7906 15.2936C86.6075 14.5233 86.3607 13.7695 86.0529 13.04C85.9468 12.7823 85.8457 12.5903 85.78 12.4589C85.7523 12.3899 85.7149 12.3253 85.6689 12.2669C85.7466 12.5442 85.8428 12.816 85.9569 13.0804C86.2256 13.8158 86.4434 14.5688 86.6087 15.334C87.1496 17.8634 87.0611 20.4869 86.351 22.9741C85.9601 24.337 85.3564 25.6296 84.5623 26.8042C83.9033 27.7563 83.1313 28.625 82.2632 29.3913C81.6768 29.9087 81.0592 30.3897 80.4138 30.8314C80.1678 30.9831 79.9315 31.1502 79.7064 31.3316Z" fill="#455A64"/>
<path d="M23.5987 128.434L17.1663 140.126C17.1663 140.126 3.62954 136.69 2.22988 138.732L23.9575 152.849L34.7354 135.043L23.5987 128.434Z" fill="#F9BD33"/>
<path opacity="0.6" d="M24.6144 143.274C24.7891 143.467 24.8858 143.719 24.8858 143.979C24.8858 144.239 24.7891 144.491 24.6144 144.684C24.4264 144.863 24.1767 144.963 23.9171 144.963C23.6574 144.963 23.4077 144.863 23.2198 144.684C23.033 144.481 22.9294 144.215 22.9294 143.939C22.9294 143.663 23.033 143.397 23.2198 143.193C23.4326 143.023 23.7034 142.942 23.975 142.967C24.2465 142.993 24.4976 143.123 24.675 143.33" fill="white"/>
<path opacity="0.6" d="M23.9423 152.849L25.0287 151.056L3.60429 138.156C3.30751 138.127 3.0083 138.173 2.73386 138.289C2.45941 138.406 2.21843 138.589 2.03283 138.823L23.9423 152.849Z" fill="white"/>
<path d="M16.8733 139.798C16.8127 139.909 17.323 140.303 17.6515 140.95C17.9799 141.597 17.9849 142.248 18.1113 142.264C18.2376 142.279 18.4498 141.556 18.0456 140.748C17.6413 139.939 16.9087 139.687 16.8733 139.798Z" fill="#263238"/>
<path d="M13.9628 139.368C13.8769 139.459 14.2357 139.924 14.3317 140.606C14.4277 141.288 14.2407 141.834 14.3317 141.895C14.4226 141.955 14.8774 141.389 14.746 140.535C14.6146 139.681 14.0285 139.267 13.9628 139.368Z" fill="#263238"/>
<path d="M10.9714 141.369C11.0573 141.45 11.5323 140.995 11.6081 140.237C11.6839 139.479 11.3201 138.934 11.219 138.999C11.118 139.065 11.2443 139.565 11.1736 140.192C11.1028 140.818 10.8704 141.293 10.9714 141.369Z" fill="#263238"/>
<path d="M18.6368 137.297C18.6368 137.423 19.2077 137.569 19.7989 137.979C20.3901 138.388 20.7489 138.868 20.86 138.807C20.9712 138.747 20.7438 138.085 20.0465 137.615C19.3492 137.145 18.6317 137.18 18.6368 137.297Z" fill="#263238"/>
<path opacity="0.3" d="M22.3304 130.753L21.1784 132.835L32.1634 139.267L33.2751 137.438L22.3304 130.753Z" fill="black"/>
<path d="M19.9757 134.977C19.9757 135.023 20.3395 135.346 21.0924 135.639C21.5374 135.806 22.0004 135.919 22.4719 135.978C22.751 135.999 23.0312 136.002 23.3107 135.988C23.4812 135.994 23.6517 135.974 23.816 135.927C23.9332 135.893 24.0357 135.821 24.1072 135.722C24.1786 135.623 24.2149 135.503 24.2101 135.381C24.202 135.273 24.1685 135.168 24.1124 135.075C24.0562 134.982 23.9789 134.903 23.8867 134.846C23.7443 134.762 23.5913 134.698 23.4319 134.654C23.1593 134.572 22.8805 134.513 22.5982 134.477C22.1213 134.423 21.6389 134.444 21.1682 134.538C20.3699 134.709 19.9505 135.008 19.9757 135.043C20.001 135.078 20.4558 134.917 21.2188 134.836C21.6597 134.791 22.1047 134.803 22.5426 134.871C22.7999 134.913 23.0533 134.976 23.3006 135.058C23.5734 135.134 23.7755 135.255 23.7705 135.392C23.7705 135.447 23.7705 135.462 23.6745 135.503C23.5562 135.536 23.4335 135.551 23.3107 135.548C23.0481 135.564 22.7849 135.564 22.5224 135.548C22.075 135.511 21.6318 135.433 21.1986 135.316C20.7996 135.174 20.3909 135.061 19.9757 134.977Z" fill="#263238"/>
<path d="M20.0263 135.2C20.0516 135.24 20.5013 134.982 20.9611 134.3C21.3854 133.66 21.6266 132.915 21.6584 132.148C21.6868 131.965 21.6673 131.778 21.6017 131.605C21.5362 131.433 21.4268 131.28 21.2845 131.162C21.1845 131.104 21.0697 131.076 20.9541 131.081C20.8385 131.087 20.7269 131.125 20.6327 131.193C20.4995 131.288 20.3805 131.402 20.279 131.531C19.7787 132.143 19.5407 132.927 19.617 133.714C19.7029 134.553 20.0819 134.952 20.1223 134.922C20.0335 134.519 19.9711 134.11 19.9354 133.699C19.9359 133.266 20.0289 132.839 20.2082 132.446C20.3133 132.218 20.4493 132.005 20.6125 131.814C20.7893 131.597 20.9914 131.46 21.0672 131.536C21.1369 131.617 21.1882 131.713 21.2179 131.816C21.2475 131.919 21.2547 132.027 21.239 132.132C21.2343 132.391 21.2056 132.648 21.1531 132.9C21.0646 133.335 20.9131 133.753 20.7034 134.143C20.3345 134.816 19.9758 135.149 20.0263 135.2Z" fill="#263238"/>
<path d="M43.2697 151.147L43.9317 164.476C43.9317 164.476 30.1271 168.594 30.3494 171.864L56.3265 171.828L56.2002 150.934L43.2697 151.147Z" fill="#F9BD33"/>
<path opacity="0.6" d="M51.9204 163.228C52.1708 163.3 52.3858 163.462 52.5238 163.684C52.6619 163.905 52.7133 164.169 52.6682 164.426C52.6067 164.679 52.45 164.898 52.2307 165.038C52.0113 165.179 51.7463 165.229 51.4909 165.179C51.2257 165.101 50.9986 164.928 50.8531 164.693C50.7077 164.458 50.6541 164.177 50.7026 163.905C50.7955 163.649 50.9845 163.438 51.2296 163.318C51.4748 163.199 51.7569 163.179 52.0164 163.263" fill="white"/>
<path opacity="0.6" d="M56.3265 171.813L56.3619 169.635L31.5723 169.908C31.5723 169.908 30.3494 170.777 30.3494 171.848L56.3265 171.813Z" fill="white"/>
<path d="M43.5224 164.335C43.5224 164.461 44.1641 164.512 44.7907 164.911C45.4172 165.31 45.7558 165.835 45.872 165.785C45.9882 165.734 45.7912 165.002 45.0231 164.537C44.2551 164.072 43.4769 164.218 43.5224 164.335Z" fill="#263238"/>
<path d="M40.809 165.497C40.7786 165.618 41.3142 165.825 41.769 166.356C42.2238 166.886 42.3349 167.447 42.4613 167.442C42.5876 167.437 42.6583 166.72 42.1025 166.073C41.5467 165.426 40.809 165.376 40.809 165.497Z" fill="#263238"/>
<path d="M39.3083 168.766C39.4245 168.796 39.5912 168.16 39.2578 167.473C38.9243 166.785 38.328 166.518 38.2775 166.624C38.227 166.73 38.5958 167.094 38.8636 167.665C39.1314 168.236 39.182 168.756 39.3083 168.766Z" fill="#263238"/>
<path d="M43.6942 161.283C43.7497 161.394 44.3258 161.212 45.0433 161.252C45.7608 161.293 46.3166 161.51 46.3823 161.399C46.448 161.288 45.9023 160.848 45.0635 160.813C44.2247 160.777 43.6285 161.182 43.6942 161.283Z" fill="#263238"/>
<path opacity="0.3" d="M43.7195 160.57L43.871 163.223L56.3012 162.9L56.2861 160.757L43.7195 160.57Z" fill="black"/>
<path d="M43.6083 158.59C44.0357 158.696 44.4839 158.688 44.9069 158.564C45.6505 158.418 46.36 158.133 46.9988 157.725C47.1426 157.642 47.2723 157.536 47.3828 157.412C47.4661 157.322 47.5164 157.207 47.5256 157.085C47.5348 156.963 47.5022 156.841 47.4333 156.74C47.3687 156.653 47.285 156.583 47.1885 156.534C47.0921 156.485 46.9857 156.458 46.8775 156.457C46.7064 156.459 46.5363 156.484 46.3722 156.533C46.096 156.604 45.827 156.7 45.5688 156.821C45.134 157.024 44.7333 157.293 44.3814 157.619C43.7902 158.185 43.5931 158.66 43.6335 158.686C43.6739 158.711 43.9771 158.327 44.5835 157.857C44.9367 157.588 45.322 157.364 45.7305 157.19C45.9711 157.09 46.2196 157.011 46.4733 156.952C46.7461 156.877 46.9786 156.872 47.0544 156.993C47.1301 157.114 47.0796 157.059 47.024 157.139C46.9406 157.226 46.8454 157.301 46.7411 157.362C46.5228 157.511 46.2949 157.646 46.0589 157.766C45.6616 157.974 45.2454 158.143 44.8159 158.271C44.4062 158.348 44.0025 158.454 43.6083 158.59Z" fill="#263238"/>
<path d="M43.7801 158.766C44.0177 158.393 44.1309 157.955 44.1035 157.513C44.1178 157.032 44.0512 156.552 43.9064 156.093C43.8199 155.821 43.7047 155.558 43.5628 155.31C43.4912 155.14 43.3768 154.992 43.2306 154.879C43.0845 154.767 42.9117 154.694 42.7291 154.668C42.614 154.673 42.5025 154.71 42.4077 154.775C42.3128 154.84 42.2385 154.931 42.1935 155.037C42.127 155.188 42.0844 155.348 42.0672 155.512C42.0215 155.802 42.0215 156.097 42.0672 156.386C42.1455 156.871 42.3416 157.329 42.6382 157.72C43.1434 158.382 43.6841 158.529 43.6942 158.483C43.7043 158.438 43.29 158.18 42.8959 157.544C42.6658 157.176 42.5192 156.762 42.4664 156.331C42.4337 156.081 42.4337 155.828 42.4664 155.578C42.5017 155.305 42.6028 155.073 42.7089 155.108C42.815 155.143 43.0576 155.31 43.1687 155.527C43.5212 156.133 43.7255 156.814 43.765 157.513C43.8357 158.276 43.7094 158.751 43.7801 158.766Z" fill="#263238"/>
<path d="M80.9545 37.3143L79.4992 36.6978C79.9439 35.9904 76.4675 42.7613 71.7481 42.8068C65.2904 42.8674 64.6436 36.43 64.6436 36.43L64.3051 36.4755L53.694 47.4757L52.2943 78.2985L53.4464 82.255L76.2452 90.5115L84.1985 74.6806L84.9008 64.9234L80.9545 37.3143Z" fill="#F5F5F5"/>
<path d="M80.2622 36.9505C80.2622 36.9505 93.2129 39.8963 95.325 45.4242C96.2547 47.8648 96.5528 87.2321 96.5528 87.2321C96.5528 87.2321 98.1647 90.8349 98.0687 98.2677C97.9677 105.392 93.2583 109.996 87.3767 111.33C87.3767 111.33 85.8305 100.137 79.6306 94.5235C73.7591 89.2078 73.2184 89.8546 73.2184 89.8546L74.6333 77.0151L76.1037 65.8381C77.5741 57.8544 75.9167 49.1937 78.6301 41.5385L80.2622 36.9505Z" fill="#F9BD33"/>
<path d="M52.9208 44.7977L44.0883 83.6496L53.5828 81.492L56.6145 58.1778L64.4061 36.4502C64.4061 36.4502 63.0974 36.622 61.4097 36.8848C59.3652 37.2023 57.463 38.1262 55.9496 39.537C54.4361 40.9478 53.381 42.7804 52.9208 44.7977Z" fill="#F9BD33"/>
<path opacity="0.3" d="M96.4619 93.9222C96.4656 94.1581 96.4097 94.3911 96.2993 94.5996C96.1889 94.8081 96.0275 94.9852 95.8303 95.1147C95.4328 95.368 94.9841 95.5302 94.5165 95.5896C92.3286 95.9737 90.08 95.5593 87.9477 94.8822C85.5414 94.0423 83.1991 93.029 80.9393 91.8505C77.5892 90.1931 76.5332 89.4402 73.3599 87.4443C76.6443 88.7884 77.7307 88.9602 81.197 89.7485C86.3661 90.9359 91.8081 91.5221 96.4619 94.0182" fill="black"/>
<path d="M77.4578 79.2435L71.6823 78.0004C71.6823 78.0004 65.0428 74.2966 63.5522 74.3017C62.2131 74.3017 56.9126 76.7069 55.8717 77.1819C55.7553 77.2336 55.6594 77.3224 55.5989 77.4345C55.5296 77.5491 55.4838 77.6762 55.4641 77.8086C55.4444 77.941 55.4512 78.076 55.4841 78.2058C55.517 78.3355 55.5754 78.4574 55.6558 78.5644C55.7362 78.6715 55.8371 78.7614 55.9526 78.8291L56.0486 78.8847L55.9829 79.0211C55.8934 79.1963 55.8369 79.3864 55.8161 79.582C55.8029 79.7304 55.8375 79.8791 55.9149 80.0064C55.9923 80.1337 56.1084 80.2329 56.2462 80.2894C56.3841 80.3459 56.5364 80.3567 56.6809 80.3204C56.8254 80.284 56.9544 80.2023 57.0491 80.0873L56.8166 80.3804C56.7201 80.4968 56.6603 80.6392 56.6448 80.7897L56.6145 81.0827C56.5966 81.2424 56.6276 81.4037 56.7034 81.5454C56.7792 81.687 56.8962 81.8023 57.039 81.876C57.175 81.9456 57.3281 81.975 57.4802 81.9607C57.6324 81.9464 57.7773 81.889 57.8979 81.7952C58.6104 81.2242 60.1414 80.1025 61.051 80.1025C62.0292 80.1416 63.0035 80.2497 63.9665 80.4258C64.1631 80.4612 64.3448 80.5539 64.4887 80.6924C64.6326 80.8309 64.7322 81.0089 64.775 81.204C64.2444 81.1535 60.2678 82.4672 58.858 82.9371C58.6407 83.0051 58.443 83.1248 58.282 83.2858C58.1209 83.4468 58.0013 83.6445 57.9333 83.8618C57.8222 84.256 57.9333 84.7158 58.7873 84.6602C60.5182 84.438 62.2306 84.0901 63.9109 83.6193C63.9109 83.6193 65.5885 83.4273 66.5031 84.3267C67.7916 85.5899 68.3979 86.0801 69.7167 85.8678C70.5188 85.7376 71.3036 85.5172 72.0562 85.211L74.1482 85.6101L77.4578 79.2435Z" fill="#FFBE9D"/>
<path d="M65.2954 78.1773C64.8712 78.0227 64.4395 77.8894 64.0019 77.7781C62.9378 77.5325 61.8307 77.5418 60.7708 77.8053C59.711 78.0687 58.7283 78.5788 57.903 79.294C57.2714 79.8397 56.9632 80.2692 56.943 80.249C57.0025 80.1421 57.0736 80.0421 57.1552 79.9509C57.3633 79.6894 57.5932 79.446 57.8424 79.2232C58.6671 78.4781 59.664 77.9495 60.7435 77.6849C61.823 77.4204 62.9514 77.4281 64.0272 77.7074C64.351 77.7873 64.6672 77.8955 64.9721 78.0307C65.085 78.0674 65.1934 78.1165 65.2954 78.1773Z" fill="#EB996E"/>
<path d="M64.8306 76.3633C64.4051 76.1538 63.9553 75.9977 63.4916 75.8984C62.3593 75.7081 61.1964 75.8412 60.1364 76.2825C59.0811 76.738 58.0906 77.331 57.1906 78.0459L56.3619 78.6826C56.2656 78.7676 56.1606 78.8421 56.0486 78.9049C56.1329 78.8089 56.2259 78.721 56.3265 78.6422C56.5135 78.4805 56.7863 78.248 57.135 77.9701C58.0256 77.2258 59.0196 76.6148 60.0859 76.1561C61.1679 75.7026 62.3599 75.5796 63.5118 75.8024C63.8625 75.8762 64.2022 75.9951 64.5223 76.1561C64.6386 76.2117 64.7144 76.2723 64.7699 76.3027C64.8255 76.333 64.8356 76.3633 64.8306 76.3633Z" fill="#EB996E"/>
<path d="M87.4829 46.6319L90.3681 77.6619H91.1866L78.1046 77.9246L73.3751 87.4292C73.3751 87.4292 90.5247 95.7716 97.8515 93.4927C106.542 90.7641 104.062 81.0726 103.996 77.6467C103.996 77.0454 99.1096 48.2185 94.3953 43.8982C94.4054 43.878 88.1751 44.2924 87.4829 46.6319Z" fill="#F9BD33"/>
<path d="M87.0988 55.2926C87.0959 55.5738 87.1196 55.8546 87.1696 56.1314C87.2504 56.7124 87.3565 57.4754 87.4778 58.4001C87.7709 60.3556 88.165 62.973 88.5996 65.8633C89.0341 68.7536 89.4333 71.4215 89.7011 73.3315C89.8325 74.2511 89.9436 75.0141 90.0295 75.5952C90.0534 75.8757 90.1041 76.1532 90.1811 76.4239C90.186 76.1434 90.1691 75.863 90.1306 75.5851C90.0851 75.0445 90.0043 74.2663 89.8931 73.3063C89.6708 71.3861 89.312 68.7586 88.8825 65.8229C88.453 62.8871 88.0033 60.2646 87.685 58.3698C87.5233 57.4552 87.3919 56.6922 87.2908 56.1162C87.2475 55.8372 87.1833 55.5619 87.0988 55.2926Z" fill="#263238"/>
<path d="M88.0892 41.9276C88.0892 41.9276 87.9831 42.0337 87.8365 42.251C87.6279 42.5648 87.4437 42.8942 87.2858 43.2363C87.0414 43.7382 86.8419 44.2606 86.6895 44.7976C86.5027 45.4594 86.3709 46.1354 86.2954 46.8188C86.1691 48.0502 86.1691 49.2912 86.2954 50.5226C86.3168 51.0346 86.393 51.5428 86.5228 52.0385C86.548 51.533 86.5362 51.0264 86.4874 50.5226C86.4263 49.3025 86.4584 48.0795 86.5834 46.8643C86.6579 46.1996 86.7795 45.5411 86.9472 44.8936C87.084 44.3668 87.2527 43.8487 87.4525 43.3424C87.8214 42.448 88.1296 41.9528 88.0892 41.9276Z" fill="#263238"/>
<path d="M97.8717 93.4725C97.8299 93.4647 97.7871 93.4647 97.7454 93.4725L97.3765 93.5685C96.9005 93.6741 96.4176 93.7451 95.9314 93.7807C94.1399 93.8465 92.3477 93.6766 90.6005 93.2754C89.4889 93.038 88.261 92.7701 86.9675 92.4821C85.6739 92.1941 84.3349 91.6484 82.9251 91.1279C80.1106 90.0668 77.0435 88.8188 73.8299 87.4696L73.4307 87.2978L73.5014 87.4797L78.2208 77.9701L78.1097 78.0409C80.2168 78.0409 82.152 77.9045 83.8549 77.8539C85.5577 77.8034 87.0736 77.7529 88.3115 77.763C89.5495 77.7731 90.5247 77.8236 91.1917 77.8943C91.8587 77.9651 92.2023 78.0257 92.2023 78.0055C92.1199 77.9784 92.0354 77.9581 91.9496 77.9449C91.7778 77.9095 91.5252 77.8539 91.1917 77.8135C90.2342 77.6964 89.271 77.6323 88.3065 77.6215C87.0635 77.5912 85.5627 77.6215 83.8448 77.6518C82.1268 77.6821 80.1965 77.7882 78.1097 77.7933H78.0339L77.9985 77.859C76.5786 80.7038 74.9668 83.9225 73.2538 87.3585L73.1881 87.4848L73.3195 87.5404L73.7187 87.7122C76.9222 89.0664 79.9944 90.3094 82.814 91.3553C84.2288 91.8606 85.5779 92.3659 86.8866 92.6944C88.1953 93.0228 89.4131 93.23 90.5348 93.4573C92.2994 93.8538 94.1109 94.0001 95.9162 93.8919C96.5857 93.8536 97.2453 93.7121 97.8717 93.4725Z" fill="#263238"/>
<path d="M88.8573 77.7428C88.8926 77.7731 89.1857 77.4396 89.7718 77.0707C90.544 76.6039 91.404 76.3012 92.2983 76.1814C93.2033 76.0692 94.1166 76.0404 95.0269 76.0955C95.4083 76.1319 95.7924 76.1319 96.1739 76.0955C95.8074 75.9785 95.4265 75.9122 95.042 75.8984C94.1177 75.7817 93.1823 75.7817 92.2579 75.8984C91.3198 76.0192 90.425 76.366 89.6506 76.909C89.3214 77.1172 89.0488 77.4036 88.8573 77.7428Z" fill="#263238"/>
<path opacity="0.3" d="M89.0796 77.7023C90.939 77.422 92.8375 77.5583 94.6378 78.1015C95.7393 78.44 96.851 78.9706 97.4674 79.9458C97.6696 80.2591 97.7908 80.7088 97.523 80.9564C97.3889 81.0475 97.2315 81.0983 97.0694 81.1028C96.9074 81.1072 96.7474 81.0652 96.6084 80.9817C95.9829 80.6662 95.399 80.2741 94.8702 79.8144C93.9974 79.1188 93.0291 78.5521 91.9951 78.1318C90.9555 77.7153 89.8259 77.5743 88.7158 77.7225" fill="black"/>
<path opacity="0.3" d="M89.6556 77.0353C90.0447 75.9439 91.4797 74.9232 92.4044 74.6099C94.5115 73.8924 96.952 73.6246 98.8014 74.8323C98.9102 74.8845 99.0053 74.9616 99.079 75.0572C99.1527 75.1529 99.203 75.2644 99.2258 75.383C99.2258 75.7165 98.8671 75.9186 98.5437 76.0096C97.2148 76.3734 95.805 76.1511 94.4306 76.0096C93.0562 75.8681 91.5858 75.858 90.3883 76.5604" fill="black"/>
<path opacity="0.3" d="M90.0901 75.671C87.24 69.6569 86.2546 62.9275 87.2605 56.3486L90.0901 75.671Z" fill="black"/>
<path d="M87.3666 111.35C87.3666 111.35 82.6876 114.452 73.3953 114.452C64.103 114.452 61.9706 113.81 61.9706 113.81L53.2644 105.903L34.1644 139.353C34.1644 139.353 19.0056 129.955 18.9096 130.258C18.7277 130.44 33.0578 98.5709 36.1805 93.0581C37.2281 91.2552 38.4105 89.534 39.7175 87.9092C41.2807 85.8893 43.3847 84.3543 45.7852 83.4822C48.1858 82.6102 50.7845 82.4369 53.2796 82.9826C55.9735 83.5452 58.6271 84.2863 61.2228 85.2008C68.1554 87.7273 74.032 89.4453 79.0445 93.8919C84.8604 99.0307 88.3722 109.005 87.3666 111.35Z" fill="#263238"/>
<path d="M55.4372 102.052C55.4372 102.052 62.3092 106.807 62.1222 110.642C61.9706 113.836 57.7211 160.833 57.7211 160.833L40.809 160.55L39.6468 129.773L55.4372 102.052Z" fill="#263238"/>
<path d="M38.2876 132.132C38.3181 132.097 38.3436 132.058 38.3634 132.016L38.5655 131.673C38.7524 131.349 39.0051 130.9 39.3234 130.334L42.0621 125.377L51.0108 108.975L54.5479 102.406L54.4165 102.472C55.6589 102.634 56.8509 103.065 57.9088 103.737C58.9667 104.408 59.865 105.302 60.5407 106.357C61.1091 107.26 61.4969 108.263 61.6826 109.313C61.8357 110.22 61.8983 111.139 61.8696 112.057C61.8241 113.73 61.6675 115.089 61.627 115.983C61.6018 116.443 61.5917 116.802 61.5917 117.039C61.5827 117.16 61.5827 117.282 61.5917 117.403C61.6161 117.283 61.6296 117.162 61.6321 117.039C61.6321 116.782 61.6776 116.433 61.7079 115.993C61.7786 115.074 61.9555 113.75 62.0262 112.057C62.0705 111.128 62.018 110.196 61.8696 109.278C61.6875 108.203 61.2979 107.173 60.7226 106.246C60.0361 105.153 59.1176 104.224 58.0322 103.526C56.9468 102.827 55.721 102.376 54.4418 102.204H54.3559L54.3155 102.285C53.1988 104.331 51.9962 106.549 50.7481 108.854L41.8701 125.291C40.7534 127.383 39.8489 129.086 39.2072 130.288L38.4947 131.652L38.3179 132.011C38.3027 132.087 38.2825 132.127 38.2876 132.132Z" fill="#455A64"/>
<path d="M52.4206 95.6604C53.2434 96.6104 53.8585 97.7219 54.2266 98.9236C54.5947 100.125 54.7075 101.391 54.558 102.638C54.7063 102.29 54.7852 101.916 54.7904 101.537C54.9259 99.6989 54.3689 97.8767 53.2291 96.4284C53.0117 96.1226 52.7371 95.8618 52.4206 95.6604Z" fill="#455A64"/>
<path d="M55.9779 94.3618C55.9324 94.3618 56.0688 94.8671 56.1699 95.62C56.3009 96.6286 56.2737 97.6515 56.089 98.6517C55.8995 99.6493 55.5587 100.612 55.0784 101.507C54.6995 102.194 54.4014 102.583 54.4367 102.608C54.7623 102.322 55.0344 101.979 55.2401 101.598C56.3458 99.8014 56.7489 97.66 56.372 95.5846C56.3088 95.1581 56.1757 94.7449 55.9779 94.3618Z" fill="#455A64"/>
<path d="M69.1609 72.7757C69.2013 72.7454 68.6556 72.1542 68.024 71.083C67.6409 70.4578 67.3032 69.806 67.0134 69.1325C66.6664 68.3061 66.3875 67.4527 66.1797 66.5808C65.982 65.7048 65.8553 64.8143 65.8007 63.9179C65.7643 63.185 65.7812 62.4504 65.8512 61.7199C65.9675 60.4668 66.1746 59.6987 66.1241 59.6987C66.0489 59.8605 65.9913 60.0299 65.9523 60.204C65.8902 60.4096 65.8413 60.6188 65.8058 60.8306C65.7603 61.0782 65.6946 61.3611 65.6643 61.6795C65.5675 62.4181 65.5337 63.1635 65.5632 63.9078C65.6 64.8197 65.7201 65.7262 65.922 66.6162C66.1344 67.5043 66.4252 68.3717 66.7911 69.2083C67.0937 69.8895 67.4538 70.5437 67.8674 71.1638C68.0238 71.4047 68.1925 71.6374 68.3727 71.8611C68.4977 72.0385 68.6344 72.2073 68.7819 72.3664C68.8887 72.5197 69.0163 72.6574 69.1609 72.7757Z" fill="#263238"/>
<path d="M53.6282 42.7614C53.6282 42.7614 35.2912 74.2613 34.8819 76.6816C34.5787 78.4805 35.1598 83.6092 36.802 84.261C41.4002 86.1205 46.7158 83.9629 51.5717 80.6027L52.2993 80.0974L53.6282 42.7614Z" fill="#F9BD33"/>
<path d="M134.313 38.3501C134.313 38.3501 131.438 36.6776 130.776 41.3313C130.114 45.9851 125.375 80.1075 125.375 80.1075L96.0425 79.8296C96.0425 79.8296 89.8426 79.5972 85.6385 92.2244C82.6977 101.062 79.6963 131.132 79.6963 131.132L80.2521 152.89H133.308C133.308 152.89 134.905 107.267 135.177 86.9744C135.45 66.6819 136.031 44.5854 134.313 38.3501Z" fill="#455A64"/>
<path d="M131.666 38.0469C131.666 38.0469 131.615 38.0975 131.504 38.1884C131.349 38.3245 131.205 38.4732 131.074 38.6331C130.554 39.254 130.241 40.0229 130.18 40.8311C129.922 42.9533 129.554 46.0205 129.094 49.8253C128.149 57.4704 126.835 68.1017 125.355 80.1075V80.2288H125.233L119.114 80.1024C112.5 79.9963 106.194 79.9508 100.469 80.1024C99.0389 80.1479 97.6443 80.2085 96.2901 80.3147L95.2795 80.4006C94.9511 80.4309 94.6277 80.4865 94.2993 80.5319C93.6646 80.586 93.0584 80.819 92.551 81.204C91.5803 81.9693 90.7407 82.8874 90.0649 83.9224C89.4089 84.8678 88.8099 85.8515 88.2711 86.8683C86.6299 89.9544 85.2897 93.1914 84.2692 96.5346C83.9801 97.4409 83.7539 98.3661 83.5921 99.3035C83.5519 99.5477 83.5266 99.7941 83.5163 100.041C83.5163 100.208 83.5163 100.294 83.5163 100.294C83.5036 100.21 83.4952 100.126 83.4911 100.041C83.4925 99.791 83.511 99.5412 83.5466 99.2934C83.6863 98.3495 83.8958 97.4172 84.1732 96.5042C84.5168 95.3067 84.9968 93.8666 85.6335 92.2194C86.3545 90.3597 87.1812 88.5427 88.1094 86.7773C88.6502 85.7519 89.2491 84.7582 89.9032 83.8012C90.5897 82.743 91.4429 81.8028 92.4297 81.017L92.844 80.7492C92.9906 80.6684 93.1472 80.6077 93.2937 80.5319C93.4403 80.4561 93.6171 80.4309 93.799 80.3804C93.9809 80.3298 94.1275 80.3298 94.3043 80.3045C94.6328 80.2591 94.9663 80.1984 95.3149 80.1681L96.3255 80.0772C97.6797 79.966 99.0793 79.9054 100.509 79.8548C106.244 79.678 112.55 79.7134 119.17 79.8195L125.294 79.9509L125.157 80.0721C126.673 68.0664 128.022 57.4401 128.988 49.8C129.493 45.9952 129.877 42.9331 130.155 40.8159C130.227 39.9936 130.558 39.2153 131.1 38.5927C131.26 38.3838 131.451 38.2 131.666 38.0469Z" fill="#263238"/>
<path d="M93.2684 82.4268C93.3318 82.4419 93.3959 82.4537 93.4605 82.4622C93.5868 82.4622 93.7737 82.5127 94.0213 82.5683C94.7364 82.7158 95.4341 82.9377 96.1031 83.2302C97.1716 83.6762 98.1599 84.2941 99.0288 85.0594C99.5792 85.5285 100.086 86.046 100.545 86.6056L101.212 87.5757L101.383 87.8284L101.525 88.1063L101.808 88.6621C101.904 88.8541 102.005 89.0411 102.101 89.2381C102.197 89.4352 102.253 89.6474 102.333 89.8546C102.48 90.274 102.647 90.6934 102.783 91.138C103.031 92.0686 103.21 93.016 103.319 93.9727C103.369 94.478 103.445 94.9833 103.475 95.4886C103.506 95.9939 103.475 96.5295 103.475 97.0651C103.511 98.1262 103.415 99.2328 103.384 100.36C103.182 104.872 102.879 109.824 102.46 115.013C102 120.874 101.5 126.412 101.004 131.278L101.121 131.172L85.6385 131.304L81.2475 131.359L80.0854 131.385H79.7872H79.6862C79.6862 131.385 79.7216 131.385 79.7872 131.385H80.0854H81.2475H85.6385L101.126 131.44H101.232V131.334C101.737 126.468 102.242 120.925 102.717 115.064C103.112 109.864 103.435 104.907 103.622 100.41C103.652 99.2783 103.743 98.1818 103.703 97.1055C103.703 96.5699 103.703 96.0394 103.703 95.5189C103.703 94.9985 103.592 94.5083 103.541 94.003C103.427 93.0352 103.239 92.0775 102.98 91.138C102.844 90.6883 102.667 90.2639 102.52 89.8394C102.44 89.6272 102.374 89.415 102.283 89.2129L101.98 88.6368L101.687 88.0709L101.54 87.793C101.485 87.7071 101.424 87.6212 101.363 87.5403L100.681 86.5601C100.222 85.9966 99.7149 85.4742 99.1652 84.9987C98.2805 84.2359 97.2746 83.6262 96.189 83.1948C95.5039 82.8928 94.7869 82.669 94.0517 82.5279C93.8041 82.4824 93.612 82.4622 93.4807 82.447C93.4106 82.4348 93.3396 82.428 93.2684 82.4268Z" fill="#263238"/>
<path d="M93.5918 153.168C93.6626 153.168 93.7232 148.438 93.7232 142.602C93.7232 136.766 93.6626 132.031 93.5918 132.031C93.5211 132.031 93.4605 136.761 93.4605 142.602C93.4605 148.443 93.516 153.168 93.5918 153.168Z" fill="#263238"/>
<path d="M27.6663 61.159L57.514 63.8573C57.6491 63.8695 57.7775 63.9216 57.8828 64.0071C57.9881 64.0926 58.0655 64.2076 58.1051 64.3373L64.7447 85.6404C64.7753 85.7428 64.8298 85.8364 64.9035 85.9137C64.9773 85.991 65.0683 86.0497 65.1691 86.0851L76.6342 89.2078C76.8038 89.2621 76.9454 89.3805 77.0289 89.5378C77.1123 89.695 77.131 89.8787 77.0809 90.0496C77.0307 90.2204 76.9158 90.3649 76.7606 90.4521C76.6054 90.5394 76.4222 90.5625 76.2502 90.5165L63.916 87.9042L36.1754 84.4429C36.052 84.4283 35.9348 84.3807 35.8361 84.3051C35.7374 84.2295 35.6609 84.1288 35.6146 84.0134L26.969 62.0938C26.9266 61.9851 26.9125 61.8675 26.9281 61.7518C26.9438 61.6362 26.9886 61.5265 27.0583 61.433C27.1281 61.3394 27.2205 61.2652 27.3269 61.2173C27.4332 61.1694 27.5501 61.1493 27.6663 61.159Z" fill="#E0E0E0"/>
<path d="M27.6663 61.159C27.5782 61.1391 27.4867 61.1391 27.3985 61.159C27.2679 61.1964 27.1507 61.2706 27.0611 61.3727C26.9715 61.4749 26.9132 61.6007 26.8932 61.7351C26.885 61.9331 26.9286 62.1299 27.0195 62.3061C27.0953 62.5082 27.1812 62.7254 27.2722 62.9579L27.9038 64.595C28.8689 67.0609 30.2635 70.6333 32.0017 75.09L34.8819 82.4268L35.276 83.4374L35.4731 83.9427C35.5295 84.1494 35.6587 84.3289 35.8369 84.448C35.927 84.5054 36.0289 84.5417 36.135 84.5541L36.4129 84.5945L36.9687 84.6602L38.0905 84.8017L42.7645 85.3929L63.8958 88.0457L70.3029 89.3897L73.5822 90.087L75.2447 90.4357L76.0733 90.6125C76.2269 90.6602 76.3889 90.674 76.5483 90.653C76.7175 90.6216 76.8728 90.5386 76.993 90.4155C77.0867 90.3167 77.1542 90.196 77.1895 90.0645C77.2248 89.933 77.2268 89.7947 77.1952 89.6623C77.1636 89.5298 77.0994 89.4073 77.0085 89.3059C76.9176 89.2045 76.8029 89.1274 76.6746 89.0815L65.1994 85.9639C65.1058 85.9292 65.0227 85.871 64.9581 85.7949C64.8935 85.7188 64.8495 85.6273 64.8306 85.5293L64.6184 84.8472L64.1939 83.493C63.9109 82.5935 63.633 81.7009 63.3602 80.8149C62.8043 79.0464 62.262 77.3116 61.7331 75.6104C60.672 72.2047 59.6614 68.9523 58.7014 65.8532C58.5801 65.4692 58.4588 65.0852 58.3426 64.7062C58.2889 64.5051 58.2179 64.309 58.1304 64.1201C58.0696 64.0223 57.9885 63.9388 57.8926 63.8752C57.7967 63.8116 57.6882 63.7693 57.5746 63.7512L55.2553 63.544L50.8441 63.1549L42.9868 62.4576L31.739 61.4824L28.7072 61.2298L27.924 61.1742H27.6613L27.924 61.2096L28.7022 61.2955L31.7339 61.5885L42.9716 62.6395L50.8239 63.3672L55.2351 63.7714L57.5392 63.9836C57.6219 63.9965 57.7008 64.0271 57.7706 64.0733C57.8404 64.1196 57.8993 64.1803 57.9434 64.2514C58.0181 64.4254 58.0806 64.6044 58.1304 64.787L58.4841 65.9391C59.4442 69.0315 60.4547 72.2839 61.5159 75.6963C62.0414 77.4008 62.5803 79.1373 63.1328 80.9059C63.4057 81.7918 63.6836 82.6845 63.9665 83.5839C64.103 84.0336 64.2444 84.4833 64.3859 84.9381L64.5981 85.6203C64.6289 85.757 64.6936 85.8838 64.7864 85.9889C64.8791 86.094 64.9968 86.174 65.1287 86.2216L76.5887 89.3443C76.6756 89.3754 76.7534 89.4276 76.8151 89.4963C76.8768 89.565 76.9203 89.648 76.9419 89.7378C76.9635 89.8275 76.9623 89.9212 76.9386 90.0104C76.9149 90.0996 76.8693 90.1815 76.806 90.2487C76.7249 90.3311 76.6211 90.3874 76.5079 90.4104C76.3838 90.425 76.2581 90.4129 76.139 90.3751L75.3053 90.1982L73.6479 89.8445L70.3635 89.1522L63.9413 87.793L42.8049 85.1756L38.1309 84.5996L37.0092 84.4581L36.4533 84.3924C36.2784 84.3919 36.1057 84.3521 35.9481 84.2762C35.8108 84.1895 35.7115 84.0541 35.6701 83.8972L35.468 83.3919L35.0739 82.3813C34.0229 79.7386 33.0527 77.288 32.1685 75.0596C30.3949 70.6131 28.9801 67.0508 27.9998 64.59C27.7522 63.9786 27.5349 63.4379 27.348 62.9629L27.0852 62.3162C26.9929 62.1513 26.9475 61.9643 26.9538 61.7755C26.969 61.6486 27.0198 61.5286 27.1002 61.4294C27.1807 61.3301 27.2876 61.2557 27.4086 61.2146C27.4923 61.187 27.5787 61.1684 27.6663 61.159Z" fill="#263238"/>
<path d="M56.3972 63.7562C56.4058 63.8419 56.4227 63.9265 56.4478 64.0089C56.4983 64.2009 56.5589 64.4384 56.6347 64.7213C56.8015 65.3428 57.0541 66.2372 57.3775 67.3286C58.0243 69.5216 58.9692 72.5433 60.0303 75.8681C61.0914 79.1929 62.0515 82.1691 62.7538 84.3823L63.5775 86.9744L63.8099 87.6717C63.8341 87.7562 63.868 87.8376 63.9109 87.9143C63.9065 87.8268 63.8912 87.7403 63.8655 87.6566C63.8149 87.4646 63.7493 87.2321 63.6785 86.9441C63.5118 86.3277 63.2541 85.4282 62.9307 84.3419C62.2839 82.1438 61.3441 79.1272 60.2779 75.7974C59.2117 72.4675 58.2567 69.4964 57.5544 67.2832L56.7307 64.7011L56.4983 64.0038C56.4788 63.9162 56.4446 63.8325 56.3972 63.7562Z" fill="#263238"/>
<path d="M44.9423 72.4523C45.1664 72.4427 45.3895 72.4873 45.5927 72.5823C45.7959 72.6773 45.9732 72.8199 46.1095 72.998C46.2726 73.1389 46.3904 73.325 46.448 73.5327C46.5055 73.7404 46.5003 73.9605 46.4329 74.1653C46.3609 74.3077 46.2533 74.4292 46.1205 74.5177C45.9876 74.6063 45.8342 74.6589 45.6749 74.6706C45.3579 74.6856 45.0438 74.6027 44.7755 74.4331C44.5811 74.3373 44.4133 74.1949 44.2872 74.0186C44.1612 73.8423 44.0807 73.6375 44.053 73.4225C44.0485 73.1776 44.1383 72.9403 44.3038 72.7598C44.4693 72.5792 44.6979 72.4691 44.9423 72.4523Z" fill="white"/>
<path d="M48.5753 62.8871C48.6746 62.6865 48.7542 62.4766 48.8128 62.2606L49.3888 60.5224C49.8941 59.057 50.5662 57.046 51.41 54.8429C52.2538 52.6398 53.0724 50.6742 53.6889 49.2847L54.4316 47.5616C54.5334 47.3597 54.6147 47.1481 54.6742 46.93C54.5416 47.1124 54.4297 47.309 54.3407 47.5161C54.1386 47.9002 53.8657 48.461 53.5373 49.1634C52.8804 50.563 52.0214 52.5236 51.1877 54.7216C50.3539 56.9196 49.6718 58.956 49.2372 60.4365C49.0149 61.1792 48.8482 61.7805 48.7319 62.1999C48.6511 62.4215 48.5985 62.6524 48.5753 62.8871Z" fill="#263238"/>
</svg>
