<svg width="374" height="374" viewBox="0 0 374 374" fill="none" xmlns="http://www.w3.org/2000/svg">
<path d="M248.059 116.194H21.6845C15.9773 116.194 11.3472 120.824 11.3472 126.532V301.452C11.3472 307.159 15.9773 311.789 21.6845 311.789H248.059C253.766 311.789 258.397 307.159 258.397 301.452V126.532C258.397 120.824 253.766 116.194 248.059 116.194Z" fill="#EFF4FB"/>
<path d="M259.489 103.748H33.1215C27.4143 103.748 22.7842 108.378 22.7842 114.085V289.005C22.7842 294.712 27.4143 299.342 33.1215 299.342H259.496C265.204 299.342 269.834 294.712 269.834 289.005V114.085C269.826 108.378 265.203 103.748 259.489 103.748Z" fill="white" stroke="#EFF4FB" stroke-miterlimit="10"/>
<path d="M259.489 108.116H33.1215C27.4143 108.116 22.7842 112.746 22.7842 118.454V126.48H269.834V118.454C269.826 112.739 265.203 108.116 259.489 108.116Z" fill="#EFF4FB"/>
<path d="M259.489 103.748H33.1215C27.4143 103.748 22.7842 108.378 22.7842 114.085V122.111H269.834V114.085C269.826 108.378 265.203 103.748 259.489 103.748Z" fill="white"/>
<path d="M35.4853 116.06C37.2121 116.06 38.6119 114.66 38.6119 112.933C38.6119 111.206 37.2121 109.807 35.4853 109.807C33.7585 109.807 32.3586 111.206 32.3586 112.933C32.3586 114.66 33.7585 116.06 35.4853 116.06Z" fill="#4C8BF5"/>
<path d="M51.0511 112.933C51.0511 114.661 49.6524 116.06 47.9245 116.06C46.1966 116.06 44.7979 114.661 44.7979 112.933C44.7979 111.205 46.1966 109.807 47.9245 109.807C49.6524 109.807 51.0511 111.205 51.0511 112.933Z" fill="#A4C4FA"/>
<path d="M63.4978 112.933C63.4978 114.661 62.099 116.06 60.3711 116.06C58.6433 116.06 57.2445 114.661 57.2445 112.933C57.2445 111.205 58.6433 109.807 60.3711 109.807C62.099 109.807 63.4978 111.205 63.4978 112.933Z" fill="#D5E1F5"/>
<path d="M194.57 137.916H242.203" stroke="#EFF4FB" stroke-width="5" stroke-miterlimit="10" stroke-linecap="round" stroke-linejoin="round"/>
<path d="M194.57 156.392H242.203" stroke="#EFF4FB" stroke-width="5" stroke-miterlimit="10" stroke-linecap="round" stroke-linejoin="round"/>
<path d="M194.57 174.867H242.203" stroke="#EFF4FB" stroke-width="5" stroke-miterlimit="10" stroke-linecap="round" stroke-linejoin="round"/>
<path d="M41.2371 193.351H242.202" stroke="#EFF4FB" stroke-width="5" stroke-miterlimit="10" stroke-linecap="round" stroke-linejoin="round"/>
<path d="M41.2371 211.826H242.202" stroke="#EFF4FB" stroke-width="5" stroke-miterlimit="10" stroke-linecap="round" stroke-linejoin="round"/>
<path d="M41.2371 230.31H242.202" stroke="#EFF4FB" stroke-width="5" stroke-miterlimit="10" stroke-linecap="round" stroke-linejoin="round"/>
<path d="M126.375 245.217H198.22" stroke="#EFF4FB" stroke-width="5" stroke-miterlimit="10" stroke-linecap="round" stroke-linejoin="round"/>
<path d="M126.375 263.692H198.22" stroke="#EFF4FB" stroke-width="5" stroke-miterlimit="10" stroke-linecap="round" stroke-linejoin="round"/>
<path d="M126.375 282.176H176.595" stroke="#EFF4FB" stroke-width="5" stroke-miterlimit="10" stroke-linecap="round" stroke-linejoin="round"/>
<path d="M186.479 163.419C189.649 149.787 181.167 136.166 167.535 132.995C153.903 129.825 140.282 138.306 137.112 151.939C133.942 165.571 142.423 179.192 156.055 182.362C169.687 185.532 183.308 177.051 186.479 163.419Z" stroke="#EFF4FB" stroke-width="5" stroke-miterlimit="10" stroke-linecap="round" stroke-linejoin="round"/>
<path d="M161.792 132.329V157.671L180.403 174.868" stroke="#EFF4FB" stroke-width="5" stroke-miterlimit="10" stroke-linecap="round" stroke-linejoin="round"/>
<path d="M90.3534 270.315C93.5235 256.683 85.0423 243.062 71.4101 239.892C57.7779 236.722 44.1568 245.203 40.9867 258.835C37.8166 272.467 46.2978 286.088 59.9301 289.259C73.5623 292.429 87.1833 283.947 90.3534 270.315Z" stroke="#EFF4FB" stroke-width="5" stroke-miterlimit="10" stroke-linecap="round" stroke-linejoin="round"/>
<path d="M65.6744 239.226V264.568L84.2847 281.764" stroke="#EFF4FB" stroke-width="5" stroke-miterlimit="10" stroke-linecap="round" stroke-linejoin="round"/>
<path d="M251.186 242.532H205.506V283.074H251.186V242.532Z" stroke="#EFF4FB" stroke-width="5" stroke-miterlimit="10" stroke-linecap="round" stroke-linejoin="round"/>
<path d="M40.3396 137.4L81.9733 177.942H40.3396V137.4Z" stroke="#EFF4FB" stroke-width="5" stroke-miterlimit="10" stroke-linecap="round" stroke-linejoin="round"/>
<path d="M337.587 98.9834H239.958C234.251 98.9834 229.621 103.614 229.621 109.321V167.179C229.621 172.886 234.251 177.516 239.958 177.516H337.587C343.295 177.516 347.925 172.886 347.925 167.179V109.321C347.925 103.606 343.295 98.9834 337.587 98.9834Z" fill="#EFF4FB"/>
<path d="M346.78 91.0098H249.151C243.444 91.0098 238.814 95.6399 238.814 101.347V159.205C238.814 164.912 243.444 169.542 249.151 169.542H346.78C352.488 169.542 357.118 164.912 357.118 159.205V101.347C357.118 95.6399 352.488 91.0098 346.78 91.0098Z" fill="white" stroke="#F1F1F3" stroke-miterlimit="10"/>
<path d="M346.78 95.3779H249.151C243.444 95.3779 238.814 100.008 238.814 105.715V113.741H357.118V105.715C357.118 100.001 352.488 95.3779 346.78 95.3779Z" fill="#EFF4FB"/>
<path d="M346.78 91.0098H249.151C243.444 91.0098 238.814 95.6399 238.814 101.347V109.373H357.118V101.347C357.118 95.6399 352.488 91.0098 346.78 91.0098Z" fill="white" stroke="#F1F1F3" stroke-miterlimit="10"/>
<path d="M290.329 100.195H306.201" stroke="#FBFCFE" stroke-width="5" stroke-miterlimit="10" stroke-linecap="round" stroke-linejoin="round"/>
<path d="M313.651 100.195H345.897" stroke="#FBFCFE" stroke-width="5" stroke-miterlimit="10" stroke-linecap="round" stroke-linejoin="round"/>
<path d="M254.634 100.195C254.634 101.923 253.235 103.322 251.508 103.322C249.78 103.322 248.381 101.923 248.381 100.195C248.381 98.4671 249.78 97.0684 251.508 97.0684C253.235 97.0684 254.634 98.4671 254.634 100.195Z" fill="#4C8BF5"/>
<path d="M267.081 100.195C267.081 101.923 265.682 103.322 263.954 103.322C262.227 103.322 260.828 101.923 260.828 100.195C260.828 98.4671 262.227 97.0684 263.954 97.0684C265.682 97.0684 267.081 98.4671 267.081 100.195Z" fill="#A4C4FA"/>
<path d="M279.528 100.195C279.528 101.923 278.129 103.322 276.401 103.322C274.673 103.322 273.274 101.923 273.274 100.195C273.274 98.4671 274.673 97.0684 276.401 97.0684C278.129 97.0684 279.528 98.4671 279.528 100.195Z" fill="#D5E1F5"/>
<path d="M255.883 150.401C278.547 125.597 300.89 150.401 300.89 150.401C324.318 124.67 345.897 150.401 345.897 150.401" stroke="black" stroke-miterlimit="10"/>
<path d="M255.883 150.4H345.897" stroke="#450000" stroke-miterlimit="10"/>
<path d="M345.898 145.621V153.153" stroke="#450000" stroke-miterlimit="10"/>
<path d="M255.883 145.621V153.153" stroke="#450000" stroke-miterlimit="10"/>
<path d="M346.862 138.187H344.925C344.244 138.187 343.698 138.74 343.698 139.413V141.351C343.698 142.031 344.252 142.577 344.925 142.577H346.862C347.543 142.577 348.089 142.024 348.089 141.351V139.413C348.089 138.733 347.543 138.187 346.862 138.187Z" stroke="#450000" stroke-miterlimit="10"/>
<path d="M256.856 138.187H254.918C254.237 138.187 253.691 138.74 253.691 139.413V141.351C253.691 142.031 254.245 142.577 254.918 142.577H256.856C257.536 142.577 258.082 142.024 258.082 141.351V139.413C258.082 138.733 257.529 138.187 256.856 138.187Z" stroke="#450000" stroke-miterlimit="10"/>
<path d="M301.855 153.625H299.918C299.237 153.625 298.691 154.179 298.691 154.852V156.789C298.691 157.47 299.245 158.016 299.918 158.016H301.855C302.536 158.016 303.082 157.462 303.082 156.789V154.852C303.089 154.179 302.536 153.625 301.855 153.625Z" stroke="#450000" stroke-miterlimit="10"/>
<path d="M300.89 162.407C304.526 162.407 307.473 159.46 307.473 155.825C307.473 152.189 304.526 149.242 300.89 149.242C297.255 149.242 294.308 152.189 294.308 155.825C294.308 159.46 297.255 162.407 300.89 162.407Z" stroke="#C43F00" stroke-miterlimit="10"/>
<path d="M257.583 131.238L256.67 129.831L255.787 131.23C255.623 131.484 255.339 131.641 255.04 131.641H254.651C253.925 131.641 253.506 130.826 253.932 130.235L255.376 128.216L253.992 126.248C253.581 125.657 254 124.85 254.718 124.85H255.107C255.399 124.85 255.675 124.999 255.84 125.239L256.73 126.555L257.59 125.246C257.755 124.999 258.031 124.85 258.331 124.85H258.585C259.311 124.85 259.729 125.665 259.303 126.256L257.957 128.126L259.46 130.235C259.879 130.826 259.46 131.634 258.735 131.634H258.323C258.024 131.641 257.747 131.492 257.583 131.238Z" fill="#D5E1F5"/>
<path d="M274.007 129.181V130.759C274.007 131.252 273.611 131.649 273.117 131.649H272.601C272.107 131.649 271.711 131.252 271.711 130.759V129.151L269.953 126.196C269.601 125.605 270.028 124.857 270.716 124.857H271.06C271.374 124.857 271.666 125.022 271.823 125.291L272.952 127.198L274.089 125.283C274.246 125.014 274.538 124.85 274.852 124.85H275.002C275.69 124.85 276.116 125.598 275.765 126.189L274.007 129.181Z" fill="#D5E1F5"/>
<path d="M289.805 130.759C289.805 131.253 289.408 131.649 288.915 131.649H284.644C284.045 131.649 283.566 131.171 283.566 130.572C283.566 130.363 283.641 130.153 283.783 129.996L286.671 126.638H284.554C284.06 126.638 283.664 126.241 283.664 125.748C283.664 125.254 284.06 124.857 284.554 124.857H288.571C289.169 124.857 289.648 125.336 289.648 125.935C289.648 126.144 289.573 126.353 289.431 126.511L286.543 129.869H288.915C289.408 129.869 289.805 130.265 289.805 130.759Z" fill="#D5E1F5"/>
<path d="M267.462 127.782H263.617C263.236 127.782 262.929 127.475 262.929 127.094V126.548C262.929 126.166 263.236 125.859 263.617 125.859H267.462C267.844 125.859 268.15 126.166 268.15 126.548V127.094C268.15 127.475 267.844 127.782 267.462 127.782Z" fill="#D5E1F5"/>
<path d="M267.462 130.871H263.617C263.236 130.871 262.929 130.564 262.929 130.182V129.636C262.929 129.255 263.236 128.948 263.617 128.948H267.462C267.844 128.948 268.15 129.255 268.15 129.636V130.182C268.15 130.564 267.844 130.871 267.462 130.871Z" fill="#D5E1F5"/>
<path d="M280.634 130.43L277.912 127.707C277.642 127.438 277.642 127.004 277.912 126.735L278.293 126.353C278.562 126.084 278.996 126.084 279.266 126.353L281.988 129.076C282.258 129.345 282.258 129.779 281.988 130.048L281.607 130.43C281.338 130.699 280.904 130.699 280.634 130.43Z" fill="#D5E1F5"/>
<path d="M277.922 129.076L280.644 126.353C280.914 126.084 281.348 126.084 281.617 126.353L281.998 126.735C282.268 127.004 282.268 127.438 281.998 127.707L279.276 130.43C279.006 130.699 278.572 130.699 278.303 130.43L277.922 130.048C277.652 129.772 277.652 129.338 277.922 129.076Z" fill="#D5E1F5"/>
<path d="M297.966 125.074H345.898" stroke="#FBFCFE" stroke-width="5" stroke-miterlimit="10" stroke-linecap="round" stroke-linejoin="round"/>
<path d="M164.134 274.83H79.2134C60.3413 272.916 64.0439 252.129 85.3021 242.247C85.8108 242.001 86.3418 241.761 86.8729 241.537L155.966 238.874C157.155 239.532 158.412 240.273 159.668 241.103C159.736 241.148 159.795 241.193 159.87 241.23C172.773 249.75 187.21 266.341 164.134 274.83Z" fill="#6A9AEC"/>
<path d="M74.254 299.343H172.885C166.535 266.027 154.073 248.292 154.073 248.292L93.8367 244.701C79.5424 258.793 75.4059 283.777 74.254 299.343Z" fill="black"/>
<path d="M201.915 225.904C199.208 247.447 159.377 249.534 166.176 219.27L201.915 225.904Z" fill="#6A9AEC"/>
<path d="M198.766 216.854L173.82 239.885C165.675 231.462 135.478 187.046 129.823 166.274C127.399 157.38 132.209 148.098 140.893 145.001C144.499 143.714 148.291 143.677 151.754 144.687C155.532 145.786 158.92 148.12 161.284 151.501L198.766 216.854Z" fill="#6194EC"/>
<path d="M232.411 170.171L226.293 174.517C224.991 175.437 223.188 175.138 222.268 173.836L218.611 168.682C217.691 167.381 217.99 165.578 219.291 164.658L225.41 160.312C226.712 159.392 228.514 159.691 229.434 160.993L233.092 166.147C234.019 167.448 233.713 169.251 232.411 170.171Z" fill="#450000"/>
<path d="M245.606 165.114C234.685 172.003 225.096 211.453 202.491 228.29C201.22 229.233 199.888 229.981 198.534 230.564C186.851 235.456 172.893 226.839 172.893 213.196L189.641 197.899L227.362 163.446L245.606 165.114Z" fill="#EFBFA9"/>
<path d="M198.534 230.557C186.851 235.449 172.893 226.832 172.893 213.188L189.641 197.892C178.765 218.305 184.674 233.392 198.519 230.549C198.527 230.549 198.527 230.549 198.534 230.557Z" fill="#ECB298"/>
<path d="M227.355 163.432L223.204 173.612C241.298 182.558 254.216 174.151 262.212 172.954L251.628 151.509L227.355 163.432Z" fill="#EFBFA9"/>
<path d="M258.15 161.165C257.754 161.419 257.387 161.748 257.096 162.16C257.013 162.272 256.946 162.377 256.886 162.496C256.19 163.686 256.213 165.129 256.864 166.274C257.111 166.715 257.447 167.112 257.866 167.433L260.491 169.468L264.209 172.333C264.74 172.744 265.346 172.983 265.959 173.066C266.827 173.193 267.702 173.006 268.45 172.535C268.847 172.28 269.206 171.944 269.497 171.532C270.56 170.036 270.343 168.017 269.064 166.76L269.056 166.753C268.989 166.685 268.906 166.618 268.832 166.558L262.646 161.442C262.586 161.389 262.526 161.344 262.459 161.3C261.15 160.35 259.437 160.35 258.15 161.165Z" fill="#EFBFA9"/>
<path d="M282.961 151.561C283.268 149.721 281.929 148.015 280.067 147.881L264.029 146.714L248.284 151.254L250.947 164.786L268.293 154.568L279.932 154.201C281.45 154.156 282.714 153.049 282.961 151.561Z" fill="#EFBFA9"/>
<path d="M248.292 151.255L251.515 150.327L263.715 152.466L265.772 156.057L250.199 164.823L248.292 151.255Z" fill="#E89076"/>
<path d="M266.37 178.085C265.593 179.154 264.276 179.768 262.87 179.588L254.911 178.518C252.869 178.242 251.396 176.379 251.605 174.322C251.665 173.731 251.874 173.193 252.166 172.714C252.218 172.617 252.271 172.542 252.331 172.467C252.375 172.407 252.428 172.332 252.488 172.273C253.325 171.248 254.672 170.694 256.071 170.941L263.977 172.265C265.099 172.467 266.041 173.155 266.565 174.09C266.64 174.225 266.707 174.367 266.774 174.509C267.014 175.025 267.118 175.624 267.059 176.23C266.991 176.94 266.744 177.568 266.37 178.085Z" fill="#EFBFA9"/>
<path d="M266.565 174.098C266.012 174.539 265.324 174.824 264.553 174.883L256.557 175.497C254.56 175.654 252.144 174.367 252.166 171.667C253.004 170.65 254.672 170.702 256.063 170.949L263.97 172.273C265.099 172.475 266.034 173.156 266.565 174.098Z" fill="#E89076"/>
<path d="M263.924 170.29C263.378 171.173 262.466 171.831 261.351 172.011L255.876 172.766C253.834 173.095 251.904 171.727 251.523 169.707C251.366 168.809 251.508 167.949 251.912 167.209C251.942 167.134 251.986 167.052 252.031 166.992C252.622 166.027 253.61 165.339 254.821 165.189L260.334 164.68C261.277 164.568 262.197 164.823 262.915 165.339C263.67 165.855 264.209 166.663 264.403 167.628C264.598 168.57 264.411 169.505 263.924 170.29Z" fill="#E89076"/>
<path d="M253.468 167.867C253.423 167.934 253.37 168.002 253.326 168.076C253.266 168.166 253.228 168.256 253.176 168.331L253.183 168.338C252.832 168.981 252.675 169.737 252.757 170.53C252.974 172.579 254.792 174.09 256.856 173.926L264.852 173.327C265.241 173.29 265.608 173.208 265.959 173.066C266.603 172.804 267.164 172.362 267.56 171.816C268.099 171.076 268.368 170.156 268.248 169.183C268.173 168.63 267.994 168.136 267.725 167.687C267.508 167.351 267.246 167.044 266.932 166.79C266.258 166.221 265.361 165.892 264.418 165.93L256.879 166.266L256.392 166.289C255.173 166.349 254.133 166.954 253.468 167.867Z" fill="#EFBFA9"/>
<path d="M256.931 166.229L256.445 166.252C255.233 166.311 254.201 166.917 253.527 167.83C253.483 167.897 253.43 167.964 253.385 168.039C253.325 168.129 253.288 168.219 253.236 168.294L253.243 168.301C254.044 169.76 255.764 170.567 257.469 170.164L260.559 169.423L267.246 167.822C267.433 167.777 267.62 167.725 267.784 167.643C268.315 167.433 268.757 167.112 269.131 166.715L269.123 166.708C269.056 166.64 268.974 166.573 268.899 166.513L262.713 161.397C262.653 161.345 262.586 161.3 262.526 161.255L256.961 162.444C256.265 163.634 256.28 165.085 256.931 166.229Z" fill="#E89076"/>
<path d="M257.716 155.57C257.155 155.929 256.684 156.423 256.362 157.051C255.412 158.899 256.115 161.158 257.918 162.16L260.185 163.417L264.949 166.027C265.66 166.424 266.453 166.558 267.201 166.454C267.739 166.401 268.256 166.207 268.719 165.915C269.28 165.556 269.744 165.055 270.051 164.419C270.903 162.691 270.283 160.597 268.63 159.61L266.393 158.286L264.022 156.872L261.725 155.51C260.439 154.74 258.898 154.822 257.716 155.57Z" fill="#EFBFA9"/>
<path d="M264.291 164.105C263.887 165.062 263.087 165.855 262.017 166.199L256.721 167.785C254.754 168.421 252.637 167.366 251.957 165.429C251.665 164.561 251.672 163.693 251.957 162.9C251.972 162.826 252.009 162.736 252.039 162.668C252.48 161.621 253.348 160.791 254.515 160.462L259.886 159.115C260.798 158.861 261.748 158.973 262.541 159.37C263.364 159.766 264.029 160.484 264.366 161.397C264.695 162.302 264.65 163.259 264.291 164.105Z" fill="#E89076"/>
<path d="M268.173 165.002C267.695 165.93 266.834 166.655 265.742 166.909L257.918 168.727C255.906 169.206 253.879 167.987 253.348 166.004C253.123 165.122 253.206 164.254 253.542 163.484C253.565 163.409 253.61 163.327 253.64 163.259C254.156 162.249 255.091 161.494 256.28 161.247L264.156 159.661C265.091 159.482 266.027 159.661 266.782 160.125C267.575 160.589 268.173 161.352 268.443 162.294C268.712 163.237 268.592 164.187 268.173 165.002Z" fill="#EFBFA9"/>
<path d="M231.858 165.354L249.63 155.099L261.913 157.545L257.589 163.693L252.525 164.194C252.518 164.194 244.926 179.162 231.858 165.354Z" fill="#E89076"/>
<path d="M261.913 157.545L264.965 164.135C265.63 165.563 265.017 167.269 263.596 167.95C262.332 168.555 260.813 168.174 259.998 167.037L257.589 163.693L261.913 157.545Z" fill="#E89076"/>
<path d="M227.355 163.431L248.292 151.254L262.795 154.089L257.716 161.359L251.74 161.973C251.74 161.973 242.831 179.67 227.355 163.431Z" fill="#EFBFA9"/>
<path d="M264.029 156.871L259.294 161.509L260.192 163.409L261.374 165.899C261.434 166.034 261.509 166.169 261.576 166.281C262.369 167.538 263.895 168.143 265.353 167.732C266.131 167.523 266.767 167.059 267.208 166.446C267.792 165.653 268.024 164.62 267.762 163.603L266.4 158.277L264.029 156.871Z" fill="#E89076"/>
<path d="M262.795 154.089L266.423 161.853C267.209 163.544 266.498 165.548 264.822 166.364C263.334 167.089 261.539 166.64 260.566 165.294L257.709 161.352L262.795 154.089Z" fill="#EFBFA9"/>
<path d="M226.973 162.99L237.348 178.534L234.004 183.755L221.341 167.486L226.973 162.99Z" fill="#450000"/>
<path d="M166.168 266.393L100.92 266.505L77.2161 266.55C77.2161 266.55 81.532 256.078 85.3019 242.255C88.466 230.639 91.2336 216.666 90.7324 204.533C90.4407 197.285 89.4907 189.671 89.4982 181.862C89.5057 176.902 85.3618 142.614 89.4982 139.457C99.0352 132.187 126.457 131.027 124.811 132.583L146.294 144.798C147.498 148.92 159.13 165.046 161.007 174.389C161.164 175.092 161.291 175.825 161.411 176.543C161.785 178.989 162.024 181.488 162.002 184.038C162.009 184.749 161.994 185.497 161.897 186.252C161.852 187.329 161.733 188.451 161.553 189.543C160.506 196.006 157.499 202.424 151.208 208.056L151.305 208.49L151.32 208.588L155.494 224.812L159.683 241.126L159.795 241.559L166.168 266.393Z" fill="#6A9BEC"/>
<path d="M159.87 241.239L159.78 241.538L103.284 258.473L100.92 266.499L99.2897 272.019L94.9288 274.824H79.2208C60.3488 272.909 64.0514 252.122 85.3096 242.241C88.4736 230.624 91.2412 216.652 90.74 204.519C90.4483 197.271 89.4984 189.657 89.5058 181.847L111.026 159.587L110.487 212.089L147.558 218.447L155.487 224.775L159.676 241.089C159.743 241.156 159.803 241.201 159.87 241.239Z" fill="#6194EC"/>
<path d="M125.769 190.397L113.532 209.508L101.294 190.397L113.532 171.285L125.769 190.397Z" stroke="#462EFF" stroke-opacity="0.103693" stroke-miterlimit="10"/>
<path d="M150.101 190.397L137.864 209.508L125.634 190.397L137.864 171.285L150.101 190.397Z" stroke="#462EFF" stroke-opacity="0.103693" stroke-miterlimit="10"/>
<path d="M174.434 190.397L162.204 209.508L149.967 190.397L162.204 171.285L174.434 190.397Z" stroke="#462EFF" stroke-opacity="0.103693" stroke-miterlimit="10"/>
<path d="M162.526 93.6133C170.424 93.6133 176.827 87.2102 176.827 79.3115C176.827 71.4129 170.424 65.0098 162.526 65.0098C154.627 65.0098 148.224 71.4129 148.224 79.3115C148.224 87.2102 154.627 93.6133 162.526 93.6133Z" fill="#450000"/>
<path d="M147.962 77.4336C155.861 77.4336 162.264 71.0305 162.264 63.1318C162.264 55.2332 155.861 48.8301 147.962 48.8301C140.063 48.8301 133.66 55.2332 133.66 63.1318C133.66 71.0305 140.063 77.4336 147.962 77.4336Z" fill="#450000"/>
<path d="M129.262 82.6396C137.16 82.6396 143.564 76.2365 143.564 68.3379C143.564 60.4392 137.16 54.0361 129.262 54.0361C121.363 54.0361 114.96 60.4392 114.96 68.3379C114.96 76.2365 121.363 82.6396 129.262 82.6396Z" fill="#450000"/>
<path d="M111.317 77.0745C105.543 91.87 107.585 101.287 116.913 107.436L125.746 97.7941L120.458 74.5986L111.317 77.0745Z" fill="#450000"/>
<path d="M116.314 97.7939L119.68 133.818L146.511 151.949L146.892 107.533L116.314 97.7939Z" fill="#EFBFA9"/>
<path d="M111.931 107.862L118.289 118.97L122.268 110.503L111.931 107.862Z" fill="#450000"/>
<path d="M146.638 136.78C146.638 136.78 130.085 133.796 129.606 115.118L146.885 120.743L146.638 136.78Z" fill="#E89076"/>
<path d="M157.701 71.5615C165.705 81.3753 166.752 94.3007 166.752 94.3007L158.075 95.6696L151.478 74.8826L157.701 71.5615Z" fill="#450000"/>
<path d="M119.037 83.0585L121.617 93.2762L122.799 97.9363L125.963 110.443C127.676 117.197 132.755 122.575 139.397 124.67L149.72 127.924C158.673 130.744 167.874 124.535 168.704 115.185C169.317 108.326 169.31 100.322 166.699 91.8176C163.663 81.944 155.741 74.2247 146.316 71.1429L146.279 71.1279L144.626 70.6343L144.446 70.5894C143.624 70.3725 142.771 70.2004 141.918 70.0583C139.899 69.6993 137.819 69.5497 135.71 69.6095L129.03 69.804C122.238 70.0134 117.369 76.4537 119.037 83.0585Z" fill="#EFBFA9"/>
<path d="M162.772 99.9035C163.012 102.349 162.294 104.421 161.179 104.534C160.065 104.638 158.965 102.746 158.733 100.292C158.494 97.8465 159.212 95.7745 160.326 95.6623C161.441 95.5576 162.541 97.4501 162.772 99.9035Z" fill="black"/>
<path d="M155.696 96.2607C157.94 101.654 161.635 102.761 164.208 102.798C165.862 102.821 167.215 104.1 167.35 105.745C167.522 107.915 166.408 109.987 164.493 111.026L157.723 114.706C153.923 115.978 149.862 113.704 148.957 109.8L145.89 96.5824L155.696 96.2607Z" fill="#EFBFA9"/>
<path d="M160.222 113.839L159.81 113.084L164.283 110.653C166.049 109.695 167.081 107.788 166.916 105.783C166.804 104.355 165.63 103.255 164.201 103.233C161.411 103.195 157.604 101.976 155.292 96.4258L156.093 96.0967C158.217 101.213 161.68 102.335 164.216 102.365C166.094 102.395 167.627 103.831 167.777 105.708C167.964 108.05 166.752 110.286 164.695 111.408L160.222 113.839Z" fill="#E89076"/>
<path d="M147.917 102.117C148.156 104.563 147.438 106.635 146.324 106.747C145.209 106.852 144.11 104.96 143.878 102.506C143.639 100.06 144.357 97.9884 145.471 97.8762C146.586 97.7715 147.678 99.6639 147.917 102.117Z" fill="black"/>
<path d="M141.611 92.3863C136.046 94.7051 134.513 91.8477 138.507 89.4317C142.808 86.8287 148.538 89.499 141.611 92.3863Z" fill="#450000"/>
<path d="M157.656 89.7833C153.31 89.0802 154.522 86.3426 158.15 86.3052C162.054 86.2528 163.057 90.6585 157.656 89.7833Z" fill="#450000"/>
<path d="M157.746 115.657L147.722 114.887C147.722 114.887 148.852 120.676 151.754 121.297C154.918 121.978 157.746 115.657 157.746 115.657Z" fill="white"/>
<path d="M133.481 69.7066C138.739 82.1234 128.843 99.1105 108.086 97.8763C99.3495 80.216 99.7235 64.4332 133.481 69.7066Z" fill="#450000"/>
<path d="M126.352 99.2528C105.513 70.6193 94.6896 115.963 125.32 113.585L126.352 99.2528Z" fill="#EFBFA9"/>
<path d="M126.128 80.9189L126.517 104.967L124.505 106.314L116.912 83.1854L126.128 80.9189Z" fill="#450000"/>
<path d="M127.28 72.3019C143.938 78.8245 159.122 73.4314 159.122 73.4314C159.122 73.4314 153.587 60.1095 127.28 72.3019Z" fill="#450000"/>
<path d="M106.216 75.0323C106.216 66.5649 96.8661 70.6266 103.284 76.1094C92.0266 74.591 100.546 88.5487 105.73 83.6717" fill="#450000"/>
<path d="M147.536 152.421C151.149 132.771 132.665 128.612 118.7 122.875L111.018 132.756L147.536 152.421Z" fill="white"/>
<path d="M81.7789 208.722C96.5295 205.872 110.106 210.001 102.843 224.58L80.3951 225.904L81.7789 208.722Z" fill="#6A9AEC"/>
<path d="M78.4803 250.925C38.6493 261.225 45.0896 218.506 68.8012 212.104L78.4803 250.925Z" fill="#6194EC"/>
<path d="M80.268 240.139L56.5564 243.632C52.3152 210.032 62.2786 173.38 84.5839 143.819C89.79 136.915 99.4392 135.187 106.725 139.847C113 143.871 115.813 151.598 113.591 158.712L80.268 240.139Z" fill="#6A9BEC"/>
<path d="M198.085 191.668L196.238 189.326L196.23 189.341C196.013 189.087 195.722 188.9 195.34 188.848L159.788 184.15C158.748 184.016 157.716 184.427 157.05 185.235L118.857 232C118.192 232.823 118.61 234.057 119.643 234.296L144.132 240.003C145.135 240.235 146.189 239.944 146.93 239.225L195.759 191.66H198.085V191.668Z" fill="#E5EBEA"/>
<path d="M120.667 234.289L158.86 187.524C159.526 186.709 160.558 186.305 161.598 186.44L197.15 191.137C198.332 191.294 198.819 192.745 197.958 193.575L148.74 241.515C147.999 242.233 146.945 242.525 145.942 242.293L121.453 236.586C120.421 236.346 120.002 235.112 120.667 234.289Z" fill="white"/>
<path d="M165.645 214.445C168.895 211.486 170.249 207.68 168.669 205.945C167.09 204.21 163.174 205.203 159.924 208.162C156.674 211.121 155.32 214.926 156.9 216.661C158.479 218.396 162.395 217.404 165.645 214.445Z" fill="#E5EBEA"/>
<path d="M162.87 191.421C162.391 192.221 161.433 192.857 160.745 192.842C160.05 192.827 159.878 192.169 160.364 191.361C160.843 190.561 161.8 189.925 162.488 189.94C163.176 189.955 163.348 190.613 162.87 191.421Z" fill="#E5EBEA"/>
<path d="M147.423 236.062L179.767 213.988L138.223 217.122L134.7 231.028L147.423 236.062Z" fill="#EFBFA9"/>
<path d="M141.492 218.566L135.642 217.743C133.915 217.496 132.882 215.694 133.548 214.078L133.757 213.577C135.022 210.525 138.634 209.224 141.559 210.764C143.519 211.797 144.686 213.891 144.536 216.098C144.424 217.646 143.033 218.776 141.492 218.566Z" fill="#EFBFA9"/>
<path d="M154.342 218.304L179.767 213.996L180.066 213.248C181.255 210.301 183.671 208.034 186.678 207.047C187.157 206.882 187.471 206.426 187.456 205.94C187.456 205.865 187.441 205.79 187.426 205.708C186.97 203.681 185.16 202.319 183.17 202.364C182.841 202.372 182.505 202.432 182.161 202.514L180.65 203.038L180.5 203.09C177.897 203.995 175.915 206.112 175.182 208.76L155.001 218.005L154.342 218.304Z" fill="#EFBFA9"/>
<path d="M163.782 219.374L175.376 215.372C177.014 210.413 179.797 208.506 182.804 207.518C183.283 207.354 183.597 206.897 183.582 206.411C183.582 206.336 183.567 206.262 183.552 206.179C183.208 204.624 182.056 203.464 180.657 203.03L180.508 203.083C177.904 203.988 175.922 206.105 175.189 208.752L172.998 214.131L163.782 219.374Z" fill="#E89076"/>
<path d="M172.982 214.146L173.282 213.398C174.463 210.458 176.887 208.191 179.894 207.197C180.447 207.01 180.777 206.434 180.649 205.865C180.118 203.501 177.732 202.043 175.383 202.664L173.723 203.24C171.127 204.145 169.13 206.269 168.397 208.917L147.558 218.454L172.982 214.146Z" fill="#EFBFA9"/>
<path d="M88.2341 219.374L139.48 224.565L147.431 236.069C147.431 236.069 112.395 253.647 79.5573 251.463C65.3528 250.52 60.3786 232.142 72.1821 224.191L74.0371 222.942C78.2035 220.129 83.23 218.865 88.2341 219.374Z" fill="#EFBFA9"/>
<path d="M76.2512 279.08L135.037 287.233L138.245 266.551H80.7317L76.2512 279.08Z" fill="white"/>
<path d="M142.808 266.551L146.533 287.233L167.829 279.08L163.348 266.551H142.808Z" fill="white"/>
<path d="M241.193 199.701H302.708C306.56 199.701 309.687 196.574 309.687 192.722C309.687 188.87 306.56 185.743 302.708 185.743H241.193C237.34 185.743 234.214 188.87 234.214 192.722C234.221 196.582 237.34 199.701 241.193 199.701Z" fill="#EFF4FB"/>
<path d="M241.948 266.049H303C307.271 266.049 310.734 262.586 310.734 258.315V213.173C310.734 208.902 307.271 205.438 303 205.438H241.948C237.677 205.438 234.214 208.902 234.214 213.173V258.315C234.221 262.586 237.677 266.049 241.948 266.049Z" fill="#EFF4FB"/>
<path d="M253.146 261.808H314.197C318.468 261.808 321.932 258.344 321.932 254.073V208.932C321.932 204.661 318.468 201.197 314.197 201.197H253.146C248.874 201.197 245.411 204.661 245.411 208.932V254.073C245.411 258.344 248.874 261.808 253.146 261.808Z" fill="white" stroke="#F1F1F3" stroke-miterlimit="10"/>
<path d="M252.39 195.46H313.906C317.758 195.46 320.884 192.333 320.884 188.481C320.884 184.629 317.758 181.502 313.906 181.502H252.39C248.538 181.502 245.411 184.629 245.411 188.481C245.411 192.333 248.538 195.46 252.39 195.46Z" fill="white" stroke="#F1F1F3" stroke-miterlimit="10"/>
<path d="M257.215 188.481C257.215 190.209 255.816 191.608 254.088 191.608C252.36 191.608 250.961 190.209 250.961 188.481C250.961 186.753 252.36 185.354 254.088 185.354C255.816 185.354 257.215 186.761 257.215 188.481Z" fill="#4C8BF5"/>
<path d="M269.661 188.481C269.661 190.209 268.263 191.608 266.535 191.608C264.807 191.608 263.408 190.209 263.408 188.481C263.408 186.753 264.807 185.354 266.535 185.354C268.263 185.354 269.661 186.761 269.661 188.481Z" fill="#A4C4FA"/>
<path d="M282.108 188.481C282.108 190.209 280.709 191.608 278.981 191.608C277.254 191.608 275.855 190.209 275.855 188.481C275.855 186.753 277.254 185.354 278.981 185.354C280.709 185.354 282.108 186.761 282.108 188.481Z" fill="#D5E1F5"/>
<path d="M254.619 213.427H311.684" stroke="#EFF3FB" stroke-width="5" stroke-miterlimit="10" stroke-linecap="round" stroke-linejoin="round"/>
<path d="M254.619 220.354H286.619" stroke="#EFF3FB" stroke-width="5" stroke-miterlimit="10" stroke-linecap="round" stroke-linejoin="round"/>
<path d="M265.331 244.783H256.362V253.752H265.331V244.783Z" stroke="#6194EC" stroke-width="3" stroke-miterlimit="10"/>
<path d="M256.362 253.752V227.444L310.547 253.752H256.362Z" stroke="#D5E1F5" stroke-width="3" stroke-miterlimit="10" stroke-linejoin="round"/>
<path d="M226.502 116.441C225.993 116.434 225.492 116.441 225.006 116.456" stroke="#EAA105" stroke-miterlimit="10"/>
<path d="M206.037 156.086C206.328 156.49 206.642 156.879 206.964 157.253" stroke="#EAA105" stroke-miterlimit="10"/>
<path d="M327.946 217.601C328.439 217.713 328.933 217.803 329.419 217.877" stroke="#AABC95" stroke-miterlimit="10"/>
<path d="M355.801 182.744C355.592 182.295 355.367 181.846 355.121 181.412" stroke="#AABC95" stroke-miterlimit="10"/>
<path d="M286.013 81.9137C286.17 81.435 286.312 80.9488 286.439 80.4775" stroke="#EEF3FC" stroke-miterlimit="10"/>
<path d="M254.11 50.7217C253.639 50.8862 253.175 51.0658 252.719 51.2677" stroke="#EEF3FC" stroke-miterlimit="10"/>
<path d="M256.504 53.1976C255.39 55.2621 252.816 56.04 250.752 54.9255C248.687 53.811 247.91 51.2378 249.024 49.1734C250.139 47.1089 252.712 46.331 254.776 47.4455C256.841 48.56 257.619 51.1331 256.504 53.1976Z" fill="#EEF3FC"/>
<path d="M59.6606 84.1953H75.982" stroke="#EEF3FC" stroke-width="5" stroke-miterlimit="10" stroke-linecap="round" stroke-linejoin="round"/>
<path d="M59.6606 92.5576H68.7638" stroke="#EEF3FC" stroke-width="5" stroke-miterlimit="10" stroke-linecap="round" stroke-linejoin="round"/>
<path d="M205.251 79.2734H261.381" stroke="#EEF3FC" stroke-width="5" stroke-miterlimit="10" stroke-linecap="round" stroke-linejoin="round"/>
<path d="M205.251 87.3369H225.552" stroke="#EEF3FC" stroke-width="5" stroke-miterlimit="10" stroke-linecap="round" stroke-linejoin="round"/>
<path d="M339.891 237.236H356.908" stroke="#EEF3FC" stroke-width="5" stroke-miterlimit="10" stroke-linecap="round" stroke-linejoin="round"/>
<path d="M331.94 237.236H334.192" stroke="#EEF3FC" stroke-width="5" stroke-miterlimit="10" stroke-linecap="round" stroke-linejoin="round"/>
<path d="M348.09 243.961H356.909" stroke="#EEF3FC" stroke-width="5" stroke-miterlimit="10" stroke-linecap="round" stroke-linejoin="round"/>
<path d="M203.344 48.3955C203.344 50.5422 201.601 52.2851 199.454 52.2851C197.308 52.2851 195.565 50.5422 195.565 48.3955C195.565 46.2487 197.308 44.5059 199.454 44.5059C201.601 44.5059 203.344 46.2487 203.344 48.3955Z" fill="#EFF4FB"/>
<path d="M216.561 48.3955C216.561 50.5422 214.818 52.2851 212.672 52.2851C210.525 52.2851 208.782 50.5422 208.782 48.3955C208.782 46.2487 210.525 44.5059 212.672 44.5059C214.818 44.5059 216.561 46.2487 216.561 48.3955Z" fill="#EFF4FB"/>
<path d="M229.778 48.3955C229.778 50.5422 228.035 52.2851 225.888 52.2851C223.742 52.2851 221.999 50.5422 221.999 48.3955C221.999 46.2487 223.742 44.5059 225.888 44.5059C228.035 44.5133 229.778 46.2487 229.778 48.3955Z" fill="#EFF4FB"/>
<path d="M172.452 332.36C175.988 332.36 178.854 329.493 178.854 325.957C178.854 322.42 175.988 319.554 172.452 319.554C168.915 319.554 166.049 322.42 166.049 325.957C166.049 329.493 168.915 332.36 172.452 332.36Z" fill="#EEF3FC"/>
<path d="M321.58 75.5257C323.889 75.5257 325.761 73.6537 325.761 71.3444C325.761 69.0351 323.889 67.1631 321.58 67.1631C319.271 67.1631 317.399 69.0351 317.399 71.3444C317.399 73.6537 319.271 75.5257 321.58 75.5257Z" fill="#EEF3FC"/>
<path d="M28.6335 86.2974C31.8641 86.2974 34.4829 83.6785 34.4829 80.448C34.4829 77.2175 31.8641 74.5986 28.6335 74.5986C25.403 74.5986 22.7842 77.2175 22.7842 80.448C22.7842 83.6785 25.403 86.2974 28.6335 86.2974Z" fill="#EEF3FC"/>
<path d="M66.9911 322.067C66.9911 320.039 65.3529 318.401 63.3259 318.401C61.2988 318.401 59.6606 320.039 59.6606 322.067C59.6606 324.094 61.2988 325.732 63.3259 325.732C65.3529 325.732 66.9911 324.094 66.9911 322.067Z" fill="#EEF3FC"/>
<path d="M79.909 41.5367C84.5647 41.5367 88.3389 37.7625 88.3389 33.1067C88.3389 28.451 84.5647 24.6768 79.909 24.6768C75.2532 24.6768 71.479 28.451 71.479 33.1067C71.479 37.7625 75.2532 41.5367 79.909 41.5367Z" fill="#EEF3FC"/>
<path d="M80.8498 58.881C81.9249 54.351 79.124 49.8072 74.594 48.7322C70.0639 47.6572 65.5201 50.458 64.4451 54.9881C63.3701 59.5181 66.171 64.0619 70.701 65.1369C75.231 66.2119 79.7748 63.4111 80.8498 58.881Z" fill="#EEF3FC"/>
<path d="M109.805 52.5165C113.097 49.2244 113.097 43.8869 109.805 40.5948C106.513 37.3028 101.175 37.3028 97.8829 40.5948C94.5909 43.8869 94.5909 49.2244 97.8829 52.5165C101.175 55.8086 106.513 55.8086 109.805 52.5165Z" fill="#EEF3FC"/>
<path d="M72.6456 56.9302L79.9087 33.1064" stroke="#EEF3FC" stroke-width="5" stroke-miterlimit="10" stroke-linecap="round" stroke-linejoin="round"/>
<path d="M103.845 46.5555L81.0833 33.1064" stroke="#EEF3FC" stroke-width="5" stroke-miterlimit="10" stroke-linecap="round" stroke-linejoin="round"/>
<path d="M72.6456 56.9304L103.845 46.5557" stroke="#EEF3FC" stroke-width="5" stroke-miterlimit="10" stroke-linecap="round" stroke-linejoin="round"/>
</svg>
