<svg width="100" height="134" viewBox="0 0 100 134" fill="none" xmlns="http://www.w3.org/2000/svg">
<path d="M91.2857 1.40615L85.8343 0.801514C85.8542 4.54205 85.4973 8.27508 84.769 11.9441L82.8879 21.3639L88.3345 21.9686L90.2156 12.5487C90.9441 8.87977 91.3011 5.14671 91.2809 1.40615H91.2857Z" fill="#F9BD33"/>
<path opacity="0.4" d="M91.2857 1.40615L85.8343 0.801514C85.8542 4.54205 85.4973 8.27508 84.769 11.9441L82.8879 21.3639L88.3345 21.9686L90.2156 12.5487C90.9441 8.87977 91.3011 5.14671 91.2809 1.40615H91.2857Z" fill="#FAFAFA"/>
<path d="M99.9999 12.635H15.9028L5.47998 133.226H89.5771L99.9999 12.635Z" fill="#F9BD33"/>
<path opacity="0.8" d="M99.9999 12.635H15.9028L5.47998 133.226H89.5771L99.9999 12.635Z" fill="#FAFAFA"/>
<path d="M90.0906 127.252H5.99824L5.47998 133.226H89.5771L90.0906 127.252Z" fill="#F9BD33"/>
<path opacity="0.4" d="M90.0906 127.252H5.99824L5.47998 133.226H89.5771L90.0906 127.252Z" fill="#FAFAFA"/>
<path d="M94.5199 12.635H10.4228L0 133.226H84.0972L94.5199 12.635Z" fill="#FAFAFA"/>
<path d="M84.6106 127.252H0.51826L0 133.226H84.0972L84.6106 127.252Z" fill="#F9BD33"/>
<path opacity="0.6" d="M84.6106 127.252H0.51826L0 133.226H84.0972L84.6106 127.252Z" fill="#FAFAFA"/>
<path d="M88.7615 18.6862H15.1447C15.1315 18.6862 15.1184 18.6836 15.1062 18.6785C15.0939 18.6734 15.0828 18.666 15.0735 18.6566C15.0641 18.6473 15.0567 18.6362 15.0516 18.624C15.0466 18.6117 15.0439 18.5986 15.0439 18.5854C15.0451 18.559 15.0561 18.5341 15.0748 18.5154C15.0934 18.4968 15.1184 18.4858 15.1447 18.4846H88.7615C88.7887 18.4846 88.8149 18.495 88.8345 18.5138C88.8542 18.5326 88.8659 18.5582 88.8671 18.5854C88.8671 18.599 88.8644 18.6125 88.859 18.6251C88.8536 18.6376 88.8458 18.649 88.8359 18.6584C88.826 18.6678 88.8144 18.6751 88.8016 18.6799C88.7888 18.6847 88.7752 18.6868 88.7615 18.6862Z" fill="#F9BD33"/>
<path d="M88.3441 23.528H14.7272C14.7005 23.528 14.6749 23.5173 14.656 23.4984C14.6371 23.4795 14.6265 23.4539 14.6265 23.4272C14.6276 23.4008 14.6386 23.3759 14.6573 23.3572C14.6759 23.3386 14.7009 23.3276 14.7272 23.3264H88.3441C88.3708 23.3264 88.3964 23.337 88.4153 23.3559C88.4342 23.3748 88.4448 23.4005 88.4448 23.4272C88.4448 23.4539 88.4342 23.4795 88.4153 23.4984C88.3964 23.5173 88.3708 23.528 88.3441 23.528Z" fill="#F9BD33"/>
<path d="M87.9265 28.3698H14.3337C14.307 28.3698 14.2813 28.3591 14.2624 28.3402C14.2435 28.3213 14.2329 28.2957 14.2329 28.269C14.2329 28.2423 14.2435 28.2166 14.2624 28.1977C14.2813 28.1788 14.307 28.1682 14.3337 28.1682H87.9265C87.9532 28.1682 87.9789 28.1788 87.9978 28.1977C88.0167 28.2166 88.0273 28.2423 88.0273 28.269C88.0273 28.2957 88.0167 28.3213 87.9978 28.3402C87.9789 28.3591 87.9532 28.3698 87.9265 28.3698Z" fill="#F9BD33"/>
<path d="M87.5088 33.2118H13.892C13.8653 33.2118 13.8397 33.2012 13.8208 33.1823C13.8019 33.1634 13.7913 33.1377 13.7913 33.111C13.7913 33.0843 13.8019 33.0587 13.8208 33.0398C13.8397 33.0209 13.8653 33.0103 13.892 33.0103H87.5088C87.5221 33.0103 87.5352 33.0129 87.5474 33.0179C87.5596 33.023 87.5707 33.0304 87.5801 33.0398C87.5895 33.0491 87.5969 33.0602 87.6019 33.0725C87.607 33.0847 87.6096 33.0978 87.6096 33.111C87.6096 33.1243 87.607 33.1374 87.6019 33.1496C87.5969 33.1618 87.5895 33.1729 87.5801 33.1823C87.5707 33.1916 87.5596 33.1991 87.5474 33.2041C87.5352 33.2092 87.5221 33.2118 87.5088 33.2118Z" fill="#F9BD33"/>
<path d="M87.0919 38.0536H13.475C13.4483 38.0536 13.4227 38.043 13.4038 38.0241C13.3849 38.0052 13.3743 37.9795 13.3743 37.9528C13.3743 37.9261 13.3849 37.9005 13.4038 37.8816C13.4227 37.8627 13.4483 37.8521 13.475 37.8521H87.0919C87.1186 37.8521 87.1442 37.8627 87.1631 37.8816C87.182 37.9005 87.1926 37.9261 87.1926 37.9528C87.1926 37.9795 87.182 38.0052 87.1631 38.0241C87.1442 38.043 87.1186 38.0536 87.0919 38.0536Z" fill="#F9BD33"/>
<path d="M86.6693 42.8954H13.0573C13.0306 42.8954 13.005 42.8848 12.9861 42.8659C12.9672 42.847 12.9565 42.8214 12.9565 42.7946C12.9565 42.7679 12.9672 42.7423 12.9861 42.7234C13.005 42.7045 13.0306 42.6938 13.0573 42.6938H86.6693C86.696 42.6938 86.7217 42.7045 86.7406 42.7234C86.7595 42.7423 86.7701 42.7679 86.7701 42.7946C86.7701 42.8214 86.7595 42.847 86.7406 42.8659C86.7217 42.8848 86.696 42.8954 86.6693 42.8954Z" fill="#F9BD33"/>
<path d="M86.252 47.7377H12.6352C12.6085 47.7377 12.5828 47.7271 12.5639 47.7082C12.545 47.6893 12.5344 47.6636 12.5344 47.6369C12.5344 47.6102 12.545 47.5845 12.5639 47.5656C12.5828 47.5468 12.6085 47.5361 12.6352 47.5361H86.252C86.2787 47.5361 86.3044 47.5468 86.3233 47.5656C86.3422 47.5845 86.3528 47.6102 86.3528 47.6369C86.3528 47.6636 86.3422 47.6893 86.3233 47.7082C86.3044 47.7271 86.2787 47.7377 86.252 47.7377Z" fill="#F9BD33"/>
<path d="M85.8343 52.5841H12.2175C12.1907 52.5841 12.1651 52.5735 12.1462 52.5546C12.1273 52.5357 12.1167 52.5101 12.1167 52.4833C12.1167 52.4566 12.1273 52.431 12.1462 52.4121C12.1651 52.3932 12.1907 52.3826 12.2175 52.3826H85.8343C85.861 52.3826 85.8866 52.3932 85.9055 52.4121C85.9244 52.431 85.9351 52.4566 85.9351 52.4833C85.9351 52.5101 85.9244 52.5357 85.9055 52.5546C85.8866 52.5735 85.861 52.5841 85.8343 52.5841Z" fill="#F9BD33"/>
<path d="M85.4166 57.4213H11.7998C11.773 57.4213 11.7474 57.4107 11.7285 57.3918C11.7096 57.3729 11.699 57.3472 11.699 57.3205C11.699 57.2938 11.7096 57.2681 11.7285 57.2492C11.7474 57.2303 11.773 57.2197 11.7998 57.2197H85.4166C85.4433 57.2197 85.4689 57.2303 85.4878 57.2492C85.5067 57.2681 85.5173 57.2938 85.5173 57.3205C85.5173 57.3472 85.5067 57.3729 85.4878 57.3918C85.4689 57.4107 85.4433 57.4213 85.4166 57.4213Z" fill="#F9BD33"/>
<path d="M84.9993 62.2631H11.3825C11.3558 62.2631 11.3302 62.2525 11.3113 62.2336C11.2924 62.2147 11.2817 62.189 11.2817 62.1623C11.2817 62.1356 11.2924 62.1099 11.3113 62.091C11.3302 62.0721 11.3558 62.0615 11.3825 62.0615H84.9993C85.0261 62.0615 85.0517 62.0721 85.0706 62.091C85.0895 62.1099 85.1001 62.1356 85.1001 62.1623C85.0989 62.1886 85.0879 62.2136 85.0693 62.2322C85.0506 62.2509 85.0257 62.2619 84.9993 62.2631Z" fill="#F9BD33"/>
<path d="M84.577 67.1047H10.9746C10.9592 67.1081 10.9433 67.1079 10.9279 67.1043C10.9126 67.1007 10.8982 67.0936 10.886 67.0837C10.8737 67.0738 10.8638 67.0613 10.857 67.0471C10.8502 67.0329 10.8467 67.0173 10.8467 67.0016C10.8467 66.9858 10.8502 66.9702 10.857 66.956C10.8638 66.9418 10.8737 66.9293 10.886 66.9194C10.8982 66.9095 10.9126 66.9025 10.9279 66.8988C10.9433 66.8952 10.9592 66.895 10.9746 66.8984H84.5866C84.602 66.895 84.618 66.8952 84.6333 66.8988C84.6487 66.9025 84.663 66.9095 84.6753 66.9194C84.6875 66.9293 84.6974 66.9418 84.7043 66.956C84.7111 66.9702 84.7146 66.9858 84.7146 67.0016C84.7146 67.0173 84.7111 67.0329 84.7043 67.0471C84.6974 67.0613 84.6875 67.0738 84.6753 67.0837C84.663 67.0936 84.6487 67.1007 84.6333 67.1043C84.618 67.1079 84.602 67.1081 84.5866 67.1047H84.577Z" fill="#F9BD33"/>
<path d="M84.1595 71.9468H10.5427C10.5191 71.9417 10.498 71.9287 10.4829 71.9099C10.4677 71.8911 10.4595 71.8678 10.4595 71.8436C10.4595 71.8195 10.4677 71.7962 10.4829 71.7774C10.498 71.7586 10.5191 71.7456 10.5427 71.7405H84.1595C84.1731 71.7405 84.1866 71.7432 84.1992 71.7486C84.2117 71.7539 84.2231 71.7618 84.2325 71.7717C84.2419 71.7815 84.2492 71.7932 84.254 71.806C84.2588 71.8188 84.2609 71.8324 84.2602 71.8461C84.2602 71.8728 84.2496 71.8984 84.2307 71.9173C84.2118 71.9362 84.1862 71.9468 84.1595 71.9468Z" fill="#F9BD33"/>
<path d="M83.7419 76.7889H10.1251C10.1114 76.7889 10.0979 76.7861 10.0854 76.7808C10.0728 76.7754 10.0615 76.7675 10.052 76.7577C10.0426 76.7478 10.0353 76.7361 10.0305 76.7233C10.0258 76.7105 10.0236 76.6969 10.0243 76.6833C10.0243 76.6566 10.0349 76.6309 10.0538 76.612C10.0727 76.5931 10.0983 76.5825 10.1251 76.5825H83.7419C83.7686 76.5825 83.7942 76.5931 83.8131 76.612C83.832 76.6309 83.8426 76.6566 83.8426 76.6833C83.8433 76.6969 83.8412 76.7105 83.8364 76.7233C83.8316 76.7361 83.8243 76.7478 83.8149 76.7577C83.8055 76.7675 83.7941 76.7754 83.7816 76.7808C83.769 76.7861 83.7555 76.7889 83.7419 76.7889Z" fill="#F9BD33"/>
<path d="M83.3244 81.6307H9.70758C9.69393 81.6307 9.68042 81.6279 9.66787 81.6226C9.65532 81.6172 9.64399 81.6093 9.63457 81.5995C9.62515 81.5896 9.61783 81.5779 9.61306 81.5651C9.60828 81.5523 9.60615 81.5387 9.6068 81.5251C9.6068 81.4984 9.61742 81.4727 9.63632 81.4538C9.65522 81.4349 9.68085 81.4243 9.70758 81.4243H83.3244C83.3479 81.4294 83.3691 81.4425 83.3842 81.4612C83.3993 81.48 83.4076 81.5034 83.4076 81.5275C83.4076 81.5516 83.3993 81.575 83.3842 81.5938C83.3691 81.6125 83.3479 81.6255 83.3244 81.6307Z" fill="#F9BD33"/>
<path d="M82.9071 86.4725H9.29034C9.2767 86.4725 9.26318 86.4697 9.25063 86.4644C9.23808 86.459 9.22676 86.4511 9.21733 86.4413C9.20791 86.4314 9.20059 86.4197 9.19581 86.4069C9.19104 86.3941 9.18892 86.3805 9.18957 86.3669C9.18957 86.3402 9.20018 86.3145 9.21908 86.2956C9.23798 86.2767 9.26362 86.2661 9.29034 86.2661H82.9071C82.9307 86.2712 82.9518 86.2842 82.967 86.303C82.9821 86.3218 82.9903 86.3452 82.9903 86.3693C82.9903 86.3934 82.9821 86.4168 82.967 86.4355C82.9518 86.4543 82.9307 86.4673 82.9071 86.4725Z" fill="#F9BD33"/>
<path d="M82.475 91.3145H8.87258C8.85717 91.3178 8.84122 91.3176 8.82588 91.314C8.81054 91.3104 8.79621 91.3034 8.78393 91.2935C8.77166 91.2836 8.76176 91.271 8.75496 91.2568C8.74816 91.2426 8.74463 91.227 8.74463 91.2113C8.74463 91.1955 8.74816 91.18 8.75496 91.1657C8.76176 91.1515 8.77166 91.139 8.78393 91.1291C8.79621 91.1192 8.81054 91.1122 8.82588 91.1086C8.84122 91.1049 8.85717 91.1048 8.87258 91.1081H82.475C82.4904 91.1048 82.5064 91.1049 82.5217 91.1086C82.537 91.1122 82.5514 91.1192 82.5636 91.1291C82.5759 91.139 82.5858 91.1515 82.5926 91.1657C82.5994 91.18 82.6029 91.1955 82.6029 91.2113C82.6029 91.227 82.5994 91.2426 82.5926 91.2568C82.5858 91.271 82.5759 91.2836 82.5636 91.2935C82.5514 91.3034 82.537 91.3104 82.5217 91.314C82.5064 91.3176 82.4904 91.3178 82.475 91.3145Z" fill="#F9BD33"/>
<path d="M82.0672 96.1515H8.45039C8.42366 96.1515 8.39802 96.1409 8.37913 96.122C8.36023 96.1031 8.34961 96.0774 8.34961 96.0507C8.34961 96.024 8.36023 95.9984 8.37913 95.9795C8.39802 95.9606 8.42366 95.95 8.45039 95.95H82.0672C82.0939 95.95 82.1196 95.9606 82.1385 95.9795C82.1573 95.9984 82.168 96.024 82.168 96.0507C82.168 96.0774 82.1573 96.1031 82.1385 96.122C82.1196 96.1409 82.0939 96.1515 82.0672 96.1515Z" fill="#F9BD33"/>
<path d="M81.6497 100.993H8.0329C8.00617 100.993 7.98054 100.983 7.96164 100.964C7.94275 100.945 7.93213 100.919 7.93213 100.893C7.93213 100.866 7.94275 100.84 7.96164 100.821C7.98054 100.802 8.00617 100.792 8.0329 100.792H81.6497C81.6764 100.792 81.7021 100.802 81.721 100.821C81.7399 100.84 81.7505 100.866 81.7505 100.893C81.7505 100.919 81.7399 100.945 81.721 100.964C81.7021 100.983 81.6764 100.993 81.6497 100.993Z" fill="#F9BD33"/>
<path d="M81.2325 105.85H7.61567C7.58894 105.85 7.56331 105.839 7.54441 105.82C7.52551 105.801 7.51489 105.775 7.51489 105.749C7.51489 105.722 7.52551 105.696 7.54441 105.677C7.56331 105.659 7.58894 105.648 7.61567 105.648H81.2325C81.2592 105.648 81.2848 105.659 81.3037 105.677C81.3226 105.696 81.3333 105.722 81.3333 105.749C81.3333 105.775 81.3226 105.801 81.3037 105.82C81.2848 105.839 81.2592 105.85 81.2325 105.85Z" fill="#F9BD33"/>
<path d="M80.815 110.677H7.19819C7.17146 110.677 7.14583 110.667 7.12693 110.648C7.10803 110.629 7.09741 110.603 7.09741 110.577C7.09741 110.55 7.10803 110.524 7.12693 110.505C7.14583 110.486 7.17146 110.476 7.19819 110.476H80.815C80.8417 110.476 80.8674 110.486 80.8863 110.505C80.9052 110.524 80.9158 110.55 80.9158 110.577C80.9158 110.603 80.9052 110.629 80.8863 110.648C80.8674 110.667 80.8417 110.677 80.815 110.677Z" fill="#F9BD33"/>
<path d="M80.3925 115.519H6.78046C6.75373 115.519 6.7281 115.508 6.7092 115.489C6.6903 115.471 6.67969 115.445 6.67969 115.418C6.67969 115.391 6.6903 115.366 6.7092 115.347C6.7281 115.328 6.75373 115.317 6.78046 115.317H80.3925C80.4192 115.317 80.4448 115.328 80.4637 115.347C80.4826 115.366 80.4932 115.391 80.4932 115.418C80.4932 115.445 80.4826 115.471 80.4637 115.489C80.4448 115.508 80.4192 115.519 80.3925 115.519Z" fill="#F9BD33"/>
<path d="M79.9752 120.361H6.35834C6.33162 120.361 6.30598 120.35 6.28708 120.331C6.26819 120.313 6.25757 120.287 6.25757 120.26C6.25757 120.233 6.26819 120.208 6.28708 120.189C6.30598 120.17 6.33162 120.159 6.35834 120.159H79.9752C80.0019 120.159 80.0275 120.17 80.0464 120.189C80.0653 120.208 80.0759 120.233 80.0759 120.26C80.0759 120.287 80.0653 120.313 80.0464 120.331C80.0275 120.35 80.0019 120.361 79.9752 120.361Z" fill="#F9BD33"/>
<path opacity="0.5" d="M88.7615 18.6862H15.1447C15.1315 18.6862 15.1184 18.6836 15.1062 18.6785C15.0939 18.6734 15.0828 18.666 15.0735 18.6566C15.0641 18.6473 15.0567 18.6362 15.0516 18.624C15.0466 18.6117 15.0439 18.5986 15.0439 18.5854C15.0451 18.559 15.0561 18.5341 15.0748 18.5154C15.0934 18.4968 15.1184 18.4858 15.1447 18.4846H88.7615C88.7887 18.4846 88.8149 18.495 88.8345 18.5138C88.8542 18.5326 88.8659 18.5582 88.8671 18.5854C88.8671 18.599 88.8644 18.6125 88.859 18.6251C88.8536 18.6376 88.8458 18.649 88.8359 18.6584C88.826 18.6678 88.8144 18.6751 88.8016 18.6799C88.7888 18.6847 88.7752 18.6868 88.7615 18.6862Z" fill="#FAFAFA"/>
<path opacity="0.5" d="M88.3441 23.528H14.7272C14.7005 23.528 14.6749 23.5173 14.656 23.4984C14.6371 23.4795 14.6265 23.4539 14.6265 23.4272C14.6276 23.4008 14.6386 23.3759 14.6573 23.3572C14.6759 23.3386 14.7009 23.3276 14.7272 23.3264H88.3441C88.3708 23.3264 88.3964 23.337 88.4153 23.3559C88.4342 23.3748 88.4448 23.4005 88.4448 23.4272C88.4448 23.4539 88.4342 23.4795 88.4153 23.4984C88.3964 23.5173 88.3708 23.528 88.3441 23.528Z" fill="#FAFAFA"/>
<path opacity="0.5" d="M87.9265 28.3698H14.3337C14.307 28.3698 14.2813 28.3591 14.2624 28.3402C14.2435 28.3213 14.2329 28.2957 14.2329 28.269C14.2329 28.2423 14.2435 28.2166 14.2624 28.1977C14.2813 28.1788 14.307 28.1682 14.3337 28.1682H87.9265C87.9532 28.1682 87.9789 28.1788 87.9978 28.1977C88.0167 28.2166 88.0273 28.2423 88.0273 28.269C88.0273 28.2957 88.0167 28.3213 87.9978 28.3402C87.9789 28.3591 87.9532 28.3698 87.9265 28.3698Z" fill="#FAFAFA"/>
<path opacity="0.5" d="M87.5088 33.2118H13.892C13.8653 33.2118 13.8397 33.2012 13.8208 33.1823C13.8019 33.1634 13.7913 33.1377 13.7913 33.111C13.7913 33.0843 13.8019 33.0587 13.8208 33.0398C13.8397 33.0209 13.8653 33.0103 13.892 33.0103H87.5088C87.5221 33.0103 87.5352 33.0129 87.5474 33.0179C87.5596 33.023 87.5707 33.0304 87.5801 33.0398C87.5895 33.0491 87.5969 33.0602 87.6019 33.0725C87.607 33.0847 87.6096 33.0978 87.6096 33.111C87.6096 33.1243 87.607 33.1374 87.6019 33.1496C87.5969 33.1618 87.5895 33.1729 87.5801 33.1823C87.5707 33.1916 87.5596 33.1991 87.5474 33.2041C87.5352 33.2092 87.5221 33.2118 87.5088 33.2118Z" fill="#FAFAFA"/>
<path opacity="0.5" d="M87.0919 38.0536H13.475C13.4483 38.0536 13.4227 38.043 13.4038 38.0241C13.3849 38.0052 13.3743 37.9795 13.3743 37.9528C13.3743 37.9261 13.3849 37.9005 13.4038 37.8816C13.4227 37.8627 13.4483 37.8521 13.475 37.8521H87.0919C87.1186 37.8521 87.1442 37.8627 87.1631 37.8816C87.182 37.9005 87.1926 37.9261 87.1926 37.9528C87.1926 37.9795 87.182 38.0052 87.1631 38.0241C87.1442 38.043 87.1186 38.0536 87.0919 38.0536Z" fill="#FAFAFA"/>
<path opacity="0.5" d="M86.6693 42.8954H13.0573C13.0306 42.8954 13.005 42.8848 12.9861 42.8659C12.9672 42.847 12.9565 42.8214 12.9565 42.7946C12.9565 42.7679 12.9672 42.7423 12.9861 42.7234C13.005 42.7045 13.0306 42.6938 13.0573 42.6938H86.6693C86.696 42.6938 86.7217 42.7045 86.7406 42.7234C86.7595 42.7423 86.7701 42.7679 86.7701 42.7946C86.7701 42.8214 86.7595 42.847 86.7406 42.8659C86.7217 42.8848 86.696 42.8954 86.6693 42.8954Z" fill="#FAFAFA"/>
<path opacity="0.5" d="M86.252 47.7377H12.6352C12.6085 47.7377 12.5828 47.7271 12.5639 47.7082C12.545 47.6893 12.5344 47.6636 12.5344 47.6369C12.5344 47.6102 12.545 47.5845 12.5639 47.5656C12.5828 47.5468 12.6085 47.5361 12.6352 47.5361H86.252C86.2787 47.5361 86.3044 47.5468 86.3233 47.5656C86.3422 47.5845 86.3528 47.6102 86.3528 47.6369C86.3528 47.6636 86.3422 47.6893 86.3233 47.7082C86.3044 47.7271 86.2787 47.7377 86.252 47.7377Z" fill="#FAFAFA"/>
<path opacity="0.5" d="M85.8343 52.5841H12.2175C12.1907 52.5841 12.1651 52.5735 12.1462 52.5546C12.1273 52.5357 12.1167 52.5101 12.1167 52.4833C12.1167 52.4566 12.1273 52.431 12.1462 52.4121C12.1651 52.3932 12.1907 52.3826 12.2175 52.3826H85.8343C85.861 52.3826 85.8866 52.3932 85.9055 52.4121C85.9244 52.431 85.9351 52.4566 85.9351 52.4833C85.9351 52.5101 85.9244 52.5357 85.9055 52.5546C85.8866 52.5735 85.861 52.5841 85.8343 52.5841Z" fill="#FAFAFA"/>
<path opacity="0.5" d="M85.4168 57.4213H11.8C11.7733 57.4213 11.7476 57.4107 11.7287 57.3918C11.7098 57.3729 11.6992 57.3472 11.6992 57.3205C11.6992 57.2938 11.7098 57.2681 11.7287 57.2492C11.7476 57.2303 11.7733 57.2197 11.8 57.2197H85.4168C85.4435 57.2197 85.4692 57.2303 85.4881 57.2492C85.507 57.2681 85.5176 57.2938 85.5176 57.3205C85.5176 57.3472 85.507 57.3729 85.4881 57.3918C85.4692 57.4107 85.4435 57.4213 85.4168 57.4213Z" fill="#FAFAFA"/>
<path opacity="0.5" d="M84.9993 62.2631H11.3825C11.3558 62.2631 11.3302 62.2525 11.3113 62.2336C11.2924 62.2147 11.2817 62.189 11.2817 62.1623C11.2817 62.1356 11.2924 62.1099 11.3113 62.091C11.3302 62.0721 11.3558 62.0615 11.3825 62.0615H84.9993C85.0261 62.0615 85.0517 62.0721 85.0706 62.091C85.0895 62.1099 85.1001 62.1356 85.1001 62.1623C85.0989 62.1886 85.0879 62.2136 85.0693 62.2322C85.0506 62.2509 85.0257 62.2619 84.9993 62.2631Z" fill="#FAFAFA"/>
<path opacity="0.5" d="M84.577 67.1047H10.9746C10.9592 67.1081 10.9433 67.1079 10.9279 67.1043C10.9126 67.1007 10.8982 67.0936 10.886 67.0837C10.8737 67.0738 10.8638 67.0613 10.857 67.0471C10.8502 67.0329 10.8467 67.0173 10.8467 67.0016C10.8467 66.9858 10.8502 66.9702 10.857 66.956C10.8638 66.9418 10.8737 66.9293 10.886 66.9194C10.8982 66.9095 10.9126 66.9025 10.9279 66.8988C10.9433 66.8952 10.9592 66.895 10.9746 66.8984H84.5866C84.602 66.895 84.618 66.8952 84.6333 66.8988C84.6487 66.9025 84.663 66.9095 84.6753 66.9194C84.6875 66.9293 84.6974 66.9418 84.7043 66.956C84.7111 66.9702 84.7146 66.9858 84.7146 67.0016C84.7146 67.0173 84.7111 67.0329 84.7043 67.0471C84.6974 67.0613 84.6875 67.0738 84.6753 67.0837C84.663 67.0936 84.6487 67.1007 84.6333 67.1043C84.618 67.1079 84.602 67.1081 84.5866 67.1047H84.577Z" fill="#FAFAFA"/>
<path opacity="0.5" d="M84.1595 71.9468H10.5427C10.5191 71.9417 10.498 71.9287 10.4829 71.9099C10.4677 71.8911 10.4595 71.8678 10.4595 71.8436C10.4595 71.8195 10.4677 71.7962 10.4829 71.7774C10.498 71.7586 10.5191 71.7456 10.5427 71.7405H84.1595C84.1731 71.7405 84.1866 71.7432 84.1992 71.7486C84.2117 71.7539 84.2231 71.7618 84.2325 71.7717C84.2419 71.7815 84.2492 71.7932 84.254 71.806C84.2588 71.8188 84.2609 71.8324 84.2602 71.8461C84.2602 71.8728 84.2496 71.8984 84.2307 71.9173C84.2118 71.9362 84.1862 71.9468 84.1595 71.9468Z" fill="#FAFAFA"/>
<path opacity="0.5" d="M83.7421 76.7889H10.1253C10.1116 76.7889 10.0981 76.7861 10.0856 76.7808C10.073 76.7754 10.0617 76.7675 10.0523 76.7577C10.0429 76.7478 10.0355 76.7361 10.0308 76.7233C10.026 76.7105 10.0239 76.6969 10.0245 76.6833C10.0245 76.6566 10.0351 76.6309 10.054 76.612C10.0729 76.5931 10.0986 76.5825 10.1253 76.5825H83.7421C83.7689 76.5825 83.7945 76.5931 83.8134 76.612C83.8323 76.6309 83.8429 76.6566 83.8429 76.6833C83.8435 76.6969 83.8414 76.7105 83.8366 76.7233C83.8319 76.7361 83.8245 76.7478 83.8151 76.7577C83.8057 76.7675 83.7944 76.7754 83.7818 76.7808C83.7693 76.7861 83.7558 76.7889 83.7421 76.7889Z" fill="#FAFAFA"/>
<path opacity="0.5" d="M83.3244 81.6307H9.70758C9.69393 81.6307 9.68042 81.6279 9.66787 81.6226C9.65532 81.6172 9.64399 81.6093 9.63457 81.5995C9.62515 81.5896 9.61783 81.5779 9.61306 81.5651C9.60828 81.5523 9.60615 81.5387 9.6068 81.5251C9.6068 81.4984 9.61742 81.4727 9.63632 81.4538C9.65522 81.4349 9.68085 81.4243 9.70758 81.4243H83.3244C83.3479 81.4294 83.3691 81.4425 83.3842 81.4612C83.3993 81.48 83.4076 81.5034 83.4076 81.5275C83.4076 81.5516 83.3993 81.575 83.3842 81.5938C83.3691 81.6125 83.3479 81.6255 83.3244 81.6307Z" fill="#FAFAFA"/>
<path opacity="0.5" d="M82.9071 86.4725H9.29034C9.2767 86.4725 9.26318 86.4697 9.25063 86.4644C9.23808 86.459 9.22676 86.4511 9.21733 86.4413C9.20791 86.4314 9.20059 86.4197 9.19581 86.4069C9.19104 86.3941 9.18892 86.3805 9.18957 86.3669C9.18957 86.3402 9.20018 86.3145 9.21908 86.2956C9.23798 86.2767 9.26362 86.2661 9.29034 86.2661H82.9071C82.9307 86.2712 82.9518 86.2842 82.967 86.303C82.9821 86.3218 82.9903 86.3452 82.9903 86.3693C82.9903 86.3934 82.9821 86.4168 82.967 86.4355C82.9518 86.4543 82.9307 86.4673 82.9071 86.4725Z" fill="#FAFAFA"/>
<path opacity="0.5" d="M82.475 91.3145H8.87258C8.85717 91.3178 8.84122 91.3176 8.82588 91.314C8.81054 91.3104 8.79621 91.3034 8.78393 91.2935C8.77166 91.2836 8.76176 91.271 8.75496 91.2568C8.74816 91.2426 8.74463 91.227 8.74463 91.2113C8.74463 91.1955 8.74816 91.18 8.75496 91.1657C8.76176 91.1515 8.77166 91.139 8.78393 91.1291C8.79621 91.1192 8.81054 91.1122 8.82588 91.1086C8.84122 91.1049 8.85717 91.1048 8.87258 91.1081H82.475C82.4904 91.1048 82.5064 91.1049 82.5217 91.1086C82.537 91.1122 82.5514 91.1192 82.5636 91.1291C82.5759 91.139 82.5858 91.1515 82.5926 91.1657C82.5994 91.18 82.6029 91.1955 82.6029 91.2113C82.6029 91.227 82.5994 91.2426 82.5926 91.2568C82.5858 91.271 82.5759 91.2836 82.5636 91.2935C82.5514 91.3034 82.537 91.3104 82.5217 91.314C82.5064 91.3176 82.4904 91.3178 82.475 91.3145Z" fill="#FAFAFA"/>
<path opacity="0.5" d="M82.0674 96.1515H8.45063C8.4239 96.1515 8.39827 96.1409 8.37937 96.122C8.36047 96.1031 8.34985 96.0774 8.34985 96.0507C8.34985 96.024 8.36047 95.9984 8.37937 95.9795C8.39827 95.9606 8.4239 95.95 8.45063 95.95H82.0674C82.0942 95.95 82.1198 95.9606 82.1387 95.9795C82.1576 95.9984 82.1682 96.024 82.1682 96.0507C82.1682 96.0774 82.1576 96.1031 82.1387 96.122C82.1198 96.1409 82.0942 96.1515 82.0674 96.1515Z" fill="#FAFAFA"/>
<path opacity="0.5" d="M81.6497 100.993H8.0329C8.00617 100.993 7.98054 100.983 7.96164 100.964C7.94275 100.945 7.93213 100.919 7.93213 100.893C7.93213 100.866 7.94275 100.84 7.96164 100.821C7.98054 100.802 8.00617 100.792 8.0329 100.792H81.6497C81.6764 100.792 81.7021 100.802 81.721 100.821C81.7399 100.84 81.7505 100.866 81.7505 100.893C81.7505 100.919 81.7399 100.945 81.721 100.964C81.7021 100.983 81.6764 100.993 81.6497 100.993Z" fill="#FAFAFA"/>
<path opacity="0.5" d="M81.2325 105.85H7.61567C7.58894 105.85 7.56331 105.839 7.54441 105.82C7.52551 105.801 7.51489 105.775 7.51489 105.749C7.51489 105.722 7.52551 105.696 7.54441 105.677C7.56331 105.659 7.58894 105.648 7.61567 105.648H81.2325C81.2592 105.648 81.2848 105.659 81.3037 105.677C81.3226 105.696 81.3333 105.722 81.3333 105.749C81.3333 105.775 81.3226 105.801 81.3037 105.82C81.2848 105.839 81.2592 105.85 81.2325 105.85Z" fill="#FAFAFA"/>
<path opacity="0.5" d="M80.815 110.677H7.19819C7.17146 110.677 7.14583 110.667 7.12693 110.648C7.10803 110.629 7.09741 110.603 7.09741 110.577C7.09741 110.55 7.10803 110.524 7.12693 110.505C7.14583 110.486 7.17146 110.476 7.19819 110.476H80.815C80.8417 110.476 80.8674 110.486 80.8863 110.505C80.9052 110.524 80.9158 110.55 80.9158 110.577C80.9158 110.603 80.9052 110.629 80.8863 110.648C80.8674 110.667 80.8417 110.677 80.815 110.677Z" fill="#FAFAFA"/>
<path opacity="0.5" d="M80.3925 115.519H6.78046C6.75373 115.519 6.7281 115.508 6.7092 115.489C6.6903 115.471 6.67969 115.445 6.67969 115.418C6.67969 115.391 6.6903 115.366 6.7092 115.347C6.7281 115.328 6.75373 115.317 6.78046 115.317H80.3925C80.4192 115.317 80.4448 115.328 80.4637 115.347C80.4826 115.366 80.4932 115.391 80.4932 115.418C80.4932 115.445 80.4826 115.471 80.4637 115.489C80.4448 115.508 80.4192 115.519 80.3925 115.519Z" fill="#FAFAFA"/>
<path opacity="0.5" d="M79.9752 120.361H6.35834C6.33162 120.361 6.30598 120.35 6.28708 120.331C6.26819 120.313 6.25757 120.287 6.25757 120.26C6.25757 120.233 6.26819 120.208 6.28708 120.189C6.30598 120.17 6.33162 120.159 6.35834 120.159H79.9752C80.0019 120.159 80.0275 120.17 80.0464 120.189C80.0653 120.208 80.0759 120.233 80.0759 120.26C80.0759 120.287 80.0653 120.313 80.0464 120.331C80.0275 120.35 80.0019 120.361 79.9752 120.361Z" fill="#FAFAFA"/>
<path d="M72.11 124.733C72.0965 124.73 72.0842 124.723 72.0754 124.713C72.0666 124.702 72.0618 124.689 72.062 124.675L81.4915 15.6054C81.4915 15.5766 81.5155 15.5622 81.5442 15.5574C81.5578 15.5597 81.5701 15.5667 81.5789 15.5773C81.5877 15.5879 81.5924 15.6012 81.5922 15.615L72.158 124.685C72.158 124.697 72.1529 124.709 72.1439 124.718C72.1349 124.727 72.1227 124.733 72.11 124.733Z" fill="#F9BD33"/>
<path opacity="0.3" d="M72.11 124.733C72.0965 124.73 72.0842 124.723 72.0754 124.713C72.0666 124.702 72.0618 124.689 72.062 124.675L81.4915 15.6054C81.4915 15.5766 81.5155 15.5622 81.5442 15.5574C81.5578 15.5597 81.5701 15.5667 81.5789 15.5773C81.5877 15.5879 81.5924 15.6012 81.5922 15.615L72.158 124.685C72.158 124.697 72.1529 124.709 72.1439 124.718C72.1349 124.727 72.1227 124.733 72.11 124.733Z" fill="black"/>
<path d="M79.7016 0H74.2215C74.6581 3.71469 74.716 7.46416 74.3942 11.1906L73.5688 20.764H79.049L79.8743 11.1906C80.1961 7.46416 80.1382 3.71469 79.7016 0Z" fill="#F9BD33"/>
<path opacity="0.3" d="M79.7016 0H74.2215C74.6581 3.71469 74.716 7.46416 74.3942 11.1906L73.5688 20.764H79.049L79.8743 11.1906C80.1961 7.46416 80.1382 3.71469 79.7016 0Z" fill="black"/>
<path d="M31.7865 22.6741H31.7481C31.7248 22.6678 31.7043 22.6541 31.6896 22.635C31.6748 22.6159 31.6667 22.5926 31.6665 22.5685C31.6555 22.4391 31.6184 22.3132 31.5574 22.1986C31.4963 22.0839 31.4127 21.9828 31.3114 21.9015C31.1157 21.7523 30.8924 21.6432 30.6544 21.5806C30.4164 21.5181 30.1684 21.5031 29.9246 21.5368C29.5383 21.6036 29.1592 21.7064 28.7921 21.8439C28.3865 21.9991 27.9648 22.1086 27.5348 22.1702C26.755 22.2457 25.9762 22.0171 25.361 21.532C25.1378 21.874 24.8195 22.1434 24.4453 22.3071C24.071 22.4708 23.6571 22.5216 23.2544 22.4533C22.9741 22.3958 22.7087 22.2808 22.4749 22.1156C22.2412 21.9504 22.0442 21.7386 21.8964 21.4936C21.7965 21.3396 21.6426 21.2285 21.465 21.1823C21.2873 21.1361 21.0988 21.1581 20.9366 21.2441C20.3117 21.5597 19.671 21.8432 19.0172 22.0934C19.0013 22.1004 18.9841 22.104 18.9668 22.104C18.9494 22.104 18.9323 22.1004 18.9164 22.0934C18.9009 22.0843 18.8877 22.0717 18.8778 22.0568C18.8678 22.0418 18.8613 22.0248 18.8588 22.007C18.8387 21.8477 18.8387 21.6865 18.8588 21.5272C18.8675 21.4636 18.8597 21.3989 18.8361 21.3393C18.8126 21.2796 18.7741 21.227 18.7244 21.1865C18.6816 21.1511 18.6303 21.1276 18.5755 21.1183C18.5208 21.1091 18.4646 21.1144 18.4125 21.1337C18.15 21.2185 17.9034 21.3467 17.6831 21.5128L17.5775 21.5944C17.0977 21.9687 16.685 22.247 16.4067 22.2086C16.3264 22.1963 16.2541 22.1533 16.2051 22.0886C16.1046 21.9305 16.0653 21.741 16.0947 21.556C16.1448 21.1533 16.3184 20.7761 16.5917 20.4762C16.865 20.1762 17.2245 19.9684 17.6207 19.8812C17.6512 19.8755 17.6827 19.8818 17.7087 19.8988C17.7346 19.9158 17.753 19.9422 17.7599 19.9724C17.7634 19.9882 17.7636 20.0045 17.7607 20.0204C17.7577 20.0363 17.7515 20.0514 17.7426 20.0648C17.7336 20.0783 17.722 20.0898 17.7085 20.0986C17.695 20.1075 17.6798 20.1135 17.6639 20.1164C17.318 20.1924 17.0042 20.3741 16.7661 20.6363C16.5279 20.8985 16.3772 21.2283 16.3347 21.58C16.3125 21.7051 16.3345 21.834 16.3971 21.9447C16.4018 21.9519 16.4082 21.9578 16.4157 21.962C16.4232 21.9662 16.4316 21.9685 16.4403 21.9687C16.6418 21.9974 17.1361 21.6279 17.4336 21.4024L17.5392 21.3208C17.7809 21.1404 18.0498 20.9995 18.3357 20.9033C18.426 20.8718 18.5229 20.8641 18.617 20.8809C18.7112 20.8977 18.7994 20.9385 18.8732 20.9993C18.9553 21.064 19.0192 21.1488 19.0587 21.2455C19.0982 21.3422 19.112 21.4475 19.0987 21.5512C19.0915 21.6374 19.0915 21.7241 19.0987 21.8103C19.689 21.5791 20.2672 21.318 20.8311 21.0281C21.048 20.9096 21.3023 20.8794 21.541 20.9437C21.7797 21.0081 21.9844 21.1621 22.1123 21.3736C22.2701 21.6523 22.5003 21.8831 22.7785 22.0417C23.0568 22.2002 23.3727 22.2805 23.6929 22.2741C24.0131 22.2677 24.3256 22.1749 24.5973 22.0053C24.869 21.8358 25.0898 21.596 25.2363 21.3112C25.2438 21.295 25.2551 21.2808 25.2694 21.27C25.2836 21.2591 25.3002 21.2519 25.3178 21.2488C25.3357 21.2461 25.354 21.2472 25.3714 21.2522C25.3888 21.2571 25.4049 21.2658 25.4186 21.2776C25.7044 21.5275 26.0383 21.716 26.3998 21.8316C26.7614 21.9471 27.1428 21.9872 27.5204 21.9495C27.9319 21.8886 28.3357 21.784 28.7249 21.6375C29.106 21.4941 29.4996 21.3864 29.9006 21.316C30.4597 21.2429 31.0252 21.3929 31.4746 21.7335C31.661 21.8813 31.7982 22.082 31.8681 22.3094C32.6311 21.4456 33.5428 20.5866 34.6849 20.6346C34.7584 20.6308 34.8318 20.6425 34.9004 20.6689C34.9691 20.6954 35.0313 20.736 35.0832 20.7882C35.1259 20.8524 35.1547 20.9248 35.168 21.0008C35.1812 21.0768 35.1785 21.1548 35.16 21.2297L35.0256 22.2422C35.6141 21.9121 36.1311 21.4684 36.5468 20.9369C36.7356 20.6816 36.964 20.458 37.2234 20.2747C37.3434 20.174 37.4938 20.1165 37.6503 20.1113C37.8069 20.106 37.9607 20.1535 38.0872 20.2459C38.2517 20.3978 38.3642 20.5976 38.4087 20.817C38.4087 20.8794 38.4471 20.9417 38.4711 20.9993C38.522 21.1369 38.6232 21.25 38.7542 21.316C38.7781 21.3279 38.8043 21.334 38.831 21.334C38.8576 21.334 38.8839 21.3279 38.9077 21.316C38.9364 21.3029 38.9691 21.3016 38.9987 21.3123C39.0284 21.3231 39.0526 21.3451 39.0661 21.3736C39.0795 21.403 39.0809 21.4364 39.0702 21.4668C39.0595 21.4972 39.0374 21.5223 39.0085 21.5368C38.954 21.5606 38.8952 21.5728 38.8358 21.5728C38.7763 21.5728 38.7175 21.5606 38.663 21.5368C38.4722 21.4456 38.3242 21.2839 38.2503 21.0857C38.2215 21.0233 38.2023 20.9561 38.1784 20.8889C38.1498 20.7081 38.066 20.5405 37.9384 20.4091C37.8532 20.3513 37.7517 20.3225 37.6489 20.3268C37.5461 20.3311 37.4474 20.3684 37.3674 20.4331C37.1294 20.6014 36.9204 20.8072 36.7483 21.0425C36.2646 21.6635 35.6482 22.1685 34.944 22.5205C34.9258 22.531 34.9051 22.5366 34.8841 22.5366C34.863 22.5366 34.8423 22.531 34.8241 22.5205C34.8054 22.5081 34.7906 22.4908 34.7812 22.4705C34.7719 22.4501 34.7684 22.4275 34.7713 22.4053L34.9344 21.1625C34.9344 21.0665 34.9584 20.9609 34.9104 20.9081C34.8625 20.8554 34.8049 20.8458 34.6945 20.841H34.6225C33.5284 20.841 32.6454 21.7623 31.9016 22.6309C31.8875 22.6471 31.8696 22.6595 31.8495 22.667C31.8294 22.6745 31.8078 22.677 31.7865 22.6741Z" fill="#263238"/>
<path d="M59.1343 22.6594C58.9027 22.6319 58.6812 22.5485 58.489 22.4164C58.2967 22.2844 58.1394 22.1075 58.0306 21.9012C57.9306 21.7275 57.8408 21.548 57.7619 21.3637C57.6705 21.1472 57.5614 20.9385 57.4356 20.7399C56.9004 21.2065 56.2747 21.5578 55.5977 21.7716C55.5803 21.7822 55.5604 21.7879 55.5401 21.7879C55.5198 21.7879 55.4999 21.7822 55.4825 21.7716C55.466 21.7579 55.4537 21.7399 55.4469 21.7195C55.4401 21.6992 55.4392 21.6773 55.4441 21.6565C55.4826 21.4731 55.5066 21.287 55.5161 21.0998C55.5244 20.9448 55.4936 20.7901 55.4265 20.6501C55.3595 20.51 55.2582 20.3891 55.1322 20.2984C55.0104 20.2082 54.8675 20.1507 54.7171 20.1314C54.5667 20.1121 54.4139 20.1316 54.2733 20.1881L52.8912 20.7207C52.6705 20.8023 52.0035 21.0614 51.6436 20.6535C51.6008 20.6007 51.5623 20.5445 51.5284 20.4856C51.4914 20.414 51.4369 20.353 51.37 20.308C51.2597 20.2553 51.1109 20.332 50.9765 20.4184C50.0984 20.9607 49.1962 21.4837 48.2989 21.978C47.986 22.1848 47.6264 22.3102 47.2528 22.3427C47.0764 22.3412 46.9026 22.3003 46.744 22.2231C46.5855 22.1459 46.4462 22.0343 46.3362 21.8964C46.1634 21.7029 46.0574 21.459 46.0339 21.2006C45.5179 21.6938 44.8494 21.9968 44.1384 22.0596C43.9454 22.0558 43.7587 21.9902 43.6057 21.8724C43.4655 21.7538 43.3669 21.5932 43.3246 21.4145C43.2823 21.2357 43.2984 21.048 43.3706 20.8791C43.5075 20.5782 43.709 20.3111 43.9608 20.0969C43.9712 20.0831 43.9843 20.0718 43.9994 20.0635C44.0145 20.0553 44.0312 20.0504 44.0483 20.0492C44.0655 20.048 44.0827 20.0505 44.0988 20.0565C44.1149 20.0625 44.1295 20.0719 44.1417 20.084C44.1538 20.0962 44.1632 20.1108 44.1692 20.1269C44.1752 20.143 44.1777 20.1602 44.1765 20.1774C44.1753 20.1945 44.1704 20.2112 44.1622 20.2263C44.1539 20.2414 44.1425 20.2545 44.1288 20.2648C43.9039 20.4583 43.7224 20.697 43.5961 20.9655C43.5445 21.0847 43.5311 21.217 43.5577 21.3442C43.5843 21.4714 43.6497 21.5872 43.7449 21.6757C43.8659 21.754 44.009 21.791 44.1528 21.7812C44.8534 21.7812 45.4724 21.3014 46.1011 20.8215C46.1211 20.8087 46.1444 20.8019 46.1682 20.8019C46.1921 20.8019 46.2154 20.8087 46.2354 20.8215C46.2572 20.8333 46.2745 20.8519 46.2849 20.8743C46.2952 20.8968 46.2981 20.922 46.293 20.9463C46.2736 21.0855 46.2851 21.2273 46.3265 21.3616C46.368 21.496 46.4385 21.6196 46.5329 21.7237C46.6197 21.8322 46.729 21.9206 46.8533 21.9827C46.9776 22.0448 47.1139 22.0792 47.2528 22.0836C47.5949 22.0533 47.9244 21.9396 48.2125 21.7524C49.1051 21.2726 50.0024 20.7351 50.8758 20.1929C50.9621 20.1218 51.0649 20.0735 51.1748 20.0526C51.2846 20.0316 51.398 20.0386 51.5044 20.0729C51.6146 20.1345 51.7033 20.2282 51.7587 20.3416C51.7852 20.3874 51.8157 20.4308 51.8499 20.4712C52.0227 20.6679 52.3298 20.6679 52.8336 20.4712L54.2157 19.9385C54.3948 19.8699 54.5884 19.8471 54.7786 19.8722C54.9688 19.8974 55.1498 19.9697 55.305 20.0825C55.4628 20.197 55.5895 20.3492 55.6733 20.5252C55.7571 20.7013 55.7955 20.8955 55.7848 21.0902C55.7776 21.2205 55.7631 21.3502 55.7417 21.4789C56.3555 21.2566 56.9196 20.9159 57.402 20.476C57.4271 20.4538 57.4597 20.4418 57.4932 20.4424C57.5095 20.4438 57.5253 20.4489 57.5394 20.4572C57.5535 20.4655 57.5656 20.4768 57.5747 20.4904C57.7516 20.7281 57.8968 20.9878 58.0066 21.263C58.0882 21.4405 58.1698 21.6181 58.2658 21.7812C58.3578 21.9775 58.5069 22.1415 58.6934 22.2519C58.88 22.3624 59.0955 22.414 59.3119 22.4003C59.6286 22.3283 59.8349 22.0404 60.0557 21.7284C60.2446 21.3701 60.5616 21.096 60.9434 20.9607C61.339 20.9218 61.7347 21.0332 62.0519 21.2726C62.1767 21.3398 62.3015 21.4117 62.4262 21.4693C63.1556 21.7908 63.9522 21.5989 64.792 21.3925C65.4374 21.1927 66.1143 21.1146 66.7882 21.1622C66.8043 21.1633 66.82 21.1678 66.8342 21.1753C66.8484 21.1828 66.8609 21.1933 66.8709 21.2059C66.8808 21.2186 66.888 21.2332 66.892 21.2488C66.8959 21.2644 66.8965 21.2807 66.8938 21.2966C66.8891 21.3276 66.8723 21.3555 66.8472 21.3744C66.8221 21.3932 66.7906 21.4015 66.7595 21.3973C66.111 21.3569 65.4605 21.435 64.84 21.6277C63.9954 21.834 63.1268 22.0452 62.3207 21.6853C62.1856 21.6241 62.0542 21.5552 61.9272 21.4789C61.653 21.2696 61.3113 21.1688 60.9674 21.1958C60.6459 21.2678 60.4396 21.5605 60.2188 21.8676C60.0318 22.2257 59.7164 22.4999 59.3359 22.6354C59.2697 22.6505 59.2022 22.6585 59.1343 22.6594Z" fill="#263238"/>
<path d="M19.0604 27.4053C19.0384 27.4112 19.0152 27.4112 18.9932 27.4053C18.9763 27.3924 18.9627 27.3757 18.9535 27.3565C18.9443 27.3373 18.9398 27.3162 18.9404 27.2949C18.965 27.0441 19.0214 26.7973 19.1083 26.5607C18.744 26.8275 18.3272 27.0139 17.8854 27.1074C17.4436 27.2008 16.987 27.1993 16.5458 27.103C16.3702 27.0787 16.2044 27.0074 16.066 26.8967C15.9277 26.7405 15.8513 26.539 15.8513 26.3304C15.8513 26.1218 15.9277 25.9204 16.066 25.7642C16.3255 25.4818 16.6574 25.276 17.0257 25.1691C17.0556 25.1577 17.0889 25.1586 17.1181 25.1716C17.1474 25.1847 17.1702 25.2088 17.1817 25.2387C17.1931 25.2686 17.1922 25.3018 17.1792 25.3311C17.1661 25.3603 17.142 25.3832 17.1121 25.3947C16.7883 25.4898 16.4954 25.6685 16.2627 25.9129C16.1673 26.0256 16.115 26.1684 16.115 26.316C16.115 26.4636 16.1673 26.6064 16.2627 26.7191C16.3695 26.7961 16.4927 26.847 16.6226 26.8679C17.1316 26.9744 17.6596 26.9464 18.1545 26.7865C18.6493 26.6266 19.0939 26.3404 19.4443 25.9561C19.4664 25.9355 19.4956 25.9241 19.5258 25.9241C19.5561 25.9241 19.5852 25.9355 19.6074 25.9561C19.6323 25.9744 19.6491 26.0015 19.6545 26.0319C19.6599 26.0623 19.6533 26.0936 19.6362 26.1193C19.436 26.4157 19.3003 26.7508 19.2379 27.103L22.3667 25.4522C22.392 25.4384 22.4215 25.4342 22.4497 25.4404C22.4779 25.4466 22.503 25.4627 22.5202 25.4858C22.5373 25.5078 22.5466 25.5348 22.5466 25.5626C22.5466 25.5904 22.5373 25.6175 22.5202 25.6394C22.5 25.6628 22.4866 25.6912 22.4815 25.7217C22.4764 25.7522 22.4799 25.7835 22.4914 25.8122C22.5102 25.8659 22.5419 25.9141 22.5837 25.9526C22.6256 25.9911 22.6763 26.0187 22.7314 26.0329C22.9696 26.0361 23.2005 25.9506 23.3792 25.793L23.4128 25.7642C23.6225 25.5811 23.8809 25.4627 24.1566 25.4235C24.3315 25.4242 24.5045 25.4601 24.6652 25.529C26.2371 26.06 27.9045 26.2482 29.5551 26.0809C29.8094 26.0521 30.0686 26.0185 30.3229 25.9801C31.3056 25.7653 32.3253 25.7866 33.2981 26.0425C33.3133 26.0473 33.3273 26.0552 33.3393 26.0657C33.3513 26.0762 33.361 26.089 33.3678 26.1035C33.3746 26.1179 33.3783 26.1336 33.3787 26.1495C33.379 26.1655 33.3761 26.1813 33.3701 26.196C33.3659 26.2111 33.3585 26.2251 33.3485 26.237C33.3384 26.249 33.326 26.2587 33.3119 26.2655C33.2978 26.2723 33.2825 26.2761 33.2669 26.2765C33.2513 26.2769 33.2357 26.274 33.2213 26.268C32.2783 26.0288 31.2926 26.0123 30.3421 26.22C30.083 26.2536 29.8238 26.292 29.5647 26.316C27.8771 26.475 26.1749 26.2688 24.5741 25.7114C24.4017 25.622 24.2043 25.5932 24.0136 25.6298C23.823 25.6664 23.6502 25.7661 23.5231 25.9129L23.4848 25.9369C23.3725 26.0374 23.2411 26.1142 23.0985 26.1629C22.9558 26.2115 22.8049 26.231 22.6546 26.22C22.5569 26.1983 22.4666 26.1514 22.3925 26.0841C22.3185 26.0168 22.2633 25.9313 22.2323 25.8361C22.2199 25.8071 22.2118 25.7764 22.2083 25.745L19.1323 27.3909C19.1102 27.4026 19.0852 27.4076 19.0604 27.4053Z" fill="#263238"/>
<path d="M38.4376 27.1078C38.4142 27.1152 38.389 27.1152 38.3656 27.1078C38.351 27.0964 38.3391 27.0819 38.3308 27.0653C38.3225 27.0487 38.318 27.0304 38.3176 27.0119V26.2969C38.3176 26.265 38.3303 26.2345 38.3528 26.212C38.3753 26.1895 38.4058 26.1769 38.4376 26.1769C38.4686 26.1769 38.4984 26.1889 38.5208 26.2103C38.5431 26.2318 38.5563 26.2611 38.5576 26.2921V26.8487C39.5375 26.5497 40.4235 26.0026 41.1297 25.2603C41.1393 25.2481 41.1518 25.2382 41.1659 25.2315C41.1801 25.2249 41.1956 25.2216 41.2112 25.222C41.2426 25.2251 41.2724 25.2367 41.2976 25.2555C41.4193 25.3989 41.4931 25.5768 41.5088 25.7642C41.5423 25.937 41.5711 26.0857 41.6815 26.1481C41.7767 26.1786 41.879 26.1786 41.9742 26.1481C42.6577 26.0613 43.3242 25.872 43.9513 25.5867C44.5127 25.3323 45.2757 24.9868 45.8084 25.4283L45.9044 25.5195C45.9504 25.571 46.0057 25.6133 46.0675 25.6442C46.1414 25.6706 46.2194 25.6836 46.2978 25.6826C46.3473 25.6779 46.3971 25.6779 46.4466 25.6826C46.6154 25.7145 46.7776 25.7745 46.9265 25.8602C47.0054 25.9026 47.0872 25.9395 47.1712 25.9705C47.368 26.0473 47.6223 26.0233 47.6991 25.8698C47.7052 25.8552 47.7144 25.8421 47.7258 25.8312C47.7373 25.8204 47.7509 25.8119 47.7657 25.8065C47.7806 25.8011 47.7964 25.7989 47.8122 25.7998C47.8279 25.8008 47.8433 25.805 47.8574 25.8122C47.8721 25.8189 47.8854 25.8285 47.8963 25.8404C47.9072 25.8523 47.9156 25.8663 47.921 25.8815C47.9264 25.8967 47.9286 25.9129 47.9276 25.929C47.9265 25.9452 47.9223 25.9609 47.915 25.9754C47.827 26.1052 47.6951 26.199 47.5435 26.2396C47.3919 26.2801 47.2308 26.2647 47.0896 26.1961C46.9964 26.161 46.9051 26.121 46.8161 26.0761C46.69 26.0008 46.5521 25.9472 46.4082 25.9178H46.2787C46.1688 25.9188 46.0598 25.8993 45.9571 25.8602C45.8701 25.8156 45.792 25.7554 45.7268 25.6826L45.6452 25.6059C45.2277 25.2651 44.5703 25.5627 44.0425 25.8026C43.3935 26.0962 42.7046 26.2919 41.9982 26.3832C41.8496 26.4126 41.6956 26.3958 41.5567 26.3353C41.4686 26.2722 41.3963 26.1895 41.3455 26.0938C41.2947 25.998 41.2668 25.8918 41.264 25.7834C41.2492 25.6885 41.2251 25.5953 41.192 25.5051C40.4357 26.2628 39.497 26.8131 38.4664 27.103L38.4376 27.1078Z" fill="#263238"/>
<path d="M54.1006 26.7624C54.0592 26.767 54.0173 26.767 53.9759 26.7624C53.9005 26.7448 53.83 26.7107 53.7695 26.6625C53.7089 26.6144 53.6597 26.5534 53.6256 26.484C53.5983 26.4323 53.584 26.3746 53.584 26.3161C53.584 26.2575 53.5983 26.1999 53.6256 26.1481C53.6321 26.1333 53.6418 26.1201 53.6538 26.1093C53.6658 26.0985 53.68 26.0903 53.6954 26.0853C53.7108 26.0803 53.727 26.0787 53.7431 26.0804C53.7592 26.0821 53.7747 26.0872 53.7887 26.0953C53.8025 26.1024 53.8146 26.1121 53.8245 26.124C53.8344 26.1359 53.8418 26.1496 53.8463 26.1643C53.8507 26.1791 53.8522 26.1946 53.8506 26.21C53.8489 26.2253 53.8442 26.2402 53.8367 26.2537C53.8269 26.2739 53.8219 26.296 53.8219 26.3185C53.8219 26.3409 53.8269 26.3631 53.8367 26.3833C53.8554 26.4186 53.8813 26.4497 53.9127 26.4744C53.9441 26.4992 53.9803 26.5172 54.0191 26.5272C54.1891 26.5336 54.3569 26.4866 54.4989 26.3929C55.0939 26.0743 55.6269 25.6517 56.0729 25.1452C56.0904 25.1268 56.1131 25.1142 56.138 25.109C56.1629 25.1039 56.1887 25.1065 56.2121 25.1164C56.3047 25.1775 56.3806 25.261 56.4326 25.3591C56.4846 25.4572 56.511 25.5668 56.5096 25.6778C56.5219 25.7883 56.5493 25.8965 56.5912 25.9994C56.6402 26.0898 56.723 26.1571 56.8215 26.1865C57.1561 26.2265 57.4943 26.1521 57.7812 25.9754L59.5088 25.0396C59.66 24.9388 59.8413 24.893 60.0222 24.9101C60.1661 24.9573 60.2929 25.0457 60.3869 25.1644L60.4637 25.2412C61.0252 25.7786 61.9465 25.4715 62.7575 25.2028L62.9111 25.1548C64.4215 24.6701 66.0457 24.6701 67.5562 25.1548C67.5717 25.1586 67.5862 25.1656 67.5989 25.1753C67.6115 25.185 67.622 25.1973 67.6297 25.2113C67.6373 25.2252 67.642 25.2407 67.6434 25.2565C67.6448 25.2724 67.6429 25.2884 67.6378 25.3035C67.6269 25.3336 67.6049 25.3583 67.5763 25.3726C67.5477 25.3868 67.5148 25.3896 67.4842 25.3803C66.022 24.9123 64.4501 24.9123 62.9878 25.3803L62.8343 25.4331C61.9993 25.7066 60.9676 26.0521 60.2958 25.4331L60.2142 25.3467C60.1498 25.2657 60.0655 25.2029 59.9695 25.1644C59.846 25.1623 59.7251 25.1992 59.6239 25.27L57.8964 26.2057C57.5486 26.4124 57.1404 26.4936 56.7399 26.436C56.66 26.4129 56.5856 26.3737 56.5212 26.3209C56.4569 26.2681 56.404 26.2028 56.3656 26.1289C56.3094 26.0043 56.2737 25.8715 56.2601 25.7354C56.2511 25.6212 56.2184 25.51 56.1641 25.4091C55.7138 25.9001 55.1832 26.3106 54.5949 26.6232C54.4434 26.7078 54.274 26.7555 54.1006 26.7624Z" fill="#263238"/>
<path d="M28.5713 32.7414C28.554 32.7458 28.5358 32.7458 28.5185 32.7414C28.4956 32.729 28.4769 32.71 28.4649 32.6869C28.4529 32.6638 28.4482 32.6376 28.4513 32.6118C28.5545 31.9198 28.5545 31.2163 28.4513 30.5244C28.1489 30.8492 27.7809 31.106 27.3716 31.2778C27.1147 31.385 26.8303 31.408 26.5596 31.3433C26.2888 31.2786 26.0455 31.1296 25.8648 30.9179C25.8349 30.8781 25.8076 30.8364 25.7832 30.7931C25.6489 30.5915 25.5481 30.4476 25.4281 30.486C25.3721 30.5132 25.3242 30.5546 25.289 30.6059L23.8829 32.2231C23.8621 32.2407 23.8358 32.2503 23.8086 32.2503C23.7813 32.2503 23.755 32.2407 23.7342 32.2231C23.7107 32.2093 23.6924 32.1883 23.682 32.1632C23.6716 32.1381 23.6697 32.1102 23.6766 32.0839L23.9453 31.1866C22.9635 31.2098 21.9813 31.1536 21.0085 31.0186C20.9865 31.0153 20.9659 31.0058 20.949 30.9914C20.932 30.977 20.9194 30.9582 20.9125 30.937L20.7686 30.5244C20.3006 30.9715 19.7381 31.3077 19.1226 31.5081C18.7942 31.6079 18.4437 31.6093 18.1145 31.512C17.7853 31.4148 17.4918 31.2233 17.2703 30.961C17.0757 31.1295 16.8415 31.2456 16.5896 31.2985C16.3378 31.3513 16.0766 31.3393 15.8307 31.2634C15.8047 31.2539 15.7825 31.236 15.7677 31.2126C15.7529 31.1891 15.7464 31.1614 15.7491 31.1338C15.7828 30.9114 15.8935 30.7079 16.0619 30.5588C16.2303 30.4097 16.4457 30.3245 16.6705 30.318C16.6866 30.3165 16.7029 30.3186 16.7181 30.3241C16.7333 30.3296 16.7471 30.3384 16.7586 30.3499C16.77 30.3613 16.7788 30.3752 16.7843 30.3904C16.7898 30.4056 16.7919 30.4219 16.7905 30.438C16.7905 30.4698 16.7778 30.5003 16.7553 30.5228C16.7328 30.5453 16.7023 30.558 16.6705 30.558C16.5221 30.5674 16.3798 30.6208 16.2619 30.7114C16.1439 30.802 16.0556 30.9256 16.0083 31.0666C16.2242 31.1149 16.4491 31.1057 16.6604 31.04C16.8717 30.9743 17.0622 30.8545 17.2127 30.6923C17.2251 30.6782 17.2408 30.6673 17.2584 30.6606C17.2759 30.6539 17.2949 30.6516 17.3135 30.6539C17.3325 30.6566 17.3506 30.6637 17.3664 30.6745C17.3822 30.6853 17.3953 30.6996 17.4047 30.7163C17.5872 30.974 17.8467 31.1672 18.1459 31.2681C18.4451 31.369 18.7686 31.3724 19.0698 31.2778C19.7021 31.0558 20.2785 30.6988 20.759 30.2316C20.7759 30.2224 20.7949 30.2176 20.8142 30.2176C20.8335 30.2176 20.8524 30.2224 20.8694 30.2316C20.8882 30.2368 20.9054 30.2465 20.9197 30.2599C20.9339 30.2733 20.9446 30.2899 20.9509 30.3084L21.1237 30.8171C22.1146 30.9474 23.1143 30.9988 24.1133 30.9706C24.1316 30.9697 24.1498 30.9731 24.1665 30.9806C24.1832 30.9881 24.1978 30.9995 24.2092 31.0138C24.2185 31.0308 24.2233 31.0497 24.2233 31.069C24.2233 31.0883 24.2185 31.1073 24.2092 31.1242L24.0557 31.6473L25.097 30.4476C25.1622 30.3632 25.2482 30.297 25.3465 30.2556C25.6441 30.1597 25.8264 30.4524 25.9752 30.6635C25.998 30.7037 26.0236 30.7422 26.0519 30.7787C26.202 30.9476 26.4014 31.0649 26.622 31.114C26.8425 31.1631 27.0729 31.1415 27.2804 31.0522C27.7229 30.8498 28.1172 30.5553 28.4369 30.1885C28.4531 30.1744 28.4725 30.1645 28.4934 30.1595C28.5143 30.1545 28.536 30.1545 28.5569 30.1597C28.578 30.1665 28.5969 30.1791 28.6113 30.1961C28.6257 30.213 28.6351 30.2336 28.6384 30.2556C28.7574 30.9206 28.7833 31.599 28.7152 32.2711L29.7613 31.1194C29.994 30.8182 30.3042 30.5859 30.6587 30.4476C31.1036 30.3668 31.5628 30.4307 31.9687 30.6299C32.3355 30.8178 32.7557 30.8737 33.1588 30.7883C33.1887 30.7775 33.2217 30.779 33.2505 30.7925C33.2793 30.806 33.3015 30.8304 33.3124 30.8603C33.3219 30.8902 33.3198 30.9227 33.3065 30.9512C33.2931 30.9796 33.2695 31.002 33.2404 31.0138C32.7847 31.1222 32.3055 31.0661 31.8872 30.8555C31.7324 30.7518 31.5582 30.6804 31.3752 30.6457C31.1921 30.6111 31.004 30.6137 30.822 30.6536C30.64 30.6935 30.4679 30.7698 30.3162 30.8779C30.1644 30.986 30.0361 31.1236 29.9389 31.2826L28.6384 32.7222C28.6182 32.7346 28.595 32.7412 28.5713 32.7414Z" fill="#263238"/>
<path d="M42.2237 31.5993H42.0941C41.763 31.5177 41.6574 31.1914 41.5663 30.9035C41.5239 30.7292 41.4454 30.5657 41.3359 30.4236C40.553 31.043 39.5846 31.381 38.5863 31.3833C38.5548 31.3821 38.525 31.3691 38.5028 31.3469C38.4805 31.3246 38.4675 31.2948 38.4663 31.2634C38.4663 31.2316 38.4789 31.201 38.5014 31.1785C38.5239 31.156 38.5545 31.1434 38.5863 31.1434C39.557 31.1419 40.4969 30.8026 41.2447 30.1837C41.2655 30.1681 41.2908 30.1597 41.3167 30.1597C41.3427 30.1597 41.3679 30.1681 41.3887 30.1837C41.5919 30.3608 41.7303 30.6006 41.7822 30.8651C41.8782 31.1674 41.9502 31.3449 42.1373 31.3977C42.25 31.4152 42.3653 31.3984 42.4684 31.3497C42.915 31.2001 43.3346 30.9798 43.7113 30.6971C43.8165 30.6064 43.9389 30.5378 44.0712 30.4956C44.3009 30.4586 44.5363 30.5064 44.7334 30.6299L44.8486 30.6827C45.5348 30.985 46.2882 30.8219 47.08 30.6539C47.7782 30.4416 48.5177 30.4021 49.2346 30.5388C49.2653 30.5477 49.2914 30.5682 49.3075 30.5959C49.3236 30.6236 49.3284 30.6564 49.321 30.6875C49.3165 30.7026 49.3092 30.7168 49.2993 30.729C49.2895 30.7413 49.2773 30.7515 49.2635 30.7591C49.2497 30.7667 49.2345 30.7715 49.2188 30.7732C49.2032 30.7749 49.1873 30.7735 49.1722 30.7691C48.4909 30.647 47.7903 30.6882 47.1279 30.8891C46.3314 31.057 45.506 31.2346 44.7526 30.8891L44.6326 30.8363C44.4904 30.7438 44.322 30.7 44.1528 30.7115C44.0573 30.7433 43.9692 30.7939 43.8936 30.8603C43.491 31.162 43.0442 31.3999 42.5692 31.5657C42.4563 31.5936 42.3399 31.605 42.2237 31.5993Z" fill="#263238"/>
<path d="M15.0295 41.8207C14.8436 41.8209 14.6594 41.785 14.4872 41.7152C14.3218 41.6538 14.1816 41.539 14.0889 41.3888C13.825 40.909 14.3049 40.4291 14.7943 40.1316C14.8082 40.124 14.8234 40.1192 14.8391 40.1175C14.8548 40.1158 14.8707 40.1172 14.8859 40.1217C14.901 40.1261 14.9152 40.1335 14.9274 40.1435C14.9397 40.1534 14.9499 40.1657 14.9575 40.1796C14.9732 40.207 14.9775 40.2395 14.9694 40.27C14.9613 40.3006 14.9415 40.3267 14.9143 40.3427C14.5928 40.5251 14.1081 40.9234 14.3 41.2737C14.3675 41.3734 14.465 41.4491 14.5784 41.4896C15.087 41.7056 15.7397 41.528 16.4979 40.9714C17.036 40.5833 17.5372 40.1464 17.9951 39.6661C18.0192 39.6418 18.052 39.628 18.0862 39.6277C18.1029 39.6282 18.1192 39.6324 18.1342 39.6398C18.1491 39.6473 18.1622 39.6579 18.1726 39.6709C18.3006 39.8681 18.347 40.1072 18.3022 40.3379C18.2694 40.5031 18.3002 40.6745 18.3885 40.8178C18.4622 40.8717 18.5482 40.9066 18.6386 40.9191C18.7291 40.9317 18.8212 40.9216 18.9068 40.8898C19.629 40.7045 20.3151 40.3995 20.9366 39.9876C21.2054 39.8245 21.4837 39.6613 21.7668 39.5078C21.8493 39.4564 21.9433 39.4266 22.0403 39.4214C22.3475 39.4214 22.4386 39.7189 22.5202 39.954C22.5495 40.1056 22.6191 40.2466 22.7218 40.3619C22.8561 40.4723 23.0337 40.4099 23.3072 40.3043C23.4675 40.2282 23.6394 40.1795 23.8159 40.1604C24.0845 40.1682 24.3449 40.255 24.5645 40.4099L24.718 40.4963C24.9436 40.6115 25.2651 40.6882 25.433 40.4963C25.4555 40.4743 25.4856 40.462 25.517 40.462C25.5484 40.462 25.5786 40.4743 25.601 40.4963C25.6233 40.5195 25.6357 40.5505 25.6357 40.5827C25.6357 40.6149 25.6233 40.6458 25.601 40.669C25.4581 40.7772 25.2849 40.8378 25.1058 40.8421C24.9267 40.8464 24.7507 40.7942 24.6029 40.693L24.4397 40.6019C24.2604 40.4716 24.0469 40.3965 23.8255 40.3859C23.6761 40.4058 23.5305 40.4478 23.3936 40.5107C23.1249 40.6163 22.8225 40.741 22.5634 40.5107C22.4214 40.3655 22.3246 40.1821 22.2851 39.9828C22.2131 39.7333 22.1651 39.6277 22.0499 39.6229C21.99 39.6309 21.9326 39.6522 21.882 39.6853C21.6085 39.8245 21.3349 39.9876 21.0662 40.1652C20.4217 40.5936 19.7095 40.9099 18.9596 41.1009C18.834 41.1413 18.7001 41.1488 18.5707 41.1228C18.4413 41.0968 18.3208 41.038 18.2206 40.9522C18.1499 40.856 18.1002 40.7462 18.0745 40.6296C18.0489 40.5131 18.048 40.3925 18.0718 40.2756C18.0915 40.1532 18.0915 40.0284 18.0718 39.9061C17.6263 40.3498 17.1448 40.7559 16.6322 41.1201C16.1835 41.5142 15.6234 41.7591 15.0295 41.8207Z" fill="#263238"/>
<path d="M30.9181 41.8448C30.7354 41.8497 30.5543 41.8102 30.3902 41.7296C30.2386 41.6471 30.1147 41.5214 30.0345 41.3685C29.9542 41.2156 29.921 41.0424 29.9392 40.8706C29.9445 40.7525 29.9867 40.6389 30.0599 40.546C30.133 40.453 30.2335 40.3853 30.3471 40.3524C30.3619 40.348 30.3774 40.3467 30.3927 40.3485C30.4081 40.3502 30.4229 40.3551 30.4363 40.3627C30.4497 40.3703 30.4615 40.3805 30.4709 40.3928C30.4803 40.405 30.4871 40.419 30.491 40.4339C30.4954 40.4491 30.4968 40.4649 30.4951 40.4806C30.4934 40.4962 30.4886 40.5114 30.481 40.5252C30.4735 40.539 30.4632 40.5512 30.451 40.5611C30.4387 40.571 30.4246 40.5783 30.4094 40.5827C30.3431 40.6039 30.2852 40.6454 30.2438 40.7014C30.2025 40.7574 30.1798 40.825 30.1791 40.8946C30.1676 41.0172 30.1913 41.1406 30.2474 41.2502C30.3035 41.3599 30.3896 41.4512 30.4958 41.5137C30.7197 41.5827 30.9552 41.6064 31.1884 41.5834C31.4216 41.5603 31.6478 41.4909 31.8539 41.3793L34.3828 40.4196C34.4895 40.3712 34.6087 40.3578 34.7235 40.3812C34.7922 40.4076 34.8539 40.4495 34.9038 40.5036C34.9537 40.5576 34.9905 40.6225 35.0114 40.6931C35.0399 40.7607 35.0805 40.8225 35.1314 40.8754C35.2273 40.9522 35.3953 40.9186 35.6352 40.7795L37.6747 39.5606C37.7976 39.4689 37.9486 39.4231 38.1017 39.431C38.4185 39.479 38.4904 39.8053 38.548 40.0692C38.5621 40.1456 38.5813 40.221 38.6056 40.2948C38.7056 40.506 38.8769 40.6752 39.0893 40.7726C39.3017 40.87 39.5416 40.8894 39.7669 40.8274C40.2073 40.6943 40.6156 40.4722 40.9666 40.1748L41.0769 40.0932C41.2983 39.9034 41.5735 39.7876 41.8639 39.7621C42.0683 39.7808 42.2662 39.843 42.4446 39.9445H42.483C43.384 40.375 44.3642 40.6151 45.3622 40.6499C45.2932 40.5 45.2666 40.334 45.2854 40.17C45.3007 40.0092 45.3491 39.8533 45.4275 39.712C45.506 39.5708 45.6128 39.4474 45.7413 39.3494C45.9699 39.2086 46.2245 39.1152 46.49 39.0748C46.7554 39.0344 47.0263 39.0478 47.2865 39.1143C47.8179 39.2164 48.3246 39.4201 48.7789 39.7141L48.9324 39.8197C49.0805 39.9329 49.2416 40.0279 49.4123 40.1028C49.959 40.2193 50.5293 40.1413 51.0246 39.8821L51.4421 39.7285C52.8097 39.2823 54.2925 39.4838 55.5978 39.6566L60.7372 40.3476C60.7533 40.3487 60.7689 40.3532 60.7831 40.3607C60.7974 40.3682 60.8099 40.3787 60.8198 40.3913C60.8298 40.404 60.837 40.4186 60.8409 40.4342C60.8449 40.4498 60.8455 40.4661 60.8428 40.4819C60.838 40.513 60.8213 40.5409 60.7962 40.5598C60.771 40.5786 60.7395 40.5868 60.7084 40.5827L55.569 39.8965C54.283 39.7237 52.8289 39.527 51.5189 39.9589L51.1062 40.1028C50.7629 40.3444 50.3499 40.4667 49.9304 40.4511C49.5109 40.4355 49.1081 40.2828 48.7837 40.0165L48.6301 39.9157C48.2029 39.6369 47.7252 39.4446 47.2241 39.3494C46.996 39.2902 46.7584 39.2771 46.5252 39.3109C46.292 39.3447 46.0679 39.4247 45.866 39.5462C45.7651 39.6225 45.6813 39.7191 45.6201 39.8299C45.5589 39.9407 45.5217 40.0631 45.5109 40.1892C45.5008 40.2755 45.5093 40.363 45.5358 40.4458C45.5623 40.5285 45.6062 40.6047 45.6645 40.6691C45.6798 40.6866 45.6898 40.7081 45.6935 40.7311C45.6972 40.7541 45.6944 40.7776 45.6854 40.7991C45.6764 40.8205 45.6616 40.8391 45.6427 40.8526C45.6237 40.866 45.6013 40.874 45.5781 40.8754C44.4671 40.8692 43.3711 40.6185 42.3678 40.1412H42.3294C42.1827 40.0544 42.019 40.0004 41.8495 39.9829C41.6143 40.0133 41.3937 40.1136 41.2161 40.2708L41.1057 40.3476C40.7303 40.6693 40.2901 40.9066 39.8149 41.0434C39.5331 41.1173 39.2343 41.0895 38.971 40.9649C38.7076 40.8403 38.4967 40.6268 38.3753 40.362C38.3513 40.2852 38.3321 40.1988 38.3129 40.1172C38.2553 39.8485 38.2073 39.6854 38.0682 39.6662C37.9709 39.6702 37.8772 39.7036 37.7994 39.7621L35.7552 40.981C35.6304 41.053 35.2513 41.2785 34.9778 41.0578C34.8996 40.9832 34.8376 40.8933 34.7955 40.7938C34.7475 40.6883 34.7091 40.6211 34.6563 40.6067C34.5919 40.5985 34.5266 40.6102 34.4691 40.6403L31.9402 41.6C31.6161 41.7397 31.2703 41.8225 30.9181 41.8448Z" fill="#263238"/>
<path d="M66.4238 40.9571C66.3111 40.9609 66.1996 40.9326 66.1023 40.8755C66.037 40.8344 65.9835 40.7769 65.9473 40.7087C65.9111 40.6405 65.8934 40.564 65.896 40.4868C65.8962 40.4296 65.912 40.3735 65.9415 40.3245C65.9711 40.2755 66.0134 40.2354 66.0639 40.2085C66.0927 40.1948 66.1257 40.1926 66.156 40.2024C66.1864 40.2122 66.2118 40.2333 66.2271 40.2613C66.2408 40.2901 66.243 40.323 66.2332 40.3534C66.2234 40.3837 66.2023 40.4091 66.1743 40.4244C66.1609 40.4306 66.1499 40.4409 66.143 40.4539C66.136 40.4669 66.1336 40.4819 66.1359 40.4964C66.1356 40.53 66.1432 40.5632 66.1582 40.5933C66.1732 40.6233 66.1952 40.6493 66.2223 40.6692C66.377 40.7274 66.5475 40.7274 66.7022 40.6692C67.611 40.494 68.5097 40.2697 69.3942 39.9974C69.8357 39.863 70.354 39.8582 70.4931 40.2613C70.5073 40.3099 70.517 40.3597 70.5219 40.41C70.5262 40.4605 70.5409 40.5095 70.5651 40.554C70.6083 40.6116 70.7283 40.6164 70.8291 40.6164C72.1218 40.5821 73.4024 40.3573 74.6296 39.9494C74.6602 39.9392 74.6935 39.9416 74.7223 39.956C74.7511 39.9704 74.773 39.9956 74.7832 40.0262C74.7934 40.0567 74.791 40.09 74.7766 40.1188C74.7622 40.1476 74.7369 40.1695 74.7064 40.1797C73.4557 40.5939 72.1509 40.8219 70.8339 40.8563C70.7466 40.8711 70.6571 40.864 70.5733 40.8355C70.4895 40.807 70.4141 40.7581 70.354 40.6932C70.3024 40.6197 70.2725 40.5333 70.2676 40.4436C70.2642 40.4076 70.2562 40.3721 70.2436 40.3381C70.1381 40.0213 69.5142 40.2037 69.447 40.2277C68.5543 40.5011 67.6476 40.7269 66.731 40.9043C66.6305 40.9314 66.5276 40.9491 66.4238 40.9571Z" fill="#263238"/>
<path d="M10.8065 104.89C10.6235 104.893 10.4423 104.852 10.2787 104.77C10.127 104.687 10.0032 104.562 9.92289 104.409C9.8426 104.256 9.80944 104.083 9.8276 103.911C9.83148 103.792 9.87315 103.678 9.94652 103.585C10.0199 103.492 10.1211 103.424 10.2355 103.393C10.2512 103.387 10.2679 103.384 10.2847 103.385C10.3015 103.386 10.3179 103.39 10.3329 103.398C10.3479 103.405 10.3611 103.416 10.3717 103.429C10.3824 103.442 10.3901 103.457 10.3945 103.473C10.3989 103.489 10.3998 103.506 10.3973 103.523C10.3947 103.54 10.3886 103.555 10.3795 103.57C10.3704 103.584 10.3584 103.596 10.3444 103.605C10.3303 103.614 10.3145 103.62 10.2979 103.623C10.2316 103.644 10.1736 103.686 10.1323 103.742C10.0909 103.798 10.0683 103.865 10.0675 103.935C10.0562 104.058 10.08 104.182 10.136 104.292C10.192 104.403 10.2781 104.495 10.3842 104.559C10.8375 104.694 11.3259 104.644 11.7423 104.42L14.2712 103.46C14.3779 103.411 14.4971 103.398 14.6119 103.421C14.6806 103.448 14.7423 103.49 14.7922 103.544C14.8421 103.598 14.879 103.663 14.8998 103.733C14.9271 103.802 14.9679 103.864 15.0198 103.916C15.1158 103.992 15.2837 103.959 15.4997 103.82L17.5391 102.601C17.6637 102.513 17.8139 102.469 17.9662 102.476C18.2829 102.519 18.3549 102.846 18.4125 103.109C18.4266 103.186 18.4458 103.261 18.47 103.335C18.5723 103.543 18.7438 103.708 18.9549 103.803C19.166 103.897 19.4036 103.915 19.6265 103.853C20.0656 103.721 20.4725 103.498 20.8214 103.201L20.9366 103.119C21.1102 102.937 21.3428 102.822 21.5932 102.794C21.8435 102.767 22.0954 102.829 22.3042 102.97H22.3378C23.2393 103.4 24.2192 103.64 25.217 103.676C25.1507 103.525 25.1242 103.36 25.1402 103.196C25.1584 103.033 25.2105 102.876 25.2932 102.735C25.3758 102.593 25.4872 102.471 25.6201 102.375C25.8492 102.236 26.1038 102.143 26.3691 102.103C26.6344 102.062 26.905 102.075 27.1653 102.14C27.6967 102.242 28.2034 102.446 28.6577 102.74L28.8064 102.846C29.103 103.086 29.4702 103.222 29.8516 103.233C30.2331 103.245 30.6077 103.13 30.9179 102.908L31.3354 102.754C32.6982 102.313 34.1858 102.51 35.491 102.682L40.6304 103.373C40.6465 103.375 40.6621 103.379 40.6764 103.387C40.6906 103.394 40.7031 103.404 40.713 103.417C40.723 103.43 40.7302 103.444 40.7341 103.46C40.7381 103.476 40.7387 103.492 40.736 103.508C40.7302 103.538 40.7132 103.566 40.6883 103.584C40.6635 103.603 40.6326 103.611 40.6016 103.609L35.4478 102.97C34.1618 102.798 32.7078 102.606 31.3977 103.033L30.9851 103.177C30.4409 103.467 29.809 103.547 29.2095 103.402C29.0134 103.321 28.828 103.217 28.6577 103.09L28.5089 102.99C28.0807 102.713 27.6034 102.521 27.1029 102.423C26.8747 102.365 26.6373 102.353 26.4043 102.386C26.1712 102.42 25.9472 102.5 25.7449 102.62C25.6443 102.697 25.5608 102.793 25.4997 102.904C25.4386 103.015 25.4011 103.137 25.3898 103.263C25.3797 103.349 25.3882 103.437 25.4146 103.52C25.4411 103.602 25.485 103.678 25.5433 103.743C25.5586 103.76 25.5686 103.782 25.5723 103.805C25.576 103.828 25.5732 103.851 25.5642 103.873C25.5552 103.894 25.5404 103.913 25.5215 103.926C25.5025 103.94 25.4802 103.948 25.4569 103.949C24.346 103.942 23.2501 103.692 22.2466 103.215H22.2082C22.0606 103.13 21.8974 103.076 21.7284 103.057C21.4932 103.087 21.2725 103.187 21.0949 103.345L20.9846 103.426C20.6077 103.745 20.1678 103.98 19.6937 104.117C19.4119 104.191 19.1131 104.163 18.8498 104.039C18.5865 103.914 18.3755 103.701 18.2541 103.436C18.2301 103.359 18.2109 103.277 18.1917 103.191C18.1341 102.922 18.0862 102.759 17.947 102.74C17.8498 102.744 17.756 102.777 17.6783 102.836L15.634 104.055C15.5093 104.127 15.1541 104.357 14.8566 104.132C14.7775 104.058 14.7153 103.968 14.6743 103.868C14.6263 103.762 14.5927 103.695 14.5351 103.681C14.4708 103.675 14.4062 103.686 14.348 103.714L11.8143 104.674C11.4932 104.803 11.1523 104.876 10.8065 104.89Z" fill="#263238"/>
<path d="M46.312 103.978C46.1993 103.982 46.0878 103.954 45.9905 103.897C45.9251 103.855 45.8717 103.798 45.8355 103.73C45.7993 103.662 45.7816 103.585 45.7842 103.508C45.7844 103.451 45.8002 103.394 45.8297 103.345C45.8593 103.296 45.9016 103.256 45.9521 103.23C45.9809 103.216 46.0139 103.214 46.0442 103.223C46.0746 103.233 46.1 103.254 46.1153 103.282C46.129 103.311 46.1312 103.344 46.1214 103.374C46.1116 103.405 46.0905 103.43 46.0625 103.445C46.0491 103.452 46.0381 103.462 46.0311 103.475C46.0242 103.488 46.0217 103.503 46.0241 103.517C46.0233 103.551 46.0308 103.584 46.0458 103.615C46.0609 103.645 46.0831 103.671 46.1105 103.69C46.2652 103.748 46.4357 103.748 46.5904 103.69C47.4996 103.517 48.3983 103.292 49.2824 103.018C49.7239 102.884 50.2422 102.879 50.3813 103.282C50.3955 103.331 50.4052 103.381 50.4101 103.431C50.4144 103.482 50.4291 103.531 50.4533 103.575C50.4965 103.633 50.6165 103.637 50.7172 103.637C52.0035 103.601 53.2776 103.376 54.4986 102.97C54.5292 102.96 54.5625 102.963 54.5913 102.977C54.6201 102.991 54.642 103.017 54.6522 103.047C54.6624 103.078 54.66 103.111 54.6456 103.14C54.6312 103.169 54.6059 103.191 54.5754 103.201C53.3247 103.615 52.0199 103.843 50.7029 103.877C50.616 103.893 50.5266 103.887 50.4427 103.859C50.3589 103.832 50.2833 103.783 50.223 103.719C50.1706 103.644 50.1406 103.556 50.1366 103.465C50.1411 103.43 50.1411 103.394 50.1366 103.359C50.031 103.042 49.4072 103.225 49.3352 103.249C48.4441 103.522 47.5391 103.748 46.624 103.925C46.522 103.953 46.4175 103.971 46.312 103.978Z" fill="#263238"/>
<path d="M37.1131 46.5231C36.6177 46.5385 36.1314 46.3882 35.7311 46.096C35.5571 45.9596 35.416 45.7857 35.3184 45.5874C35.1904 45.686 35.0458 45.7608 34.8913 45.8081C34.5234 45.8882 34.1427 45.889 33.7744 45.8104C33.4062 45.7318 33.059 45.5756 32.7559 45.3522C32.6815 45.292 32.5917 45.2538 32.4967 45.2419C32.3856 45.2658 32.2858 45.3267 32.2136 45.4146L31.8777 45.7313C31.7491 45.8537 31.5923 45.9424 31.4212 45.9897C31.2501 46.037 31.07 46.0414 30.8968 46.0025C30.7236 45.9636 30.5627 45.8826 30.4283 45.7667C30.2939 45.6507 30.1901 45.5034 30.1262 45.3378L29.9726 44.9491C28.4863 45.489 26.8829 45.6232 25.3275 45.3378C24.7611 45.6564 24.1388 45.8633 23.4944 45.9473C23.4762 45.9491 23.4578 45.9471 23.4404 45.9413C23.423 45.9355 23.4071 45.9261 23.3936 45.9137C23.3812 45.901 23.3714 45.886 23.3648 45.8695C23.3582 45.853 23.355 45.8354 23.3552 45.8177C23.3832 45.4969 23.3218 45.1747 23.1777 44.8868C22.5531 45.1667 21.8556 45.2406 21.1862 45.0979L21.0518 45.0691C20.9085 45.0264 20.7599 45.0038 20.6104 45.0019C20.3816 45.0301 20.162 45.1088 19.9673 45.2323L19.737 45.3618C19.2968 45.6441 18.809 45.8441 18.2974 45.9521C18.0052 46.0122 17.7018 45.9861 17.4241 45.8771C17.1463 45.7681 16.9063 45.5807 16.733 45.3378C16.4373 45.5807 16.0588 45.6994 15.6773 45.6689C15.5414 45.6393 15.4165 45.5725 15.3165 45.4759C15.2164 45.3792 15.1453 45.2567 15.1111 45.1219C15.08 45.0283 15.0786 44.9274 15.1069 44.833C15.1352 44.7385 15.192 44.6551 15.2694 44.594C15.2924 44.5731 15.3223 44.5615 15.3534 44.5615C15.3845 44.5615 15.4144 44.5731 15.4374 44.594C15.4556 44.6206 15.4632 44.6531 15.4588 44.685C15.4544 44.717 15.4382 44.7461 15.4134 44.7668C15.3758 44.8013 15.3489 44.8459 15.3362 44.8953C15.3234 44.9447 15.3252 44.9967 15.3414 45.0451C15.3647 45.1347 15.4118 45.2164 15.4776 45.2814C15.5435 45.3465 15.6258 45.3925 15.7157 45.4146C16.0813 45.4194 16.4355 45.2876 16.709 45.0451C16.7249 45.0381 16.7421 45.0345 16.7594 45.0345C16.7768 45.0345 16.7939 45.0381 16.8098 45.0451C16.8438 45.0581 16.8714 45.084 16.8866 45.1171C17.0224 45.3494 17.2285 45.5327 17.4751 45.6405C17.7217 45.7483 17.9962 45.775 18.259 45.7169C18.7363 45.6075 19.191 45.4159 19.6026 45.1507L19.833 45.0211C20.0587 44.8771 20.3152 44.7883 20.5816 44.762C20.7536 44.7631 20.9247 44.7873 21.0902 44.834L21.215 44.8628C21.8719 45.0021 22.5566 44.9159 23.1585 44.618C23.1863 44.6063 23.2174 44.6047 23.2463 44.6134C23.2752 44.6222 23.3002 44.6408 23.3168 44.666C23.4932 44.9778 23.5858 45.3299 23.5856 45.6881C24.1634 45.5963 24.7196 45.3995 25.2267 45.1075C25.2531 45.098 25.2819 45.098 25.3083 45.1075C26.8729 45.4047 28.4892 45.2618 29.9774 44.6948C30.008 44.6838 30.0416 44.6852 30.0712 44.6986C30.1008 44.7121 30.1239 44.7365 30.1358 44.7668L30.3325 45.2467C30.3824 45.3748 30.4629 45.4887 30.5671 45.5784C30.6712 45.6681 30.7958 45.7309 30.9299 45.7612C31.064 45.7915 31.2035 45.7885 31.3361 45.7523C31.4687 45.7161 31.5904 45.648 31.6906 45.5538L32.0313 45.2323C32.1442 45.1019 32.3015 45.0181 32.4727 44.9971C32.6134 45.0068 32.7484 45.0568 32.8614 45.1411C33.1343 45.3417 33.4455 45.4841 33.7757 45.5592C34.106 45.6343 34.4481 45.6406 34.7809 45.5778C34.9282 45.5284 35.0649 45.4519 35.184 45.3522C35.132 45.1975 35.1045 45.0356 35.1024 44.8723C35.0922 44.6904 35.1252 44.5087 35.1986 44.3419C35.2719 44.1751 35.3837 44.028 35.5247 43.9126C35.5525 43.8927 35.5868 43.8841 35.6207 43.8886C35.6366 43.8913 35.6517 43.8974 35.6649 43.9065C35.6782 43.9156 35.6893 43.9275 35.6975 43.9414C35.7863 44.0833 35.8404 44.2442 35.8554 44.411C35.8704 44.5777 35.8459 44.7456 35.7839 44.9011C35.7115 45.0904 35.6022 45.2633 35.4623 45.4098C35.5503 45.5967 35.68 45.7609 35.8414 45.8897C36.1516 46.0837 36.5005 46.2075 36.8636 46.2523C37.2267 46.297 37.5953 46.2617 37.9433 46.1488C38.3086 46.0489 38.6675 45.9271 39.0182 45.7841C39.9309 45.4014 40.9078 45.1946 41.8974 45.1747C42.3721 45.149 42.8449 45.0945 43.313 45.0115L43.8649 44.8868C44.6662 44.6948 45.4916 44.5029 46.221 44.8868C46.2353 44.8939 46.248 44.9038 46.2585 44.9159C46.2689 44.928 46.2768 44.942 46.2817 44.9572C46.2866 44.9724 46.2885 44.9884 46.2871 45.0044C46.2858 45.0203 46.2812 45.0358 46.2738 45.0499C46.2663 45.0638 46.2561 45.0761 46.2438 45.086C46.2315 45.0959 46.2174 45.1033 46.2022 45.1078C46.187 45.1123 46.1711 45.1137 46.1554 45.112C46.1397 45.1103 46.1245 45.1055 46.1106 45.0979C45.4628 44.7572 44.671 44.9395 43.9224 45.1219L43.361 45.2467C42.8845 45.3283 42.4039 45.3844 41.9214 45.4146C41.3465 45.4435 40.775 45.5205 40.213 45.6449C39.8484 45.747 39.4896 45.8688 39.1381 46.0096C38.7776 46.1552 38.4091 46.2801 38.0344 46.3839C37.7339 46.4665 37.4246 46.5132 37.1131 46.5231ZM35.6063 44.2101C35.4527 44.3922 35.3724 44.6248 35.3808 44.8628C35.3801 44.9597 35.3914 45.0564 35.4143 45.1507C35.4907 45.0514 35.5521 44.9414 35.5967 44.8244C35.6717 44.627 35.675 44.4097 35.6063 44.2101Z" fill="#263238"/>
<path d="M54.8345 46.1057C54.6933 46.1057 54.5522 46.096 54.4122 46.0769C54.38 46.0718 54.3508 46.0546 54.3307 46.0289C54.3238 46.0147 54.3203 45.9991 54.3203 45.9833C54.3203 45.9676 54.3238 45.952 54.3307 45.9377C54.3684 45.7218 54.3552 45.4999 54.2923 45.2899C53.0229 45.8204 51.6226 45.9543 50.2758 45.6738C50.2562 45.6707 50.2379 45.6623 50.2227 45.6496C50.2075 45.637 50.196 45.6205 50.1894 45.6018C50.1801 45.5849 50.1753 45.5659 50.1753 45.5467C50.1753 45.5274 50.1801 45.5084 50.1894 45.4915L50.5541 44.9588C50.5623 44.9456 50.5732 44.9342 50.586 44.9253C50.5988 44.9165 50.6132 44.9103 50.6285 44.9071C50.6437 44.904 50.6595 44.904 50.6747 44.9071C50.69 44.9102 50.7044 44.9164 50.7172 44.9252C50.7306 44.9339 50.7421 44.9452 50.751 44.9584C50.7599 44.9716 50.7662 44.9865 50.7693 45.0021C50.7724 45.0178 50.7724 45.0339 50.7692 45.0495C50.7661 45.0651 50.7598 45.08 50.7508 45.0932L50.4869 45.4771C51.774 45.7077 53.1007 45.549 54.2971 45.0212C54.312 45.014 54.3284 45.0102 54.3451 45.0102C54.3617 45.0102 54.3781 45.014 54.393 45.0212C54.4228 45.0323 54.447 45.0547 54.4602 45.0836C54.5572 45.3288 54.5934 45.5939 54.5658 45.8562C55.6311 45.9569 56.6484 45.4099 57.6274 44.8964C57.9105 44.7429 58.1984 44.5845 58.4863 44.4453C58.6398 44.3511 58.8226 44.3169 58.9998 44.3494C59.18 44.4235 59.3245 44.5645 59.4029 44.7429C59.424 44.7845 59.4481 44.8246 59.4749 44.8628C59.854 45.4339 60.7273 45.4195 61.3943 45.3091C61.604 45.2639 61.8197 45.2542 62.0326 45.2803C62.1878 45.3193 62.3365 45.3807 62.474 45.4627L62.618 45.5347C63.4146 45.9185 64.4511 45.789 65.79 45.1412C66.4282 44.8292 67.1624 44.5317 67.7334 44.9252C67.7484 44.9331 67.7617 44.944 67.7722 44.9573C67.7826 44.9706 67.7902 44.986 67.7943 45.0024C67.7984 45.0189 67.799 45.036 67.7961 45.0527C67.7931 45.0694 67.7866 45.0853 67.777 45.0993C67.7675 45.1133 67.7551 45.1251 67.7406 45.1339C67.7261 45.1428 67.71 45.1485 67.6931 45.1506C67.6763 45.1527 67.6592 45.1513 67.643 45.1464C67.6268 45.1414 67.6118 45.1331 67.5991 45.122C67.1192 44.8005 66.4714 45.074 65.8907 45.3571C64.4847 46.0385 63.381 46.1681 62.5316 45.7506L62.3829 45.6738C62.2651 45.6058 62.1394 45.5526 62.0086 45.5155C61.8324 45.4924 61.6534 45.5022 61.4807 45.5443C60.401 45.7218 59.6572 45.5443 59.2973 44.9972L59.2157 44.8676C59.139 44.7381 59.067 44.6133 58.9566 44.5797C58.837 44.5665 58.7165 44.5954 58.6159 44.6613C58.3328 44.8005 58.0449 44.954 57.7665 45.1076C56.8116 45.5874 55.8614 46.1057 54.8345 46.1057Z" fill="#263238"/>
<path d="M14.5928 55.8089H14.4776C14.3276 55.7654 14.1957 55.6747 14.1014 55.5502C14.0072 55.4257 13.9557 55.274 13.9546 55.1178C13.9637 54.8403 14.0342 54.5683 14.1609 54.3213C14.1672 54.3067 14.1763 54.2936 14.1876 54.2826C14.199 54.2716 14.2124 54.2629 14.2271 54.2571C14.2418 54.2513 14.2576 54.2485 14.2734 54.2488C14.2892 54.2491 14.3048 54.2525 14.3193 54.2589C14.3478 54.2725 14.3701 54.2964 14.3817 54.3258C14.3933 54.3552 14.3933 54.3879 14.3817 54.4172C14.2701 54.6313 14.2062 54.8671 14.1945 55.1082C14.1894 55.2135 14.219 55.3175 14.2788 55.4042C14.3387 55.491 14.4254 55.5556 14.5256 55.5881C14.6532 55.6009 14.7817 55.5759 14.8951 55.5161C15.3936 55.313 15.8386 54.9977 16.1956 54.5948C16.2108 54.5761 16.2313 54.5625 16.2544 54.5556C16.2776 54.5488 16.3022 54.549 16.3251 54.5564C16.5267 54.6236 16.5555 54.8251 16.5843 54.9883C16.588 55.0782 16.6144 55.1657 16.6611 55.2426C16.7282 55.3146 16.8674 55.3194 17.0833 55.2426C17.826 55.0063 18.5522 54.721 19.2571 54.3884C19.4737 54.2742 19.7241 54.2418 19.9626 54.2973C20.0118 54.3155 20.0569 54.3436 20.0948 54.3799C20.1328 54.4163 20.1629 54.46 20.1833 54.5084C20.2117 54.5884 20.2248 54.6731 20.2217 54.7579C20.2154 54.8191 20.2271 54.8808 20.2553 54.9355C20.2985 54.9835 20.3992 54.9883 20.5672 54.9355L22.4867 54.4124C22.8737 54.2641 23.2953 54.2308 23.7007 54.3165C23.827 54.3576 23.9434 54.4244 24.0425 54.5128C24.1416 54.6012 24.2213 54.7092 24.2766 54.8299C24.338 54.9652 24.3532 55.117 24.3198 55.2618C24.6334 55.381 24.9707 55.4244 25.3042 55.3885C25.6378 55.3527 25.9581 55.2385 26.2392 55.0555C26.2524 55.0465 26.2673 55.0402 26.2829 55.0371C26.2985 55.0339 26.3146 55.0339 26.3303 55.037C26.3459 55.0401 26.3608 55.0463 26.374 55.0553C26.3872 55.0642 26.3985 55.0757 26.4072 55.0891C26.4241 55.1161 26.43 55.1485 26.4238 55.1797C26.4175 55.2109 26.3996 55.2386 26.3736 55.257C26.0452 55.4685 25.6696 55.5954 25.2802 55.6264C24.8909 55.6574 24.4999 55.5915 24.1422 55.4346C24.127 55.4295 24.1134 55.4206 24.1025 55.4089C24.0916 55.3972 24.0838 55.3829 24.0798 55.3674C24.0727 55.3533 24.0689 55.3376 24.0689 55.3218C24.0689 55.306 24.0727 55.2903 24.0798 55.2762C24.1052 55.2213 24.1184 55.1615 24.1184 55.1011C24.1184 55.0406 24.1052 54.9808 24.0798 54.9259C24.038 54.8371 23.9786 54.7577 23.9052 54.6925C23.8318 54.6273 23.7459 54.5778 23.6528 54.5468C23.2908 54.4796 22.9174 54.5128 22.573 54.6428L20.6536 55.1706C20.5576 55.1706 20.2553 55.281 20.0921 55.0795C20.0259 54.986 19.9953 54.872 20.0057 54.7579C20.0145 54.7055 20.0145 54.652 20.0057 54.5996C19.9888 54.561 19.958 54.5301 19.9194 54.5132C19.7413 54.4812 19.5576 54.5135 19.4011 54.6044C18.686 54.9389 17.9503 55.2274 17.1985 55.4682C17.0833 55.5017 16.7186 55.6169 16.5267 55.3866C16.4445 55.2782 16.3961 55.148 16.3875 55.0123C16.3814 54.9467 16.3669 54.8822 16.3443 54.8203C15.977 55.2144 15.5284 55.5239 15.0295 55.7273C14.8912 55.7846 14.7425 55.8124 14.5928 55.8089Z" fill="#263238"/>
<path d="M31.7001 56.7829C31.5777 56.8001 31.4533 56.7733 31.3487 56.7074C31.2442 56.6416 31.1664 56.5408 31.129 56.423C31.0941 56.238 31.0969 56.0479 31.1373 55.864C31.1777 55.6801 31.2549 55.5062 31.3642 55.3529C31.0078 55.4921 30.6287 55.5637 30.2461 55.5641C30.0309 55.5829 29.8145 55.5445 29.6189 55.4526C29.4234 55.3607 29.2557 55.2187 29.1328 55.041C29.0718 54.9197 29.0466 54.7835 29.0602 54.6484C29.0738 54.5132 29.1256 54.3848 29.2096 54.278C29.2642 54.192 29.3449 54.1257 29.4398 54.0886C29.5347 54.0515 29.6389 54.0456 29.7374 54.0717C29.7682 54.0807 29.7943 54.1011 29.8103 54.1288C29.8264 54.1565 29.8312 54.1893 29.8238 54.2204C29.8199 54.236 29.8129 54.2506 29.8033 54.2634C29.7936 54.2762 29.7815 54.287 29.7677 54.295C29.7538 54.3031 29.7385 54.3083 29.7225 54.3103C29.7066 54.3123 29.6905 54.3111 29.675 54.3068C29.6227 54.2968 29.5685 54.303 29.5197 54.3244C29.4708 54.3458 29.4296 54.3815 29.4015 54.4268C29.3495 54.4941 29.3164 54.574 29.3054 54.6583C29.2944 54.7426 29.3061 54.8283 29.3391 54.9066C29.4473 55.0425 29.5867 55.1501 29.7454 55.2203C29.9042 55.2905 30.0777 55.3212 30.2509 55.3097H30.2797C30.7796 55.308 31.2694 55.1685 31.6953 54.9066C31.8354 54.7623 31.9973 54.6408 32.1752 54.5467C32.201 54.5334 32.2309 54.53 32.2592 54.537C32.2874 54.5441 32.3121 54.5612 32.3287 54.5851C32.347 54.6075 32.3571 54.6354 32.3571 54.6643C32.3571 54.6932 32.347 54.7212 32.3287 54.7435C32.181 54.8761 32.0202 54.9935 31.8488 55.0938C31.6813 55.2511 31.5512 55.444 31.4682 55.6583C31.3851 55.8726 31.3512 56.1027 31.369 56.3319C31.4218 56.495 31.5849 56.5574 31.8488 56.5142C32.7316 56.1754 33.5448 55.6777 34.2482 55.0458L34.7761 54.6283C34.7974 54.6141 34.8224 54.6065 34.848 54.6065C34.8737 54.6065 34.8987 54.6141 34.92 54.6283C34.9418 54.6422 34.958 54.6632 34.9659 54.6877C34.9738 54.7122 34.9728 54.7388 34.9632 54.7627L34.7089 55.5449C35.8789 55.4549 36.9984 55.0301 37.9336 54.3212C37.959 54.3021 37.991 54.2939 38.0225 54.2984C38.054 54.3029 38.0825 54.3197 38.1015 54.3452C38.1206 54.3707 38.1288 54.4027 38.1243 54.4342C38.1198 54.4657 38.103 54.4941 38.0776 54.5132C37.7507 54.77 37.5179 55.1277 37.4153 55.5305L40.4289 54.8299C40.502 54.8045 40.5798 54.7952 40.6568 54.8027C40.7338 54.8102 40.8083 54.8342 40.8752 54.8731C40.9705 54.9607 41.0302 55.0802 41.0432 55.209C41.0409 55.2377 41.0409 55.2666 41.0432 55.2953C41.1871 55.828 42.0029 55.8472 42.3628 55.828C42.9778 55.8367 43.5877 55.7157 44.1527 55.4729C44.5461 55.3141 44.9482 55.1779 45.3572 55.065C45.4079 55.056 45.4601 55.06 45.5088 55.0768C45.5575 55.0936 45.6011 55.1226 45.6355 55.161C45.7363 55.2905 45.6739 55.4873 45.6067 55.6936C45.5395 55.9 45.4963 56.0439 45.5539 56.0967C45.6115 56.1495 45.6739 56.1831 46.1586 56.0247L48.7451 54.5036C49.0129 54.3104 49.3316 54.2003 49.6616 54.1868C49.875 54.2251 50.0785 54.3061 50.2599 54.4248C50.4413 54.5435 50.5969 54.6976 50.7173 54.8779L50.7653 54.9402C50.9579 55.2349 51.231 55.4681 51.5523 55.6121C51.6487 55.6381 51.7499 55.6408 51.8475 55.6199C51.9451 55.5991 52.0364 55.5552 52.1137 55.4921C52.1596 55.458 52.196 55.4128 52.2195 55.3608C52.243 55.3087 52.2529 55.2515 52.2481 55.1946C52.2432 55.1674 52.2483 55.1393 52.2624 55.1155C52.2765 55.0917 52.2987 55.0738 52.3249 55.065C52.3514 55.0573 52.3796 55.0583 52.4055 55.0678C52.4314 55.0773 52.4536 55.0948 52.4688 55.1178C52.6729 55.442 52.9708 55.6965 53.323 55.8472C53.5677 55.804 53.6829 55.5401 53.8029 55.233C53.8481 55.0663 53.9279 54.9109 54.037 54.777C54.1461 54.6431 54.2822 54.5336 54.4363 54.4556C54.6644 54.3991 54.9045 54.4159 55.1225 54.5036C58.2417 55.3241 61.6343 54.9834 64.6239 54.6331C64.6397 54.6311 64.6557 54.6323 64.6711 54.6365C64.6864 54.6407 64.7007 54.648 64.7132 54.6578C64.7257 54.6676 64.7361 54.6798 64.7439 54.6937C64.7516 54.7076 64.7565 54.7229 64.7583 54.7387C64.7611 54.7703 64.7517 54.8018 64.7321 54.8268C64.7125 54.8517 64.6841 54.8683 64.6527 54.8731C61.6391 55.1994 58.2225 55.5689 55.0553 54.7387C54.8816 54.6698 54.6914 54.6531 54.5083 54.6907C54.2636 54.7723 54.1436 55.0458 54.0284 55.3385C53.9133 55.6313 53.7117 56.0583 53.3134 56.1015C53.295 56.109 53.2743 56.109 53.2558 56.1015C52.9319 55.9697 52.6452 55.7604 52.4209 55.4921C52.382 55.5704 52.3262 55.6393 52.2577 55.6936C52.1504 55.7841 52.0225 55.8468 51.8852 55.8761C51.748 55.9054 51.6056 55.9004 51.4707 55.8616C51.1033 55.7032 50.7899 55.4415 50.5686 55.1082L50.5206 55.0506C50.4224 54.896 50.294 54.7627 50.1431 54.6589C49.9922 54.555 49.8219 54.4826 49.6424 54.446C49.3578 54.4604 49.084 54.5589 48.8554 54.7291L46.2497 56.2647C45.7699 56.4182 45.5107 56.423 45.3716 56.2887C45.2324 56.1543 45.2996 55.8712 45.3716 55.6408C45.4004 55.5449 45.458 55.3673 45.434 55.3241H45.3812C44.99 55.4347 44.6054 55.5677 44.2295 55.7224C43.6406 55.9714 43.0069 56.0971 42.3676 56.0919C41.5086 56.1351 40.928 55.876 40.8032 55.3817C40.793 55.3487 40.7849 55.315 40.7792 55.2809C40.7732 55.2108 40.7465 55.144 40.7024 55.089C40.6497 55.0506 40.5489 55.089 40.4577 55.089L37.257 55.828C37.2377 55.8332 37.2173 55.8333 37.198 55.8282C37.1786 55.8232 37.1609 55.8132 37.1466 55.7992C37.1318 55.7864 37.1208 55.7698 37.1148 55.7512C37.1089 55.7325 37.1083 55.7126 37.113 55.6936C37.152 55.4429 37.2383 55.2019 37.3673 54.9834C36.4995 55.4757 35.5279 55.7568 34.5313 55.804C34.5119 55.8048 34.4926 55.8008 34.475 55.7924C34.4575 55.7841 34.4422 55.7716 34.4305 55.756C34.4213 55.7391 34.4165 55.7201 34.4165 55.7008C34.4165 55.6815 34.4213 55.6626 34.4305 55.6457L34.6177 55.0746L34.4018 55.2474C33.6787 55.8964 32.8427 56.4071 31.9352 56.7542C31.858 56.7718 31.7793 56.7815 31.7001 56.7829Z" fill="#263238"/>
</svg>
