<svg width="230" height="230" viewBox="0 0 230 230" fill="none" xmlns="http://www.w3.org/2000/svg">
<path d="M25.0547 127.233C25.0547 121.397 26.6525 118.359 29.6907 116.04L123.076 154.577C118.359 168.968 122.289 181.952 126.993 185.598L31.6107 142.024C28.9056 139.907 25.0547 134.669 25.0547 127.233Z" fill="white"/>
<path fill-rule="evenodd" clip-rule="evenodd" d="M27.5104 113.183C28.527 112.407 29.8794 112.23 31.0615 112.718L124.447 151.255C126.185 151.972 127.077 153.909 126.491 155.696C124.322 162.313 124.16 168.555 125.039 173.486C125.953 178.611 127.865 181.727 129.195 182.758C130.637 183.875 131.013 185.897 130.069 187.458C129.124 189.019 127.16 189.625 125.5 188.867L30.1175 145.293C29.8605 145.176 29.6183 145.029 29.3959 144.855C25.9315 142.143 21.4609 135.908 21.4609 127.233C21.4609 124.006 21.8996 121.254 22.9416 118.876C24.0073 116.443 25.5973 114.643 27.5104 113.183ZM31.6107 142.024C28.9056 139.907 25.0547 134.669 25.0547 127.233C25.0547 121.397 26.6525 118.359 29.6907 116.04L123.076 154.577C119.797 164.579 120.696 173.902 123.128 179.882C124.196 182.506 125.559 184.486 126.993 185.598L31.6107 142.024Z" fill="#F2C94C"/>
<path d="M204.945 79.3346L114.615 44.4023L29.2256 116.384L127.318 157.667L204.945 79.3346Z" fill="#F2C94C"/>
<path fill-rule="evenodd" clip-rule="evenodd" d="M112.299 41.6547C113.303 40.8087 114.688 40.5772 115.912 41.0506L206.242 75.9828C207.372 76.4201 208.207 77.3982 208.46 78.5839C208.713 79.7696 208.351 81.0031 207.498 81.8643L129.871 160.197C128.838 161.239 127.276 161.549 125.924 160.98L27.8316 119.696C26.6787 119.211 25.861 118.161 25.6728 116.925C25.4846 115.688 25.953 114.442 26.9094 113.636L112.299 41.6547ZM114.616 44.4024L204.945 79.3346L127.318 157.668L29.2256 116.384L114.616 44.4024Z" fill="#F2C94C"/>
<path d="M153.298 87.5371L113.801 72.0264L106.22 78.5315L145.382 94.9326L153.298 87.5371Z" fill="white"/>
<path d="M204.866 106.125C196.231 99.0897 197.831 87.8165 204.467 79.5015L123.714 155.776C118.758 167.688 122.78 179.206 127.073 185.558L204.866 106.125Z" fill="white"/>
<path fill-rule="evenodd" clip-rule="evenodd" d="M206.9 76.8567C208.288 78.1342 208.453 80.2683 207.276 81.7432C204.332 85.431 202.652 89.6031 202.532 93.4068C202.415 97.0892 203.737 100.569 207.136 103.339C207.92 103.978 208.398 104.916 208.454 105.924C208.511 106.933 208.141 107.918 207.434 108.64L129.641 188.072C128.886 188.843 127.824 189.234 126.749 189.137C125.674 189.04 124.7 188.464 124.096 187.57C119.376 180.588 114.826 167.782 120.396 154.395C120.59 153.929 120.88 153.509 121.247 153.163L201.999 76.8889C203.371 75.5932 205.511 75.5791 206.9 76.8567ZM204.467 79.5015L123.714 155.776C119.504 165.894 121.772 175.728 125.182 182.353C125.786 183.527 126.427 184.601 127.073 185.558L204.866 106.125C203.98 105.403 203.201 104.636 202.525 103.832C198.936 99.5672 198.226 94.264 199.553 89.0857C200.413 85.7334 202.127 82.4335 204.467 79.5015Z" fill="#F2C94C"/>
<path fill-rule="evenodd" clip-rule="evenodd" d="M199.841 105.196C200.532 105.909 200.513 107.047 199.8 107.737L144.793 160.985C144.08 161.675 142.943 161.657 142.252 160.944C141.562 160.231 141.581 159.093 142.294 158.403L197.301 105.155C198.014 104.465 199.151 104.483 199.841 105.196Z" fill="#F2C94C"/>
<path fill-rule="evenodd" clip-rule="evenodd" d="M196.669 100.747C197.344 101.474 197.302 102.611 196.574 103.286L161.076 136.226C160.348 136.901 159.211 136.859 158.536 136.131C157.861 135.404 157.904 134.267 158.631 133.592L194.13 100.652C194.857 99.9766 195.994 100.019 196.669 100.747Z" fill="#F2C94C"/>
<path fill-rule="evenodd" clip-rule="evenodd" d="M44.4946 137.224C44.8832 136.311 45.9385 135.886 46.8516 136.274L81.0852 150.845C81.9983 151.234 82.4235 152.289 82.0348 153.202C81.6462 154.115 80.5909 154.54 79.6778 154.152L45.4442 139.581C44.5311 139.192 44.1059 138.137 44.4946 137.224Z" fill="#F2C94C"/>
</svg>
